<?xml version="1.0" standalone="no"?>
 <!DOCTYPE svg PUBLIC "-//W3C//DTD SVG 1.1//EN" 
 "http://www.w3.org/Graphics/SVG/1.1/DTD/svg11.dtd"> 
<svg
  xmlns:svg="http://www.w3.org/2000/svg"
  xmlns="http://www.w3.org/2000/svg"
  xmlns:xlink="http://www.w3.org/1999/xlink"
  version="1.1"
  width="297.002200mm" height="210.007200mm" viewBox="0.000000 0.000000 297.002200 210.007200">
<title>SVG Image created as MiniDiv-F_Cu.svg date 2024/09/09 02:13:43 </title>
  <desc>Image generated by PCBNEW </desc>
<g style="fill:#000000; fill-opacity:1.000000;stroke:#000000; stroke-opacity:1.000000;
stroke-linecap:round; stroke-linejoin:round;"
 transform="translate(0 0) scale(1 1)">
<path style="fill:#000000; fill-opacity:1.000000; stroke:none;fill-rule:evenodd;"
d="M 95.900000,50.525000
97.700000,50.525000
97.700000,52.325000
95.900000,52.325000
Z" /> 
</g>
<g style="fill:#000000; fill-opacity:1.000000; stroke:none;">
<circle cx="96.800000" cy="53.965000" r="0.900000" /> 
<path style="fill:#000000; fill-opacity:1.000000; stroke:none;fill-rule:evenodd;"
d="M 100.295000,106.956250
100.276446,107.049529
100.223607,107.128607
100.144529,107.181446
100.051250,107.200000
99.563750,107.200000
99.470471,107.181446
99.391393,107.128607
99.338554,107.049529
99.320000,106.956250
99.320000,106.043750
99.338554,105.950471
99.391393,105.871393
99.470471,105.818554
99.563750,105.800000
100.051250,105.800000
100.144529,105.818554
100.223607,105.871393
100.276446,105.950471
100.295000,106.043750
Z" /> 
<path style="fill:#000000; fill-opacity:1.000000; stroke:none;fill-rule:evenodd;"
d="M 98.420000,106.956250
98.401446,107.049529
98.348607,107.128607
98.269529,107.181446
98.176250,107.200000
97.688750,107.200000
97.595471,107.181446
97.516393,107.128607
97.463554,107.049529
97.445000,106.956250
97.445000,106.043750
97.463554,105.950471
97.516393,105.871393
97.595471,105.818554
97.688750,105.800000
98.176250,105.800000
98.269529,105.818554
98.348607,105.871393
98.401446,105.950471
98.420000,106.043750
Z" /> 
<path style="fill:#000000; fill-opacity:1.000000; stroke:none;fill-rule:evenodd;"
d="M 100.295000,102.456250
100.276446,102.549529
100.223607,102.628607
100.144529,102.681446
100.051250,102.700000
99.563750,102.700000
99.470471,102.681446
99.391393,102.628607
99.338554,102.549529
99.320000,102.456250
99.320000,101.543750
99.338554,101.450471
99.391393,101.371393
99.470471,101.318554
99.563750,101.300000
100.051250,101.300000
100.144529,101.318554
100.223607,101.371393
100.276446,101.450471
100.295000,101.543750
Z" /> 
<path style="fill:#000000; fill-opacity:1.000000; stroke:none;fill-rule:evenodd;"
d="M 98.420000,102.456250
98.401446,102.549529
98.348607,102.628607
98.269529,102.681446
98.176250,102.700000
97.688750,102.700000
97.595471,102.681446
97.516393,102.628607
97.463554,102.549529
97.445000,102.456250
97.445000,101.543750
97.463554,101.450471
97.516393,101.371393
97.595471,101.318554
97.688750,101.300000
98.176250,101.300000
98.269529,101.318554
98.348607,101.371393
98.401446,101.450471
98.420000,101.543750
Z" /> 
<path style="fill:#000000; fill-opacity:1.000000; stroke:none;fill-rule:evenodd;"
d="M 100.300000,97.956250
100.281446,98.049529
100.228607,98.128607
100.149529,98.181446
100.056250,98.200000
99.568750,98.200000
99.475471,98.181446
99.396393,98.128607
99.343554,98.049529
99.325000,97.956250
99.325000,97.043750
99.343554,96.950471
99.396393,96.871393
99.475471,96.818554
99.568750,96.800000
100.056250,96.800000
100.149529,96.818554
100.228607,96.871393
100.281446,96.950471
100.300000,97.043750
Z" /> 
<path style="fill:#000000; fill-opacity:1.000000; stroke:none;fill-rule:evenodd;"
d="M 98.425000,97.956250
98.406446,98.049529
98.353607,98.128607
98.274529,98.181446
98.181250,98.200000
97.693750,98.200000
97.600471,98.181446
97.521393,98.128607
97.468554,98.049529
97.450000,97.956250
97.450000,97.043750
97.468554,96.950471
97.521393,96.871393
97.600471,96.818554
97.693750,96.800000
98.181250,96.800000
98.274529,96.818554
98.353607,96.871393
98.406446,96.950471
98.425000,97.043750
Z" /> 
<path style="fill:#000000; fill-opacity:1.000000; stroke:none;fill-rule:evenodd;"
d="M 100.285000,93.456250
100.266446,93.549529
100.213607,93.628607
100.134529,93.681446
100.041250,93.700000
99.553750,93.700000
99.460471,93.681446
99.381393,93.628607
99.328554,93.549529
99.310000,93.456250
99.310000,92.543750
99.328554,92.450471
99.381393,92.371393
99.460471,92.318554
99.553750,92.300000
100.041250,92.300000
100.134529,92.318554
100.213607,92.371393
100.266446,92.450471
100.285000,92.543750
Z" /> 
<path style="fill:#000000; fill-opacity:1.000000; stroke:none;fill-rule:evenodd;"
d="M 98.410000,93.456250
98.391446,93.549529
98.338607,93.628607
98.259529,93.681446
98.166250,93.700000
97.678750,93.700000
97.585471,93.681446
97.506393,93.628607
97.453554,93.549529
97.435000,93.456250
97.435000,92.543750
97.453554,92.450471
97.506393,92.371393
97.585471,92.318554
97.678750,92.300000
98.166250,92.300000
98.259529,92.318554
98.338607,92.371393
98.391446,92.450471
98.410000,92.543750
Z" /> 
<path style="fill:#000000; fill-opacity:1.000000; stroke:none;fill-rule:evenodd;"
d="M 100.285000,88.956250
100.266446,89.049529
100.213607,89.128607
100.134529,89.181446
100.041250,89.200000
99.553750,89.200000
99.460471,89.181446
99.381393,89.128607
99.328554,89.049529
99.310000,88.956250
99.310000,88.043750
99.328554,87.950471
99.381393,87.871393
99.460471,87.818554
99.553750,87.800000
100.041250,87.800000
100.134529,87.818554
100.213607,87.871393
100.266446,87.950471
100.285000,88.043750
Z" /> 
<path style="fill:#000000; fill-opacity:1.000000; stroke:none;fill-rule:evenodd;"
d="M 98.410000,88.956250
98.391446,89.049529
98.338607,89.128607
98.259529,89.181446
98.166250,89.200000
97.678750,89.200000
97.585471,89.181446
97.506393,89.128607
97.453554,89.049529
97.435000,88.956250
97.435000,88.043750
97.453554,87.950471
97.506393,87.871393
97.585471,87.818554
97.678750,87.800000
98.166250,87.800000
98.259529,87.818554
98.338607,87.871393
98.391446,87.950471
98.410000,88.043750
Z" /> 
<path style="fill:#000000; fill-opacity:1.000000; stroke:none;fill-rule:evenodd;"
d="M 90.010000,106.043750
90.028554,105.950471
90.081393,105.871393
90.160471,105.818554
90.253750,105.800000
90.741250,105.800000
90.834529,105.818554
90.913607,105.871393
90.966446,105.950471
90.985000,106.043750
90.985000,106.956250
90.966446,107.049529
90.913607,107.128607
90.834529,107.181446
90.741250,107.200000
90.253750,107.200000
90.160471,107.181446
90.081393,107.128607
90.028554,107.049529
90.010000,106.956250
Z" /> 
<path style="fill:#000000; fill-opacity:1.000000; stroke:none;fill-rule:evenodd;"
d="M 91.885000,106.043750
91.903554,105.950471
91.956393,105.871393
92.035471,105.818554
92.128750,105.800000
92.616250,105.800000
92.709529,105.818554
92.788607,105.871393
92.841446,105.950471
92.860000,106.043750
92.860000,106.956250
92.841446,107.049529
92.788607,107.128607
92.709529,107.181446
92.616250,107.200000
92.128750,107.200000
92.035471,107.181446
91.956393,107.128607
91.903554,107.049529
91.885000,106.956250
Z" /> 
<path style="fill:#000000; fill-opacity:1.000000; stroke:none;fill-rule:evenodd;"
d="M 90.035000,101.543750
90.053554,101.450471
90.106393,101.371393
90.185471,101.318554
90.278750,101.300000
90.766250,101.300000
90.859529,101.318554
90.938607,101.371393
90.991446,101.450471
91.010000,101.543750
91.010000,102.456250
90.991446,102.549529
90.938607,102.628607
90.859529,102.681446
90.766250,102.700000
90.278750,102.700000
90.185471,102.681446
90.106393,102.628607
90.053554,102.549529
90.035000,102.456250
Z" /> 
<path style="fill:#000000; fill-opacity:1.000000; stroke:none;fill-rule:evenodd;"
d="M 91.910000,101.543750
91.928554,101.450471
91.981393,101.371393
92.060471,101.318554
92.153750,101.300000
92.641250,101.300000
92.734529,101.318554
92.813607,101.371393
92.866446,101.450471
92.885000,101.543750
92.885000,102.456250
92.866446,102.549529
92.813607,102.628607
92.734529,102.681446
92.641250,102.700000
92.153750,102.700000
92.060471,102.681446
91.981393,102.628607
91.928554,102.549529
91.910000,102.456250
Z" /> 
<path style="fill:#000000; fill-opacity:1.000000; stroke:none;fill-rule:evenodd;"
d="M 90.035000,97.043750
90.053554,96.950471
90.106393,96.871393
90.185471,96.818554
90.278750,96.800000
90.766250,96.800000
90.859529,96.818554
90.938607,96.871393
90.991446,96.950471
91.010000,97.043750
91.010000,97.956250
90.991446,98.049529
90.938607,98.128607
90.859529,98.181446
90.766250,98.200000
90.278750,98.200000
90.185471,98.181446
90.106393,98.128607
90.053554,98.049529
90.035000,97.956250
Z" /> 
<path style="fill:#000000; fill-opacity:1.000000; stroke:none;fill-rule:evenodd;"
d="M 91.910000,97.043750
91.928554,96.950471
91.981393,96.871393
92.060471,96.818554
92.153750,96.800000
92.641250,96.800000
92.734529,96.818554
92.813607,96.871393
92.866446,96.950471
92.885000,97.043750
92.885000,97.956250
92.866446,98.049529
92.813607,98.128607
92.734529,98.181446
92.641250,98.200000
92.153750,98.200000
92.060471,98.181446
91.981393,98.128607
91.928554,98.049529
91.910000,97.956250
Z" /> 
<path style="fill:#000000; fill-opacity:1.000000; stroke:none;fill-rule:evenodd;"
d="M 90.035000,92.543750
90.053554,92.450471
90.106393,92.371393
90.185471,92.318554
90.278750,92.300000
90.766250,92.300000
90.859529,92.318554
90.938607,92.371393
90.991446,92.450471
91.010000,92.543750
91.010000,93.456250
90.991446,93.549529
90.938607,93.628607
90.859529,93.681446
90.766250,93.700000
90.278750,93.700000
90.185471,93.681446
90.106393,93.628607
90.053554,93.549529
90.035000,93.456250
Z" /> 
<path style="fill:#000000; fill-opacity:1.000000; stroke:none;fill-rule:evenodd;"
d="M 91.910000,92.543750
91.928554,92.450471
91.981393,92.371393
92.060471,92.318554
92.153750,92.300000
92.641250,92.300000
92.734529,92.318554
92.813607,92.371393
92.866446,92.450471
92.885000,92.543750
92.885000,93.456250
92.866446,93.549529
92.813607,93.628607
92.734529,93.681446
92.641250,93.700000
92.153750,93.700000
92.060471,93.681446
91.981393,93.628607
91.928554,93.549529
91.910000,93.456250
Z" /> 
<path style="fill:#000000; fill-opacity:1.000000; stroke:none;fill-rule:evenodd;"
d="M 91.905000,88.043750
91.923554,87.950471
91.976393,87.871393
92.055471,87.818554
92.148750,87.800000
92.636250,87.800000
92.729529,87.818554
92.808607,87.871393
92.861446,87.950471
92.880000,88.043750
92.880000,88.956250
92.861446,89.049529
92.808607,89.128607
92.729529,89.181446
92.636250,89.200000
92.148750,89.200000
92.055471,89.181446
91.976393,89.128607
91.923554,89.049529
91.905000,88.956250
Z" /> 
<path style="fill:#000000; fill-opacity:1.000000; stroke:none;fill-rule:evenodd;"
d="M 90.030000,88.043750
90.048554,87.950471
90.101393,87.871393
90.180471,87.818554
90.273750,87.800000
90.761250,87.800000
90.854529,87.818554
90.933607,87.871393
90.986446,87.950471
91.005000,88.043750
91.005000,88.956250
90.986446,89.049529
90.933607,89.128607
90.854529,89.181446
90.761250,89.200000
90.273750,89.200000
90.180471,89.181446
90.101393,89.128607
90.048554,89.049529
90.030000,88.956250
Z" /> 
</g>
<g style="fill:#000000; fill-opacity:1.000000; stroke:none;">
<circle cx="61.800000" cy="61.500000" r="3.500000" /> 
</g>
<g style="fill:#000000; fill-opacity:1.000000; stroke:none;">
<circle cx="78.200000" cy="61.500000" r="3.500000" /> 
</g>
<g style="fill:#000000; fill-opacity:1.000000; stroke:none;">
<circle cx="61.600000" cy="114.000000" r="3.500000" /> 
</g>
<g style="fill:#000000; fill-opacity:1.000000; stroke:none;">
<circle cx="61.600000" cy="124.000000" r="3.500000" /> 
</g>
<g style="fill:#000000; fill-opacity:1.000000; stroke:none;">
<circle cx="61.600000" cy="134.000000" r="3.500000" /> 
</g>
<g style="fill:#000000; fill-opacity:1.000000; stroke:none;">
<circle cx="61.600000" cy="144.000000" r="3.500000" /> 
</g>
<g style="fill:#000000; fill-opacity:1.000000; stroke:none;">
<circle cx="78.400000" cy="114.000000" r="3.500000" /> 
</g>
<g style="fill:#000000; fill-opacity:1.000000; stroke:none;">
<circle cx="78.400000" cy="124.000000" r="3.500000" /> 
</g>
<g style="fill:#000000; fill-opacity:1.000000; stroke:none;">
<circle cx="78.400000" cy="134.000000" r="3.500000" /> 
</g>
<g style="fill:#000000; fill-opacity:1.000000; stroke:none;">
<circle cx="78.400000" cy="144.000000" r="3.500000" /> 
</g>
<g style="fill:#000000; fill-opacity:1.000000; stroke:none;">
<circle cx="61.600000" cy="154.000000" r="3.500000" /> 
</g>
<g style="fill:#000000; fill-opacity:1.000000; stroke:none;">
<circle cx="78.400000" cy="154.000000" r="3.500000" /> 
</g>
<g style="fill:#000000; fill-opacity:1.000000; stroke:none;">
<circle cx="61.800000" cy="76.500000" r="4.000000" /> 
<path style="fill:#000000; fill-opacity:1.000000; stroke:none;fill-rule:evenodd;"
d="M 121.975000,84.340000
121.986418,84.282597
122.018934,84.233934
122.067597,84.201418
122.125000,84.190000
123.775000,84.190000
123.832403,84.201418
123.881066,84.233934
123.913582,84.282597
123.925000,84.340000
123.925000,84.640000
123.913582,84.697403
123.881066,84.746066
123.832403,84.778582
123.775000,84.790000
122.125000,84.790000
122.067597,84.778582
122.018934,84.746066
121.986418,84.697403
121.975000,84.640000
Z" /> 
<path style="fill:#000000; fill-opacity:1.000000; stroke:none;fill-rule:evenodd;"
d="M 121.975000,85.610000
121.986418,85.552597
122.018934,85.503934
122.067597,85.471418
122.125000,85.460000
123.775000,85.460000
123.832403,85.471418
123.881066,85.503934
123.913582,85.552597
123.925000,85.610000
123.925000,85.910000
123.913582,85.967403
123.881066,86.016066
123.832403,86.048582
123.775000,86.060000
122.125000,86.060000
122.067597,86.048582
122.018934,86.016066
121.986418,85.967403
121.975000,85.910000
Z" /> 
<path style="fill:#000000; fill-opacity:1.000000; stroke:none;fill-rule:evenodd;"
d="M 121.975000,86.880000
121.986418,86.822597
122.018934,86.773934
122.067597,86.741418
122.125000,86.730000
123.775000,86.730000
123.832403,86.741418
123.881066,86.773934
123.913582,86.822597
123.925000,86.880000
123.925000,87.180000
123.913582,87.237403
123.881066,87.286066
123.832403,87.318582
123.775000,87.330000
122.125000,87.330000
122.067597,87.318582
122.018934,87.286066
121.986418,87.237403
121.975000,87.180000
Z" /> 
<path style="fill:#000000; fill-opacity:1.000000; stroke:none;fill-rule:evenodd;"
d="M 121.975000,88.150000
121.986418,88.092597
122.018934,88.043934
122.067597,88.011418
122.125000,88.000000
123.775000,88.000000
123.832403,88.011418
123.881066,88.043934
123.913582,88.092597
123.925000,88.150000
123.925000,88.450000
123.913582,88.507403
123.881066,88.556066
123.832403,88.588582
123.775000,88.600000
122.125000,88.600000
122.067597,88.588582
122.018934,88.556066
121.986418,88.507403
121.975000,88.450000
Z" /> 
<path style="fill:#000000; fill-opacity:1.000000; stroke:none;fill-rule:evenodd;"
d="M 126.925000,88.150000
126.936418,88.092597
126.968934,88.043934
127.017597,88.011418
127.075000,88.000000
128.725000,88.000000
128.782403,88.011418
128.831066,88.043934
128.863582,88.092597
128.875000,88.150000
128.875000,88.450000
128.863582,88.507403
128.831066,88.556066
128.782403,88.588582
128.725000,88.600000
127.075000,88.600000
127.017597,88.588582
126.968934,88.556066
126.936418,88.507403
126.925000,88.450000
Z" /> 
<path style="fill:#000000; fill-opacity:1.000000; stroke:none;fill-rule:evenodd;"
d="M 126.925000,86.880000
126.936418,86.822597
126.968934,86.773934
127.017597,86.741418
127.075000,86.730000
128.725000,86.730000
128.782403,86.741418
128.831066,86.773934
128.863582,86.822597
128.875000,86.880000
128.875000,87.180000
128.863582,87.237403
128.831066,87.286066
128.782403,87.318582
128.725000,87.330000
127.075000,87.330000
127.017597,87.318582
126.968934,87.286066
126.936418,87.237403
126.925000,87.180000
Z" /> 
<path style="fill:#000000; fill-opacity:1.000000; stroke:none;fill-rule:evenodd;"
d="M 126.925000,85.610000
126.936418,85.552597
126.968934,85.503934
127.017597,85.471418
127.075000,85.460000
128.725000,85.460000
128.782403,85.471418
128.831066,85.503934
128.863582,85.552597
128.875000,85.610000
128.875000,85.910000
128.863582,85.967403
128.831066,86.016066
128.782403,86.048582
128.725000,86.060000
127.075000,86.060000
127.017597,86.048582
126.968934,86.016066
126.936418,85.967403
126.925000,85.910000
Z" /> 
<path style="fill:#000000; fill-opacity:1.000000; stroke:none;fill-rule:evenodd;"
d="M 126.925000,84.340000
126.936418,84.282597
126.968934,84.233934
127.017597,84.201418
127.075000,84.190000
128.725000,84.190000
128.782403,84.201418
128.831066,84.233934
128.863582,84.282597
128.875000,84.340000
128.875000,84.640000
128.863582,84.697403
128.831066,84.746066
128.782403,84.778582
128.725000,84.790000
127.075000,84.790000
127.017597,84.778582
126.968934,84.746066
126.936418,84.697403
126.925000,84.640000
Z" /> 
<path style="fill:#000000; fill-opacity:1.000000; stroke:none;fill-rule:evenodd;"
d="M 185.963000,125.393000
185.982030,125.297329
186.036223,125.216223
186.117329,125.162030
186.213000,125.143000
186.888000,125.143000
186.983671,125.162030
187.064777,125.216223
187.118970,125.297329
187.138000,125.393000
187.138000,126.343000
187.118970,126.438671
187.064777,126.519777
186.983671,126.573970
186.888000,126.593000
186.213000,126.593000
186.117329,126.573970
186.036223,126.519777
185.982030,126.438671
185.963000,126.343000
Z" /> 
<path style="fill:#000000; fill-opacity:1.000000; stroke:none;fill-rule:evenodd;"
d="M 188.038000,125.393000
188.057030,125.297329
188.111223,125.216223
188.192329,125.162030
188.288000,125.143000
188.963000,125.143000
189.058671,125.162030
189.139777,125.216223
189.193970,125.297329
189.213000,125.393000
189.213000,126.343000
189.193970,126.438671
189.139777,126.519777
189.058671,126.573970
188.963000,126.593000
188.288000,126.593000
188.192329,126.573970
188.111223,126.519777
188.057030,126.438671
188.038000,126.343000
Z" /> 
<path style="fill:#000000; fill-opacity:1.000000; stroke:none;fill-rule:evenodd;"
d="M 185.963000,117.243000
185.982030,117.147329
186.036223,117.066223
186.117329,117.012030
186.213000,116.993000
186.888000,116.993000
186.983671,117.012030
187.064777,117.066223
187.118970,117.147329
187.138000,117.243000
187.138000,118.193000
187.118970,118.288671
187.064777,118.369777
186.983671,118.423970
186.888000,118.443000
186.213000,118.443000
186.117329,118.423970
186.036223,118.369777
185.982030,118.288671
185.963000,118.193000
Z" /> 
<path style="fill:#000000; fill-opacity:1.000000; stroke:none;fill-rule:evenodd;"
d="M 188.038000,117.243000
188.057030,117.147329
188.111223,117.066223
188.192329,117.012030
188.288000,116.993000
188.963000,116.993000
189.058671,117.012030
189.139777,117.066223
189.193970,117.147329
189.213000,117.243000
189.213000,118.193000
189.193970,118.288671
189.139777,118.369777
189.058671,118.423970
188.963000,118.443000
188.288000,118.443000
188.192329,118.423970
188.111223,118.369777
188.057030,118.288671
188.038000,118.193000
Z" /> 
<path style="fill:#000000; fill-opacity:1.000000; stroke:none;fill-rule:evenodd;"
d="M 149.687500,94.762500
149.705579,94.671613
149.757062,94.594562
149.834113,94.543079
149.925000,94.525000
150.425000,94.525000
150.515887,94.543079
150.592938,94.594562
150.644421,94.671613
150.662500,94.762500
150.662500,95.237500
150.644421,95.328387
150.592938,95.405438
150.515887,95.456921
150.425000,95.475000
149.925000,95.475000
149.834113,95.456921
149.757062,95.405438
149.705579,95.328387
149.687500,95.237500
Z" /> 
<path style="fill:#000000; fill-opacity:1.000000; stroke:none;fill-rule:evenodd;"
d="M 151.512500,94.762500
151.530579,94.671613
151.582062,94.594562
151.659113,94.543079
151.750000,94.525000
152.250000,94.525000
152.340887,94.543079
152.417938,94.594562
152.469421,94.671613
152.487500,94.762500
152.487500,95.237500
152.469421,95.328387
152.417938,95.405438
152.340887,95.456921
152.250000,95.475000
151.750000,95.475000
151.659113,95.456921
151.582062,95.405438
151.530579,95.328387
151.512500,95.237500
Z" /> 
<path style="fill:#000000; fill-opacity:1.000000; stroke:none;fill-rule:evenodd;"
d="M 149.687500,92.252500
149.705579,92.161613
149.757062,92.084562
149.834113,92.033079
149.925000,92.015000
150.425000,92.015000
150.515887,92.033079
150.592938,92.084562
150.644421,92.161613
150.662500,92.252500
150.662500,92.727500
150.644421,92.818387
150.592938,92.895438
150.515887,92.946921
150.425000,92.965000
149.925000,92.965000
149.834113,92.946921
149.757062,92.895438
149.705579,92.818387
149.687500,92.727500
Z" /> 
<path style="fill:#000000; fill-opacity:1.000000; stroke:none;fill-rule:evenodd;"
d="M 151.512500,92.252500
151.530579,92.161613
151.582062,92.084562
151.659113,92.033079
151.750000,92.015000
152.250000,92.015000
152.340887,92.033079
152.417938,92.084562
152.469421,92.161613
152.487500,92.252500
152.487500,92.727500
152.469421,92.818387
152.417938,92.895438
152.340887,92.946921
152.250000,92.965000
151.750000,92.965000
151.659113,92.946921
151.582062,92.895438
151.530579,92.818387
151.512500,92.727500
Z" /> 
<path style="fill:#000000; fill-opacity:1.000000; stroke:none;fill-rule:evenodd;"
d="M 149.687500,89.742500
149.705579,89.651613
149.757062,89.574562
149.834113,89.523079
149.925000,89.505000
150.425000,89.505000
150.515887,89.523079
150.592938,89.574562
150.644421,89.651613
150.662500,89.742500
150.662500,90.217500
150.644421,90.308387
150.592938,90.385438
150.515887,90.436921
150.425000,90.455000
149.925000,90.455000
149.834113,90.436921
149.757062,90.385438
149.705579,90.308387
149.687500,90.217500
Z" /> 
<path style="fill:#000000; fill-opacity:1.000000; stroke:none;fill-rule:evenodd;"
d="M 151.512500,89.742500
151.530579,89.651613
151.582062,89.574562
151.659113,89.523079
151.750000,89.505000
152.250000,89.505000
152.340887,89.523079
152.417938,89.574562
152.469421,89.651613
152.487500,89.742500
152.487500,90.217500
152.469421,90.308387
152.417938,90.385438
152.340887,90.436921
152.250000,90.455000
151.750000,90.455000
151.659113,90.436921
151.582062,90.385438
151.530579,90.308387
151.512500,90.217500
Z" /> 
<path style="fill:#000000; fill-opacity:1.000000; stroke:none;fill-rule:evenodd;"
d="M 149.687500,87.232500
149.705579,87.141613
149.757062,87.064562
149.834113,87.013079
149.925000,86.995000
150.425000,86.995000
150.515887,87.013079
150.592938,87.064562
150.644421,87.141613
150.662500,87.232500
150.662500,87.707500
150.644421,87.798387
150.592938,87.875438
150.515887,87.926921
150.425000,87.945000
149.925000,87.945000
149.834113,87.926921
149.757062,87.875438
149.705579,87.798387
149.687500,87.707500
Z" /> 
<path style="fill:#000000; fill-opacity:1.000000; stroke:none;fill-rule:evenodd;"
d="M 151.512500,87.232500
151.530579,87.141613
151.582062,87.064562
151.659113,87.013079
151.750000,86.995000
152.250000,86.995000
152.340887,87.013079
152.417938,87.064562
152.469421,87.141613
152.487500,87.232500
152.487500,87.707500
152.469421,87.798387
152.417938,87.875438
152.340887,87.926921
152.250000,87.945000
151.750000,87.945000
151.659113,87.926921
151.582062,87.875438
151.530579,87.798387
151.512500,87.707500
Z" /> 
<path style="fill:#000000; fill-opacity:1.000000; stroke:none;fill-rule:evenodd;"
d="M 105.985000,153.035000
107.815000,153.035000
107.815000,154.965000
105.985000,154.965000
Z" /> 
</g>
<g style="fill:#000000; fill-opacity:1.000000; stroke:none;">
<circle cx="110.000000" cy="154.000000" r="1.065000" /> 
</g>
<g style="fill:#000000; fill-opacity:1.000000; stroke:none;">
<circle cx="118.300000" cy="154.000000" r="1.065000" /> 
</g>
<g style="fill:#000000; fill-opacity:1.000000; stroke:none;">
<circle cx="118.300000" cy="144.000000" r="1.065000" /> 
</g>
<g style="fill:#000000; fill-opacity:1.000000; stroke:none;">
<circle cx="110.000000" cy="144.000000" r="1.065000" /> 
<path style="fill:#000000; fill-opacity:1.000000; stroke:none;fill-rule:evenodd;"
d="M 105.985000,143.035000
107.815000,143.035000
107.815000,144.965000
105.985000,144.965000
Z" /> 
<path style="fill:#000000; fill-opacity:1.000000; stroke:none;fill-rule:evenodd;"
d="M 185.758000,71.790500
185.776079,71.699613
185.827562,71.622562
185.904613,71.571079
185.995500,71.553000
186.495500,71.553000
186.586387,71.571079
186.663438,71.622562
186.714921,71.699613
186.733000,71.790500
186.733000,72.265500
186.714921,72.356387
186.663438,72.433438
186.586387,72.484921
186.495500,72.503000
185.995500,72.503000
185.904613,72.484921
185.827562,72.433438
185.776079,72.356387
185.758000,72.265500
Z" /> 
<path style="fill:#000000; fill-opacity:1.000000; stroke:none;fill-rule:evenodd;"
d="M 187.583000,71.790500
187.601079,71.699613
187.652562,71.622562
187.729613,71.571079
187.820500,71.553000
188.320500,71.553000
188.411387,71.571079
188.488438,71.622562
188.539921,71.699613
188.558000,71.790500
188.558000,72.265500
188.539921,72.356387
188.488438,72.433438
188.411387,72.484921
188.320500,72.503000
187.820500,72.503000
187.729613,72.484921
187.652562,72.433438
187.601079,72.356387
187.583000,72.265500
Z" /> 
<path style="fill:#000000; fill-opacity:1.000000; stroke:none;fill-rule:evenodd;"
d="M 104.015000,144.965000
102.185000,144.965000
102.185000,143.035000
104.015000,143.035000
Z" /> 
</g>
<g style="fill:#000000; fill-opacity:1.000000; stroke:none;">
<circle cx="100.000000" cy="144.000000" r="1.065000" /> 
</g>
<g style="fill:#000000; fill-opacity:1.000000; stroke:none;">
<circle cx="91.700000" cy="144.000000" r="1.065000" /> 
<path style="fill:#000000; fill-opacity:1.000000; stroke:none;fill-rule:evenodd;"
d="M 104.015000,134.965000
102.185000,134.965000
102.185000,133.035000
104.015000,133.035000
Z" /> 
</g>
<g style="fill:#000000; fill-opacity:1.000000; stroke:none;">
<circle cx="100.000000" cy="134.000000" r="1.065000" /> 
</g>
<g style="fill:#000000; fill-opacity:1.000000; stroke:none;">
<circle cx="91.700000" cy="134.000000" r="1.065000" /> 
<path style="fill:#000000; fill-opacity:1.000000; stroke:none;fill-rule:evenodd;"
d="M 177.058000,84.340500
177.076079,84.249613
177.127562,84.172562
177.204613,84.121079
177.295500,84.103000
177.795500,84.103000
177.886387,84.121079
177.963438,84.172562
178.014921,84.249613
178.033000,84.340500
178.033000,84.815500
178.014921,84.906387
177.963438,84.983438
177.886387,85.034921
177.795500,85.053000
177.295500,85.053000
177.204613,85.034921
177.127562,84.983438
177.076079,84.906387
177.058000,84.815500
Z" /> 
<path style="fill:#000000; fill-opacity:1.000000; stroke:none;fill-rule:evenodd;"
d="M 178.883000,84.340500
178.901079,84.249613
178.952562,84.172562
179.029613,84.121079
179.120500,84.103000
179.620500,84.103000
179.711387,84.121079
179.788438,84.172562
179.839921,84.249613
179.858000,84.340500
179.858000,84.815500
179.839921,84.906387
179.788438,84.983438
179.711387,85.034921
179.620500,85.053000
179.120500,85.053000
179.029613,85.034921
178.952562,84.983438
178.901079,84.906387
178.883000,84.815500
Z" /> 
<path style="fill:#000000; fill-opacity:1.000000; stroke:none;fill-rule:evenodd;"
d="M 195.308000,88.850500
195.326079,88.759613
195.377562,88.682562
195.454613,88.631079
195.545500,88.613000
196.045500,88.613000
196.136387,88.631079
196.213438,88.682562
196.264921,88.759613
196.283000,88.850500
196.283000,89.325500
196.264921,89.416387
196.213438,89.493438
196.136387,89.544921
196.045500,89.563000
195.545500,89.563000
195.454613,89.544921
195.377562,89.493438
195.326079,89.416387
195.308000,89.325500
Z" /> 
<path style="fill:#000000; fill-opacity:1.000000; stroke:none;fill-rule:evenodd;"
d="M 197.133000,88.850500
197.151079,88.759613
197.202562,88.682562
197.279613,88.631079
197.370500,88.613000
197.870500,88.613000
197.961387,88.631079
198.038438,88.682562
198.089921,88.759613
198.108000,88.850500
198.108000,89.325500
198.089921,89.416387
198.038438,89.493438
197.961387,89.544921
197.870500,89.563000
197.370500,89.563000
197.279613,89.544921
197.202562,89.493438
197.151079,89.416387
197.133000,89.325500
Z" /> 
<path style="fill:#000000; fill-opacity:1.000000; stroke:none;fill-rule:evenodd;"
d="M 195.308000,93.870500
195.326079,93.779613
195.377562,93.702562
195.454613,93.651079
195.545500,93.633000
196.045500,93.633000
196.136387,93.651079
196.213438,93.702562
196.264921,93.779613
196.283000,93.870500
196.283000,94.345500
196.264921,94.436387
196.213438,94.513438
196.136387,94.564921
196.045500,94.583000
195.545500,94.583000
195.454613,94.564921
195.377562,94.513438
195.326079,94.436387
195.308000,94.345500
Z" /> 
<path style="fill:#000000; fill-opacity:1.000000; stroke:none;fill-rule:evenodd;"
d="M 197.133000,93.870500
197.151079,93.779613
197.202562,93.702562
197.279613,93.651079
197.370500,93.633000
197.870500,93.633000
197.961387,93.651079
198.038438,93.702562
198.089921,93.779613
198.108000,93.870500
198.108000,94.345500
198.089921,94.436387
198.038438,94.513438
197.961387,94.564921
197.870500,94.583000
197.370500,94.583000
197.279613,94.564921
197.202562,94.513438
197.151079,94.436387
197.133000,94.345500
Z" /> 
<path style="fill:#000000; fill-opacity:1.000000; stroke:none;fill-rule:evenodd;"
d="M 190.958000,93.870500
190.976079,93.779613
191.027562,93.702562
191.104613,93.651079
191.195500,93.633000
191.695500,93.633000
191.786387,93.651079
191.863438,93.702562
191.914921,93.779613
191.933000,93.870500
191.933000,94.345500
191.914921,94.436387
191.863438,94.513438
191.786387,94.564921
191.695500,94.583000
191.195500,94.583000
191.104613,94.564921
191.027562,94.513438
190.976079,94.436387
190.958000,94.345500
Z" /> 
<path style="fill:#000000; fill-opacity:1.000000; stroke:none;fill-rule:evenodd;"
d="M 192.783000,93.870500
192.801079,93.779613
192.852562,93.702562
192.929613,93.651079
193.020500,93.633000
193.520500,93.633000
193.611387,93.651079
193.688438,93.702562
193.739921,93.779613
193.758000,93.870500
193.758000,94.345500
193.739921,94.436387
193.688438,94.513438
193.611387,94.564921
193.520500,94.583000
193.020500,94.583000
192.929613,94.564921
192.852562,94.513438
192.801079,94.436387
192.783000,94.345500
Z" /> 
<path style="fill:#000000; fill-opacity:1.000000; stroke:none;fill-rule:evenodd;"
d="M 158.400000,134.575000
158.417127,134.488896
158.465901,134.415901
158.538896,134.367127
158.625000,134.350000
159.075000,134.350000
159.161104,134.367127
159.234099,134.415901
159.282873,134.488896
159.300000,134.575000
159.300000,135.325000
159.282873,135.411104
159.234099,135.484099
159.161104,135.532873
159.075000,135.550000
158.625000,135.550000
158.538896,135.532873
158.465901,135.484099
158.417127,135.411104
158.400000,135.325000
Z" /> 
<path style="fill:#000000; fill-opacity:1.000000; stroke:none;fill-rule:evenodd;"
d="M 161.700000,134.575000
161.717127,134.488896
161.765901,134.415901
161.838896,134.367127
161.925000,134.350000
162.375000,134.350000
162.461104,134.367127
162.534099,134.415901
162.582873,134.488896
162.600000,134.575000
162.600000,135.325000
162.582873,135.411104
162.534099,135.484099
162.461104,135.532873
162.375000,135.550000
161.925000,135.550000
161.838896,135.532873
161.765901,135.484099
161.717127,135.411104
161.700000,135.325000
Z" /> 
<path style="fill:#000000; fill-opacity:1.000000; stroke:none;fill-rule:evenodd;"
d="M 195.308000,91.360500
195.326079,91.269613
195.377562,91.192562
195.454613,91.141079
195.545500,91.123000
196.045500,91.123000
196.136387,91.141079
196.213438,91.192562
196.264921,91.269613
196.283000,91.360500
196.283000,91.835500
196.264921,91.926387
196.213438,92.003438
196.136387,92.054921
196.045500,92.073000
195.545500,92.073000
195.454613,92.054921
195.377562,92.003438
195.326079,91.926387
195.308000,91.835500
Z" /> 
<path style="fill:#000000; fill-opacity:1.000000; stroke:none;fill-rule:evenodd;"
d="M 197.133000,91.360500
197.151079,91.269613
197.202562,91.192562
197.279613,91.141079
197.370500,91.123000
197.870500,91.123000
197.961387,91.141079
198.038438,91.192562
198.089921,91.269613
198.108000,91.360500
198.108000,91.835500
198.089921,91.926387
198.038438,92.003438
197.961387,92.054921
197.870500,92.073000
197.370500,92.073000
197.279613,92.054921
197.202562,92.003438
197.151079,91.926387
197.133000,91.835500
Z" /> 
<path style="fill:#000000; fill-opacity:1.000000; stroke:none;fill-rule:evenodd;"
d="M 185.758000,79.320500
185.776079,79.229613
185.827562,79.152562
185.904613,79.101079
185.995500,79.083000
186.495500,79.083000
186.586387,79.101079
186.663438,79.152562
186.714921,79.229613
186.733000,79.320500
186.733000,79.795500
186.714921,79.886387
186.663438,79.963438
186.586387,80.014921
186.495500,80.033000
185.995500,80.033000
185.904613,80.014921
185.827562,79.963438
185.776079,79.886387
185.758000,79.795500
Z" /> 
<path style="fill:#000000; fill-opacity:1.000000; stroke:none;fill-rule:evenodd;"
d="M 187.583000,79.320500
187.601079,79.229613
187.652562,79.152562
187.729613,79.101079
187.820500,79.083000
188.320500,79.083000
188.411387,79.101079
188.488438,79.152562
188.539921,79.229613
188.558000,79.320500
188.558000,79.795500
188.539921,79.886387
188.488438,79.963438
188.411387,80.014921
188.320500,80.033000
187.820500,80.033000
187.729613,80.014921
187.652562,79.963438
187.601079,79.886387
187.583000,79.795500
Z" /> 
<path style="fill:#000000; fill-opacity:1.000000; stroke:none;fill-rule:evenodd;"
d="M 181.408000,71.790500
181.426079,71.699613
181.477562,71.622562
181.554613,71.571079
181.645500,71.553000
182.145500,71.553000
182.236387,71.571079
182.313438,71.622562
182.364921,71.699613
182.383000,71.790500
182.383000,72.265500
182.364921,72.356387
182.313438,72.433438
182.236387,72.484921
182.145500,72.503000
181.645500,72.503000
181.554613,72.484921
181.477562,72.433438
181.426079,72.356387
181.408000,72.265500
Z" /> 
<path style="fill:#000000; fill-opacity:1.000000; stroke:none;fill-rule:evenodd;"
d="M 183.233000,71.790500
183.251079,71.699613
183.302562,71.622562
183.379613,71.571079
183.470500,71.553000
183.970500,71.553000
184.061387,71.571079
184.138438,71.622562
184.189921,71.699613
184.208000,71.790500
184.208000,72.265500
184.189921,72.356387
184.138438,72.433438
184.061387,72.484921
183.970500,72.503000
183.470500,72.503000
183.379613,72.484921
183.302562,72.433438
183.251079,72.356387
183.233000,72.265500
Z" /> 
<path style="fill:#000000; fill-opacity:1.000000; stroke:none;fill-rule:evenodd;"
d="M 104.015000,124.965000
102.185000,124.965000
102.185000,123.035000
104.015000,123.035000
Z" /> 
</g>
<g style="fill:#000000; fill-opacity:1.000000; stroke:none;">
<circle cx="100.000000" cy="124.000000" r="1.065000" /> 
</g>
<g style="fill:#000000; fill-opacity:1.000000; stroke:none;">
<circle cx="91.700000" cy="124.000000" r="1.065000" /> 
<path style="fill:#000000; fill-opacity:1.000000; stroke:none;fill-rule:evenodd;"
d="M 177.058000,79.320500
177.076079,79.229613
177.127562,79.152562
177.204613,79.101079
177.295500,79.083000
177.795500,79.083000
177.886387,79.101079
177.963438,79.152562
178.014921,79.229613
178.033000,79.320500
178.033000,79.795500
178.014921,79.886387
177.963438,79.963438
177.886387,80.014921
177.795500,80.033000
177.295500,80.033000
177.204613,80.014921
177.127562,79.963438
177.076079,79.886387
177.058000,79.795500
Z" /> 
<path style="fill:#000000; fill-opacity:1.000000; stroke:none;fill-rule:evenodd;"
d="M 178.883000,79.320500
178.901079,79.229613
178.952562,79.152562
179.029613,79.101079
179.120500,79.083000
179.620500,79.083000
179.711387,79.101079
179.788438,79.152562
179.839921,79.229613
179.858000,79.320500
179.858000,79.795500
179.839921,79.886387
179.788438,79.963438
179.711387,80.014921
179.620500,80.033000
179.120500,80.033000
179.029613,80.014921
178.952562,79.963438
178.901079,79.886387
178.883000,79.795500
Z" /> 
<path style="fill:#000000; fill-opacity:1.000000; stroke:none;fill-rule:evenodd;"
d="M 110.438000,49.688000
110.457030,49.592329
110.511223,49.511223
110.592329,49.457030
110.688000,49.438000
111.712000,49.438000
111.807671,49.457030
111.888777,49.511223
111.942970,49.592329
111.962000,49.688000
111.962000,50.712000
111.942970,50.807671
111.888777,50.888777
111.807671,50.942970
111.712000,50.962000
110.688000,50.962000
110.592329,50.942970
110.511223,50.888777
110.457030,50.807671
110.438000,50.712000
Z" /> 
</g>
<g style="fill:#000000; fill-opacity:1.000000; stroke:none;">
<circle cx="113.200000" cy="50.200000" r="0.762000" /> 
</g>
<g style="fill:#000000; fill-opacity:1.000000; stroke:none;">
<circle cx="115.200000" cy="50.200000" r="0.762000" /> 
</g>
<g style="fill:#000000; fill-opacity:1.000000; stroke:none;">
<circle cx="115.200000" cy="55.200000" r="0.762000" /> 
</g>
<g style="fill:#000000; fill-opacity:1.000000; stroke:none;">
<circle cx="113.200000" cy="55.200000" r="0.762000" /> 
</g>
<g style="fill:#000000; fill-opacity:1.000000; stroke:none;">
<circle cx="111.200000" cy="55.200000" r="0.762000" /> 
<path style="fill:#000000; fill-opacity:1.000000; stroke:none;fill-rule:evenodd;"
d="M 105.985000,123.035000
107.815000,123.035000
107.815000,124.965000
105.985000,124.965000
Z" /> 
</g>
<g style="fill:#000000; fill-opacity:1.000000; stroke:none;">
<circle cx="110.000000" cy="124.000000" r="1.065000" /> 
</g>
<g style="fill:#000000; fill-opacity:1.000000; stroke:none;">
<circle cx="118.300000" cy="124.000000" r="1.065000" /> 
<path style="fill:#000000; fill-opacity:1.000000; stroke:none;fill-rule:evenodd;"
d="M 181.408000,76.810500
181.426079,76.719613
181.477562,76.642562
181.554613,76.591079
181.645500,76.573000
182.145500,76.573000
182.236387,76.591079
182.313438,76.642562
182.364921,76.719613
182.383000,76.810500
182.383000,77.285500
182.364921,77.376387
182.313438,77.453438
182.236387,77.504921
182.145500,77.523000
181.645500,77.523000
181.554613,77.504921
181.477562,77.453438
181.426079,77.376387
181.408000,77.285500
Z" /> 
<path style="fill:#000000; fill-opacity:1.000000; stroke:none;fill-rule:evenodd;"
d="M 183.233000,76.810500
183.251079,76.719613
183.302562,76.642562
183.379613,76.591079
183.470500,76.573000
183.970500,76.573000
184.061387,76.591079
184.138438,76.642562
184.189921,76.719613
184.208000,76.810500
184.208000,77.285500
184.189921,77.376387
184.138438,77.453438
184.061387,77.504921
183.970500,77.523000
183.470500,77.523000
183.379613,77.504921
183.302562,77.453438
183.251079,77.376387
183.233000,77.285500
Z" /> 
<path style="fill:#000000; fill-opacity:1.000000; stroke:none;fill-rule:evenodd;"
d="M 158.400000,131.025000
158.417127,130.938896
158.465901,130.865901
158.538896,130.817127
158.625000,130.800000
159.075000,130.800000
159.161104,130.817127
159.234099,130.865901
159.282873,130.938896
159.300000,131.025000
159.300000,131.775000
159.282873,131.861104
159.234099,131.934099
159.161104,131.982873
159.075000,132.000000
158.625000,132.000000
158.538896,131.982873
158.465901,131.934099
158.417127,131.861104
158.400000,131.775000
Z" /> 
<path style="fill:#000000; fill-opacity:1.000000; stroke:none;fill-rule:evenodd;"
d="M 161.700000,131.025000
161.717127,130.938896
161.765901,130.865901
161.838896,130.817127
161.925000,130.800000
162.375000,130.800000
162.461104,130.817127
162.534099,130.865901
162.582873,130.938896
162.600000,131.025000
162.600000,131.775000
162.582873,131.861104
162.534099,131.934099
162.461104,131.982873
162.375000,132.000000
161.925000,132.000000
161.838896,131.982873
161.765901,131.934099
161.717127,131.861104
161.700000,131.775000
Z" /> 
<path style="fill:#000000; fill-opacity:1.000000; stroke:none;fill-rule:evenodd;"
d="M 190.958000,96.380500
190.976079,96.289613
191.027562,96.212562
191.104613,96.161079
191.195500,96.143000
191.695500,96.143000
191.786387,96.161079
191.863438,96.212562
191.914921,96.289613
191.933000,96.380500
191.933000,96.855500
191.914921,96.946387
191.863438,97.023438
191.786387,97.074921
191.695500,97.093000
191.195500,97.093000
191.104613,97.074921
191.027562,97.023438
190.976079,96.946387
190.958000,96.855500
Z" /> 
<path style="fill:#000000; fill-opacity:1.000000; stroke:none;fill-rule:evenodd;"
d="M 192.783000,96.380500
192.801079,96.289613
192.852562,96.212562
192.929613,96.161079
193.020500,96.143000
193.520500,96.143000
193.611387,96.161079
193.688438,96.212562
193.739921,96.289613
193.758000,96.380500
193.758000,96.855500
193.739921,96.946387
193.688438,97.023438
193.611387,97.074921
193.520500,97.093000
193.020500,97.093000
192.929613,97.074921
192.852562,97.023438
192.801079,96.946387
192.783000,96.855500
Z" /> 
<path style="fill:#000000; fill-opacity:1.000000; stroke:none;fill-rule:evenodd;"
d="M 105.985000,113.035000
107.815000,113.035000
107.815000,114.965000
105.985000,114.965000
Z" /> 
</g>
<g style="fill:#000000; fill-opacity:1.000000; stroke:none;">
<circle cx="110.000000" cy="114.000000" r="1.065000" /> 
</g>
<g style="fill:#000000; fill-opacity:1.000000; stroke:none;">
<circle cx="118.300000" cy="114.000000" r="1.065000" /> 
<path style="fill:#000000; fill-opacity:1.000000; stroke:none;fill-rule:evenodd;"
d="M 186.608000,93.870500
186.626079,93.779613
186.677562,93.702562
186.754613,93.651079
186.845500,93.633000
187.445500,93.633000
187.536387,93.651079
187.613438,93.702562
187.664921,93.779613
187.683000,93.870500
187.683000,94.345500
187.664921,94.436387
187.613438,94.513438
187.536387,94.564921
187.445500,94.583000
186.845500,94.583000
186.754613,94.564921
186.677562,94.513438
186.626079,94.436387
186.608000,94.345500
Z" /> 
<path style="fill:#000000; fill-opacity:1.000000; stroke:none;fill-rule:evenodd;"
d="M 188.333000,93.870500
188.351079,93.779613
188.402562,93.702562
188.479613,93.651079
188.570500,93.633000
189.170500,93.633000
189.261387,93.651079
189.338438,93.702562
189.389921,93.779613
189.408000,93.870500
189.408000,94.345500
189.389921,94.436387
189.338438,94.513438
189.261387,94.564921
189.170500,94.583000
188.570500,94.583000
188.479613,94.564921
188.402562,94.513438
188.351079,94.436387
188.333000,94.345500
Z" /> 
<path style="fill:#000000; fill-opacity:1.000000; stroke:none;fill-rule:evenodd;"
d="M 177.058000,81.830500
177.076079,81.739613
177.127562,81.662562
177.204613,81.611079
177.295500,81.593000
177.795500,81.593000
177.886387,81.611079
177.963438,81.662562
178.014921,81.739613
178.033000,81.830500
178.033000,82.305500
178.014921,82.396387
177.963438,82.473438
177.886387,82.524921
177.795500,82.543000
177.295500,82.543000
177.204613,82.524921
177.127562,82.473438
177.076079,82.396387
177.058000,82.305500
Z" /> 
<path style="fill:#000000; fill-opacity:1.000000; stroke:none;fill-rule:evenodd;"
d="M 178.883000,81.830500
178.901079,81.739613
178.952562,81.662562
179.029613,81.611079
179.120500,81.593000
179.620500,81.593000
179.711387,81.611079
179.788438,81.662562
179.839921,81.739613
179.858000,81.830500
179.858000,82.305500
179.839921,82.396387
179.788438,82.473438
179.711387,82.524921
179.620500,82.543000
179.120500,82.543000
179.029613,82.524921
178.952562,82.473438
178.901079,82.396387
178.883000,82.305500
Z" /> 
<path style="fill:#000000; fill-opacity:1.000000; stroke:none;fill-rule:evenodd;"
d="M 177.058000,76.810500
177.076079,76.719613
177.127562,76.642562
177.204613,76.591079
177.295500,76.573000
177.795500,76.573000
177.886387,76.591079
177.963438,76.642562
178.014921,76.719613
178.033000,76.810500
178.033000,77.285500
178.014921,77.376387
177.963438,77.453438
177.886387,77.504921
177.795500,77.523000
177.295500,77.523000
177.204613,77.504921
177.127562,77.453438
177.076079,77.376387
177.058000,77.285500
Z" /> 
<path style="fill:#000000; fill-opacity:1.000000; stroke:none;fill-rule:evenodd;"
d="M 178.883000,76.810500
178.901079,76.719613
178.952562,76.642562
179.029613,76.591079
179.120500,76.573000
179.620500,76.573000
179.711387,76.591079
179.788438,76.642562
179.839921,76.719613
179.858000,76.810500
179.858000,77.285500
179.839921,77.376387
179.788438,77.453438
179.711387,77.504921
179.620500,77.523000
179.120500,77.523000
179.029613,77.504921
178.952562,77.453438
178.901079,77.376387
178.883000,77.285500
Z" /> 
<path style="fill:#000000; fill-opacity:1.000000; stroke:none;fill-rule:evenodd;"
d="M 190.958000,98.890500
190.976079,98.799613
191.027562,98.722562
191.104613,98.671079
191.195500,98.653000
191.695500,98.653000
191.786387,98.671079
191.863438,98.722562
191.914921,98.799613
191.933000,98.890500
191.933000,99.365500
191.914921,99.456387
191.863438,99.533438
191.786387,99.584921
191.695500,99.603000
191.195500,99.603000
191.104613,99.584921
191.027562,99.533438
190.976079,99.456387
190.958000,99.365500
Z" /> 
<path style="fill:#000000; fill-opacity:1.000000; stroke:none;fill-rule:evenodd;"
d="M 192.783000,98.890500
192.801079,98.799613
192.852562,98.722562
192.929613,98.671079
193.020500,98.653000
193.520500,98.653000
193.611387,98.671079
193.688438,98.722562
193.739921,98.799613
193.758000,98.890500
193.758000,99.365500
193.739921,99.456387
193.688438,99.533438
193.611387,99.584921
193.520500,99.603000
193.020500,99.603000
192.929613,99.584921
192.852562,99.533438
192.801079,99.456387
192.783000,99.365500
Z" /> 
<path style="fill:#000000; fill-opacity:1.000000; stroke:none;fill-rule:evenodd;"
d="M 177.058000,74.300500
177.076079,74.209613
177.127562,74.132562
177.204613,74.081079
177.295500,74.063000
177.795500,74.063000
177.886387,74.081079
177.963438,74.132562
178.014921,74.209613
178.033000,74.300500
178.033000,74.775500
178.014921,74.866387
177.963438,74.943438
177.886387,74.994921
177.795500,75.013000
177.295500,75.013000
177.204613,74.994921
177.127562,74.943438
177.076079,74.866387
177.058000,74.775500
Z" /> 
<path style="fill:#000000; fill-opacity:1.000000; stroke:none;fill-rule:evenodd;"
d="M 178.883000,74.300500
178.901079,74.209613
178.952562,74.132562
179.029613,74.081079
179.120500,74.063000
179.620500,74.063000
179.711387,74.081079
179.788438,74.132562
179.839921,74.209613
179.858000,74.300500
179.858000,74.775500
179.839921,74.866387
179.788438,74.943438
179.711387,74.994921
179.620500,75.013000
179.120500,75.013000
179.029613,74.994921
178.952562,74.943438
178.901079,74.866387
178.883000,74.775500
Z" /> 
<path style="fill:#000000; fill-opacity:1.000000; stroke:none;fill-rule:evenodd;"
d="M 185.758000,76.810500
185.776079,76.719613
185.827562,76.642562
185.904613,76.591079
185.995500,76.573000
186.495500,76.573000
186.586387,76.591079
186.663438,76.642562
186.714921,76.719613
186.733000,76.810500
186.733000,77.285500
186.714921,77.376387
186.663438,77.453438
186.586387,77.504921
186.495500,77.523000
185.995500,77.523000
185.904613,77.504921
185.827562,77.453438
185.776079,77.376387
185.758000,77.285500
Z" /> 
<path style="fill:#000000; fill-opacity:1.000000; stroke:none;fill-rule:evenodd;"
d="M 187.583000,76.810500
187.601079,76.719613
187.652562,76.642562
187.729613,76.591079
187.820500,76.573000
188.320500,76.573000
188.411387,76.591079
188.488438,76.642562
188.539921,76.719613
188.558000,76.810500
188.558000,77.285500
188.539921,77.376387
188.488438,77.453438
188.411387,77.504921
188.320500,77.523000
187.820500,77.523000
187.729613,77.504921
187.652562,77.453438
187.601079,77.376387
187.583000,77.285500
Z" /> 
<path style="fill:#000000; fill-opacity:1.000000; stroke:none;fill-rule:evenodd;"
d="M 181.408000,79.320500
181.426079,79.229613
181.477562,79.152562
181.554613,79.101079
181.645500,79.083000
182.145500,79.083000
182.236387,79.101079
182.313438,79.152562
182.364921,79.229613
182.383000,79.320500
182.383000,79.795500
182.364921,79.886387
182.313438,79.963438
182.236387,80.014921
182.145500,80.033000
181.645500,80.033000
181.554613,80.014921
181.477562,79.963438
181.426079,79.886387
181.408000,79.795500
Z" /> 
<path style="fill:#000000; fill-opacity:1.000000; stroke:none;fill-rule:evenodd;"
d="M 183.233000,79.320500
183.251079,79.229613
183.302562,79.152562
183.379613,79.101079
183.470500,79.083000
183.970500,79.083000
184.061387,79.101079
184.138438,79.152562
184.189921,79.229613
184.208000,79.320500
184.208000,79.795500
184.189921,79.886387
184.138438,79.963438
184.061387,80.014921
183.970500,80.033000
183.470500,80.033000
183.379613,80.014921
183.302562,79.963438
183.251079,79.886387
183.233000,79.795500
Z" /> 
<path style="fill:#000000; fill-opacity:1.000000; stroke:none;fill-rule:evenodd;"
d="M 177.058000,71.790500
177.076079,71.699613
177.127562,71.622562
177.204613,71.571079
177.295500,71.553000
177.795500,71.553000
177.886387,71.571079
177.963438,71.622562
178.014921,71.699613
178.033000,71.790500
178.033000,72.265500
178.014921,72.356387
177.963438,72.433438
177.886387,72.484921
177.795500,72.503000
177.295500,72.503000
177.204613,72.484921
177.127562,72.433438
177.076079,72.356387
177.058000,72.265500
Z" /> 
<path style="fill:#000000; fill-opacity:1.000000; stroke:none;fill-rule:evenodd;"
d="M 178.883000,71.790500
178.901079,71.699613
178.952562,71.622562
179.029613,71.571079
179.120500,71.553000
179.620500,71.553000
179.711387,71.571079
179.788438,71.622562
179.839921,71.699613
179.858000,71.790500
179.858000,72.265500
179.839921,72.356387
179.788438,72.433438
179.711387,72.484921
179.620500,72.503000
179.120500,72.503000
179.029613,72.484921
178.952562,72.433438
178.901079,72.356387
178.883000,72.265500
Z" /> 
<path style="fill:#000000; fill-opacity:1.000000; stroke:none;fill-rule:evenodd;"
d="M 191.593000,136.993000
191.612030,136.897329
191.666223,136.816223
191.747329,136.762030
191.843000,136.743000
192.518000,136.743000
192.613671,136.762030
192.694777,136.816223
192.748970,136.897329
192.768000,136.993000
192.768000,137.943000
192.748970,138.038671
192.694777,138.119777
192.613671,138.173970
192.518000,138.193000
191.843000,138.193000
191.747329,138.173970
191.666223,138.119777
191.612030,138.038671
191.593000,137.943000
Z" /> 
<path style="fill:#000000; fill-opacity:1.000000; stroke:none;fill-rule:evenodd;"
d="M 193.668000,136.993000
193.687030,136.897329
193.741223,136.816223
193.822329,136.762030
193.918000,136.743000
194.593000,136.743000
194.688671,136.762030
194.769777,136.816223
194.823970,136.897329
194.843000,136.993000
194.843000,137.943000
194.823970,138.038671
194.769777,138.119777
194.688671,138.173970
194.593000,138.193000
193.918000,138.193000
193.822329,138.173970
193.741223,138.119777
193.687030,138.038671
193.668000,137.943000
Z" /> 
<path style="fill:#000000; fill-opacity:1.000000; stroke:none;fill-rule:evenodd;"
d="M 104.195000,62.465000
102.365000,62.465000
102.365000,60.535000
104.195000,60.535000
Z" /> 
</g>
<g style="fill:#000000; fill-opacity:1.000000; stroke:none;">
<circle cx="100.180000" cy="61.500000" r="1.065000" /> 
</g>
<g style="fill:#000000; fill-opacity:1.000000; stroke:none;">
<circle cx="91.880000" cy="61.500000" r="1.065000" /> 
<path style="fill:#000000; fill-opacity:1.000000; stroke:none;fill-rule:evenodd;"
d="M 173.888000,104.583000
173.899418,104.525597
173.931934,104.476934
173.980597,104.444418
174.038000,104.433000
175.688000,104.433000
175.745403,104.444418
175.794066,104.476934
175.826582,104.525597
175.838000,104.583000
175.838000,104.883000
175.826582,104.940403
175.794066,104.989066
175.745403,105.021582
175.688000,105.033000
174.038000,105.033000
173.980597,105.021582
173.931934,104.989066
173.899418,104.940403
173.888000,104.883000
Z" /> 
<path style="fill:#000000; fill-opacity:1.000000; stroke:none;fill-rule:evenodd;"
d="M 173.888000,105.853000
173.899418,105.795597
173.931934,105.746934
173.980597,105.714418
174.038000,105.703000
175.688000,105.703000
175.745403,105.714418
175.794066,105.746934
175.826582,105.795597
175.838000,105.853000
175.838000,106.153000
175.826582,106.210403
175.794066,106.259066
175.745403,106.291582
175.688000,106.303000
174.038000,106.303000
173.980597,106.291582
173.931934,106.259066
173.899418,106.210403
173.888000,106.153000
Z" /> 
<path style="fill:#000000; fill-opacity:1.000000; stroke:none;fill-rule:evenodd;"
d="M 173.888000,107.123000
173.899418,107.065597
173.931934,107.016934
173.980597,106.984418
174.038000,106.973000
175.688000,106.973000
175.745403,106.984418
175.794066,107.016934
175.826582,107.065597
175.838000,107.123000
175.838000,107.423000
175.826582,107.480403
175.794066,107.529066
175.745403,107.561582
175.688000,107.573000
174.038000,107.573000
173.980597,107.561582
173.931934,107.529066
173.899418,107.480403
173.888000,107.423000
Z" /> 
<path style="fill:#000000; fill-opacity:1.000000; stroke:none;fill-rule:evenodd;"
d="M 173.888000,108.393000
173.899418,108.335597
173.931934,108.286934
173.980597,108.254418
174.038000,108.243000
175.688000,108.243000
175.745403,108.254418
175.794066,108.286934
175.826582,108.335597
175.838000,108.393000
175.838000,108.693000
175.826582,108.750403
175.794066,108.799066
175.745403,108.831582
175.688000,108.843000
174.038000,108.843000
173.980597,108.831582
173.931934,108.799066
173.899418,108.750403
173.888000,108.693000
Z" /> 
<path style="fill:#000000; fill-opacity:1.000000; stroke:none;fill-rule:evenodd;"
d="M 173.888000,109.663000
173.899418,109.605597
173.931934,109.556934
173.980597,109.524418
174.038000,109.513000
175.688000,109.513000
175.745403,109.524418
175.794066,109.556934
175.826582,109.605597
175.838000,109.663000
175.838000,109.963000
175.826582,110.020403
175.794066,110.069066
175.745403,110.101582
175.688000,110.113000
174.038000,110.113000
173.980597,110.101582
173.931934,110.069066
173.899418,110.020403
173.888000,109.963000
Z" /> 
<path style="fill:#000000; fill-opacity:1.000000; stroke:none;fill-rule:evenodd;"
d="M 173.888000,110.933000
173.899418,110.875597
173.931934,110.826934
173.980597,110.794418
174.038000,110.783000
175.688000,110.783000
175.745403,110.794418
175.794066,110.826934
175.826582,110.875597
175.838000,110.933000
175.838000,111.233000
175.826582,111.290403
175.794066,111.339066
175.745403,111.371582
175.688000,111.383000
174.038000,111.383000
173.980597,111.371582
173.931934,111.339066
173.899418,111.290403
173.888000,111.233000
Z" /> 
<path style="fill:#000000; fill-opacity:1.000000; stroke:none;fill-rule:evenodd;"
d="M 173.888000,112.203000
173.899418,112.145597
173.931934,112.096934
173.980597,112.064418
174.038000,112.053000
175.688000,112.053000
175.745403,112.064418
175.794066,112.096934
175.826582,112.145597
175.838000,112.203000
175.838000,112.503000
175.826582,112.560403
175.794066,112.609066
175.745403,112.641582
175.688000,112.653000
174.038000,112.653000
173.980597,112.641582
173.931934,112.609066
173.899418,112.560403
173.888000,112.503000
Z" /> 
<path style="fill:#000000; fill-opacity:1.000000; stroke:none;fill-rule:evenodd;"
d="M 178.838000,112.203000
178.849418,112.145597
178.881934,112.096934
178.930597,112.064418
178.988000,112.053000
180.638000,112.053000
180.695403,112.064418
180.744066,112.096934
180.776582,112.145597
180.788000,112.203000
180.788000,112.503000
180.776582,112.560403
180.744066,112.609066
180.695403,112.641582
180.638000,112.653000
178.988000,112.653000
178.930597,112.641582
178.881934,112.609066
178.849418,112.560403
178.838000,112.503000
Z" /> 
<path style="fill:#000000; fill-opacity:1.000000; stroke:none;fill-rule:evenodd;"
d="M 178.838000,110.933000
178.849418,110.875597
178.881934,110.826934
178.930597,110.794418
178.988000,110.783000
180.638000,110.783000
180.695403,110.794418
180.744066,110.826934
180.776582,110.875597
180.788000,110.933000
180.788000,111.233000
180.776582,111.290403
180.744066,111.339066
180.695403,111.371582
180.638000,111.383000
178.988000,111.383000
178.930597,111.371582
178.881934,111.339066
178.849418,111.290403
178.838000,111.233000
Z" /> 
<path style="fill:#000000; fill-opacity:1.000000; stroke:none;fill-rule:evenodd;"
d="M 178.838000,109.663000
178.849418,109.605597
178.881934,109.556934
178.930597,109.524418
178.988000,109.513000
180.638000,109.513000
180.695403,109.524418
180.744066,109.556934
180.776582,109.605597
180.788000,109.663000
180.788000,109.963000
180.776582,110.020403
180.744066,110.069066
180.695403,110.101582
180.638000,110.113000
178.988000,110.113000
178.930597,110.101582
178.881934,110.069066
178.849418,110.020403
178.838000,109.963000
Z" /> 
<path style="fill:#000000; fill-opacity:1.000000; stroke:none;fill-rule:evenodd;"
d="M 178.838000,108.393000
178.849418,108.335597
178.881934,108.286934
178.930597,108.254418
178.988000,108.243000
180.638000,108.243000
180.695403,108.254418
180.744066,108.286934
180.776582,108.335597
180.788000,108.393000
180.788000,108.693000
180.776582,108.750403
180.744066,108.799066
180.695403,108.831582
180.638000,108.843000
178.988000,108.843000
178.930597,108.831582
178.881934,108.799066
178.849418,108.750403
178.838000,108.693000
Z" /> 
<path style="fill:#000000; fill-opacity:1.000000; stroke:none;fill-rule:evenodd;"
d="M 178.838000,107.123000
178.849418,107.065597
178.881934,107.016934
178.930597,106.984418
178.988000,106.973000
180.638000,106.973000
180.695403,106.984418
180.744066,107.016934
180.776582,107.065597
180.788000,107.123000
180.788000,107.423000
180.776582,107.480403
180.744066,107.529066
180.695403,107.561582
180.638000,107.573000
178.988000,107.573000
178.930597,107.561582
178.881934,107.529066
178.849418,107.480403
178.838000,107.423000
Z" /> 
<path style="fill:#000000; fill-opacity:1.000000; stroke:none;fill-rule:evenodd;"
d="M 178.838000,105.853000
178.849418,105.795597
178.881934,105.746934
178.930597,105.714418
178.988000,105.703000
180.638000,105.703000
180.695403,105.714418
180.744066,105.746934
180.776582,105.795597
180.788000,105.853000
180.788000,106.153000
180.776582,106.210403
180.744066,106.259066
180.695403,106.291582
180.638000,106.303000
178.988000,106.303000
178.930597,106.291582
178.881934,106.259066
178.849418,106.210403
178.838000,106.153000
Z" /> 
<path style="fill:#000000; fill-opacity:1.000000; stroke:none;fill-rule:evenodd;"
d="M 178.838000,104.583000
178.849418,104.525597
178.881934,104.476934
178.930597,104.444418
178.988000,104.433000
180.638000,104.433000
180.695403,104.444418
180.744066,104.476934
180.776582,104.525597
180.788000,104.583000
180.788000,104.883000
180.776582,104.940403
180.744066,104.989066
180.695403,105.021582
180.638000,105.033000
178.988000,105.033000
178.930597,105.021582
178.881934,104.989066
178.849418,104.940403
178.838000,104.883000
Z" /> 
<path style="fill:#000000; fill-opacity:1.000000; stroke:none;fill-rule:evenodd;"
d="M 186.608000,91.360500
186.626079,91.269613
186.677562,91.192562
186.754613,91.141079
186.845500,91.123000
187.445500,91.123000
187.536387,91.141079
187.613438,91.192562
187.664921,91.269613
187.683000,91.360500
187.683000,91.835500
187.664921,91.926387
187.613438,92.003438
187.536387,92.054921
187.445500,92.073000
186.845500,92.073000
186.754613,92.054921
186.677562,92.003438
186.626079,91.926387
186.608000,91.835500
Z" /> 
<path style="fill:#000000; fill-opacity:1.000000; stroke:none;fill-rule:evenodd;"
d="M 188.333000,91.360500
188.351079,91.269613
188.402562,91.192562
188.479613,91.141079
188.570500,91.123000
189.170500,91.123000
189.261387,91.141079
189.338438,91.192562
189.389921,91.269613
189.408000,91.360500
189.408000,91.835500
189.389921,91.926387
189.338438,92.003438
189.261387,92.054921
189.170500,92.073000
188.570500,92.073000
188.479613,92.054921
188.402562,92.003438
188.351079,91.926387
188.333000,91.835500
Z" /> 
<path style="fill:#000000; fill-opacity:1.000000; stroke:none;fill-rule:evenodd;"
d="M 158.400000,127.475000
158.417127,127.388896
158.465901,127.315901
158.538896,127.267127
158.625000,127.250000
159.075000,127.250000
159.161104,127.267127
159.234099,127.315901
159.282873,127.388896
159.300000,127.475000
159.300000,128.225000
159.282873,128.311104
159.234099,128.384099
159.161104,128.432873
159.075000,128.450000
158.625000,128.450000
158.538896,128.432873
158.465901,128.384099
158.417127,128.311104
158.400000,128.225000
Z" /> 
<path style="fill:#000000; fill-opacity:1.000000; stroke:none;fill-rule:evenodd;"
d="M 161.700000,127.475000
161.717127,127.388896
161.765901,127.315901
161.838896,127.267127
161.925000,127.250000
162.375000,127.250000
162.461104,127.267127
162.534099,127.315901
162.582873,127.388896
162.600000,127.475000
162.600000,128.225000
162.582873,128.311104
162.534099,128.384099
162.461104,128.432873
162.375000,128.450000
161.925000,128.450000
161.838896,128.432873
161.765901,128.384099
161.717127,128.311104
161.700000,128.225000
Z" /> 
<path style="fill:#000000; fill-opacity:1.000000; stroke:none;fill-rule:evenodd;"
d="M 105.785000,60.535000
107.615000,60.535000
107.615000,62.465000
105.785000,62.465000
Z" /> 
</g>
<g style="fill:#000000; fill-opacity:1.000000; stroke:none;">
<circle cx="109.800000" cy="61.500000" r="1.065000" /> 
</g>
<g style="fill:#000000; fill-opacity:1.000000; stroke:none;">
<circle cx="118.100000" cy="61.500000" r="1.065000" /> 
<path style="fill:#000000; fill-opacity:1.000000; stroke:none;fill-rule:evenodd;"
d="M 181.408000,81.830500
181.426079,81.739613
181.477562,81.662562
181.554613,81.611079
181.645500,81.593000
182.145500,81.593000
182.236387,81.611079
182.313438,81.662562
182.364921,81.739613
182.383000,81.830500
182.383000,82.305500
182.364921,82.396387
182.313438,82.473438
182.236387,82.524921
182.145500,82.543000
181.645500,82.543000
181.554613,82.524921
181.477562,82.473438
181.426079,82.396387
181.408000,82.305500
Z" /> 
<path style="fill:#000000; fill-opacity:1.000000; stroke:none;fill-rule:evenodd;"
d="M 183.233000,81.830500
183.251079,81.739613
183.302562,81.662562
183.379613,81.611079
183.470500,81.593000
183.970500,81.593000
184.061387,81.611079
184.138438,81.662562
184.189921,81.739613
184.208000,81.830500
184.208000,82.305500
184.189921,82.396387
184.138438,82.473438
184.061387,82.524921
183.970500,82.543000
183.470500,82.543000
183.379613,82.524921
183.302562,82.473438
183.251079,82.396387
183.233000,82.305500
Z" /> 
<path style="fill:#000000; fill-opacity:1.000000; stroke:none;fill-rule:evenodd;"
d="M 183.138000,131.243000
183.149418,131.185597
183.181934,131.136934
183.230597,131.104418
183.288000,131.093000
184.938000,131.093000
184.995403,131.104418
185.044066,131.136934
185.076582,131.185597
185.088000,131.243000
185.088000,131.543000
185.076582,131.600403
185.044066,131.649066
184.995403,131.681582
184.938000,131.693000
183.288000,131.693000
183.230597,131.681582
183.181934,131.649066
183.149418,131.600403
183.138000,131.543000
Z" /> 
<path style="fill:#000000; fill-opacity:1.000000; stroke:none;fill-rule:evenodd;"
d="M 183.138000,132.513000
183.149418,132.455597
183.181934,132.406934
183.230597,132.374418
183.288000,132.363000
184.938000,132.363000
184.995403,132.374418
185.044066,132.406934
185.076582,132.455597
185.088000,132.513000
185.088000,132.813000
185.076582,132.870403
185.044066,132.919066
184.995403,132.951582
184.938000,132.963000
183.288000,132.963000
183.230597,132.951582
183.181934,132.919066
183.149418,132.870403
183.138000,132.813000
Z" /> 
<path style="fill:#000000; fill-opacity:1.000000; stroke:none;fill-rule:evenodd;"
d="M 183.138000,133.783000
183.149418,133.725597
183.181934,133.676934
183.230597,133.644418
183.288000,133.633000
184.938000,133.633000
184.995403,133.644418
185.044066,133.676934
185.076582,133.725597
185.088000,133.783000
185.088000,134.083000
185.076582,134.140403
185.044066,134.189066
184.995403,134.221582
184.938000,134.233000
183.288000,134.233000
183.230597,134.221582
183.181934,134.189066
183.149418,134.140403
183.138000,134.083000
Z" /> 
<path style="fill:#000000; fill-opacity:1.000000; stroke:none;fill-rule:evenodd;"
d="M 183.138000,135.053000
183.149418,134.995597
183.181934,134.946934
183.230597,134.914418
183.288000,134.903000
184.938000,134.903000
184.995403,134.914418
185.044066,134.946934
185.076582,134.995597
185.088000,135.053000
185.088000,135.353000
185.076582,135.410403
185.044066,135.459066
184.995403,135.491582
184.938000,135.503000
183.288000,135.503000
183.230597,135.491582
183.181934,135.459066
183.149418,135.410403
183.138000,135.353000
Z" /> 
<path style="fill:#000000; fill-opacity:1.000000; stroke:none;fill-rule:evenodd;"
d="M 188.088000,135.053000
188.099418,134.995597
188.131934,134.946934
188.180597,134.914418
188.238000,134.903000
189.888000,134.903000
189.945403,134.914418
189.994066,134.946934
190.026582,134.995597
190.038000,135.053000
190.038000,135.353000
190.026582,135.410403
189.994066,135.459066
189.945403,135.491582
189.888000,135.503000
188.238000,135.503000
188.180597,135.491582
188.131934,135.459066
188.099418,135.410403
188.088000,135.353000
Z" /> 
<path style="fill:#000000; fill-opacity:1.000000; stroke:none;fill-rule:evenodd;"
d="M 188.088000,133.783000
188.099418,133.725597
188.131934,133.676934
188.180597,133.644418
188.238000,133.633000
189.888000,133.633000
189.945403,133.644418
189.994066,133.676934
190.026582,133.725597
190.038000,133.783000
190.038000,134.083000
190.026582,134.140403
189.994066,134.189066
189.945403,134.221582
189.888000,134.233000
188.238000,134.233000
188.180597,134.221582
188.131934,134.189066
188.099418,134.140403
188.088000,134.083000
Z" /> 
<path style="fill:#000000; fill-opacity:1.000000; stroke:none;fill-rule:evenodd;"
d="M 188.088000,132.513000
188.099418,132.455597
188.131934,132.406934
188.180597,132.374418
188.238000,132.363000
189.888000,132.363000
189.945403,132.374418
189.994066,132.406934
190.026582,132.455597
190.038000,132.513000
190.038000,132.813000
190.026582,132.870403
189.994066,132.919066
189.945403,132.951582
189.888000,132.963000
188.238000,132.963000
188.180597,132.951582
188.131934,132.919066
188.099418,132.870403
188.088000,132.813000
Z" /> 
<path style="fill:#000000; fill-opacity:1.000000; stroke:none;fill-rule:evenodd;"
d="M 188.088000,131.243000
188.099418,131.185597
188.131934,131.136934
188.180597,131.104418
188.238000,131.093000
189.888000,131.093000
189.945403,131.104418
189.994066,131.136934
190.026582,131.185597
190.038000,131.243000
190.038000,131.543000
190.026582,131.600403
189.994066,131.649066
189.945403,131.681582
189.888000,131.693000
188.238000,131.693000
188.180597,131.681582
188.131934,131.649066
188.099418,131.600403
188.088000,131.543000
Z" /> 
<path style="fill:#000000; fill-opacity:1.000000; stroke:none;fill-rule:evenodd;"
d="M 137.550000,86.375000
137.607403,86.386418
137.656066,86.418934
137.688582,86.467597
137.700000,86.525000
137.700000,88.175000
137.688582,88.232403
137.656066,88.281066
137.607403,88.313582
137.550000,88.325000
137.250000,88.325000
137.192597,88.313582
137.143934,88.281066
137.111418,88.232403
137.100000,88.175000
137.100000,86.525000
137.111418,86.467597
137.143934,86.418934
137.192597,86.386418
137.250000,86.375000
Z" /> 
<path style="fill:#000000; fill-opacity:1.000000; stroke:none;fill-rule:evenodd;"
d="M 136.280000,86.375000
136.337403,86.386418
136.386066,86.418934
136.418582,86.467597
136.430000,86.525000
136.430000,88.175000
136.418582,88.232403
136.386066,88.281066
136.337403,88.313582
136.280000,88.325000
135.980000,88.325000
135.922597,88.313582
135.873934,88.281066
135.841418,88.232403
135.830000,88.175000
135.830000,86.525000
135.841418,86.467597
135.873934,86.418934
135.922597,86.386418
135.980000,86.375000
Z" /> 
<path style="fill:#000000; fill-opacity:1.000000; stroke:none;fill-rule:evenodd;"
d="M 135.010000,86.375000
135.067403,86.386418
135.116066,86.418934
135.148582,86.467597
135.160000,86.525000
135.160000,88.175000
135.148582,88.232403
135.116066,88.281066
135.067403,88.313582
135.010000,88.325000
134.710000,88.325000
134.652597,88.313582
134.603934,88.281066
134.571418,88.232403
134.560000,88.175000
134.560000,86.525000
134.571418,86.467597
134.603934,86.418934
134.652597,86.386418
134.710000,86.375000
Z" /> 
<path style="fill:#000000; fill-opacity:1.000000; stroke:none;fill-rule:evenodd;"
d="M 133.740000,86.375000
133.797403,86.386418
133.846066,86.418934
133.878582,86.467597
133.890000,86.525000
133.890000,88.175000
133.878582,88.232403
133.846066,88.281066
133.797403,88.313582
133.740000,88.325000
133.440000,88.325000
133.382597,88.313582
133.333934,88.281066
133.301418,88.232403
133.290000,88.175000
133.290000,86.525000
133.301418,86.467597
133.333934,86.418934
133.382597,86.386418
133.440000,86.375000
Z" /> 
<path style="fill:#000000; fill-opacity:1.000000; stroke:none;fill-rule:evenodd;"
d="M 132.470000,86.375000
132.527403,86.386418
132.576066,86.418934
132.608582,86.467597
132.620000,86.525000
132.620000,88.175000
132.608582,88.232403
132.576066,88.281066
132.527403,88.313582
132.470000,88.325000
132.170000,88.325000
132.112597,88.313582
132.063934,88.281066
132.031418,88.232403
132.020000,88.175000
132.020000,86.525000
132.031418,86.467597
132.063934,86.418934
132.112597,86.386418
132.170000,86.375000
Z" /> 
<path style="fill:#000000; fill-opacity:1.000000; stroke:none;fill-rule:evenodd;"
d="M 131.200000,86.375000
131.257403,86.386418
131.306066,86.418934
131.338582,86.467597
131.350000,86.525000
131.350000,88.175000
131.338582,88.232403
131.306066,88.281066
131.257403,88.313582
131.200000,88.325000
130.900000,88.325000
130.842597,88.313582
130.793934,88.281066
130.761418,88.232403
130.750000,88.175000
130.750000,86.525000
130.761418,86.467597
130.793934,86.418934
130.842597,86.386418
130.900000,86.375000
Z" /> 
<path style="fill:#000000; fill-opacity:1.000000; stroke:none;fill-rule:evenodd;"
d="M 129.930000,86.375000
129.987403,86.386418
130.036066,86.418934
130.068582,86.467597
130.080000,86.525000
130.080000,88.175000
130.068582,88.232403
130.036066,88.281066
129.987403,88.313582
129.930000,88.325000
129.630000,88.325000
129.572597,88.313582
129.523934,88.281066
129.491418,88.232403
129.480000,88.175000
129.480000,86.525000
129.491418,86.467597
129.523934,86.418934
129.572597,86.386418
129.630000,86.375000
Z" /> 
<path style="fill:#000000; fill-opacity:1.000000; stroke:none;fill-rule:evenodd;"
d="M 129.930000,91.325000
129.987403,91.336418
130.036066,91.368934
130.068582,91.417597
130.080000,91.475000
130.080000,93.125000
130.068582,93.182403
130.036066,93.231066
129.987403,93.263582
129.930000,93.275000
129.630000,93.275000
129.572597,93.263582
129.523934,93.231066
129.491418,93.182403
129.480000,93.125000
129.480000,91.475000
129.491418,91.417597
129.523934,91.368934
129.572597,91.336418
129.630000,91.325000
Z" /> 
<path style="fill:#000000; fill-opacity:1.000000; stroke:none;fill-rule:evenodd;"
d="M 131.200000,91.325000
131.257403,91.336418
131.306066,91.368934
131.338582,91.417597
131.350000,91.475000
131.350000,93.125000
131.338582,93.182403
131.306066,93.231066
131.257403,93.263582
131.200000,93.275000
130.900000,93.275000
130.842597,93.263582
130.793934,93.231066
130.761418,93.182403
130.750000,93.125000
130.750000,91.475000
130.761418,91.417597
130.793934,91.368934
130.842597,91.336418
130.900000,91.325000
Z" /> 
<path style="fill:#000000; fill-opacity:1.000000; stroke:none;fill-rule:evenodd;"
d="M 132.470000,91.325000
132.527403,91.336418
132.576066,91.368934
132.608582,91.417597
132.620000,91.475000
132.620000,93.125000
132.608582,93.182403
132.576066,93.231066
132.527403,93.263582
132.470000,93.275000
132.170000,93.275000
132.112597,93.263582
132.063934,93.231066
132.031418,93.182403
132.020000,93.125000
132.020000,91.475000
132.031418,91.417597
132.063934,91.368934
132.112597,91.336418
132.170000,91.325000
Z" /> 
<path style="fill:#000000; fill-opacity:1.000000; stroke:none;fill-rule:evenodd;"
d="M 133.740000,91.325000
133.797403,91.336418
133.846066,91.368934
133.878582,91.417597
133.890000,91.475000
133.890000,93.125000
133.878582,93.182403
133.846066,93.231066
133.797403,93.263582
133.740000,93.275000
133.440000,93.275000
133.382597,93.263582
133.333934,93.231066
133.301418,93.182403
133.290000,93.125000
133.290000,91.475000
133.301418,91.417597
133.333934,91.368934
133.382597,91.336418
133.440000,91.325000
Z" /> 
<path style="fill:#000000; fill-opacity:1.000000; stroke:none;fill-rule:evenodd;"
d="M 135.010000,91.325000
135.067403,91.336418
135.116066,91.368934
135.148582,91.417597
135.160000,91.475000
135.160000,93.125000
135.148582,93.182403
135.116066,93.231066
135.067403,93.263582
135.010000,93.275000
134.710000,93.275000
134.652597,93.263582
134.603934,93.231066
134.571418,93.182403
134.560000,93.125000
134.560000,91.475000
134.571418,91.417597
134.603934,91.368934
134.652597,91.336418
134.710000,91.325000
Z" /> 
<path style="fill:#000000; fill-opacity:1.000000; stroke:none;fill-rule:evenodd;"
d="M 136.280000,91.325000
136.337403,91.336418
136.386066,91.368934
136.418582,91.417597
136.430000,91.475000
136.430000,93.125000
136.418582,93.182403
136.386066,93.231066
136.337403,93.263582
136.280000,93.275000
135.980000,93.275000
135.922597,93.263582
135.873934,93.231066
135.841418,93.182403
135.830000,93.125000
135.830000,91.475000
135.841418,91.417597
135.873934,91.368934
135.922597,91.336418
135.980000,91.325000
Z" /> 
<path style="fill:#000000; fill-opacity:1.000000; stroke:none;fill-rule:evenodd;"
d="M 137.550000,91.325000
137.607403,91.336418
137.656066,91.368934
137.688582,91.417597
137.700000,91.475000
137.700000,93.125000
137.688582,93.182403
137.656066,93.231066
137.607403,93.263582
137.550000,93.275000
137.250000,93.275000
137.192597,93.263582
137.143934,93.231066
137.111418,93.182403
137.100000,93.125000
137.100000,91.475000
137.111418,91.417597
137.143934,91.368934
137.192597,91.336418
137.250000,91.325000
Z" /> 
<path style="fill:#000000; fill-opacity:1.000000; stroke:none;fill-rule:evenodd;"
d="M 158.400000,138.125000
158.417127,138.038896
158.465901,137.965901
158.538896,137.917127
158.625000,137.900000
159.075000,137.900000
159.161104,137.917127
159.234099,137.965901
159.282873,138.038896
159.300000,138.125000
159.300000,138.875000
159.282873,138.961104
159.234099,139.034099
159.161104,139.082873
159.075000,139.100000
158.625000,139.100000
158.538896,139.082873
158.465901,139.034099
158.417127,138.961104
158.400000,138.875000
Z" /> 
<path style="fill:#000000; fill-opacity:1.000000; stroke:none;fill-rule:evenodd;"
d="M 161.700000,138.125000
161.717127,138.038896
161.765901,137.965901
161.838896,137.917127
161.925000,137.900000
162.375000,137.900000
162.461104,137.917127
162.534099,137.965901
162.582873,138.038896
162.600000,138.125000
162.600000,138.875000
162.582873,138.961104
162.534099,139.034099
162.461104,139.082873
162.375000,139.100000
161.925000,139.100000
161.838896,139.082873
161.765901,139.034099
161.717127,138.961104
161.700000,138.875000
Z" /> 
<path style="fill:#000000; fill-opacity:1.000000; stroke:none;fill-rule:evenodd;"
d="M 185.758000,74.300500
185.776079,74.209613
185.827562,74.132562
185.904613,74.081079
185.995500,74.063000
186.495500,74.063000
186.586387,74.081079
186.663438,74.132562
186.714921,74.209613
186.733000,74.300500
186.733000,74.775500
186.714921,74.866387
186.663438,74.943438
186.586387,74.994921
186.495500,75.013000
185.995500,75.013000
185.904613,74.994921
185.827562,74.943438
185.776079,74.866387
185.758000,74.775500
Z" /> 
<path style="fill:#000000; fill-opacity:1.000000; stroke:none;fill-rule:evenodd;"
d="M 187.583000,74.300500
187.601079,74.209613
187.652562,74.132562
187.729613,74.081079
187.820500,74.063000
188.320500,74.063000
188.411387,74.081079
188.488438,74.132562
188.539921,74.209613
188.558000,74.300500
188.558000,74.775500
188.539921,74.866387
188.488438,74.943438
188.411387,74.994921
188.320500,75.013000
187.820500,75.013000
187.729613,74.994921
187.652562,74.943438
187.601079,74.866387
187.583000,74.775500
Z" /> 
<path style="fill:#000000; fill-opacity:1.000000; stroke:none;fill-rule:evenodd;"
d="M 186.608000,98.890500
186.626079,98.799613
186.677562,98.722562
186.754613,98.671079
186.845500,98.653000
187.345500,98.653000
187.436387,98.671079
187.513438,98.722562
187.564921,98.799613
187.583000,98.890500
187.583000,99.365500
187.564921,99.456387
187.513438,99.533438
187.436387,99.584921
187.345500,99.603000
186.845500,99.603000
186.754613,99.584921
186.677562,99.533438
186.626079,99.456387
186.608000,99.365500
Z" /> 
<path style="fill:#000000; fill-opacity:1.000000; stroke:none;fill-rule:evenodd;"
d="M 188.433000,98.890500
188.451079,98.799613
188.502562,98.722562
188.579613,98.671079
188.670500,98.653000
189.170500,98.653000
189.261387,98.671079
189.338438,98.722562
189.389921,98.799613
189.408000,98.890500
189.408000,99.365500
189.389921,99.456387
189.338438,99.533438
189.261387,99.584921
189.170500,99.603000
188.670500,99.603000
188.579613,99.584921
188.502562,99.533438
188.451079,99.456387
188.433000,99.365500
Z" /> 
<path style="fill:#000000; fill-opacity:1.000000; stroke:none;fill-rule:evenodd;"
d="M 105.985000,133.035000
107.815000,133.035000
107.815000,134.965000
105.985000,134.965000
Z" /> 
</g>
<g style="fill:#000000; fill-opacity:1.000000; stroke:none;">
<circle cx="110.000000" cy="134.000000" r="1.065000" /> 
</g>
<g style="fill:#000000; fill-opacity:1.000000; stroke:none;">
<circle cx="118.300000" cy="134.000000" r="1.065000" /> 
<path style="fill:#000000; fill-opacity:1.000000; stroke:none;fill-rule:evenodd;"
d="M 181.408000,74.300500
181.426079,74.209613
181.477562,74.132562
181.554613,74.081079
181.645500,74.063000
182.145500,74.063000
182.236387,74.081079
182.313438,74.132562
182.364921,74.209613
182.383000,74.300500
182.383000,74.775500
182.364921,74.866387
182.313438,74.943438
182.236387,74.994921
182.145500,75.013000
181.645500,75.013000
181.554613,74.994921
181.477562,74.943438
181.426079,74.866387
181.408000,74.775500
Z" /> 
<path style="fill:#000000; fill-opacity:1.000000; stroke:none;fill-rule:evenodd;"
d="M 183.233000,74.300500
183.251079,74.209613
183.302562,74.132562
183.379613,74.081079
183.470500,74.063000
183.970500,74.063000
184.061387,74.081079
184.138438,74.132562
184.189921,74.209613
184.208000,74.300500
184.208000,74.775500
184.189921,74.866387
184.138438,74.943438
184.061387,74.994921
183.970500,75.013000
183.470500,75.013000
183.379613,74.994921
183.302562,74.943438
183.251079,74.866387
183.233000,74.775500
Z" /> 
<path style="fill:#000000; fill-opacity:1.000000; stroke:none;fill-rule:evenodd;"
d="M 104.015000,154.965000
102.185000,154.965000
102.185000,153.035000
104.015000,153.035000
Z" /> 
</g>
<g style="fill:#000000; fill-opacity:1.000000; stroke:none;">
<circle cx="100.000000" cy="154.000000" r="1.065000" /> 
</g>
<g style="fill:#000000; fill-opacity:1.000000; stroke:none;">
<circle cx="91.700000" cy="154.000000" r="1.065000" /> 
<path style="fill:#000000; fill-opacity:1.000000; stroke:none;fill-rule:evenodd;"
d="M 191.593000,133.983000
191.612030,133.887329
191.666223,133.806223
191.747329,133.752030
191.843000,133.733000
192.518000,133.733000
192.613671,133.752030
192.694777,133.806223
192.748970,133.887329
192.768000,133.983000
192.768000,134.933000
192.748970,135.028671
192.694777,135.109777
192.613671,135.163970
192.518000,135.183000
191.843000,135.183000
191.747329,135.163970
191.666223,135.109777
191.612030,135.028671
191.593000,134.933000
Z" /> 
<path style="fill:#000000; fill-opacity:1.000000; stroke:none;fill-rule:evenodd;"
d="M 193.668000,133.983000
193.687030,133.887329
193.741223,133.806223
193.822329,133.752030
193.918000,133.733000
194.593000,133.733000
194.688671,133.752030
194.769777,133.806223
194.823970,133.887329
194.843000,133.983000
194.843000,134.933000
194.823970,135.028671
194.769777,135.109777
194.688671,135.163970
194.593000,135.183000
193.918000,135.183000
193.822329,135.163970
193.741223,135.109777
193.687030,135.028671
193.668000,134.933000
Z" /> 
</g>
<g style="fill:none; 
stroke:#000000; stroke-width:4.200000; stroke-opacity:1; 
stroke-linecap:round; stroke-linejoin:round;">
<path d="M61.100000 165.500000
L63.900000 165.500000
" />
<path d="M61.100000 43.000000
L63.900000 43.000000
" />
</g>
<g style="fill:none; 
stroke:#000000; stroke-width:2.720000; stroke-opacity:1; 
stroke-linecap:round; stroke-linejoin:round;">
<path d="M92.000000 76.735000
L92.000000 76.215000
" />
<path d="M101.600000 76.735000
L101.600000 76.215000
" />
</g>
<g style="fill:#000000; fill-opacity:1.000000; stroke:none;">
<circle cx="96.800000" cy="83.975000" r="0.900000" /> 
</g>
<g style="fill:#000000; fill-opacity:1.000000; stroke:none;">
<circle cx="99.300000" cy="83.975000" r="0.900000" /> 
<path style="fill:#000000; fill-opacity:1.000000; stroke:none;fill-rule:evenodd;"
d="M 95.200000,83.075000
95.200000,84.875000
93.400000,84.875000
93.400000,83.075000
Z" /> 
<path style="fill:#000000; fill-opacity:1.000000; stroke:none;fill-rule:evenodd;"
d="M 104.015000,114.965000
102.185000,114.965000
102.185000,113.035000
104.015000,113.035000
Z" /> 
</g>
<g style="fill:#000000; fill-opacity:1.000000; stroke:none;">
<circle cx="100.000000" cy="114.000000" r="1.065000" /> 
</g>
<g style="fill:#000000; fill-opacity:1.000000; stroke:none;">
<circle cx="91.700000" cy="114.000000" r="1.065000" /> 
<path style="fill:#000000; fill-opacity:1.000000; stroke:none;fill-rule:evenodd;"
d="M 181.408000,84.340500
181.426079,84.249613
181.477562,84.172562
181.554613,84.121079
181.645500,84.103000
182.145500,84.103000
182.236387,84.121079
182.313438,84.172562
182.364921,84.249613
182.383000,84.340500
182.383000,84.815500
182.364921,84.906387
182.313438,84.983438
182.236387,85.034921
182.145500,85.053000
181.645500,85.053000
181.554613,85.034921
181.477562,84.983438
181.426079,84.906387
181.408000,84.815500
Z" /> 
<path style="fill:#000000; fill-opacity:1.000000; stroke:none;fill-rule:evenodd;"
d="M 183.233000,84.340500
183.251079,84.249613
183.302562,84.172562
183.379613,84.121079
183.470500,84.103000
183.970500,84.103000
184.061387,84.121079
184.138438,84.172562
184.189921,84.249613
184.208000,84.340500
184.208000,84.815500
184.189921,84.906387
184.138438,84.983438
184.061387,85.034921
183.970500,85.053000
183.470500,85.053000
183.379613,85.034921
183.302562,84.983438
183.251079,84.906387
183.233000,84.815500
Z" /> 
<path style="fill:#000000; fill-opacity:1.000000; stroke:none;fill-rule:evenodd;"
d="M 186.608000,96.380500
186.626079,96.289613
186.677562,96.212562
186.754613,96.161079
186.845500,96.143000
187.345500,96.143000
187.436387,96.161079
187.513438,96.212562
187.564921,96.289613
187.583000,96.380500
187.583000,96.855500
187.564921,96.946387
187.513438,97.023438
187.436387,97.074921
187.345500,97.093000
186.845500,97.093000
186.754613,97.074921
186.677562,97.023438
186.626079,96.946387
186.608000,96.855500
Z" /> 
<path style="fill:#000000; fill-opacity:1.000000; stroke:none;fill-rule:evenodd;"
d="M 188.433000,96.380500
188.451079,96.289613
188.502562,96.212562
188.579613,96.161079
188.670500,96.143000
189.170500,96.143000
189.261387,96.161079
189.338438,96.212562
189.389921,96.289613
189.408000,96.380500
189.408000,96.855500
189.389921,96.946387
189.338438,97.023438
189.261387,97.074921
189.170500,97.093000
188.670500,97.093000
188.579613,97.074921
188.502562,97.023438
188.451079,96.946387
188.433000,96.855500
Z" /> 
<path style="fill:#000000; fill-opacity:1.000000; stroke:none;fill-rule:evenodd;"
d="M 165.438000,104.583000
165.449418,104.525597
165.481934,104.476934
165.530597,104.444418
165.588000,104.433000
167.238000,104.433000
167.295403,104.444418
167.344066,104.476934
167.376582,104.525597
167.388000,104.583000
167.388000,104.883000
167.376582,104.940403
167.344066,104.989066
167.295403,105.021582
167.238000,105.033000
165.588000,105.033000
165.530597,105.021582
165.481934,104.989066
165.449418,104.940403
165.438000,104.883000
Z" /> 
<path style="fill:#000000; fill-opacity:1.000000; stroke:none;fill-rule:evenodd;"
d="M 165.438000,105.853000
165.449418,105.795597
165.481934,105.746934
165.530597,105.714418
165.588000,105.703000
167.238000,105.703000
167.295403,105.714418
167.344066,105.746934
167.376582,105.795597
167.388000,105.853000
167.388000,106.153000
167.376582,106.210403
167.344066,106.259066
167.295403,106.291582
167.238000,106.303000
165.588000,106.303000
165.530597,106.291582
165.481934,106.259066
165.449418,106.210403
165.438000,106.153000
Z" /> 
<path style="fill:#000000; fill-opacity:1.000000; stroke:none;fill-rule:evenodd;"
d="M 165.438000,107.123000
165.449418,107.065597
165.481934,107.016934
165.530597,106.984418
165.588000,106.973000
167.238000,106.973000
167.295403,106.984418
167.344066,107.016934
167.376582,107.065597
167.388000,107.123000
167.388000,107.423000
167.376582,107.480403
167.344066,107.529066
167.295403,107.561582
167.238000,107.573000
165.588000,107.573000
165.530597,107.561582
165.481934,107.529066
165.449418,107.480403
165.438000,107.423000
Z" /> 
<path style="fill:#000000; fill-opacity:1.000000; stroke:none;fill-rule:evenodd;"
d="M 165.438000,108.393000
165.449418,108.335597
165.481934,108.286934
165.530597,108.254418
165.588000,108.243000
167.238000,108.243000
167.295403,108.254418
167.344066,108.286934
167.376582,108.335597
167.388000,108.393000
167.388000,108.693000
167.376582,108.750403
167.344066,108.799066
167.295403,108.831582
167.238000,108.843000
165.588000,108.843000
165.530597,108.831582
165.481934,108.799066
165.449418,108.750403
165.438000,108.693000
Z" /> 
<path style="fill:#000000; fill-opacity:1.000000; stroke:none;fill-rule:evenodd;"
d="M 165.438000,109.663000
165.449418,109.605597
165.481934,109.556934
165.530597,109.524418
165.588000,109.513000
167.238000,109.513000
167.295403,109.524418
167.344066,109.556934
167.376582,109.605597
167.388000,109.663000
167.388000,109.963000
167.376582,110.020403
167.344066,110.069066
167.295403,110.101582
167.238000,110.113000
165.588000,110.113000
165.530597,110.101582
165.481934,110.069066
165.449418,110.020403
165.438000,109.963000
Z" /> 
<path style="fill:#000000; fill-opacity:1.000000; stroke:none;fill-rule:evenodd;"
d="M 165.438000,110.933000
165.449418,110.875597
165.481934,110.826934
165.530597,110.794418
165.588000,110.783000
167.238000,110.783000
167.295403,110.794418
167.344066,110.826934
167.376582,110.875597
167.388000,110.933000
167.388000,111.233000
167.376582,111.290403
167.344066,111.339066
167.295403,111.371582
167.238000,111.383000
165.588000,111.383000
165.530597,111.371582
165.481934,111.339066
165.449418,111.290403
165.438000,111.233000
Z" /> 
<path style="fill:#000000; fill-opacity:1.000000; stroke:none;fill-rule:evenodd;"
d="M 165.438000,112.203000
165.449418,112.145597
165.481934,112.096934
165.530597,112.064418
165.588000,112.053000
167.238000,112.053000
167.295403,112.064418
167.344066,112.096934
167.376582,112.145597
167.388000,112.203000
167.388000,112.503000
167.376582,112.560403
167.344066,112.609066
167.295403,112.641582
167.238000,112.653000
165.588000,112.653000
165.530597,112.641582
165.481934,112.609066
165.449418,112.560403
165.438000,112.503000
Z" /> 
<path style="fill:#000000; fill-opacity:1.000000; stroke:none;fill-rule:evenodd;"
d="M 170.388000,112.203000
170.399418,112.145597
170.431934,112.096934
170.480597,112.064418
170.538000,112.053000
172.188000,112.053000
172.245403,112.064418
172.294066,112.096934
172.326582,112.145597
172.338000,112.203000
172.338000,112.503000
172.326582,112.560403
172.294066,112.609066
172.245403,112.641582
172.188000,112.653000
170.538000,112.653000
170.480597,112.641582
170.431934,112.609066
170.399418,112.560403
170.388000,112.503000
Z" /> 
<path style="fill:#000000; fill-opacity:1.000000; stroke:none;fill-rule:evenodd;"
d="M 170.388000,110.933000
170.399418,110.875597
170.431934,110.826934
170.480597,110.794418
170.538000,110.783000
172.188000,110.783000
172.245403,110.794418
172.294066,110.826934
172.326582,110.875597
172.338000,110.933000
172.338000,111.233000
172.326582,111.290403
172.294066,111.339066
172.245403,111.371582
172.188000,111.383000
170.538000,111.383000
170.480597,111.371582
170.431934,111.339066
170.399418,111.290403
170.388000,111.233000
Z" /> 
<path style="fill:#000000; fill-opacity:1.000000; stroke:none;fill-rule:evenodd;"
d="M 170.388000,109.663000
170.399418,109.605597
170.431934,109.556934
170.480597,109.524418
170.538000,109.513000
172.188000,109.513000
172.245403,109.524418
172.294066,109.556934
172.326582,109.605597
172.338000,109.663000
172.338000,109.963000
172.326582,110.020403
172.294066,110.069066
172.245403,110.101582
172.188000,110.113000
170.538000,110.113000
170.480597,110.101582
170.431934,110.069066
170.399418,110.020403
170.388000,109.963000
Z" /> 
<path style="fill:#000000; fill-opacity:1.000000; stroke:none;fill-rule:evenodd;"
d="M 170.388000,108.393000
170.399418,108.335597
170.431934,108.286934
170.480597,108.254418
170.538000,108.243000
172.188000,108.243000
172.245403,108.254418
172.294066,108.286934
172.326582,108.335597
172.338000,108.393000
172.338000,108.693000
172.326582,108.750403
172.294066,108.799066
172.245403,108.831582
172.188000,108.843000
170.538000,108.843000
170.480597,108.831582
170.431934,108.799066
170.399418,108.750403
170.388000,108.693000
Z" /> 
<path style="fill:#000000; fill-opacity:1.000000; stroke:none;fill-rule:evenodd;"
d="M 170.388000,107.123000
170.399418,107.065597
170.431934,107.016934
170.480597,106.984418
170.538000,106.973000
172.188000,106.973000
172.245403,106.984418
172.294066,107.016934
172.326582,107.065597
172.338000,107.123000
172.338000,107.423000
172.326582,107.480403
172.294066,107.529066
172.245403,107.561582
172.188000,107.573000
170.538000,107.573000
170.480597,107.561582
170.431934,107.529066
170.399418,107.480403
170.388000,107.423000
Z" /> 
<path style="fill:#000000; fill-opacity:1.000000; stroke:none;fill-rule:evenodd;"
d="M 170.388000,105.853000
170.399418,105.795597
170.431934,105.746934
170.480597,105.714418
170.538000,105.703000
172.188000,105.703000
172.245403,105.714418
172.294066,105.746934
172.326582,105.795597
172.338000,105.853000
172.338000,106.153000
172.326582,106.210403
172.294066,106.259066
172.245403,106.291582
172.188000,106.303000
170.538000,106.303000
170.480597,106.291582
170.431934,106.259066
170.399418,106.210403
170.388000,106.153000
Z" /> 
<path style="fill:#000000; fill-opacity:1.000000; stroke:none;fill-rule:evenodd;"
d="M 170.388000,104.583000
170.399418,104.525597
170.431934,104.476934
170.480597,104.444418
170.538000,104.433000
172.188000,104.433000
172.245403,104.444418
172.294066,104.476934
172.326582,104.525597
172.338000,104.583000
172.338000,104.883000
172.326582,104.940403
172.294066,104.989066
172.245403,105.021582
172.188000,105.033000
170.538000,105.033000
170.480597,105.021582
170.431934,104.989066
170.399418,104.940403
170.388000,104.883000
Z" /> 
<path style="fill:#000000; fill-opacity:1.000000; stroke:none;fill-rule:evenodd;"
d="M 112.760000,102.560000
112.779030,102.464329
112.833223,102.383223
112.914329,102.329030
113.010000,102.310000
114.210000,102.310000
114.305671,102.329030
114.386777,102.383223
114.440970,102.464329
114.460000,102.560000
114.460000,103.760000
114.440970,103.855671
114.386777,103.936777
114.305671,103.990970
114.210000,104.010000
113.010000,104.010000
112.914329,103.990970
112.833223,103.936777
112.779030,103.855671
112.760000,103.760000
Z" /> 
</g>
<g style="fill:#000000; fill-opacity:1.000000; stroke:none;">
<circle cx="116.150000" cy="103.160000" r="0.850000" /> 
</g>
<g style="fill:#000000; fill-opacity:1.000000; stroke:none;">
<circle cx="113.610000" cy="100.620000" r="0.850000" /> 
</g>
<g style="fill:#000000; fill-opacity:1.000000; stroke:none;">
<circle cx="116.150000" cy="100.620000" r="0.850000" /> 
</g>
<g style="fill:#000000; fill-opacity:1.000000; stroke:none;">
<circle cx="113.610000" cy="98.080000" r="0.850000" /> 
</g>
<g style="fill:#000000; fill-opacity:1.000000; stroke:none;">
<circle cx="116.150000" cy="98.080000" r="0.850000" /> 
</g>
<g style="fill:#000000; fill-opacity:1.000000; stroke:none;">
<circle cx="113.610000" cy="95.540000" r="0.850000" /> 
</g>
<g style="fill:#000000; fill-opacity:1.000000; stroke:none;">
<circle cx="116.150000" cy="95.540000" r="0.850000" /> 
</g>
<g style="fill:#000000; fill-opacity:1.000000; stroke:none;">
<circle cx="113.610000" cy="93.000000" r="0.850000" /> 
</g>
<g style="fill:#000000; fill-opacity:1.000000; stroke:none;">
<circle cx="116.150000" cy="93.000000" r="0.850000" /> 
</g>
<g style="fill:#000000; fill-opacity:1.000000; stroke:none;">
<circle cx="78.250000" cy="52.700000" r="3.100000" /> 
</g>
<g style="fill:#000000; fill-opacity:1.000000; stroke:none;">
<circle cx="61.800000" cy="52.700000" r="1.750000" /> 
</g> 
</svg>
