<?xml version="1.0" standalone="no"?>
 <!DOCTYPE svg PUBLIC "-//W3C//DTD SVG 1.1//EN" 
 "http://www.w3.org/Graphics/SVG/1.1/DTD/svg11.dtd"> 
<svg
  xmlns:svg="http://www.w3.org/2000/svg"
  xmlns="http://www.w3.org/2000/svg"
  xmlns:xlink="http://www.w3.org/1999/xlink"
  version="1.1"
  width="297.002200mm" height="210.007200mm" viewBox="0.000000 0.000000 297.002200 210.007200">
<title>SVG Image created as MiniDiv-B_Silkscreen.svg date 2024/09/09 02:13:43 </title>
  <desc>Image generated by PCBNEW </desc>
<g style="fill:#000000; fill-opacity:1.000000;stroke:#000000; stroke-opacity:1.000000;
stroke-linecap:round; stroke-linejoin:round;"
 transform="translate(0 0) scale(1 1)">
</g>
<g style="fill:none; 
stroke:#000000; stroke-width:0.150000; stroke-opacity:1; 
stroke-linecap:round; stroke-linejoin:round;">
<g transform="rotate(-90.000000 111.800000 79.050000)">
<text x="111.800000" y="79.550000"
transform="scale(-1 1) translate(-223.600000 0)"
textLength="2.250000" font-size="1.333333" lengthAdjust="spacingAndGlyphs"
text-anchor="middle" opacity="0" stroke-opacity="0">U6</text>
</g>
<g class="stroked-text"><desc>U6</desc>
<path d="M111.254819 78.288095
L112.064342 78.288095
" />
<path d="M112.064342 78.288095
L112.159580 78.335714
" />
<path d="M112.159580 78.335714
L112.207200 78.383333
" />
<path d="M112.207200 78.383333
L112.254819 78.478571
" />
<path d="M112.254819 78.478571
L112.254819 78.669047
" />
<path d="M112.254819 78.669047
L112.207200 78.764285
" />
<path d="M112.207200 78.764285
L112.159580 78.811904
" />
<path d="M112.159580 78.811904
L112.064342 78.859523
" />
<path d="M112.064342 78.859523
L111.254819 78.859523
" />
<path d="M111.254819 79.764285
L111.254819 79.573809
" />
<path d="M111.254819 79.573809
L111.302438 79.478571
" />
<path d="M111.302438 79.478571
L111.350057 79.430952
" />
<path d="M111.350057 79.430952
L111.492914 79.335714
" />
<path d="M111.492914 79.335714
L111.683390 79.288095
" />
<path d="M111.683390 79.288095
L112.064342 79.288095
" />
<path d="M112.064342 79.288095
L112.159580 79.335714
" />
<path d="M112.159580 79.335714
L112.207200 79.383333
" />
<path d="M112.207200 79.383333
L112.254819 79.478571
" />
<path d="M112.254819 79.478571
L112.254819 79.669047
" />
<path d="M112.254819 79.669047
L112.207200 79.764285
" />
<path d="M112.207200 79.764285
L112.159580 79.811904
" />
<path d="M112.159580 79.811904
L112.064342 79.859523
" />
<path d="M112.064342 79.859523
L111.826247 79.859523
" />
<path d="M111.826247 79.859523
L111.731009 79.811904
" />
<path d="M111.731009 79.811904
L111.683390 79.764285
" />
<path d="M111.683390 79.764285
L111.635771 79.669047
" />
<path d="M111.635771 79.669047
L111.635771 79.478571
" />
<path d="M111.635771 79.478571
L111.683390 79.383333
" />
<path d="M111.683390 79.383333
L111.731009 79.335714
" />
<path d="M111.731009 79.335714
L111.826247 79.288095
" />
</g><g transform="rotate(-90.000000 118.700000 88.400000)">
<text x="118.700000" y="88.900000"
transform="scale(-1 1) translate(-237.400000 0)"
textLength="2.202381" font-size="1.333333" lengthAdjust="spacingAndGlyphs"
text-anchor="middle" opacity="0" stroke-opacity="0">C4</text>
</g>
<g class="stroked-text"><desc>C4</desc>
<path d="M119.059580 88.233333
L119.107200 88.185714
" />
<path d="M119.107200 88.185714
L119.154819 88.042857
" />
<path d="M119.154819 88.042857
L119.154819 87.947619
" />
<path d="M119.154819 87.947619
L119.107200 87.804762
" />
<path d="M119.107200 87.804762
L119.011961 87.709524
" />
<path d="M119.011961 87.709524
L118.916723 87.661905
" />
<path d="M118.916723 87.661905
L118.726247 87.614286
" />
<path d="M118.726247 87.614286
L118.583390 87.614286
" />
<path d="M118.583390 87.614286
L118.392914 87.661905
" />
<path d="M118.392914 87.661905
L118.297676 87.709524
" />
<path d="M118.297676 87.709524
L118.202438 87.804762
" />
<path d="M118.202438 87.804762
L118.154819 87.947619
" />
<path d="M118.154819 87.947619
L118.154819 88.042857
" />
<path d="M118.154819 88.042857
L118.202438 88.185714
" />
<path d="M118.202438 88.185714
L118.250057 88.233333
" />
<path d="M118.488152 89.090476
L119.154819 89.090476
" />
<path d="M118.107200 88.852381
L118.821485 88.614286
" />
<path d="M118.821485 88.614286
L118.821485 89.233333
" />
</g><g transform="rotate(-90.000000 113.600000 87.900000)">
<text x="113.600000" y="88.400000"
transform="scale(-1 1) translate(-227.200000 0)"
textLength="2.202381" font-size="1.333333" lengthAdjust="spacingAndGlyphs"
text-anchor="middle" opacity="0" stroke-opacity="0">C1</text>
</g>
<g class="stroked-text"><desc>C1</desc>
<path d="M113.959580 87.733333
L114.007200 87.685714
" />
<path d="M114.007200 87.685714
L114.054819 87.542857
" />
<path d="M114.054819 87.542857
L114.054819 87.447619
" />
<path d="M114.054819 87.447619
L114.007200 87.304762
" />
<path d="M114.007200 87.304762
L113.911961 87.209524
" />
<path d="M113.911961 87.209524
L113.816723 87.161905
" />
<path d="M113.816723 87.161905
L113.626247 87.114286
" />
<path d="M113.626247 87.114286
L113.483390 87.114286
" />
<path d="M113.483390 87.114286
L113.292914 87.161905
" />
<path d="M113.292914 87.161905
L113.197676 87.209524
" />
<path d="M113.197676 87.209524
L113.102438 87.304762
" />
<path d="M113.102438 87.304762
L113.054819 87.447619
" />
<path d="M113.054819 87.447619
L113.054819 87.542857
" />
<path d="M113.054819 87.542857
L113.102438 87.685714
" />
<path d="M113.102438 87.685714
L113.150057 87.733333
" />
<path d="M114.054819 88.685714
L114.054819 88.114286
" />
<path d="M114.054819 88.400000
L113.054819 88.400000
" />
<path d="M113.054819 88.400000
L113.197676 88.304762
" />
<path d="M113.197676 88.304762
L113.292914 88.209524
" />
<path d="M113.292914 88.209524
L113.340533 88.114286
" />
</g><g transform="rotate(-90.000000 115.300000 87.900000)">
<text x="115.300000" y="88.400000"
transform="scale(-1 1) translate(-230.600000 0)"
textLength="2.202381" font-size="1.333333" lengthAdjust="spacingAndGlyphs"
text-anchor="middle" opacity="0" stroke-opacity="0">R4</text>
</g>
<g class="stroked-text"><desc>R4</desc>
<path d="M115.754819 87.733333
L115.278628 87.400000
" />
<path d="M115.754819 87.161905
L114.754819 87.161905
" />
<path d="M114.754819 87.161905
L114.754819 87.542857
" />
<path d="M114.754819 87.542857
L114.802438 87.638095
" />
<path d="M114.802438 87.638095
L114.850057 87.685714
" />
<path d="M114.850057 87.685714
L114.945295 87.733333
" />
<path d="M114.945295 87.733333
L115.088152 87.733333
" />
<path d="M115.088152 87.733333
L115.183390 87.685714
" />
<path d="M115.183390 87.685714
L115.231009 87.638095
" />
<path d="M115.231009 87.638095
L115.278628 87.542857
" />
<path d="M115.278628 87.542857
L115.278628 87.161905
" />
<path d="M115.088152 88.590476
L115.754819 88.590476
" />
<path d="M114.707200 88.352381
L115.421485 88.114286
" />
<path d="M115.421485 88.114286
L115.421485 88.733333
" />
</g><g transform="rotate(-90.000000 116.900000 87.900000)">
<text x="116.900000" y="88.400000"
transform="scale(-1 1) translate(-233.800000 0)"
textLength="2.202381" font-size="1.333333" lengthAdjust="spacingAndGlyphs"
text-anchor="middle" opacity="0" stroke-opacity="0">R3</text>
</g>
<g class="stroked-text"><desc>R3</desc>
<path d="M117.354819 87.733333
L116.878628 87.400000
" />
<path d="M117.354819 87.161905
L116.354819 87.161905
" />
<path d="M116.354819 87.161905
L116.354819 87.542857
" />
<path d="M116.354819 87.542857
L116.402438 87.638095
" />
<path d="M116.402438 87.638095
L116.450057 87.685714
" />
<path d="M116.450057 87.685714
L116.545295 87.733333
" />
<path d="M116.545295 87.733333
L116.688152 87.733333
" />
<path d="M116.688152 87.733333
L116.783390 87.685714
" />
<path d="M116.783390 87.685714
L116.831009 87.638095
" />
<path d="M116.831009 87.638095
L116.878628 87.542857
" />
<path d="M116.878628 87.542857
L116.878628 87.161905
" />
<path d="M116.354819 88.066667
L116.354819 88.685714
" />
<path d="M116.354819 88.685714
L116.735771 88.352381
" />
<path d="M116.735771 88.352381
L116.735771 88.495238
" />
<path d="M116.735771 88.495238
L116.783390 88.590476
" />
<path d="M116.783390 88.590476
L116.831009 88.638095
" />
<path d="M116.831009 88.638095
L116.926247 88.685714
" />
<path d="M116.926247 88.685714
L117.164342 88.685714
" />
<path d="M117.164342 88.685714
L117.259580 88.638095
" />
<path d="M117.259580 88.638095
L117.307200 88.590476
" />
<path d="M117.307200 88.590476
L117.354819 88.495238
" />
<path d="M117.354819 88.495238
L117.354819 88.209524
" />
<path d="M117.354819 88.209524
L117.307200 88.114286
" />
<path d="M117.307200 88.114286
L117.259580 88.066667
" />
</g><text x="114.880000" y="109.760000"
transform="scale(-1 1) translate(-229.760000 0)"
textLength="1.964286" font-size="1.333333" lengthAdjust="spacingAndGlyphs"
text-anchor="middle" opacity="0" stroke-opacity="0">J1</text>
<g class="stroked-text"><desc>J1</desc>
<path d="M115.213333 108.714819
L115.213333 109.429104
" />
<path d="M115.213333 109.429104
L115.260952 109.571961
" />
<path d="M115.260952 109.571961
L115.356190 109.667200
" />
<path d="M115.356190 109.667200
L115.499047 109.714819
" />
<path d="M115.499047 109.714819
L115.594285 109.714819
" />
<path d="M114.213333 109.714819
L114.784761 109.714819
" />
<path d="M114.499047 109.714819
L114.499047 108.714819
" />
<path d="M114.499047 108.714819
L114.594285 108.857676
" />
<path d="M114.594285 108.857676
L114.689523 108.952914
" />
<path d="M114.689523 108.952914
L114.784761 109.000533
" />
</g></g>
<g style="fill:none; 
stroke:#000000; stroke-width:0.120000; stroke-opacity:1; 
stroke-linecap:round; stroke-linejoin:round;">
<path d="M119.410000 77.140000
L119.410000 80.900000
" />
<path d="M112.590000 77.140000
L112.590000 80.900000
" />
<path d="M118.150000 77.140000
L119.410000 77.140000
" />
<path d="M113.850000 77.140000
L112.590000 77.140000
" />
<path style="fill:#000000; fill-opacity:1.000000; 
stroke:#000000; stroke-width:0.120000; stroke-opacity:1; 
stroke-linecap:round; stroke-linejoin:round;fill-rule:evenodd;"
d="M 119.640000,82.420000
119.310000,82.180000
119.640000,81.940000
Z" /> 
</g>
<g style="fill:none; 
stroke:#000000; stroke-width:0.120000; stroke-opacity:1; 
stroke-linecap:round; stroke-linejoin:round;">
<path d="M117.965000 85.761252
L117.965000 85.238748
" />
<path d="M119.435000 85.761252
L119.435000 85.238748
" />
<path d="M113.090000 85.408767
L113.090000 85.116233
" />
<path d="M114.110000 85.408767
L114.110000 85.116233
" />
<path d="M114.677500 85.517224
L114.677500 85.007776
" />
<path d="M115.722500 85.517224
L115.722500 85.007776
" />
<path d="M117.322500 85.007776
L117.322500 85.517224
" />
<path d="M116.277500 85.007776
L116.277500 85.517224
" />
<path d="M108.930000 102.660000
L108.930000 103.660000
" />
<path d="M109.930000 103.160000
L108.930000 102.660000
" />
<path d="M108.930000 103.660000
L109.930000 103.160000
" />
<path d="M119.440000 108.370000
L110.320000 108.370000
" />
<path d="M111.630000 100.130000
L110.320000 100.130000
" />
<path d="M110.320000 108.370000
L110.320000 87.790000
" />
<path d="M118.130000 107.070000
L111.630000 107.070000
" />
<path d="M111.630000 107.070000
L111.630000 100.130000
" />
<path d="M110.320000 96.030000
L111.630000 96.030000
" />
</g>
<g style="fill:#000000; fill-opacity:1.000000; stroke:none;">
<circle cx="111.630000" cy="96.030000" r="0.060000" /> 
</g>
<g style="fill:none; 
stroke:#000000; stroke-width:0.120000; stroke-opacity:1; 
stroke-linecap:round; stroke-linejoin:round;">
<path d="M111.630000 96.030000
L111.630000 89.090000
" />
<path d="M118.130000 89.090000
L118.130000 107.070000
" />
<path d="M111.630000 89.090000
L118.130000 89.090000
" />
<path d="M119.440000 87.790000
L119.440000 108.370000
" />
<path d="M110.320000 87.790000
L119.440000 87.790000
" />
</g> 
</svg>
