<?xml version="1.0" standalone="no"?>
 <!DOCTYPE svg PUBLIC "-//W3C//DTD SVG 1.1//EN" 
 "http://www.w3.org/Graphics/SVG/1.1/DTD/svg11.dtd"> 
<svg
  xmlns:svg="http://www.w3.org/2000/svg"
  xmlns="http://www.w3.org/2000/svg"
  xmlns:xlink="http://www.w3.org/1999/xlink"
  version="1.1"
  width="297.002200mm" height="210.007200mm" viewBox="0.000000 0.000000 297.002200 210.007200">
<title>SVG Image created as MiniDiv-B_Paste.svg date 2024/09/09 02:13:43 </title>
  <desc>Image generated by PCBNEW </desc>
<g style="fill:#000000; fill-opacity:1.000000;stroke:#000000; stroke-opacity:1.000000;
stroke-linecap:round; stroke-linejoin:round;"
 transform="translate(0 0) scale(1 1)">
<path style="fill:#000000; fill-opacity:1.000000; stroke:none;fill-rule:evenodd;"
d="M 117.925000,83.200000
117.817999,83.184410
117.707096,83.130193
117.619807,83.042904
117.565590,82.932001
117.550000,82.825000
117.550000,81.575000
117.565590,81.467999
117.619807,81.357096
117.707096,81.269807
117.817999,81.215590
117.925000,81.200000
118.675000,81.200000
118.782001,81.215590
118.892904,81.269807
118.980193,81.357096
119.034410,81.467999
119.050000,81.575000
119.050000,82.825000
119.034410,82.932001
118.980193,83.042904
118.892904,83.130193
118.782001,83.184410
118.675000,83.200000
Z" /> 
<path style="fill:#000000; fill-opacity:1.000000; stroke:none;fill-rule:evenodd;"
d="M 115.625000,83.200000
115.517999,83.184410
115.407096,83.130193
115.319807,83.042904
115.265590,82.932001
115.250000,82.825000
115.250000,81.575000
115.265590,81.467999
115.319807,81.357096
115.407096,81.269807
115.517999,81.215590
115.625000,81.200000
116.375000,81.200000
116.482001,81.215590
116.592904,81.269807
116.680193,81.357096
116.734410,81.467999
116.750000,81.575000
116.750000,82.825000
116.734410,82.932001
116.680193,83.042904
116.592904,83.130193
116.482001,83.184410
116.375000,83.200000
Z" /> 
<path style="fill:#000000; fill-opacity:1.000000; stroke:none;fill-rule:evenodd;"
d="M 114.600000,76.900000
114.493717,76.888573
114.360376,76.838839
114.246447,76.753553
114.161161,76.639624
114.111427,76.506283
114.100000,76.400000
114.100000,75.400000
114.111427,75.293717
114.161161,75.160376
114.246447,75.046447
114.360376,74.961161
114.493717,74.911427
114.600000,74.900000
117.400000,74.900000
117.506283,74.911427
117.639624,74.961161
117.753553,75.046447
117.838839,75.160376
117.888573,75.293717
117.900000,75.400000
117.900000,76.400000
117.888573,76.506283
117.838839,76.639624
117.753553,76.753553
117.639624,76.838839
117.506283,76.888573
117.400000,76.900000
Z" /> 
<path style="fill:#000000; fill-opacity:1.000000; stroke:none;fill-rule:evenodd;"
d="M 113.325000,83.200000
113.217999,83.184410
113.107096,83.130193
113.019807,83.042904
112.965590,82.932001
112.950000,82.825000
112.950000,81.575000
112.965590,81.467999
113.019807,81.357096
113.107096,81.269807
113.217999,81.215590
113.325000,81.200000
114.075000,81.200000
114.182001,81.215590
114.292904,81.269807
114.380193,81.357096
114.434410,81.467999
114.450000,81.575000
114.450000,82.825000
114.434410,82.932001
114.380193,83.042904
114.292904,83.130193
114.182001,83.184410
114.075000,83.200000
Z" /> 
<path style="fill:#000000; fill-opacity:1.000000; stroke:none;fill-rule:evenodd;"
d="M 119.175000,83.875000
119.270671,83.894030
119.351777,83.948223
119.405970,84.029329
119.425000,84.125000
119.425000,84.800000
119.405970,84.895671
119.351777,84.976777
119.270671,85.030970
119.175000,85.050000
118.225000,85.050000
118.129329,85.030970
118.048223,84.976777
117.994030,84.895671
117.975000,84.800000
117.975000,84.125000
117.994030,84.029329
118.048223,83.948223
118.129329,83.894030
118.225000,83.875000
Z" /> 
<path style="fill:#000000; fill-opacity:1.000000; stroke:none;fill-rule:evenodd;"
d="M 119.175000,85.950000
119.270671,85.969030
119.351777,86.023223
119.405970,86.104329
119.425000,86.200000
119.425000,86.875000
119.405970,86.970671
119.351777,87.051777
119.270671,87.105970
119.175000,87.125000
118.225000,87.125000
118.129329,87.105970
118.048223,87.051777
117.994030,86.970671
117.975000,86.875000
117.975000,86.200000
117.994030,86.104329
118.048223,86.023223
118.129329,85.969030
118.225000,85.950000
Z" /> 
<path style="fill:#000000; fill-opacity:1.000000; stroke:none;fill-rule:evenodd;"
d="M 113.837500,83.862500
113.928387,83.880579
114.005438,83.932062
114.056921,84.009113
114.075000,84.100000
114.075000,84.700000
114.056921,84.790887
114.005438,84.867938
113.928387,84.919421
113.837500,84.937500
113.362500,84.937500
113.271613,84.919421
113.194562,84.867938
113.143079,84.790887
113.125000,84.700000
113.125000,84.100000
113.143079,84.009113
113.194562,83.932062
113.271613,83.880579
113.362500,83.862500
Z" /> 
<path style="fill:#000000; fill-opacity:1.000000; stroke:none;fill-rule:evenodd;"
d="M 113.837500,85.587500
113.928387,85.605579
114.005438,85.657062
114.056921,85.734113
114.075000,85.825000
114.075000,86.425000
114.056921,86.515887
114.005438,86.592938
113.928387,86.644421
113.837500,86.662500
113.362500,86.662500
113.271613,86.644421
113.194562,86.592938
113.143079,86.515887
113.125000,86.425000
113.125000,85.825000
113.143079,85.734113
113.194562,85.657062
113.271613,85.605579
113.362500,85.587500
Z" /> 
<path style="fill:#000000; fill-opacity:1.000000; stroke:none;fill-rule:evenodd;"
d="M 115.437500,83.862500
115.528387,83.880579
115.605438,83.932062
115.656921,84.009113
115.675000,84.100000
115.675000,84.600000
115.656921,84.690887
115.605438,84.767938
115.528387,84.819421
115.437500,84.837500
114.962500,84.837500
114.871613,84.819421
114.794562,84.767938
114.743079,84.690887
114.725000,84.600000
114.725000,84.100000
114.743079,84.009113
114.794562,83.932062
114.871613,83.880579
114.962500,83.862500
Z" /> 
<path style="fill:#000000; fill-opacity:1.000000; stroke:none;fill-rule:evenodd;"
d="M 115.437500,85.687500
115.528387,85.705579
115.605438,85.757062
115.656921,85.834113
115.675000,85.925000
115.675000,86.425000
115.656921,86.515887
115.605438,86.592938
115.528387,86.644421
115.437500,86.662500
114.962500,86.662500
114.871613,86.644421
114.794562,86.592938
114.743079,86.515887
114.725000,86.425000
114.725000,85.925000
114.743079,85.834113
114.794562,85.757062
114.871613,85.705579
114.962500,85.687500
Z" /> 
<path style="fill:#000000; fill-opacity:1.000000; stroke:none;fill-rule:evenodd;"
d="M 116.562500,86.662500
116.471613,86.644421
116.394562,86.592938
116.343079,86.515887
116.325000,86.425000
116.325000,85.925000
116.343079,85.834113
116.394562,85.757062
116.471613,85.705579
116.562500,85.687500
117.037500,85.687500
117.128387,85.705579
117.205438,85.757062
117.256921,85.834113
117.275000,85.925000
117.275000,86.425000
117.256921,86.515887
117.205438,86.592938
117.128387,86.644421
117.037500,86.662500
Z" /> 
<path style="fill:#000000; fill-opacity:1.000000; stroke:none;fill-rule:evenodd;"
d="M 116.562500,84.837500
116.471613,84.819421
116.394562,84.767938
116.343079,84.690887
116.325000,84.600000
116.325000,84.100000
116.343079,84.009113
116.394562,83.932062
116.471613,83.880579
116.562500,83.862500
117.037500,83.862500
117.128387,83.880579
117.205438,83.932062
117.256921,84.009113
117.275000,84.100000
117.275000,84.600000
117.256921,84.690887
117.205438,84.767938
117.128387,84.819421
117.037500,84.837500
Z" /> 
</g> 
</svg>
