<?xml version="1.0" standalone="no"?>
 <!DOCTYPE svg PUBLIC "-//W3C//DTD SVG 1.1//EN" 
 "http://www.w3.org/Graphics/SVG/1.1/DTD/svg11.dtd"> 
<svg
  xmlns:svg="http://www.w3.org/2000/svg"
  xmlns="http://www.w3.org/2000/svg"
  xmlns:xlink="http://www.w3.org/1999/xlink"
  version="1.1"
  width="297.002200mm" height="210.007200mm" viewBox="0.000000 0.000000 297.002200 210.007200">
<title>SVG Image created as MiniDiv-Edge_Cuts.svg date 2024/09/09 02:13:44 </title>
  <desc>Image generated by PCBNEW </desc>
<g style="fill:#000000; fill-opacity:1.000000;stroke:#000000; stroke-opacity:1.000000;
stroke-linecap:round; stroke-linejoin:round;"
 transform="translate(0 0) scale(1 1)">
</g>
<g style="fill:none; 
stroke:#000000; stroke-width:0.150000; stroke-opacity:1; 
stroke-linecap:round; stroke-linejoin:round;">
<text x="65.050000" y="46.050000"
textLength="8.916666" font-size="1.333333" lengthAdjust="spacingAndGlyphs"
text-anchor="middle" opacity="0" stroke-opacity="0">6.5000 mm</text>
<g class="stroked-text"><desc>6.5000 mm</desc>
<path d="M61.383333 45.004819
L61.192857 45.004819
" />
<path d="M61.192857 45.004819
L61.097619 45.052438
" />
<path d="M61.097619 45.052438
L61.050000 45.100057
" />
<path d="M61.050000 45.100057
L60.954762 45.242914
" />
<path d="M60.954762 45.242914
L60.907143 45.433390
" />
<path d="M60.907143 45.433390
L60.907143 45.814342
" />
<path d="M60.907143 45.814342
L60.954762 45.909580
" />
<path d="M60.954762 45.909580
L61.002381 45.957200
" />
<path d="M61.002381 45.957200
L61.097619 46.004819
" />
<path d="M61.097619 46.004819
L61.288095 46.004819
" />
<path d="M61.288095 46.004819
L61.383333 45.957200
" />
<path d="M61.383333 45.957200
L61.430952 45.909580
" />
<path d="M61.430952 45.909580
L61.478571 45.814342
" />
<path d="M61.478571 45.814342
L61.478571 45.576247
" />
<path d="M61.478571 45.576247
L61.430952 45.481009
" />
<path d="M61.430952 45.481009
L61.383333 45.433390
" />
<path d="M61.383333 45.433390
L61.288095 45.385771
" />
<path d="M61.288095 45.385771
L61.097619 45.385771
" />
<path d="M61.097619 45.385771
L61.002381 45.433390
" />
<path d="M61.002381 45.433390
L60.954762 45.481009
" />
<path d="M60.954762 45.481009
L60.907143 45.576247
" />
<path d="M61.907143 45.909580
L61.954762 45.957200
" />
<path d="M61.954762 45.957200
L61.907143 46.004819
" />
<path d="M61.907143 46.004819
L61.859524 45.957200
" />
<path d="M61.859524 45.957200
L61.907143 45.909580
" />
<path d="M61.907143 45.909580
L61.907143 46.004819
" />
<path d="M62.859523 45.004819
L62.383333 45.004819
" />
<path d="M62.383333 45.004819
L62.335714 45.481009
" />
<path d="M62.335714 45.481009
L62.383333 45.433390
" />
<path d="M62.383333 45.433390
L62.478571 45.385771
" />
<path d="M62.478571 45.385771
L62.716666 45.385771
" />
<path d="M62.716666 45.385771
L62.811904 45.433390
" />
<path d="M62.811904 45.433390
L62.859523 45.481009
" />
<path d="M62.859523 45.481009
L62.907142 45.576247
" />
<path d="M62.907142 45.576247
L62.907142 45.814342
" />
<path d="M62.907142 45.814342
L62.859523 45.909580
" />
<path d="M62.859523 45.909580
L62.811904 45.957200
" />
<path d="M62.811904 45.957200
L62.716666 46.004819
" />
<path d="M62.716666 46.004819
L62.478571 46.004819
" />
<path d="M62.478571 46.004819
L62.383333 45.957200
" />
<path d="M62.383333 45.957200
L62.335714 45.909580
" />
<path d="M63.526190 45.004819
L63.621428 45.004819
" />
<path d="M63.621428 45.004819
L63.716666 45.052438
" />
<path d="M63.716666 45.052438
L63.764285 45.100057
" />
<path d="M63.764285 45.100057
L63.811904 45.195295
" />
<path d="M63.811904 45.195295
L63.859523 45.385771
" />
<path d="M63.859523 45.385771
L63.859523 45.623866
" />
<path d="M63.859523 45.623866
L63.811904 45.814342
" />
<path d="M63.811904 45.814342
L63.764285 45.909580
" />
<path d="M63.764285 45.909580
L63.716666 45.957200
" />
<path d="M63.716666 45.957200
L63.621428 46.004819
" />
<path d="M63.621428 46.004819
L63.526190 46.004819
" />
<path d="M63.526190 46.004819
L63.430952 45.957200
" />
<path d="M63.430952 45.957200
L63.383333 45.909580
" />
<path d="M63.383333 45.909580
L63.335714 45.814342
" />
<path d="M63.335714 45.814342
L63.288095 45.623866
" />
<path d="M63.288095 45.623866
L63.288095 45.385771
" />
<path d="M63.288095 45.385771
L63.335714 45.195295
" />
<path d="M63.335714 45.195295
L63.383333 45.100057
" />
<path d="M63.383333 45.100057
L63.430952 45.052438
" />
<path d="M63.430952 45.052438
L63.526190 45.004819
" />
<path d="M64.478571 45.004819
L64.573809 45.004819
" />
<path d="M64.573809 45.004819
L64.669047 45.052438
" />
<path d="M64.669047 45.052438
L64.716666 45.100057
" />
<path d="M64.716666 45.100057
L64.764285 45.195295
" />
<path d="M64.764285 45.195295
L64.811904 45.385771
" />
<path d="M64.811904 45.385771
L64.811904 45.623866
" />
<path d="M64.811904 45.623866
L64.764285 45.814342
" />
<path d="M64.764285 45.814342
L64.716666 45.909580
" />
<path d="M64.716666 45.909580
L64.669047 45.957200
" />
<path d="M64.669047 45.957200
L64.573809 46.004819
" />
<path d="M64.573809 46.004819
L64.478571 46.004819
" />
<path d="M64.478571 46.004819
L64.383333 45.957200
" />
<path d="M64.383333 45.957200
L64.335714 45.909580
" />
<path d="M64.335714 45.909580
L64.288095 45.814342
" />
<path d="M64.288095 45.814342
L64.240476 45.623866
" />
<path d="M64.240476 45.623866
L64.240476 45.385771
" />
<path d="M64.240476 45.385771
L64.288095 45.195295
" />
<path d="M64.288095 45.195295
L64.335714 45.100057
" />
<path d="M64.335714 45.100057
L64.383333 45.052438
" />
<path d="M64.383333 45.052438
L64.478571 45.004819
" />
<path d="M65.430952 45.004819
L65.526190 45.004819
" />
<path d="M65.526190 45.004819
L65.621428 45.052438
" />
<path d="M65.621428 45.052438
L65.669047 45.100057
" />
<path d="M65.669047 45.100057
L65.716666 45.195295
" />
<path d="M65.716666 45.195295
L65.764285 45.385771
" />
<path d="M65.764285 45.385771
L65.764285 45.623866
" />
<path d="M65.764285 45.623866
L65.716666 45.814342
" />
<path d="M65.716666 45.814342
L65.669047 45.909580
" />
<path d="M65.669047 45.909580
L65.621428 45.957200
" />
<path d="M65.621428 45.957200
L65.526190 46.004819
" />
<path d="M65.526190 46.004819
L65.430952 46.004819
" />
<path d="M65.430952 46.004819
L65.335714 45.957200
" />
<path d="M65.335714 45.957200
L65.288095 45.909580
" />
<path d="M65.288095 45.909580
L65.240476 45.814342
" />
<path d="M65.240476 45.814342
L65.192857 45.623866
" />
<path d="M65.192857 45.623866
L65.192857 45.385771
" />
<path d="M65.192857 45.385771
L65.240476 45.195295
" />
<path d="M65.240476 45.195295
L65.288095 45.100057
" />
<path d="M65.288095 45.100057
L65.335714 45.052438
" />
<path d="M65.335714 45.052438
L65.430952 45.004819
" />
<path d="M66.954762 46.004819
L66.954762 45.338152
" />
<path d="M66.954762 45.433390
L67.002381 45.385771
" />
<path d="M67.002381 45.385771
L67.097619 45.338152
" />
<path d="M67.097619 45.338152
L67.240476 45.338152
" />
<path d="M67.240476 45.338152
L67.335714 45.385771
" />
<path d="M67.335714 45.385771
L67.383333 45.481009
" />
<path d="M67.383333 45.481009
L67.383333 46.004819
" />
<path d="M67.383333 45.481009
L67.430952 45.385771
" />
<path d="M67.430952 45.385771
L67.526190 45.338152
" />
<path d="M67.526190 45.338152
L67.669047 45.338152
" />
<path d="M67.669047 45.338152
L67.764286 45.385771
" />
<path d="M67.764286 45.385771
L67.811905 45.481009
" />
<path d="M67.811905 45.481009
L67.811905 46.004819
" />
<path d="M68.288095 46.004819
L68.288095 45.338152
" />
<path d="M68.288095 45.433390
L68.335714 45.385771
" />
<path d="M68.335714 45.385771
L68.430952 45.338152
" />
<path d="M68.430952 45.338152
L68.573809 45.338152
" />
<path d="M68.573809 45.338152
L68.669047 45.385771
" />
<path d="M68.669047 45.385771
L68.716666 45.481009
" />
<path d="M68.716666 45.481009
L68.716666 46.004819
" />
<path d="M68.716666 45.481009
L68.764285 45.385771
" />
<path d="M68.764285 45.385771
L68.859523 45.338152
" />
<path d="M68.859523 45.338152
L69.002380 45.338152
" />
<path d="M69.002380 45.338152
L69.097619 45.385771
" />
<path d="M69.097619 45.385771
L69.145238 45.481009
" />
<path d="M69.145238 45.481009
L69.145238 46.004819
" />
</g></g>
<g style="fill:none; 
stroke:#000000; stroke-width:0.100000; stroke-opacity:1; 
stroke-linecap:round; stroke-linejoin:round;">
<path d="M61.800000 52.200000
L61.800000 46.113580
" />
<path d="M68.300000 52.200000
L68.300000 46.113580
" />
<path d="M61.800000 46.700000
L68.300000 46.700000
" />
<path d="M61.800000 46.700000
L68.300000 46.700000
" />
<path d="M61.800000 46.700000
L62.926504 46.113579
" />
<path d="M61.800000 46.700000
L62.926504 47.286421
" />
<path d="M68.300000 46.700000
L67.173496 47.286421
" />
<path d="M68.300000 46.700000
L67.173496 46.113579
" />
</g>
<g style="fill:none; 
stroke:#000000; stroke-width:0.150000; stroke-opacity:1; 
stroke-linecap:round; stroke-linejoin:round;">
<text x="100.050000" y="43.150000"
textLength="8.916666" font-size="1.333333" lengthAdjust="spacingAndGlyphs"
text-anchor="middle" opacity="0" stroke-opacity="0">6.5000 mm</text>
<g class="stroked-text"><desc>6.5000 mm</desc>
<path d="M96.383333 42.104819
L96.192857 42.104819
" />
<path d="M96.192857 42.104819
L96.097619 42.152438
" />
<path d="M96.097619 42.152438
L96.050000 42.200057
" />
<path d="M96.050000 42.200057
L95.954762 42.342914
" />
<path d="M95.954762 42.342914
L95.907143 42.533390
" />
<path d="M95.907143 42.533390
L95.907143 42.914342
" />
<path d="M95.907143 42.914342
L95.954762 43.009580
" />
<path d="M95.954762 43.009580
L96.002381 43.057200
" />
<path d="M96.002381 43.057200
L96.097619 43.104819
" />
<path d="M96.097619 43.104819
L96.288095 43.104819
" />
<path d="M96.288095 43.104819
L96.383333 43.057200
" />
<path d="M96.383333 43.057200
L96.430952 43.009580
" />
<path d="M96.430952 43.009580
L96.478571 42.914342
" />
<path d="M96.478571 42.914342
L96.478571 42.676247
" />
<path d="M96.478571 42.676247
L96.430952 42.581009
" />
<path d="M96.430952 42.581009
L96.383333 42.533390
" />
<path d="M96.383333 42.533390
L96.288095 42.485771
" />
<path d="M96.288095 42.485771
L96.097619 42.485771
" />
<path d="M96.097619 42.485771
L96.002381 42.533390
" />
<path d="M96.002381 42.533390
L95.954762 42.581009
" />
<path d="M95.954762 42.581009
L95.907143 42.676247
" />
<path d="M96.907143 43.009580
L96.954762 43.057200
" />
<path d="M96.954762 43.057200
L96.907143 43.104819
" />
<path d="M96.907143 43.104819
L96.859524 43.057200
" />
<path d="M96.859524 43.057200
L96.907143 43.009580
" />
<path d="M96.907143 43.009580
L96.907143 43.104819
" />
<path d="M97.859523 42.104819
L97.383333 42.104819
" />
<path d="M97.383333 42.104819
L97.335714 42.581009
" />
<path d="M97.335714 42.581009
L97.383333 42.533390
" />
<path d="M97.383333 42.533390
L97.478571 42.485771
" />
<path d="M97.478571 42.485771
L97.716666 42.485771
" />
<path d="M97.716666 42.485771
L97.811904 42.533390
" />
<path d="M97.811904 42.533390
L97.859523 42.581009
" />
<path d="M97.859523 42.581009
L97.907142 42.676247
" />
<path d="M97.907142 42.676247
L97.907142 42.914342
" />
<path d="M97.907142 42.914342
L97.859523 43.009580
" />
<path d="M97.859523 43.009580
L97.811904 43.057200
" />
<path d="M97.811904 43.057200
L97.716666 43.104819
" />
<path d="M97.716666 43.104819
L97.478571 43.104819
" />
<path d="M97.478571 43.104819
L97.383333 43.057200
" />
<path d="M97.383333 43.057200
L97.335714 43.009580
" />
<path d="M98.526190 42.104819
L98.621428 42.104819
" />
<path d="M98.621428 42.104819
L98.716666 42.152438
" />
<path d="M98.716666 42.152438
L98.764285 42.200057
" />
<path d="M98.764285 42.200057
L98.811904 42.295295
" />
<path d="M98.811904 42.295295
L98.859523 42.485771
" />
<path d="M98.859523 42.485771
L98.859523 42.723866
" />
<path d="M98.859523 42.723866
L98.811904 42.914342
" />
<path d="M98.811904 42.914342
L98.764285 43.009580
" />
<path d="M98.764285 43.009580
L98.716666 43.057200
" />
<path d="M98.716666 43.057200
L98.621428 43.104819
" />
<path d="M98.621428 43.104819
L98.526190 43.104819
" />
<path d="M98.526190 43.104819
L98.430952 43.057200
" />
<path d="M98.430952 43.057200
L98.383333 43.009580
" />
<path d="M98.383333 43.009580
L98.335714 42.914342
" />
<path d="M98.335714 42.914342
L98.288095 42.723866
" />
<path d="M98.288095 42.723866
L98.288095 42.485771
" />
<path d="M98.288095 42.485771
L98.335714 42.295295
" />
<path d="M98.335714 42.295295
L98.383333 42.200057
" />
<path d="M98.383333 42.200057
L98.430952 42.152438
" />
<path d="M98.430952 42.152438
L98.526190 42.104819
" />
<path d="M99.478571 42.104819
L99.573809 42.104819
" />
<path d="M99.573809 42.104819
L99.669047 42.152438
" />
<path d="M99.669047 42.152438
L99.716666 42.200057
" />
<path d="M99.716666 42.200057
L99.764285 42.295295
" />
<path d="M99.764285 42.295295
L99.811904 42.485771
" />
<path d="M99.811904 42.485771
L99.811904 42.723866
" />
<path d="M99.811904 42.723866
L99.764285 42.914342
" />
<path d="M99.764285 42.914342
L99.716666 43.009580
" />
<path d="M99.716666 43.009580
L99.669047 43.057200
" />
<path d="M99.669047 43.057200
L99.573809 43.104819
" />
<path d="M99.573809 43.104819
L99.478571 43.104819
" />
<path d="M99.478571 43.104819
L99.383333 43.057200
" />
<path d="M99.383333 43.057200
L99.335714 43.009580
" />
<path d="M99.335714 43.009580
L99.288095 42.914342
" />
<path d="M99.288095 42.914342
L99.240476 42.723866
" />
<path d="M99.240476 42.723866
L99.240476 42.485771
" />
<path d="M99.240476 42.485771
L99.288095 42.295295
" />
<path d="M99.288095 42.295295
L99.335714 42.200057
" />
<path d="M99.335714 42.200057
L99.383333 42.152438
" />
<path d="M99.383333 42.152438
L99.478571 42.104819
" />
<path d="M100.430952 42.104819
L100.526190 42.104819
" />
<path d="M100.526190 42.104819
L100.621428 42.152438
" />
<path d="M100.621428 42.152438
L100.669047 42.200057
" />
<path d="M100.669047 42.200057
L100.716666 42.295295
" />
<path d="M100.716666 42.295295
L100.764285 42.485771
" />
<path d="M100.764285 42.485771
L100.764285 42.723866
" />
<path d="M100.764285 42.723866
L100.716666 42.914342
" />
<path d="M100.716666 42.914342
L100.669047 43.009580
" />
<path d="M100.669047 43.009580
L100.621428 43.057200
" />
<path d="M100.621428 43.057200
L100.526190 43.104819
" />
<path d="M100.526190 43.104819
L100.430952 43.104819
" />
<path d="M100.430952 43.104819
L100.335714 43.057200
" />
<path d="M100.335714 43.057200
L100.288095 43.009580
" />
<path d="M100.288095 43.009580
L100.240476 42.914342
" />
<path d="M100.240476 42.914342
L100.192857 42.723866
" />
<path d="M100.192857 42.723866
L100.192857 42.485771
" />
<path d="M100.192857 42.485771
L100.240476 42.295295
" />
<path d="M100.240476 42.295295
L100.288095 42.200057
" />
<path d="M100.288095 42.200057
L100.335714 42.152438
" />
<path d="M100.335714 42.152438
L100.430952 42.104819
" />
<path d="M101.954762 43.104819
L101.954762 42.438152
" />
<path d="M101.954762 42.533390
L102.002381 42.485771
" />
<path d="M102.002381 42.485771
L102.097619 42.438152
" />
<path d="M102.097619 42.438152
L102.240476 42.438152
" />
<path d="M102.240476 42.438152
L102.335714 42.485771
" />
<path d="M102.335714 42.485771
L102.383333 42.581009
" />
<path d="M102.383333 42.581009
L102.383333 43.104819
" />
<path d="M102.383333 42.581009
L102.430952 42.485771
" />
<path d="M102.430952 42.485771
L102.526190 42.438152
" />
<path d="M102.526190 42.438152
L102.669047 42.438152
" />
<path d="M102.669047 42.438152
L102.764286 42.485771
" />
<path d="M102.764286 42.485771
L102.811905 42.581009
" />
<path d="M102.811905 42.581009
L102.811905 43.104819
" />
<path d="M103.288095 43.104819
L103.288095 42.438152
" />
<path d="M103.288095 42.533390
L103.335714 42.485771
" />
<path d="M103.335714 42.485771
L103.430952 42.438152
" />
<path d="M103.430952 42.438152
L103.573809 42.438152
" />
<path d="M103.573809 42.438152
L103.669047 42.485771
" />
<path d="M103.669047 42.485771
L103.716666 42.581009
" />
<path d="M103.716666 42.581009
L103.716666 43.104819
" />
<path d="M103.716666 42.581009
L103.764285 42.485771
" />
<path d="M103.764285 42.485771
L103.859523 42.438152
" />
<path d="M103.859523 42.438152
L104.002380 42.438152
" />
<path d="M104.002380 42.438152
L104.097619 42.485771
" />
<path d="M104.097619 42.485771
L104.145238 42.581009
" />
<path d="M104.145238 42.581009
L104.145238 43.104819
" />
</g></g>
<g style="fill:none; 
stroke:#000000; stroke-width:0.100000; stroke-opacity:1; 
stroke-linecap:round; stroke-linejoin:round;">
<path d="M96.800000 52.200000
L96.800000 43.213580
" />
<path d="M103.300000 52.200000
L103.300000 43.213580
" />
<path d="M96.800000 43.800000
L103.300000 43.800000
" />
<path d="M96.800000 43.800000
L103.300000 43.800000
" />
<path d="M96.800000 43.800000
L97.926504 43.213579
" />
<path d="M96.800000 43.800000
L97.926504 44.386421
" />
<path d="M103.300000 43.800000
L102.173496 44.386421
" />
<path d="M103.300000 43.800000
L102.173496 43.213579
" />
<path style="fill:none; 
stroke:#000000; stroke-width:0.100000; stroke-opacity:1; 
stroke-linecap:round; stroke-linejoin:round;fill:none"
d="M 55.000000,40.000000
85.000000,40.000000
85.000000,168.500000
55.000000,168.500000
Z" /> 
<path style="fill:none; 
stroke:#000000; stroke-width:0.100000; stroke-opacity:1; 
stroke-linecap:round; stroke-linejoin:round;fill:none"
d="M 90.000000,49.000000
120.000000,49.000000
120.000000,159.000000
90.000000,159.000000
Z" /> 
</g> 
</svg>
