M48
; DRILL file {KiCad 8.0.5+1} date 2024-11-27T03:26:16+0800
; FORMAT={-:-/ absolute / inch / decimal}
; #@! TF.CreationDate,2024-11-27T03:26:16+08:00
; #@! TF.GenerationSoftware,Kicad,Pcbnew,8.0.5+1
; #@! TF.FileFunction,Plated,1,2,PTH
FMAT,2
INCH
; #@! TA.AperFunction,Plated,PTH,ViaDrill
T1C0.0157
; #@! TA.AperFunction,Plated,PTH,ViaDrill
T2C0.0197
; #@! TA.AperFunction,Plated,PTH,ComponentDrill
T3C0.0300
; #@! TA.AperFunction,Plated,PTH,ComponentDrill
T4C0.0354
; #@! TA.AperFunction,Plated,PTH,ComponentDrill
T5C0.0394
; #@! TA.AperFunction,Plated,PTH,ComponentDrill
T6C0.0433
; #@! TA.AperFunction,Plated,PTH,ComponentDrill
T7C0.0480
; #@! TA.AperFunction,Plated,PTH,ComponentDrill
T8C0.0559
; #@! TA.AperFunction,Plated,PTH,ComponentDrill
T9C0.0563
%
G90
G05
T1
X3.5827Y-2.0079
X3.5827Y-2.0472
X3.5827Y-2.0866
X3.5827Y-2.126
X3.5827Y-2.1654
X3.5827Y-2.2047
X3.5827Y-2.2441
X3.5827Y-2.2835
X3.622Y-2.0079
X3.622Y-2.0472
X3.622Y-2.0866
X3.622Y-2.126
X3.622Y-2.1654
X3.622Y-2.2047
X3.622Y-2.2441
X3.6528Y-5.0031
X3.6614Y-2.0079
X3.6614Y-2.0472
X3.6614Y-2.0866
X3.6614Y-2.126
X3.6614Y-2.1654
X3.6614Y-2.2047
X3.6634Y-5.4268
X3.676Y-5.8126
X3.6807Y-4.0
X3.69Y-4.189
X3.6998Y-3.8642
X3.7008Y-2.0079
X3.7008Y-2.0472
X3.7008Y-2.0866
X3.7008Y-2.126
X3.7008Y-2.1654
X3.7008Y-2.4803
X3.7008Y-2.5197
X3.7008Y-2.5591
X3.7008Y-2.5984
X3.7008Y-2.6378
X3.7008Y-2.6772
X3.7008Y-2.7165
X3.7008Y-2.7559
X3.7008Y-2.7953
X3.7008Y-2.8346
X3.7008Y-2.874
X3.7402Y-2.4409
X3.7402Y-2.4803
X3.7402Y-2.5197
X3.7402Y-2.5591
X3.7402Y-2.5984
X3.7402Y-2.6378
X3.7402Y-2.6772
X3.7402Y-2.7165
X3.7402Y-2.7559
X3.7402Y-2.7953
X3.7402Y-2.8346
X3.7402Y-2.874
X3.7402Y-2.9134
X3.748Y-4.188
X3.748Y-4.6819
X3.7792Y-3.4722
X3.7795Y-2.4409
X3.7795Y-2.4803
X3.7795Y-2.5197
X3.7795Y-2.5591
X3.7795Y-2.5984
X3.7795Y-2.6378
X3.7795Y-2.6772
X3.7795Y-2.7165
X3.7795Y-2.7559
X3.7795Y-2.7953
X3.7795Y-2.8346
X3.7795Y-2.874
X3.7795Y-2.9134
X3.7795Y-4.0
X3.7868Y-3.8161
X3.7972Y-4.2937
X3.8189Y-2.4409
X3.8189Y-2.4803
X3.8189Y-2.5197
X3.8189Y-2.5591
X3.8189Y-2.5984
X3.8189Y-2.6378
X3.8189Y-2.6772
X3.8189Y-2.7165
X3.8189Y-2.7559
X3.8189Y-2.7953
X3.8189Y-2.8346
X3.8189Y-2.874
X3.8189Y-2.9134
X3.8189Y-3.688
X3.8217Y-4.3839
X3.8307Y-4.0
X3.8441Y-4.3043
X3.8465Y-2.25
X3.8583Y-2.4803
X3.8583Y-2.5197
X3.8583Y-2.5591
X3.8583Y-2.5984
X3.8583Y-2.6378
X3.8583Y-2.6772
X3.8583Y-2.7165
X3.8583Y-2.7559
X3.8583Y-2.7953
X3.8583Y-2.8346
X3.8583Y-2.874
X3.8769Y-3.9881
X3.8855Y-3.4722
X3.8898Y-4.3378
X3.8976Y-2.9567
X3.914Y-4.066
X3.9315Y-3.6652
X3.937Y-1.9685
X3.937Y-2.0079
X3.937Y-2.0472
X3.937Y-2.0866
X3.937Y-2.126
X3.937Y-4.2421
X3.9665Y-4.2126
X3.9764Y-1.9685
X3.9764Y-2.0079
X3.9764Y-2.0472
X3.9764Y-2.0866
X3.9961Y-4.2421
X4.0157Y-1.9685
X4.0157Y-2.0079
X4.0157Y-2.0472
X4.0157Y-2.0866
X4.0208Y-3.8288
X4.0256Y-4.2126
X4.0551Y-1.9685
X4.0551Y-2.0079
X4.0551Y-2.0472
X4.0551Y-2.0866
X4.0551Y-2.5197
X4.0551Y-2.5591
X4.0551Y-2.5984
X4.0551Y-2.6378
X4.0551Y-4.2421
X4.0846Y-4.2126
X4.0945Y-1.9685
X4.0945Y-2.0079
X4.0945Y-2.0472
X4.0945Y-2.0866
X4.0945Y-2.5591
X4.0945Y-2.5984
X4.0945Y-2.6378
X4.0945Y-2.6772
X4.0945Y-3.8583
X4.0945Y-3.8976
X4.0945Y-3.937
X4.0945Y-3.9764
X4.0945Y-4.0157
X4.0945Y-4.0551
X4.1102Y-2.2795
X4.1142Y-4.2421
X4.1319Y-2.7953
X4.1339Y-1.9685
X4.1339Y-2.0079
X4.1339Y-2.0472
X4.1339Y-2.0866
X4.1339Y-2.126
X4.1339Y-2.1654
X4.1339Y-2.5984
X4.1339Y-2.6378
X4.1339Y-2.6772
X4.1339Y-2.7165
X4.1339Y-2.7559
X4.1339Y-3.8583
X4.1339Y-3.8976
X4.1339Y-3.937
X4.1339Y-3.9764
X4.1339Y-4.0157
X4.1339Y-4.0551
X4.1339Y-4.0945
X4.1615Y-2.2732
X4.1732Y-1.9685
X4.1732Y-2.0079
X4.1732Y-2.0472
X4.1732Y-2.0866
X4.1732Y-2.6378
X4.1732Y-2.6772
X4.1732Y-2.7165
X4.1732Y-2.7559
X4.1732Y-2.7953
X4.1732Y-2.8346
X4.1732Y-2.874
X4.1732Y-2.9134
X4.1732Y-4.2421
X4.189Y-2.5541
X4.1929Y-2.3425
X4.2126Y-1.9685
X4.2126Y-2.0079
X4.2126Y-2.0472
X4.2126Y-2.0866
X4.2126Y-2.6378
X4.2126Y-2.6772
X4.2126Y-2.7165
X4.2126Y-2.7559
X4.2323Y-2.3425
X4.2323Y-4.2421
X4.252Y-1.9685
X4.252Y-2.0079
X4.252Y-2.6378
X4.252Y-2.6772
X4.252Y-2.7165
X4.2913Y-1.9685
X4.2913Y-3.7402
X4.2913Y-3.7795
X4.2913Y-3.8189
X4.2913Y-3.8583
X4.2913Y-3.8976
X4.2913Y-3.937
X4.2913Y-3.9764
X4.2913Y-4.0157
X4.2913Y-4.1043
X4.2913Y-4.1437
X4.3224Y-2.7173
X4.3307Y-2.0453
X4.3307Y-3.1496
X4.3307Y-3.7402
X4.3307Y-3.7795
X4.3307Y-3.8189
X4.3307Y-3.8583
X4.3307Y-3.8976
X4.3307Y-3.937
X4.3307Y-3.9764
X4.3307Y-4.0157
X4.3307Y-4.1043
X4.3307Y-4.1437
X4.3327Y-2.3386
X4.3425Y-2.1024
X4.3701Y-2.7165
X4.3701Y-3.1496
X4.3701Y-3.189
X4.3701Y-4.1043
X4.3701Y-4.1437
X4.374Y-2.7933
X4.3898Y-2.1063
X4.3919Y-4.247
X4.398Y-2.9478
X4.4094Y-2.2441
X4.4094Y-3.1496
X4.4094Y-3.189
X4.4154Y-2.5413
X4.4224Y-4.2756
X4.426Y-2.7921
X4.437Y-2.1063
X4.4387Y-4.3114
X4.4488Y-2.2441
X4.4488Y-2.7165
X4.4488Y-3.1102
X4.4488Y-3.1496
X4.4488Y-3.189
X4.4531Y-2.9846
X4.4728Y-3.3469
X4.4764Y-2.7874
X4.4882Y-2.1024
X4.4882Y-2.2441
X4.4882Y-2.2835
X4.4882Y-2.3228
X4.4882Y-2.7165
X4.4882Y-3.1102
X4.4882Y-3.1496
X4.4882Y-3.189
X4.5039Y-2.5266
X4.5138Y-4.2764
X4.5197Y-2.063
X4.5226Y-2.7795
X4.5256Y-2.6909
X4.5354Y-2.1024
X4.563Y-2.063
X4.5787Y-2.1063
X4.5913Y-4.6354
X4.5929Y-5.8283
X4.5945Y-5.4366
X4.5965Y-5.0193
X4.6063Y-1.9685
X4.6102Y-2.6909
X4.626Y-2.1299
X4.6457Y-1.9685
X4.6457Y-2.0079
X4.6457Y-2.2047
X4.6457Y-2.2441
X4.6457Y-3.1102
X4.6457Y-3.1496
X4.6457Y-3.189
X4.685Y-1.9685
X4.685Y-2.0079
X4.685Y-2.0472
X4.685Y-2.0866
X4.685Y-2.126
X4.685Y-2.1654
X4.685Y-2.2047
X4.685Y-2.2441
X4.685Y-3.0315
X4.685Y-3.0709
X4.685Y-3.1102
X4.685Y-3.1496
X4.685Y-3.189
T2
X4.5433Y-3.1181
X4.6309Y-2.7402
T3
X4.378Y-1.9764
X4.378Y-2.1732
X4.4567Y-1.9764
X4.4567Y-2.1732
X4.5354Y-1.9764
X4.5354Y-2.1732
T4
X3.811Y-2.0246
X3.811Y-2.1246
T5
X3.7126Y-3.3061
X3.811Y-3.3061
X3.9094Y-3.3061
X4.4728Y-3.6614
X4.4728Y-3.7614
X4.4728Y-3.8614
X4.4728Y-3.9614
X4.4728Y-4.0614
X4.5728Y-3.6614
X4.5728Y-3.7614
X4.5728Y-3.8614
X4.5728Y-3.9614
X4.5728Y-4.0614
T7
X4.0591Y-5.2756
X4.0591Y-5.6693
X4.06Y-4.4882
X4.06Y-4.8819
X4.06Y-6.063
X4.0661Y-2.4213
X4.2008Y-2.4213
X4.2077Y-5.6693
X4.2077Y-6.063
X4.2087Y-4.4882
X4.2087Y-4.8819
X4.2087Y-5.2756
T8
X3.937Y-5.2756
X3.937Y-5.6693
X3.938Y-4.4882
X3.938Y-4.8819
X3.938Y-6.063
X3.9441Y-2.4213
X4.3228Y-2.4213
X4.3297Y-5.6693
X4.3297Y-6.063
X4.3307Y-4.4882
X4.3307Y-4.8819
X4.3307Y-5.2756
T9
X3.6102Y-5.2756
X3.6102Y-5.6693
X3.6112Y-4.4882
X3.6112Y-4.8819
X3.6112Y-6.063
X3.6173Y-2.4213
X4.6496Y-2.4213
X4.6565Y-5.6693
X4.6565Y-6.063
X4.6575Y-4.4882
X4.6575Y-4.8819
X4.6575Y-5.2756
T6
G00X3.622Y-3.0344
M15
G01X3.622Y-2.9872
M16
G05
G00X4.0Y-3.0344
M15
G01X4.0Y-2.9872
M16
G05
M30
