%TF.GenerationSoftware,KiCad,Pcbnew,8.0.5+1*%
%TF.CreationDate,2024-11-27T03:26:14+08:00*%
%TF.ProjectId,MiniDiv v0.3 - Main,4d696e69-4469-4762-9076-302e33202d20,0.3*%
%TF.SameCoordinates,Original*%
%TF.FileFunction,Paste,Bot*%
%TF.FilePolarity,Positive*%
%FSLAX46Y46*%
G04 Gerber Fmt 4.6, Leading zero omitted, Abs format (unit mm)*
G04 Created by KiCad (PCBNEW 8.0.5+1) date 2024-11-27 03:26:14*
%MOMM*%
%LPD*%
G01*
G04 APERTURE LIST*
G04 Aperture macros list*
%AMRoundRect*
0 Rectangle with rounded corners*
0 $1 Rounding radius*
0 $2 $3 $4 $5 $6 $7 $8 $9 X,Y pos of 4 corners*
0 Add a 4 corners polygon primitive as box body*
4,1,4,$2,$3,$4,$5,$6,$7,$8,$9,$2,$3,0*
0 Add four circle primitives for the rounded corners*
1,1,$1+$1,$2,$3*
1,1,$1+$1,$4,$5*
1,1,$1+$1,$6,$7*
1,1,$1+$1,$8,$9*
0 Add four rect primitives between the rounded corners*
20,1,$1+$1,$2,$3,$4,$5,0*
20,1,$1+$1,$4,$5,$6,$7,0*
20,1,$1+$1,$6,$7,$8,$9,0*
20,1,$1+$1,$8,$9,$2,$3,0*%
G04 Aperture macros list end*
%ADD10RoundRect,0.200000X0.500000X-0.200000X0.500000X0.200000X-0.500000X0.200000X-0.500000X-0.200000X0*%
%ADD11RoundRect,0.200000X0.475000X-0.200000X0.475000X0.200000X-0.475000X0.200000X-0.475000X-0.200000X0*%
%ADD12RoundRect,0.200000X-0.500000X0.200000X-0.500000X-0.200000X0.500000X-0.200000X0.500000X0.200000X0*%
%ADD13RoundRect,0.200000X-0.475000X0.200000X-0.475000X-0.200000X0.475000X-0.200000X0.475000X0.200000X0*%
%ADD14RoundRect,0.237500X0.237500X-0.250000X0.237500X0.250000X-0.237500X0.250000X-0.237500X-0.250000X0*%
%ADD15RoundRect,0.250000X-0.475000X0.337500X-0.475000X-0.337500X0.475000X-0.337500X0.475000X0.337500X0*%
%ADD16RoundRect,0.237500X0.300000X0.237500X-0.300000X0.237500X-0.300000X-0.237500X0.300000X-0.237500X0*%
%ADD17RoundRect,0.225000X-0.225000X-0.375000X0.225000X-0.375000X0.225000X0.375000X-0.225000X0.375000X0*%
%ADD18RoundRect,0.237500X-0.237500X0.250000X-0.237500X-0.250000X0.237500X-0.250000X0.237500X0.250000X0*%
%ADD19RoundRect,0.250000X-0.550000X1.050000X-0.550000X-1.050000X0.550000X-1.050000X0.550000X1.050000X0*%
%ADD20RoundRect,0.237500X-0.250000X-0.237500X0.250000X-0.237500X0.250000X0.237500X-0.250000X0.237500X0*%
%ADD21RoundRect,0.237500X0.250000X0.237500X-0.250000X0.237500X-0.250000X-0.237500X0.250000X-0.237500X0*%
%ADD22RoundRect,0.237500X-0.300000X-0.237500X0.300000X-0.237500X0.300000X0.237500X-0.300000X0.237500X0*%
%ADD23RoundRect,0.150000X-0.650000X-0.150000X0.650000X-0.150000X0.650000X0.150000X-0.650000X0.150000X0*%
%ADD24RoundRect,0.375000X0.375000X-0.625000X0.375000X0.625000X-0.375000X0.625000X-0.375000X-0.625000X0*%
%ADD25RoundRect,0.500000X1.400000X-0.500000X1.400000X0.500000X-1.400000X0.500000X-1.400000X-0.500000X0*%
%ADD26RoundRect,0.250000X-0.337500X-0.475000X0.337500X-0.475000X0.337500X0.475000X-0.337500X0.475000X0*%
%ADD27RoundRect,0.150000X-0.150000X0.825000X-0.150000X-0.825000X0.150000X-0.825000X0.150000X0.825000X0*%
%ADD28RoundRect,0.225000X0.225000X0.375000X-0.225000X0.375000X-0.225000X-0.375000X0.225000X-0.375000X0*%
%ADD29RoundRect,0.150000X0.150000X-1.050000X0.150000X1.050000X-0.150000X1.050000X-0.150000X-1.050000X0*%
%ADD30RoundRect,0.250000X0.337500X0.475000X-0.337500X0.475000X-0.337500X-0.475000X0.337500X-0.475000X0*%
G04 APERTURE END LIST*
D10*
%TO.C,J10*%
X113425000Y-142800000D03*
D11*
X113400000Y-145200000D03*
%TD*%
D12*
%TO.C,J3*%
X96575000Y-125200000D03*
D13*
X96600000Y-122800000D03*
%TD*%
D10*
%TO.C,J11*%
X113425000Y-152800000D03*
D11*
X113400000Y-155200000D03*
%TD*%
D10*
%TO.C,J7*%
X113450000Y-112800000D03*
D11*
X113425000Y-115200000D03*
%TD*%
D12*
%TO.C,J2*%
X96575000Y-115200000D03*
D13*
X96600000Y-112800000D03*
%TD*%
D10*
%TO.C,J8*%
X113450000Y-122800000D03*
D11*
X113425000Y-125200000D03*
%TD*%
D12*
%TO.C,J5*%
X96550000Y-145200000D03*
D13*
X96575000Y-142800000D03*
%TD*%
D12*
%TO.C,J6*%
X96575000Y-155200000D03*
D13*
X96600000Y-152800000D03*
%TD*%
D12*
%TO.C,J4*%
X96550000Y-135200000D03*
D13*
X96575000Y-132800000D03*
%TD*%
D10*
%TO.C,J9*%
X113450000Y-132800000D03*
D11*
X113425000Y-135200000D03*
%TD*%
D14*
%TO.C,R22*%
X91700000Y-151250000D03*
X91700000Y-149425000D03*
%TD*%
D15*
%TO.C,C5*%
X111300000Y-76062500D03*
X111300000Y-78137500D03*
%TD*%
D16*
%TO.C,C4*%
X111462500Y-86400000D03*
X109737500Y-86400000D03*
%TD*%
D14*
%TO.C,R17*%
X91700000Y-121300000D03*
X91700000Y-119475000D03*
%TD*%
D17*
%TO.C,D3*%
X112150000Y-58400000D03*
X115450000Y-58400000D03*
%TD*%
D14*
%TO.C,R8*%
X109700000Y-84825000D03*
X109700000Y-83000000D03*
%TD*%
D18*
%TO.C,R9*%
X99300000Y-79825000D03*
X99300000Y-81650000D03*
%TD*%
D19*
%TO.C,C2*%
X106600000Y-92200000D03*
X106600000Y-95800000D03*
%TD*%
D20*
%TO.C,R2*%
X94187500Y-57500000D03*
X96012500Y-57500000D03*
%TD*%
D14*
%TO.C,R4*%
X99450000Y-58812500D03*
X99450000Y-56987500D03*
%TD*%
%TO.C,R25*%
X118310000Y-130955000D03*
X118310000Y-129130000D03*
%TD*%
%TO.C,R15*%
X91700000Y-131100000D03*
X91700000Y-129275000D03*
%TD*%
D18*
%TO.C,R13*%
X93300000Y-139575000D03*
X93300000Y-141400000D03*
%TD*%
%TO.C,R18*%
X93240000Y-149400000D03*
X93240000Y-151225000D03*
%TD*%
D19*
%TO.C,C3*%
X106600000Y-100200000D03*
X106600000Y-103800000D03*
%TD*%
D17*
%TO.C,D2*%
X112150000Y-61200000D03*
X115450000Y-61200000D03*
%TD*%
D21*
%TO.C,R3*%
X113262500Y-63150000D03*
X111437500Y-63150000D03*
%TD*%
%TO.C,R6*%
X118812500Y-86500000D03*
X116987500Y-86500000D03*
%TD*%
D22*
%TO.C,C1*%
X117037500Y-58400000D03*
X118762500Y-58400000D03*
%TD*%
D14*
%TO.C,R14*%
X91740000Y-111632500D03*
X91740000Y-109807500D03*
%TD*%
D18*
%TO.C,R12*%
X93300000Y-129275000D03*
X93300000Y-131100000D03*
%TD*%
%TO.C,R7*%
X111300000Y-83000000D03*
X111300000Y-84825000D03*
%TD*%
%TO.C,R11*%
X93300000Y-119475000D03*
X93300000Y-121300000D03*
%TD*%
D23*
%TO.C,U2*%
X101425000Y-58560000D03*
X101425000Y-57290000D03*
X101425000Y-56020000D03*
X101425000Y-54750000D03*
X108625000Y-54750000D03*
X108625000Y-56020000D03*
X108625000Y-57290000D03*
X108625000Y-58560000D03*
%TD*%
D14*
%TO.C,R24*%
X118280000Y-121687500D03*
X118280000Y-119862500D03*
%TD*%
D18*
%TO.C,R19*%
X115800000Y-109787500D03*
X115800000Y-111612500D03*
%TD*%
D24*
%TO.C,U4*%
X118300000Y-82800000D03*
X116000000Y-82800000D03*
D25*
X116000000Y-76500000D03*
D24*
X113700000Y-82800000D03*
%TD*%
D14*
%TO.C,R10*%
X93300000Y-111632500D03*
X93300000Y-109807500D03*
%TD*%
D26*
%TO.C,C7*%
X94325000Y-81300000D03*
X96400000Y-81300000D03*
%TD*%
D27*
%TO.C,U3*%
X93490000Y-99750000D03*
X94760000Y-99750000D03*
X96030000Y-99750000D03*
X97300000Y-99750000D03*
X98570000Y-99750000D03*
X99840000Y-99750000D03*
X101110000Y-99750000D03*
X101110000Y-104700000D03*
X99840000Y-104700000D03*
X98570000Y-104700000D03*
X97300000Y-104700000D03*
X96030000Y-104700000D03*
X94760000Y-104700000D03*
X93490000Y-104700000D03*
%TD*%
D28*
%TO.C,D1*%
X97475000Y-59500000D03*
X94175000Y-59500000D03*
%TD*%
D18*
%TO.C,R20*%
X116700000Y-119825000D03*
X116700000Y-121650000D03*
%TD*%
D29*
%TO.C,U5*%
X118770000Y-72850000D03*
X117500000Y-72850000D03*
X116230000Y-72850000D03*
X114960000Y-72850000D03*
X113690000Y-72850000D03*
X112420000Y-72850000D03*
X111150000Y-72850000D03*
X109880000Y-72850000D03*
X109880000Y-66350000D03*
X111150000Y-66350000D03*
X112420000Y-66350000D03*
X113690000Y-66350000D03*
X114960000Y-66350000D03*
X116230000Y-66350000D03*
X117500000Y-66350000D03*
X118770000Y-66350000D03*
%TD*%
D14*
%TO.C,R23*%
X117400000Y-111612500D03*
X117400000Y-109787500D03*
%TD*%
%TO.C,R16*%
X91700000Y-141387500D03*
X91700000Y-139562500D03*
%TD*%
D30*
%TO.C,C6*%
X118825000Y-63850000D03*
X116750000Y-63850000D03*
%TD*%
D18*
%TO.C,R27*%
X116700000Y-149775000D03*
X116700000Y-151600000D03*
%TD*%
D20*
%TO.C,R1*%
X111387500Y-52100000D03*
X113212500Y-52100000D03*
%TD*%
D14*
%TO.C,R28*%
X118300000Y-141675000D03*
X118300000Y-139850000D03*
%TD*%
D18*
%TO.C,R26*%
X116750000Y-139837500D03*
X116750000Y-141662500D03*
%TD*%
%TO.C,R21*%
X116750000Y-129117500D03*
X116750000Y-130942500D03*
%TD*%
D14*
%TO.C,R29*%
X118250000Y-151600000D03*
X118250000Y-149775000D03*
%TD*%
D27*
%TO.C,U1*%
X93510000Y-90170000D03*
X94780000Y-90170000D03*
X96050000Y-90170000D03*
X97320000Y-90170000D03*
X98590000Y-90170000D03*
X99860000Y-90170000D03*
X101130000Y-90170000D03*
X101130000Y-95120000D03*
X99860000Y-95120000D03*
X98590000Y-95120000D03*
X97320000Y-95120000D03*
X96050000Y-95120000D03*
X94780000Y-95120000D03*
X93510000Y-95120000D03*
%TD*%
D20*
%TO.C,R5*%
X116987500Y-84900000D03*
X118812500Y-84900000D03*
%TD*%
M02*
