%TF.GenerationSoftware,KiCad,Pcbnew,8.0.5+1*%
%TF.CreationDate,2024-11-27T03:26:14+08:00*%
%TF.ProjectId,MiniDiv v0.3 - Main,4d696e69-4469-4762-9076-302e33202d20,0.3*%
%TF.SameCoordinates,Original*%
%TF.FileFunction,Soldermask,Top*%
%TF.FilePolarity,Negative*%
%FSLAX46Y46*%
G04 Gerber Fmt 4.6, Leading zero omitted, Abs format (unit mm)*
G04 Created by KiCad (PCBNEW 8.0.5+1) date 2024-11-27 03:26:14*
%MOMM*%
%LPD*%
G01*
G04 APERTURE LIST*
G04 Aperture macros list*
%AMRoundRect*
0 Rectangle with rounded corners*
0 $1 Rounding radius*
0 $2 $3 $4 $5 $6 $7 $8 $9 X,Y pos of 4 corners*
0 Add a 4 corners polygon primitive as box body*
4,1,4,$2,$3,$4,$5,$6,$7,$8,$9,$2,$3,0*
0 Add four circle primitives for the rounded corners*
1,1,$1+$1,$2,$3*
1,1,$1+$1,$4,$5*
1,1,$1+$1,$6,$7*
1,1,$1+$1,$8,$9*
0 Add four rect primitives between the rounded corners*
20,1,$1+$1,$2,$3,$4,$5,0*
20,1,$1+$1,$4,$5,$6,$7,0*
20,1,$1+$1,$6,$7,$8,$9,0*
20,1,$1+$1,$8,$9,$2,$3,0*%
G04 Aperture macros list end*
%ADD10R,1.830000X1.930000*%
%ADD11C,2.130000*%
%ADD12RoundRect,0.250000X-0.512000X-0.512000X0.512000X-0.512000X0.512000X0.512000X-0.512000X0.512000X0*%
%ADD13C,1.524000*%
%ADD14R,1.800000X1.800000*%
%ADD15C,1.800000*%
%ADD16O,2.720000X3.240000*%
%ADD17RoundRect,0.250000X-0.600000X-0.600000X0.600000X-0.600000X0.600000X0.600000X-0.600000X0.600000X0*%
%ADD18C,1.700000*%
G04 APERTURE END LIST*
D10*
%TO.C,J10*%
X106875000Y-144000000D03*
D11*
X118275000Y-144000000D03*
X109975000Y-144000000D03*
%TD*%
D10*
%TO.C,J3*%
X103125000Y-124000000D03*
D11*
X91725000Y-124000000D03*
X100025000Y-124000000D03*
%TD*%
D10*
%TO.C,J11*%
X106875000Y-154000000D03*
D11*
X118275000Y-154000000D03*
X109975000Y-154000000D03*
%TD*%
D10*
%TO.C,J7*%
X106900000Y-114000000D03*
D11*
X118300000Y-114000000D03*
X110000000Y-114000000D03*
%TD*%
D12*
%TO.C,SW1*%
X111200000Y-50200000D03*
D13*
X113200000Y-50200000D03*
X115200000Y-50200000D03*
X115200000Y-55200000D03*
X113200000Y-55200000D03*
X111200000Y-55200000D03*
%TD*%
D10*
%TO.C,J2*%
X103125000Y-114000000D03*
D11*
X91725000Y-114000000D03*
X100025000Y-114000000D03*
%TD*%
D14*
%TO.C,D4*%
X96800000Y-51425000D03*
D15*
X96800000Y-53965000D03*
%TD*%
D10*
%TO.C,J8*%
X106900000Y-124000000D03*
D11*
X118300000Y-124000000D03*
X110000000Y-124000000D03*
%TD*%
D10*
%TO.C,J5*%
X103100000Y-144000000D03*
D11*
X91700000Y-144000000D03*
X100000000Y-144000000D03*
%TD*%
D10*
%TO.C,J6*%
X103125000Y-154000000D03*
D11*
X91725000Y-154000000D03*
X100025000Y-154000000D03*
%TD*%
D10*
%TO.C,CLOCK_IN1*%
X103280000Y-61500000D03*
D11*
X91880000Y-61500000D03*
X100180000Y-61500000D03*
%TD*%
D10*
%TO.C,J4*%
X103100000Y-134000000D03*
D11*
X91700000Y-134000000D03*
X100000000Y-134000000D03*
%TD*%
D10*
%TO.C,RESET_IN1*%
X106700000Y-61500000D03*
D11*
X118100000Y-61500000D03*
X109800000Y-61500000D03*
%TD*%
D10*
%TO.C,J9*%
X106900000Y-134000000D03*
D11*
X118300000Y-134000000D03*
X110000000Y-134000000D03*
%TD*%
D16*
%TO.C,RV1*%
X92000000Y-76475000D03*
X101600000Y-76475000D03*
D14*
X94300000Y-83975000D03*
D15*
X96800000Y-83975000D03*
X99300000Y-83975000D03*
%TD*%
D17*
%TO.C,J1*%
X113610000Y-103160000D03*
D18*
X116150000Y-103160000D03*
X113610000Y-100620000D03*
X116150000Y-100620000D03*
X113610000Y-98080000D03*
X116150000Y-98080000D03*
X113610000Y-95540000D03*
X116150000Y-95540000D03*
X113610000Y-93000000D03*
X116150000Y-93000000D03*
%TD*%
M02*
