%TF.GenerationSoftware,KiCad,Pcbnew,8.0.5+1*%
%TF.CreationDate,2024-11-27T03:26:16+08:00*%
%TF.ProjectId,MiniDiv v0.3 - Main,4d696e69-4469-4762-9076-302e33202d20,0.3*%
%TF.SameCoordinates,Original*%
%TF.FileFunction,Drillmap*%
%TF.FilePolarity,Positive*%
%FSLAX45Y45*%
G04 Gerber Fmt 4.5, Leading zero omitted, Abs format (unit mm)*
G04 Created by KiCad (PCBNEW 8.0.5+1) date 2024-11-27 03:26:16*
%MOMM*%
%LPD*%
G01*
G04 APERTURE LIST*
%ADD10C,0.100000*%
%ADD11C,0.050000*%
%ADD12C,0.200000*%
G04 APERTURE END LIST*
D10*
X9000000Y-4900000D02*
X12000000Y-4900000D01*
X12000000Y-15900000D01*
X9000000Y-15900000D01*
X9000000Y-4900000D01*
D11*
X11207500Y-14470000D02*
X11477500Y-14470000D01*
X11477500Y-14330000D01*
X11207500Y-14330000D01*
X11207500Y-14470000D01*
X9792500Y-12330000D02*
X9522500Y-12330000D01*
X9522500Y-12470000D01*
X9792500Y-12470000D01*
X9792500Y-12330000D01*
X11207500Y-15470000D02*
X11477500Y-15470000D01*
X11477500Y-15330000D01*
X11207500Y-15330000D01*
X11207500Y-15470000D01*
X11210000Y-11470000D02*
X11480000Y-11470000D01*
X11480000Y-11330000D01*
X11210000Y-11330000D01*
X11210000Y-11470000D01*
X9792500Y-11330000D02*
X9522500Y-11330000D01*
X9522500Y-11470000D01*
X9792500Y-11470000D01*
X9792500Y-11330000D01*
X11210000Y-12470000D02*
X11480000Y-12470000D01*
X11480000Y-12330000D01*
X11210000Y-12330000D01*
X11210000Y-12470000D01*
X9790000Y-14330000D02*
X9520000Y-14330000D01*
X9520000Y-14470000D01*
X9790000Y-14470000D01*
X9790000Y-14330000D01*
X9792500Y-15330000D02*
X9522500Y-15330000D01*
X9522500Y-15470000D01*
X9792500Y-15470000D01*
X9792500Y-15330000D01*
X9790000Y-13330000D02*
X9520000Y-13330000D01*
X9520000Y-13470000D01*
X9790000Y-13470000D01*
X9790000Y-13330000D01*
X11210000Y-13470000D02*
X11480000Y-13470000D01*
X11480000Y-13330000D01*
X11210000Y-13330000D01*
X11210000Y-13470000D01*
D12*
X9255777Y-16216484D02*
X9255777Y-16016484D01*
X9255777Y-16016484D02*
X9303396Y-16016484D01*
X9303396Y-16016484D02*
X9331967Y-16026008D01*
X9331967Y-16026008D02*
X9351015Y-16045055D01*
X9351015Y-16045055D02*
X9360539Y-16064103D01*
X9360539Y-16064103D02*
X9370063Y-16102198D01*
X9370063Y-16102198D02*
X9370063Y-16130769D01*
X9370063Y-16130769D02*
X9360539Y-16168865D01*
X9360539Y-16168865D02*
X9351015Y-16187912D01*
X9351015Y-16187912D02*
X9331967Y-16206960D01*
X9331967Y-16206960D02*
X9303396Y-16216484D01*
X9303396Y-16216484D02*
X9255777Y-16216484D01*
X9455777Y-16216484D02*
X9455777Y-16083150D01*
X9455777Y-16121246D02*
X9465301Y-16102198D01*
X9465301Y-16102198D02*
X9474824Y-16092674D01*
X9474824Y-16092674D02*
X9493872Y-16083150D01*
X9493872Y-16083150D02*
X9512920Y-16083150D01*
X9579586Y-16216484D02*
X9579586Y-16083150D01*
X9579586Y-16016484D02*
X9570063Y-16026008D01*
X9570063Y-16026008D02*
X9579586Y-16035531D01*
X9579586Y-16035531D02*
X9589110Y-16026008D01*
X9589110Y-16026008D02*
X9579586Y-16016484D01*
X9579586Y-16016484D02*
X9579586Y-16035531D01*
X9703396Y-16216484D02*
X9684348Y-16206960D01*
X9684348Y-16206960D02*
X9674824Y-16187912D01*
X9674824Y-16187912D02*
X9674824Y-16016484D01*
X9808158Y-16216484D02*
X9789110Y-16206960D01*
X9789110Y-16206960D02*
X9779586Y-16187912D01*
X9779586Y-16187912D02*
X9779586Y-16016484D01*
X10036729Y-16216484D02*
X10036729Y-16016484D01*
X10036729Y-16016484D02*
X10103396Y-16159341D01*
X10103396Y-16159341D02*
X10170063Y-16016484D01*
X10170063Y-16016484D02*
X10170063Y-16216484D01*
X10351015Y-16216484D02*
X10351015Y-16111722D01*
X10351015Y-16111722D02*
X10341491Y-16092674D01*
X10341491Y-16092674D02*
X10322444Y-16083150D01*
X10322444Y-16083150D02*
X10284348Y-16083150D01*
X10284348Y-16083150D02*
X10265301Y-16092674D01*
X10351015Y-16206960D02*
X10331967Y-16216484D01*
X10331967Y-16216484D02*
X10284348Y-16216484D01*
X10284348Y-16216484D02*
X10265301Y-16206960D01*
X10265301Y-16206960D02*
X10255777Y-16187912D01*
X10255777Y-16187912D02*
X10255777Y-16168865D01*
X10255777Y-16168865D02*
X10265301Y-16149817D01*
X10265301Y-16149817D02*
X10284348Y-16140293D01*
X10284348Y-16140293D02*
X10331967Y-16140293D01*
X10331967Y-16140293D02*
X10351015Y-16130769D01*
X10446253Y-16083150D02*
X10446253Y-16283150D01*
X10446253Y-16092674D02*
X10465301Y-16083150D01*
X10465301Y-16083150D02*
X10503396Y-16083150D01*
X10503396Y-16083150D02*
X10522444Y-16092674D01*
X10522444Y-16092674D02*
X10531967Y-16102198D01*
X10531967Y-16102198D02*
X10541491Y-16121246D01*
X10541491Y-16121246D02*
X10541491Y-16178388D01*
X10541491Y-16178388D02*
X10531967Y-16197436D01*
X10531967Y-16197436D02*
X10522444Y-16206960D01*
X10522444Y-16206960D02*
X10503396Y-16216484D01*
X10503396Y-16216484D02*
X10465301Y-16216484D01*
X10465301Y-16216484D02*
X10446253Y-16206960D01*
X10627205Y-16197436D02*
X10636729Y-16206960D01*
X10636729Y-16206960D02*
X10627205Y-16216484D01*
X10627205Y-16216484D02*
X10617682Y-16206960D01*
X10617682Y-16206960D02*
X10627205Y-16197436D01*
X10627205Y-16197436D02*
X10627205Y-16216484D01*
X10627205Y-16092674D02*
X10636729Y-16102198D01*
X10636729Y-16102198D02*
X10627205Y-16111722D01*
X10627205Y-16111722D02*
X10617682Y-16102198D01*
X10617682Y-16102198D02*
X10627205Y-16092674D01*
X10627205Y-16092674D02*
X10627205Y-16111722D01*
M02*
