%TF.GenerationSoftware,KiCad,Pcbnew,8.0.5+1*%
%TF.CreationDate,2024-11-27T03:26:14+08:00*%
%TF.ProjectId,MiniDiv v0.3 - Main,4d696e69-4469-4762-9076-302e33202d20,0.3*%
%TF.SameCoordinates,Original*%
%TF.FileFunction,Legend,Bot*%
%TF.FilePolarity,Positive*%
%FSLAX46Y46*%
G04 Gerber Fmt 4.6, Leading zero omitted, Abs format (unit mm)*
G04 Created by KiCad (PCBNEW 8.0.5+1) date 2024-11-27 03:26:14*
%MOMM*%
%LPD*%
G01*
G04 APERTURE LIST*
%ADD10C,0.150000*%
%ADD11C,0.600000*%
%ADD12C,0.400000*%
%ADD13C,0.100000*%
%ADD14C,0.160000*%
%ADD15C,0.120000*%
G04 APERTURE END LIST*
D10*
G36*
X119162002Y-108200000D02*
G01*
X119023272Y-108200000D01*
X119023272Y-107762316D01*
X118872086Y-107762316D01*
X118837640Y-107763941D01*
X118786366Y-107774285D01*
X118741905Y-107796266D01*
X118729891Y-107805849D01*
X118696381Y-107843496D01*
X118668449Y-107886621D01*
X118643230Y-107934263D01*
X118512072Y-108200000D01*
X118363084Y-108200000D01*
X118503768Y-107916922D01*
X118506424Y-107911569D01*
X118530305Y-107866638D01*
X118556795Y-107823556D01*
X118588520Y-107781367D01*
X118593811Y-107775334D01*
X118631385Y-107740579D01*
X118675471Y-107716887D01*
X118670137Y-107715292D01*
X118621212Y-107695113D01*
X118580302Y-107667254D01*
X118544556Y-107627739D01*
X118536525Y-107615359D01*
X118515459Y-107569907D01*
X118503171Y-107518015D01*
X118499616Y-107465806D01*
X118499674Y-107464584D01*
X118645917Y-107464584D01*
X118649974Y-107513236D01*
X118665953Y-107563045D01*
X118697208Y-107605268D01*
X118703782Y-107611036D01*
X118746826Y-107636105D01*
X118796075Y-107649128D01*
X118848639Y-107652896D01*
X119023272Y-107652896D01*
X119023272Y-107277739D01*
X118848639Y-107277739D01*
X118836283Y-107277923D01*
X118785455Y-107283309D01*
X118738133Y-107298040D01*
X118697208Y-107324877D01*
X118668006Y-107362543D01*
X118650926Y-107411061D01*
X118645917Y-107464584D01*
X118499674Y-107464584D01*
X118501733Y-107420937D01*
X118509861Y-107371958D01*
X118527050Y-107321524D01*
X118552537Y-107278312D01*
X118586322Y-107242323D01*
X118591813Y-107237770D01*
X118635140Y-107209946D01*
X118687022Y-107189204D01*
X118738302Y-107177063D01*
X118795867Y-107170124D01*
X118848639Y-107168318D01*
X119162002Y-107168318D01*
X119162002Y-108200000D01*
G37*
G36*
X118189916Y-107168318D02*
G01*
X117541451Y-107168318D01*
X117541451Y-107277739D01*
X118051186Y-107277739D01*
X118051186Y-107590369D01*
X117562700Y-107590369D01*
X117562700Y-107699790D01*
X118051186Y-107699790D01*
X118051186Y-108090579D01*
X117528995Y-108090579D01*
X117528995Y-108200000D01*
X118189916Y-108200000D01*
X118189916Y-107168318D01*
G37*
G36*
X117305757Y-108200000D02*
G01*
X117020481Y-108200000D01*
X117002087Y-108199877D01*
X116948742Y-108198046D01*
X116898154Y-108194016D01*
X116834990Y-108185223D01*
X116776727Y-108172522D01*
X116723364Y-108155914D01*
X116674901Y-108135397D01*
X116631338Y-108110973D01*
X116583775Y-108074947D01*
X116566798Y-108058762D01*
X116529148Y-108013458D01*
X116498343Y-107961237D01*
X116478628Y-107914480D01*
X116463294Y-107863295D01*
X116452342Y-107807684D01*
X116445770Y-107747646D01*
X116443579Y-107683182D01*
X116589881Y-107683182D01*
X116589977Y-107696276D01*
X116592290Y-107746443D01*
X116599517Y-107804182D01*
X116611562Y-107856400D01*
X116628425Y-107903096D01*
X116655021Y-107951842D01*
X116688555Y-107992637D01*
X116694818Y-107998663D01*
X116737064Y-108030800D01*
X116787314Y-108056051D01*
X116835301Y-108071832D01*
X116888846Y-108082831D01*
X116947949Y-108089048D01*
X116999232Y-108090579D01*
X117167027Y-108090579D01*
X117167027Y-107277739D01*
X116999232Y-107277739D01*
X116986078Y-107277834D01*
X116935683Y-107280124D01*
X116877692Y-107287279D01*
X116825259Y-107299205D01*
X116778383Y-107315901D01*
X116729468Y-107342234D01*
X116688555Y-107375436D01*
X116682484Y-107381651D01*
X116650107Y-107423554D01*
X116624667Y-107473357D01*
X116608768Y-107520894D01*
X116597686Y-107573916D01*
X116591423Y-107632425D01*
X116589881Y-107683182D01*
X116443579Y-107683182D01*
X116444124Y-107650546D01*
X116448482Y-107588577D01*
X116457199Y-107531012D01*
X116470273Y-107477851D01*
X116487706Y-107429094D01*
X116509497Y-107384741D01*
X116542865Y-107335493D01*
X116583042Y-107293126D01*
X116601094Y-107278012D01*
X116651642Y-107244495D01*
X116697653Y-107222068D01*
X116748618Y-107203542D01*
X116804536Y-107188916D01*
X116865408Y-107178190D01*
X116914313Y-107172705D01*
X116966004Y-107169415D01*
X117020481Y-107168318D01*
X117305757Y-107168318D01*
X117305757Y-108200000D01*
G37*
G36*
X116228157Y-108200000D02*
G01*
X116089427Y-108200000D01*
X116089427Y-107762316D01*
X115938241Y-107762316D01*
X115903795Y-107763941D01*
X115852521Y-107774285D01*
X115808060Y-107796266D01*
X115796046Y-107805849D01*
X115762536Y-107843496D01*
X115734603Y-107886621D01*
X115709385Y-107934263D01*
X115578227Y-108200000D01*
X115429239Y-108200000D01*
X115569923Y-107916922D01*
X115572579Y-107911569D01*
X115596460Y-107866638D01*
X115622950Y-107823556D01*
X115654675Y-107781367D01*
X115659966Y-107775334D01*
X115697540Y-107740579D01*
X115741625Y-107716887D01*
X115736292Y-107715292D01*
X115687367Y-107695113D01*
X115646457Y-107667254D01*
X115610711Y-107627739D01*
X115602680Y-107615359D01*
X115581614Y-107569907D01*
X115569325Y-107518015D01*
X115565771Y-107465806D01*
X115565829Y-107464584D01*
X115712072Y-107464584D01*
X115716129Y-107513236D01*
X115732108Y-107563045D01*
X115763363Y-107605268D01*
X115769937Y-107611036D01*
X115812981Y-107636105D01*
X115862230Y-107649128D01*
X115914794Y-107652896D01*
X116089427Y-107652896D01*
X116089427Y-107277739D01*
X115914794Y-107277739D01*
X115902438Y-107277923D01*
X115851610Y-107283309D01*
X115804288Y-107298040D01*
X115763363Y-107324877D01*
X115734161Y-107362543D01*
X115717081Y-107411061D01*
X115712072Y-107464584D01*
X115565829Y-107464584D01*
X115567887Y-107420937D01*
X115576016Y-107371958D01*
X115593205Y-107321524D01*
X115618692Y-107278312D01*
X115652477Y-107242323D01*
X115657968Y-107237770D01*
X115701295Y-107209946D01*
X115753177Y-107189204D01*
X115804456Y-107177063D01*
X115862021Y-107170124D01*
X115914794Y-107168318D01*
X116228157Y-107168318D01*
X116228157Y-108200000D01*
G37*
G36*
X115256071Y-107168318D02*
G01*
X114607606Y-107168318D01*
X114607606Y-107277739D01*
X115117341Y-107277739D01*
X115117341Y-107590369D01*
X114628855Y-107590369D01*
X114628855Y-107699790D01*
X115117341Y-107699790D01*
X115117341Y-108090579D01*
X114595150Y-108090579D01*
X114595150Y-108200000D01*
X115256071Y-108200000D01*
X115256071Y-107168318D01*
G37*
G36*
X114371912Y-108200000D02*
G01*
X114086636Y-108200000D01*
X114068242Y-108199877D01*
X114014897Y-108198046D01*
X113964309Y-108194016D01*
X113901145Y-108185223D01*
X113842882Y-108172522D01*
X113789519Y-108155914D01*
X113741056Y-108135397D01*
X113697493Y-108110973D01*
X113649930Y-108074947D01*
X113632953Y-108058762D01*
X113595303Y-108013458D01*
X113564498Y-107961237D01*
X113544783Y-107914480D01*
X113529449Y-107863295D01*
X113518497Y-107807684D01*
X113511925Y-107747646D01*
X113509734Y-107683182D01*
X113656036Y-107683182D01*
X113656132Y-107696276D01*
X113658445Y-107746443D01*
X113665672Y-107804182D01*
X113677717Y-107856400D01*
X113694580Y-107903096D01*
X113721176Y-107951842D01*
X113754710Y-107992637D01*
X113760973Y-107998663D01*
X113803219Y-108030800D01*
X113853468Y-108056051D01*
X113901456Y-108071832D01*
X113955001Y-108082831D01*
X114014103Y-108089048D01*
X114065387Y-108090579D01*
X114233182Y-108090579D01*
X114233182Y-107277739D01*
X114065387Y-107277739D01*
X114052233Y-107277834D01*
X114001838Y-107280124D01*
X113943847Y-107287279D01*
X113891414Y-107299205D01*
X113844538Y-107315901D01*
X113795622Y-107342234D01*
X113754710Y-107375436D01*
X113748639Y-107381651D01*
X113716262Y-107423554D01*
X113690822Y-107473357D01*
X113674923Y-107520894D01*
X113663841Y-107573916D01*
X113657578Y-107632425D01*
X113656036Y-107683182D01*
X113509734Y-107683182D01*
X113510279Y-107650546D01*
X113514637Y-107588577D01*
X113523354Y-107531012D01*
X113536428Y-107477851D01*
X113553861Y-107429094D01*
X113575652Y-107384741D01*
X113609020Y-107335493D01*
X113649197Y-107293126D01*
X113667249Y-107278012D01*
X113717797Y-107244495D01*
X113763808Y-107222068D01*
X113814773Y-107203542D01*
X113870691Y-107188916D01*
X113931563Y-107178190D01*
X113980468Y-107172705D01*
X114032159Y-107169415D01*
X114086636Y-107168318D01*
X114371912Y-107168318D01*
X114371912Y-108200000D01*
G37*
G36*
X113294312Y-108200000D02*
G01*
X113155582Y-108200000D01*
X113155582Y-107762316D01*
X113004396Y-107762316D01*
X112969950Y-107763941D01*
X112918676Y-107774285D01*
X112874214Y-107796266D01*
X112862201Y-107805849D01*
X112828691Y-107843496D01*
X112800758Y-107886621D01*
X112775540Y-107934263D01*
X112644382Y-108200000D01*
X112495394Y-108200000D01*
X112636078Y-107916922D01*
X112638734Y-107911569D01*
X112662615Y-107866638D01*
X112689105Y-107823556D01*
X112720830Y-107781367D01*
X112726121Y-107775334D01*
X112763695Y-107740579D01*
X112807780Y-107716887D01*
X112802447Y-107715292D01*
X112753522Y-107695113D01*
X112712612Y-107667254D01*
X112676866Y-107627739D01*
X112668835Y-107615359D01*
X112647769Y-107569907D01*
X112635480Y-107518015D01*
X112631926Y-107465806D01*
X112631984Y-107464584D01*
X112778227Y-107464584D01*
X112782284Y-107513236D01*
X112798263Y-107563045D01*
X112829518Y-107605268D01*
X112836092Y-107611036D01*
X112879136Y-107636105D01*
X112928385Y-107649128D01*
X112980949Y-107652896D01*
X113155582Y-107652896D01*
X113155582Y-107277739D01*
X112980949Y-107277739D01*
X112968593Y-107277923D01*
X112917765Y-107283309D01*
X112870443Y-107298040D01*
X112829518Y-107324877D01*
X112800316Y-107362543D01*
X112783236Y-107411061D01*
X112778227Y-107464584D01*
X112631984Y-107464584D01*
X112634042Y-107420937D01*
X112642171Y-107371958D01*
X112659360Y-107321524D01*
X112684847Y-107278312D01*
X112718632Y-107242323D01*
X112724123Y-107237770D01*
X112767450Y-107209946D01*
X112819332Y-107189204D01*
X112870611Y-107177063D01*
X112928176Y-107170124D01*
X112980949Y-107168318D01*
X113294312Y-107168318D01*
X113294312Y-108200000D01*
G37*
G36*
X112322226Y-107168318D02*
G01*
X111673761Y-107168318D01*
X111673761Y-107277739D01*
X112183496Y-107277739D01*
X112183496Y-107590369D01*
X111695010Y-107590369D01*
X111695010Y-107699790D01*
X112183496Y-107699790D01*
X112183496Y-108090579D01*
X111661304Y-108090579D01*
X111661304Y-108200000D01*
X112322226Y-108200000D01*
X112322226Y-107168318D01*
G37*
G36*
X111438066Y-108200000D02*
G01*
X111152791Y-108200000D01*
X111134397Y-108199877D01*
X111081052Y-108198046D01*
X111030464Y-108194016D01*
X110967300Y-108185223D01*
X110909037Y-108172522D01*
X110855674Y-108155914D01*
X110807211Y-108135397D01*
X110763648Y-108110973D01*
X110716085Y-108074947D01*
X110699108Y-108058762D01*
X110661458Y-108013458D01*
X110630653Y-107961237D01*
X110610938Y-107914480D01*
X110595604Y-107863295D01*
X110584651Y-107807684D01*
X110578080Y-107747646D01*
X110575889Y-107683182D01*
X110722191Y-107683182D01*
X110722287Y-107696276D01*
X110724600Y-107746443D01*
X110731827Y-107804182D01*
X110743872Y-107856400D01*
X110760735Y-107903096D01*
X110787331Y-107951842D01*
X110820865Y-107992637D01*
X110827128Y-107998663D01*
X110869374Y-108030800D01*
X110919623Y-108056051D01*
X110967611Y-108071832D01*
X111021156Y-108082831D01*
X111080258Y-108089048D01*
X111131542Y-108090579D01*
X111299337Y-108090579D01*
X111299337Y-107277739D01*
X111131542Y-107277739D01*
X111118387Y-107277834D01*
X111067993Y-107280124D01*
X111010002Y-107287279D01*
X110957569Y-107299205D01*
X110910693Y-107315901D01*
X110861777Y-107342234D01*
X110820865Y-107375436D01*
X110814794Y-107381651D01*
X110782417Y-107423554D01*
X110756977Y-107473357D01*
X110741078Y-107520894D01*
X110729996Y-107573916D01*
X110723732Y-107632425D01*
X110722191Y-107683182D01*
X110575889Y-107683182D01*
X110576434Y-107650546D01*
X110580792Y-107588577D01*
X110589509Y-107531012D01*
X110602583Y-107477851D01*
X110620016Y-107429094D01*
X110641807Y-107384741D01*
X110675175Y-107335493D01*
X110715352Y-107293126D01*
X110733404Y-107278012D01*
X110783952Y-107244495D01*
X110829963Y-107222068D01*
X110880928Y-107203542D01*
X110936846Y-107188916D01*
X110997718Y-107178190D01*
X111046622Y-107172705D01*
X111098313Y-107169415D01*
X111152791Y-107168318D01*
X111438066Y-107168318D01*
X111438066Y-108200000D01*
G37*
D11*
G36*
X108607941Y-85443021D02*
G01*
X108569123Y-85293562D01*
X108440495Y-85215103D01*
X108372735Y-85207815D01*
X105710000Y-85096441D01*
X105710000Y-85690683D01*
X108114815Y-85787404D01*
X108114815Y-85862875D01*
X106306441Y-86328890D01*
X106168696Y-86395889D01*
X106108089Y-86530207D01*
X106104940Y-86580949D01*
X106104940Y-86982484D01*
X106138196Y-87128268D01*
X106259214Y-87226757D01*
X106306441Y-87240404D01*
X108114815Y-87708618D01*
X108114815Y-87782623D01*
X105710000Y-87868353D01*
X105710000Y-88462595D01*
X108372735Y-88355617D01*
X108516064Y-88317424D01*
X108599672Y-88195768D01*
X108607941Y-88118213D01*
X108607941Y-87515910D01*
X108568952Y-87366746D01*
X108440646Y-87275716D01*
X108404242Y-87266050D01*
X106944647Y-86890160D01*
X106798831Y-86857837D01*
X106740949Y-86847662D01*
X106591973Y-86822300D01*
X106532854Y-86811758D01*
X106532854Y-86755338D01*
X106683014Y-86726685D01*
X106740949Y-86716503D01*
X106890221Y-86688196D01*
X106949043Y-86675471D01*
X108404242Y-86306175D01*
X108543489Y-86236592D01*
X108604758Y-86102213D01*
X108607941Y-86051919D01*
X108607941Y-85443021D01*
G37*
G36*
X107782889Y-83971702D02*
G01*
X105710000Y-83971702D01*
X105710000Y-84586461D01*
X107782889Y-84586461D01*
X107782889Y-83971702D01*
G37*
G36*
X108698066Y-84143893D02*
G01*
X108645954Y-84000961D01*
X108513419Y-83960711D01*
X108287006Y-83960711D01*
X108142358Y-84012410D01*
X108101625Y-84143893D01*
X108101625Y-84414270D01*
X108153945Y-84557202D01*
X108287006Y-84597452D01*
X108513419Y-84597452D01*
X108657495Y-84545754D01*
X108698066Y-84414270D01*
X108698066Y-84143893D01*
G37*
G36*
X107837110Y-82005059D02*
G01*
X107823068Y-81835766D01*
X107780939Y-81695166D01*
X107693312Y-81564323D01*
X107565242Y-81474798D01*
X107396729Y-81426593D01*
X107261919Y-81417411D01*
X105710000Y-81417411D01*
X105710000Y-82036566D01*
X107070676Y-82036566D01*
X107220574Y-82060463D01*
X107261919Y-82087124D01*
X107313851Y-82230018D01*
X107314675Y-82259316D01*
X107297983Y-82413412D01*
X107261919Y-82537752D01*
X107205378Y-82676178D01*
X107140394Y-82815145D01*
X107102184Y-82891660D01*
X107446566Y-82920969D01*
X107546895Y-82793799D01*
X107632734Y-82665353D01*
X107704082Y-82535632D01*
X107737459Y-82463014D01*
X107790010Y-82318171D01*
X107823097Y-82174903D01*
X107837013Y-82019126D01*
X107837110Y-82005059D01*
G37*
G36*
X107782889Y-82948080D02*
G01*
X107373293Y-82878471D01*
X107316140Y-82826448D01*
X105710000Y-82826448D01*
X105710000Y-83445603D01*
X107782889Y-83445603D01*
X107782889Y-82948080D01*
G37*
G36*
X107782889Y-80290474D02*
G01*
X105710000Y-80290474D01*
X105710000Y-80905233D01*
X107782889Y-80905233D01*
X107782889Y-80290474D01*
G37*
G36*
X108698066Y-80462665D02*
G01*
X108645954Y-80319733D01*
X108513419Y-80279483D01*
X108287006Y-80279483D01*
X108142358Y-80331182D01*
X108101625Y-80462665D01*
X108101625Y-80733042D01*
X108153945Y-80875974D01*
X108287006Y-80916224D01*
X108513419Y-80916224D01*
X108657495Y-80864525D01*
X108698066Y-80733042D01*
X108698066Y-80462665D01*
G37*
G36*
X108648241Y-78590544D02*
G01*
X108643707Y-78426000D01*
X108630106Y-78274555D01*
X108603966Y-78119834D01*
X108575701Y-78010956D01*
X108520918Y-77871522D01*
X108438838Y-77738808D01*
X108333900Y-77627739D01*
X108203508Y-77536930D01*
X108060626Y-77470755D01*
X107912209Y-77424535D01*
X107876678Y-77415980D01*
X107724133Y-77386808D01*
X107576005Y-77368120D01*
X107414203Y-77355813D01*
X107264632Y-77350344D01*
X107159337Y-77349302D01*
X107002793Y-77351646D01*
X106856296Y-77358678D01*
X106698080Y-77372808D01*
X106534006Y-77396771D01*
X106440530Y-77415980D01*
X106288295Y-77459392D01*
X106141034Y-77522447D01*
X106016813Y-77601101D01*
X105984040Y-77627739D01*
X105879102Y-77738808D01*
X105797022Y-77871522D01*
X105742240Y-78010956D01*
X105704372Y-78169566D01*
X105682283Y-78329812D01*
X105672185Y-78486169D01*
X105670432Y-78590544D01*
X105671165Y-78752202D01*
X105673363Y-78907449D01*
X105677027Y-79056284D01*
X105682156Y-79198709D01*
X105688802Y-79353069D01*
X105696375Y-79502908D01*
X105705878Y-79664094D01*
X105710000Y-79727006D01*
X106184808Y-79462491D01*
X106176032Y-79309579D01*
X106169850Y-79160652D01*
X106167222Y-79080006D01*
X106163885Y-78922663D01*
X106162053Y-78769706D01*
X106161366Y-78607304D01*
X106161360Y-78590544D01*
X106173622Y-78441411D01*
X106218922Y-78300240D01*
X106248555Y-78250558D01*
X106358797Y-78150405D01*
X106500442Y-78089392D01*
X106552637Y-78075436D01*
X106705394Y-78048001D01*
X106851711Y-78033370D01*
X107019460Y-78025241D01*
X107159337Y-78023412D01*
X107321033Y-78025901D01*
X107485737Y-78034843D01*
X107645410Y-78052675D01*
X107764570Y-78075436D01*
X107909548Y-78124105D01*
X108032586Y-78206671D01*
X108070118Y-78250558D01*
X108133756Y-78386935D01*
X108157393Y-78537948D01*
X108158778Y-78590544D01*
X108158564Y-78746621D01*
X108157832Y-78905412D01*
X108156580Y-79050697D01*
X108155241Y-79200380D01*
X108154519Y-79347178D01*
X108154382Y-79443440D01*
X108607941Y-79727006D01*
X108617973Y-79567251D01*
X108626145Y-79419678D01*
X108633506Y-79268512D01*
X108636517Y-79200174D01*
X108642184Y-79040565D01*
X108645665Y-78890905D01*
X108647680Y-78733918D01*
X108648241Y-78590544D01*
G37*
G36*
X108607941Y-79085868D02*
G01*
X105710000Y-79085868D01*
X105710000Y-79727006D01*
X108607941Y-79727006D01*
X108607941Y-79085868D01*
G37*
G36*
X107782889Y-76266329D02*
G01*
X105710000Y-76266329D01*
X105710000Y-76881088D01*
X107782889Y-76881088D01*
X107782889Y-76266329D01*
G37*
G36*
X108698066Y-76438520D02*
G01*
X108645954Y-76295588D01*
X108513419Y-76255338D01*
X108287006Y-76255338D01*
X108142358Y-76307037D01*
X108101625Y-76438520D01*
X108101625Y-76708897D01*
X108153945Y-76851829D01*
X108287006Y-76892079D01*
X108513419Y-76892079D01*
X108657495Y-76840380D01*
X108698066Y-76708897D01*
X108698066Y-76438520D01*
G37*
G36*
X107782889Y-73652686D02*
G01*
X105857278Y-74337787D01*
X105749567Y-74413258D01*
X105710000Y-74539288D01*
X105710000Y-75077110D01*
X105749567Y-75201674D01*
X105857278Y-75278611D01*
X107782889Y-75962979D01*
X107782889Y-75305722D01*
X106486692Y-74925436D01*
X106339752Y-74887100D01*
X106297648Y-74877808D01*
X106150798Y-74844607D01*
X106110802Y-74835310D01*
X106110802Y-74780355D01*
X106257544Y-74743969D01*
X106299113Y-74733461D01*
X106446160Y-74696127D01*
X106486692Y-74685833D01*
X107782889Y-74308478D01*
X107782889Y-73652686D01*
G37*
G36*
X107782889Y-70557641D02*
G01*
X105857278Y-71242742D01*
X105749567Y-71318213D01*
X105710000Y-71444242D01*
X105710000Y-71982065D01*
X105749567Y-72106629D01*
X105857278Y-72183565D01*
X107782889Y-72867934D01*
X107782889Y-72210676D01*
X106486692Y-71830390D01*
X106339752Y-71792054D01*
X106297648Y-71782763D01*
X106150798Y-71749561D01*
X106110802Y-71740265D01*
X106110802Y-71685310D01*
X106257544Y-71648924D01*
X106299113Y-71638415D01*
X106446160Y-71601081D01*
X106486692Y-71590788D01*
X107782889Y-71213433D01*
X107782889Y-70557641D01*
G37*
G36*
X107260844Y-68081219D02*
G01*
X107421379Y-68086926D01*
X107571109Y-68097820D01*
X107736522Y-68117741D01*
X107886376Y-68145133D01*
X108041542Y-68186531D01*
X108159222Y-68231045D01*
X108295853Y-68305783D01*
X108421864Y-68410884D01*
X108518548Y-68538241D01*
X108552723Y-68602297D01*
X108607403Y-68746553D01*
X108640296Y-68890434D01*
X108659235Y-69050793D01*
X108664361Y-69201360D01*
X108663791Y-69252448D01*
X108652827Y-69420842D01*
X108627908Y-69573037D01*
X108582341Y-69727139D01*
X108518548Y-69860083D01*
X108445884Y-69960526D01*
X108326390Y-70070193D01*
X108195552Y-70149282D01*
X108041542Y-70211060D01*
X107977635Y-70229917D01*
X107813394Y-70266702D01*
X107655760Y-70290195D01*
X107482567Y-70306269D01*
X107326354Y-70313997D01*
X107159337Y-70316573D01*
X107057692Y-70315646D01*
X106896928Y-70309979D01*
X106746969Y-70299159D01*
X106581281Y-70279376D01*
X106431152Y-70252173D01*
X106275666Y-70211060D01*
X106158235Y-70166349D01*
X106021856Y-70091588D01*
X105896018Y-69986790D01*
X105799392Y-69860083D01*
X105765217Y-69796256D01*
X105710538Y-69652733D01*
X105677644Y-69509794D01*
X105658706Y-69350657D01*
X105653654Y-69203558D01*
X106153300Y-69203558D01*
X106158755Y-69294564D01*
X106199462Y-69436566D01*
X106234539Y-69490619D01*
X106355533Y-69583845D01*
X106377032Y-69593741D01*
X106517144Y-69637384D01*
X106662547Y-69661514D01*
X106687499Y-69664264D01*
X106839270Y-69676221D01*
X106998581Y-69682432D01*
X107159337Y-69684228D01*
X107196654Y-69684140D01*
X107354241Y-69681544D01*
X107509488Y-69674446D01*
X107656127Y-69661514D01*
X107668270Y-69660018D01*
X107820701Y-69632770D01*
X107961674Y-69583845D01*
X108018810Y-69549977D01*
X108118478Y-69436566D01*
X108148366Y-69353572D01*
X108164640Y-69203558D01*
X108159185Y-69110955D01*
X108118478Y-68965422D01*
X108079123Y-68904279D01*
X107961674Y-68814480D01*
X107947601Y-68807647D01*
X107800934Y-68759975D01*
X107656127Y-68736078D01*
X107631345Y-68733238D01*
X107480110Y-68720896D01*
X107320684Y-68714485D01*
X107159337Y-68712630D01*
X107122191Y-68712722D01*
X106965093Y-68715401D01*
X106809847Y-68722728D01*
X106662547Y-68736078D01*
X106650357Y-68737530D01*
X106497286Y-68764618D01*
X106355533Y-68814480D01*
X106298752Y-68848637D01*
X106199462Y-68965422D01*
X106169574Y-69050677D01*
X106153300Y-69203558D01*
X105653654Y-69203558D01*
X105653579Y-69201360D01*
X105654149Y-69149826D01*
X105665113Y-68980050D01*
X105690033Y-68826753D01*
X105735599Y-68671735D01*
X105799392Y-68538241D01*
X105872021Y-68437262D01*
X105991367Y-68327215D01*
X106121976Y-68248080D01*
X106275666Y-68186531D01*
X106339710Y-68167544D01*
X106504272Y-68130503D01*
X106662180Y-68106847D01*
X106835648Y-68090661D01*
X106992090Y-68082880D01*
X107159337Y-68080286D01*
X107260844Y-68081219D01*
G37*
G36*
X106346008Y-67283077D02*
G01*
X106316938Y-67136800D01*
X106298381Y-67112351D01*
X106157250Y-67065468D01*
X106127655Y-67064724D01*
X105928353Y-67064724D01*
X105782075Y-67093793D01*
X105757627Y-67112351D01*
X105710744Y-67253482D01*
X105710000Y-67283077D01*
X105710000Y-67440614D01*
X105739069Y-67585943D01*
X105757627Y-67610607D01*
X105898757Y-67658211D01*
X105928353Y-67658967D01*
X106127655Y-67658967D01*
X106273932Y-67629450D01*
X106298381Y-67610607D01*
X106345264Y-67469877D01*
X106346008Y-67440614D01*
X106346008Y-67283077D01*
G37*
G36*
X108664361Y-65709909D02*
G01*
X108660560Y-65545274D01*
X108649157Y-65397950D01*
X108627242Y-65252902D01*
X108603545Y-65155233D01*
X108545773Y-65015133D01*
X108455747Y-64899404D01*
X108395450Y-64852616D01*
X108257879Y-64791417D01*
X108112571Y-64764002D01*
X107990251Y-64758094D01*
X107835936Y-64764383D01*
X107686792Y-64785220D01*
X107637808Y-64796196D01*
X107498773Y-64848953D01*
X107387948Y-64931018D01*
X107303587Y-65057614D01*
X107261753Y-65198824D01*
X107259720Y-65210188D01*
X107242868Y-65210188D01*
X107206237Y-65056098D01*
X107140520Y-64919828D01*
X107037818Y-64812411D01*
X107015722Y-64797662D01*
X106875435Y-64732898D01*
X106719501Y-64696262D01*
X106556035Y-64681398D01*
X106516734Y-64680425D01*
X106355322Y-64686305D01*
X106196640Y-64711464D01*
X106047215Y-64761784D01*
X106022875Y-64773482D01*
X105893766Y-64862886D01*
X105793302Y-64987118D01*
X105742240Y-65089288D01*
X105695485Y-65241171D01*
X105668212Y-65403440D01*
X105655744Y-65568018D01*
X105653579Y-65680600D01*
X105655869Y-65837406D01*
X105662739Y-65995501D01*
X105674187Y-66154884D01*
X105677027Y-66186915D01*
X105692082Y-66345167D01*
X105708855Y-66500271D01*
X105727345Y-66652226D01*
X105731249Y-66682240D01*
X106199462Y-66656594D01*
X106189963Y-66505598D01*
X106181144Y-66354710D01*
X106173993Y-66201352D01*
X106170886Y-66101186D01*
X106168367Y-65947485D01*
X106167955Y-65852791D01*
X106173759Y-65701555D01*
X106196840Y-65554598D01*
X106203126Y-65531856D01*
X106280200Y-65401510D01*
X106333551Y-65363328D01*
X106481185Y-65319880D01*
X106598066Y-65312770D01*
X106744504Y-65325169D01*
X106825945Y-65347941D01*
X106941776Y-65439765D01*
X106964431Y-65479099D01*
X107003423Y-65625115D01*
X107009860Y-65761933D01*
X107005464Y-66310013D01*
X107427515Y-66310013D01*
X107427515Y-65761933D01*
X107439823Y-65611437D01*
X107459023Y-65542847D01*
X107543286Y-65422679D01*
X107667850Y-65370655D01*
X107817336Y-65358943D01*
X107822456Y-65358932D01*
X107970833Y-65376849D01*
X108033482Y-65402163D01*
X108123666Y-65524076D01*
X108128736Y-65542114D01*
X108150776Y-65695472D01*
X108154382Y-65816887D01*
X108153776Y-65965273D01*
X108151732Y-66123199D01*
X108149253Y-66238939D01*
X108144844Y-66396463D01*
X108139554Y-66548252D01*
X108137529Y-66597976D01*
X108586692Y-66625087D01*
X108609733Y-66478799D01*
X108630119Y-66319535D01*
X108645310Y-66162002D01*
X108656156Y-66005769D01*
X108662501Y-65850401D01*
X108664361Y-65709909D01*
G37*
D12*
G36*
X105058073Y-87560990D02*
G01*
X105050103Y-87449079D01*
X105026190Y-87351846D01*
X104979341Y-87258698D01*
X104911671Y-87184723D01*
X104891500Y-87169225D01*
X104794658Y-87117079D01*
X104687681Y-87083673D01*
X104579466Y-87064118D01*
X104477638Y-87054225D01*
X104365219Y-87050151D01*
X104341465Y-87050034D01*
X104234707Y-87053555D01*
X104134067Y-87064118D01*
X104047885Y-87079832D01*
X103952607Y-87108065D01*
X103860088Y-87152759D01*
X103814877Y-87182903D01*
X103741644Y-87252192D01*
X103687067Y-87333467D01*
X103661004Y-87388555D01*
X103629856Y-87488292D01*
X103612759Y-87594691D01*
X103606508Y-87703256D01*
X103606294Y-87729030D01*
X103608775Y-87828787D01*
X103612644Y-87897069D01*
X103621322Y-87999517D01*
X103632184Y-88091974D01*
X103647205Y-88188817D01*
X103665889Y-88281018D01*
X103692836Y-88378390D01*
X103714249Y-88434891D01*
X103953607Y-88104187D01*
X103928363Y-88007419D01*
X103924298Y-87987438D01*
X103909918Y-87889161D01*
X103907201Y-87856036D01*
X103904398Y-87757755D01*
X103904759Y-87737822D01*
X103921282Y-87637088D01*
X103946280Y-87584438D01*
X104024991Y-87521070D01*
X104078171Y-87501884D01*
X104174449Y-87484186D01*
X104279595Y-87476904D01*
X104340000Y-87475994D01*
X104437706Y-87478476D01*
X104538685Y-87488814D01*
X104579357Y-87496999D01*
X104669678Y-87539083D01*
X104699525Y-87572714D01*
X104731261Y-87668742D01*
X104734696Y-87726587D01*
X104722331Y-87825196D01*
X104695617Y-87894626D01*
X104647340Y-87979793D01*
X104593524Y-88063642D01*
X104787941Y-88093440D01*
X104857700Y-88023437D01*
X104923356Y-87942852D01*
X104927159Y-87937613D01*
X104981625Y-87850662D01*
X105022903Y-87757850D01*
X105049281Y-87660764D01*
X105058073Y-87560990D01*
G37*
G36*
X105599804Y-88021632D02*
G01*
X105150397Y-88019190D01*
X105052125Y-88020804D01*
X104967704Y-88027494D01*
X104869695Y-88043740D01*
X104796245Y-88063642D01*
X104760097Y-88023098D01*
X103694710Y-88021632D01*
X103714249Y-88434891D01*
X105599804Y-88434891D01*
X105599804Y-88021632D01*
G37*
G36*
X105021926Y-85398953D02*
G01*
X103621926Y-85894766D01*
X103525569Y-85932755D01*
X103434474Y-85978088D01*
X103414808Y-85989043D01*
X103332942Y-86042705D01*
X103258009Y-86106847D01*
X103225764Y-86139986D01*
X103164350Y-86219935D01*
X103116642Y-86312139D01*
X103099246Y-86358827D01*
X103075799Y-86461066D01*
X103069754Y-86565767D01*
X103075799Y-86659246D01*
X103312226Y-86690020D01*
X103343271Y-86591283D01*
X103384253Y-86499312D01*
X103432393Y-86424773D01*
X103501099Y-86353679D01*
X103585768Y-86296774D01*
X103630230Y-86275296D01*
X103823182Y-86190300D01*
X103916828Y-86156720D01*
X103974612Y-86140474D01*
X104070996Y-86115277D01*
X104127020Y-86100418D01*
X105021926Y-85840055D01*
X105021926Y-85398953D01*
G37*
G36*
X105021926Y-86498046D02*
G01*
X104127020Y-86234752D01*
X104030112Y-86213337D01*
X104020041Y-86211304D01*
X103923051Y-86192947D01*
X103913063Y-86191277D01*
X103913063Y-86117515D01*
X103640000Y-86247452D01*
X103640000Y-86348080D01*
X103667355Y-86432588D01*
X103739162Y-86482903D01*
X105021926Y-86937683D01*
X105021926Y-86498046D01*
G37*
G36*
X105058073Y-83789881D02*
G01*
X105050103Y-83677969D01*
X105026190Y-83580736D01*
X104979341Y-83487588D01*
X104911671Y-83413613D01*
X104891500Y-83398115D01*
X104794658Y-83345969D01*
X104687681Y-83312564D01*
X104579466Y-83293009D01*
X104477638Y-83283115D01*
X104365219Y-83279041D01*
X104341465Y-83278925D01*
X104234707Y-83282446D01*
X104134067Y-83293009D01*
X104047885Y-83308722D01*
X103952607Y-83336955D01*
X103860088Y-83381649D01*
X103814877Y-83411793D01*
X103741644Y-83481082D01*
X103687067Y-83562358D01*
X103661004Y-83617445D01*
X103629856Y-83717183D01*
X103612759Y-83823581D01*
X103606508Y-83932147D01*
X103606294Y-83957920D01*
X103608775Y-84057678D01*
X103612644Y-84125959D01*
X103621322Y-84228408D01*
X103632184Y-84320865D01*
X103647205Y-84417707D01*
X103665889Y-84509909D01*
X103692836Y-84607280D01*
X103714249Y-84663782D01*
X103953607Y-84333077D01*
X103928363Y-84236310D01*
X103924298Y-84216329D01*
X103909918Y-84118052D01*
X103907201Y-84084926D01*
X103904398Y-83986645D01*
X103904759Y-83966713D01*
X103921282Y-83865979D01*
X103946280Y-83813328D01*
X104024991Y-83749961D01*
X104078171Y-83730774D01*
X104174449Y-83713076D01*
X104279595Y-83705795D01*
X104340000Y-83704884D01*
X104437706Y-83707366D01*
X104538685Y-83717705D01*
X104579357Y-83725889D01*
X104669678Y-83767974D01*
X104699525Y-83801605D01*
X104731261Y-83897632D01*
X104734696Y-83955478D01*
X104722331Y-84054087D01*
X104695617Y-84123517D01*
X104647340Y-84208684D01*
X104593524Y-84292533D01*
X104787941Y-84322330D01*
X104857700Y-84252328D01*
X104923356Y-84171743D01*
X104927159Y-84166503D01*
X104981625Y-84079553D01*
X105022903Y-83986741D01*
X105049281Y-83889654D01*
X105058073Y-83789881D01*
G37*
G36*
X105599804Y-84250523D02*
G01*
X105150397Y-84248080D01*
X105052125Y-84249694D01*
X104967704Y-84256385D01*
X104869695Y-84272631D01*
X104796245Y-84292533D01*
X104760097Y-84251988D01*
X103694710Y-84250523D01*
X103714249Y-84663782D01*
X105599804Y-84663782D01*
X105599804Y-84250523D01*
G37*
G36*
X105058073Y-82344452D02*
G01*
X105055164Y-82239420D01*
X105043989Y-82126259D01*
X105024435Y-82027146D01*
X104991029Y-81929269D01*
X104938883Y-81840823D01*
X104862994Y-81767270D01*
X104768867Y-81717518D01*
X104669888Y-81693277D01*
X104586196Y-81687438D01*
X104487553Y-81694063D01*
X104387138Y-81723884D01*
X104302875Y-81783670D01*
X104249199Y-81868132D01*
X104221855Y-81961967D01*
X104210070Y-82064061D01*
X104208597Y-82121702D01*
X104208597Y-82895952D01*
X104439162Y-82895952D01*
X104439162Y-82235031D01*
X104458326Y-82137933D01*
X104479706Y-82114863D01*
X104575824Y-82088417D01*
X104593524Y-82087997D01*
X104689581Y-82108508D01*
X104730300Y-82144173D01*
X104763043Y-82242518D01*
X104768401Y-82330286D01*
X104761563Y-82432379D01*
X104738115Y-82509071D01*
X104668808Y-82578379D01*
X104619902Y-82597976D01*
X104521134Y-82615857D01*
X104416617Y-82622280D01*
X104366378Y-82622889D01*
X104265771Y-82619883D01*
X104165570Y-82608343D01*
X104099176Y-82592114D01*
X104011747Y-82543737D01*
X103968750Y-82487090D01*
X103940545Y-82392483D01*
X103932638Y-82290969D01*
X103932602Y-82282903D01*
X103934320Y-82182460D01*
X103938586Y-82079608D01*
X103940418Y-82045010D01*
X103947517Y-81938764D01*
X103956196Y-81841372D01*
X103964842Y-81761688D01*
X103708387Y-81722609D01*
X103672697Y-81814970D01*
X103648304Y-81906769D01*
X103630028Y-82004792D01*
X103617335Y-82105607D01*
X103616064Y-82119260D01*
X103609051Y-82219881D01*
X103606304Y-82323898D01*
X103606294Y-82330286D01*
X103609940Y-82440521D01*
X103620880Y-82540846D01*
X103642312Y-82643367D01*
X103677809Y-82743230D01*
X103682498Y-82753314D01*
X103738492Y-82844304D01*
X103810611Y-82918216D01*
X103898853Y-82975050D01*
X103918436Y-82984368D01*
X104015358Y-83018843D01*
X104113384Y-83040016D01*
X104222583Y-83052274D01*
X104327299Y-83055687D01*
X104425713Y-83053145D01*
X104530459Y-83043755D01*
X104636888Y-83024552D01*
X104739688Y-82992146D01*
X104760097Y-82983391D01*
X104851059Y-82929953D01*
X104924274Y-82860010D01*
X104979744Y-82773562D01*
X104988709Y-82754291D01*
X105022239Y-82658477D01*
X105042832Y-82560528D01*
X105054754Y-82450550D01*
X105058073Y-82344452D01*
G37*
G36*
X105058073Y-80457431D02*
G01*
X105048712Y-80344569D01*
X105020626Y-80250836D01*
X104962208Y-80163607D01*
X104876828Y-80103924D01*
X104764486Y-80071787D01*
X104674612Y-80065666D01*
X103640000Y-80065666D01*
X103640000Y-80478436D01*
X104547117Y-80478436D01*
X104647049Y-80494367D01*
X104674612Y-80512142D01*
X104709234Y-80607404D01*
X104709783Y-80626936D01*
X104698655Y-80729667D01*
X104674612Y-80812561D01*
X104636919Y-80904844D01*
X104593596Y-80997489D01*
X104568122Y-81048499D01*
X104797711Y-81068039D01*
X104864596Y-80983258D01*
X104921822Y-80897628D01*
X104969388Y-80811147D01*
X104991639Y-80762735D01*
X105026673Y-80666173D01*
X105048731Y-80570661D01*
X105058009Y-80466810D01*
X105058073Y-80457431D01*
G37*
G36*
X105021926Y-81086113D02*
G01*
X104748862Y-81039706D01*
X104710760Y-81005024D01*
X103640000Y-81005024D01*
X103640000Y-81417794D01*
X105021926Y-81417794D01*
X105021926Y-81086113D01*
G37*
G36*
X105021926Y-79309979D02*
G01*
X103704480Y-79309979D01*
X103602422Y-79317154D01*
X103503428Y-79338679D01*
X103458771Y-79353454D01*
X103366512Y-79394743D01*
X103281831Y-79447964D01*
X103245303Y-79476552D01*
X103173713Y-79546647D01*
X103113732Y-79627546D01*
X103089965Y-79668527D01*
X103270216Y-79896650D01*
X103348503Y-79832216D01*
X103432229Y-79780706D01*
X103476845Y-79760851D01*
X103577467Y-79732801D01*
X103681064Y-79722115D01*
X103704480Y-79721772D01*
X105021926Y-79721772D01*
X105021926Y-79309979D01*
G37*
G36*
X105646210Y-79429169D02*
G01*
X105611469Y-79335024D01*
X105523112Y-79308513D01*
X105371681Y-79308513D01*
X105275631Y-79342565D01*
X105248583Y-79429169D01*
X105248583Y-79609420D01*
X105283325Y-79704708D01*
X105371681Y-79731542D01*
X105523112Y-79731542D01*
X105619162Y-79697076D01*
X105646210Y-79609420D01*
X105646210Y-79429169D01*
G37*
G36*
X105021926Y-78538660D02*
G01*
X103640000Y-78538660D01*
X103640000Y-78948499D01*
X105021926Y-78948499D01*
X105021926Y-78538660D01*
G37*
G36*
X105632044Y-78653454D02*
G01*
X105597303Y-78558166D01*
X105508946Y-78531332D01*
X105358004Y-78531332D01*
X105261572Y-78565798D01*
X105234417Y-78653454D01*
X105234417Y-78833705D01*
X105269296Y-78928993D01*
X105358004Y-78955826D01*
X105508946Y-78955826D01*
X105604996Y-78921361D01*
X105632044Y-78833705D01*
X105632044Y-78653454D01*
G37*
G36*
X105058073Y-77460083D02*
G01*
X105053542Y-77356127D01*
X105038088Y-77254118D01*
X105011667Y-77165038D01*
X104963798Y-77076679D01*
X104888625Y-77003162D01*
X104855840Y-76982344D01*
X104761937Y-76944242D01*
X104655703Y-76924764D01*
X104554445Y-76919818D01*
X103640000Y-76919818D01*
X103640000Y-77247103D01*
X103937976Y-77306210D01*
X103981451Y-77334054D01*
X104555422Y-77334054D01*
X104654125Y-77351638D01*
X104699036Y-77381926D01*
X104737805Y-77477325D01*
X104743000Y-77555338D01*
X104741691Y-77659376D01*
X104738486Y-77764477D01*
X104736161Y-77822540D01*
X104731458Y-77923185D01*
X104725896Y-78025452D01*
X104719475Y-78129341D01*
X104718087Y-78150314D01*
X104992616Y-78187927D01*
X105008809Y-78087148D01*
X105021628Y-77989388D01*
X105025345Y-77957362D01*
X105035512Y-77859405D01*
X105044030Y-77761174D01*
X105048792Y-77695533D01*
X105054801Y-77593048D01*
X105057847Y-77493137D01*
X105058073Y-77460083D01*
G37*
G36*
X104489965Y-77088834D02*
G01*
X104258911Y-77091765D01*
X104257445Y-77707745D01*
X104231846Y-77802727D01*
X104219344Y-77816678D01*
X104124093Y-77849374D01*
X104120181Y-77849406D01*
X104054235Y-77849406D01*
X103958228Y-77820890D01*
X103945792Y-77809351D01*
X103909972Y-77714269D01*
X103908667Y-77683810D01*
X103921920Y-77582600D01*
X103939441Y-77525052D01*
X103979308Y-77434256D01*
X104026392Y-77355059D01*
X104087086Y-77275558D01*
X104156817Y-77205094D01*
X103979009Y-77205094D01*
X103895785Y-77262495D01*
X103873007Y-77280321D01*
X103799682Y-77348208D01*
X103749909Y-77405373D01*
X103693977Y-77487438D01*
X103650858Y-77575910D01*
X103648304Y-77582205D01*
X103619202Y-77682661D01*
X103608116Y-77787461D01*
X103607759Y-77811304D01*
X103616174Y-77915903D01*
X103641419Y-78011713D01*
X103651723Y-78037473D01*
X103702628Y-78123390D01*
X103777274Y-78194449D01*
X103782637Y-78198185D01*
X103873062Y-78240260D01*
X103973534Y-78256288D01*
X103997083Y-78256803D01*
X104141186Y-78256803D01*
X104245263Y-78243585D01*
X104339579Y-78199015D01*
X104397152Y-78144940D01*
X104449994Y-78057828D01*
X104478998Y-77961505D01*
X104489602Y-77860865D01*
X104489965Y-77836706D01*
X104489965Y-77088834D01*
G37*
G36*
X104345360Y-75225817D02*
G01*
X104455679Y-75230054D01*
X104555760Y-75240884D01*
X104657602Y-75261331D01*
X104756189Y-75294626D01*
X104775925Y-75303520D01*
X104864015Y-75358351D01*
X104934454Y-75430450D01*
X104987243Y-75519818D01*
X104991601Y-75529719D01*
X105024595Y-75627934D01*
X105044516Y-75728989D01*
X105054684Y-75828032D01*
X105058073Y-75936985D01*
X105058004Y-75953066D01*
X105053647Y-76060053D01*
X105042510Y-76157269D01*
X105021482Y-76256408D01*
X104987243Y-76352686D01*
X104978097Y-76371949D01*
X104921778Y-76458130D01*
X104847809Y-76527425D01*
X104756189Y-76579832D01*
X104746071Y-76584130D01*
X104645603Y-76616669D01*
X104542089Y-76636315D01*
X104440546Y-76646343D01*
X104328764Y-76649685D01*
X104312320Y-76649617D01*
X104203010Y-76645320D01*
X104103844Y-76634337D01*
X104002933Y-76613599D01*
X103905247Y-76579832D01*
X103885746Y-76570702D01*
X103798544Y-76514917D01*
X103728515Y-76442245D01*
X103675659Y-76352686D01*
X103671301Y-76342786D01*
X103638307Y-76244714D01*
X103618386Y-76143979D01*
X103608218Y-76045367D01*
X103604829Y-75936985D01*
X103904759Y-75936985D01*
X103909773Y-76011357D01*
X103940418Y-76106001D01*
X103978582Y-76149411D01*
X104067424Y-76191974D01*
X104132406Y-76205112D01*
X104230409Y-76214454D01*
X104328764Y-76216887D01*
X104390611Y-76216011D01*
X104489367Y-76209856D01*
X104593524Y-76191974D01*
X104645740Y-76172664D01*
X104721995Y-76106001D01*
X104748292Y-76038452D01*
X104758632Y-75936985D01*
X104753480Y-75862544D01*
X104721995Y-75767480D01*
X104683354Y-75723599D01*
X104593524Y-75681507D01*
X104527998Y-75668627D01*
X104428713Y-75659468D01*
X104328764Y-75657083D01*
X104277690Y-75657679D01*
X104170586Y-75663976D01*
X104067424Y-75681507D01*
X104015771Y-75700397D01*
X103940418Y-75767480D01*
X103914823Y-75835379D01*
X103904759Y-75936985D01*
X103604829Y-75936985D01*
X103604898Y-75920813D01*
X103609255Y-75813276D01*
X103620392Y-75715649D01*
X103641420Y-75616212D01*
X103675659Y-75519818D01*
X103684856Y-75500563D01*
X103741147Y-75414649D01*
X103814610Y-75346003D01*
X103905247Y-75294626D01*
X103915273Y-75290389D01*
X104014823Y-75258305D01*
X104117389Y-75238933D01*
X104218004Y-75229046D01*
X104328764Y-75225750D01*
X104345360Y-75225817D01*
G37*
G36*
X105058073Y-73191207D02*
G01*
X105050384Y-73092804D01*
X105020101Y-72991844D01*
X104960865Y-72905931D01*
X104875044Y-72846099D01*
X104773685Y-72815512D01*
X104674612Y-72807745D01*
X103640000Y-72807745D01*
X103640000Y-73217585D01*
X104547117Y-73217585D01*
X104643355Y-73234838D01*
X104671681Y-73252756D01*
X104708853Y-73345453D01*
X104709783Y-73370481D01*
X104696106Y-73465736D01*
X104657758Y-73558991D01*
X104652142Y-73569783D01*
X104602073Y-73657859D01*
X104568122Y-73713398D01*
X104796245Y-73735868D01*
X104865140Y-73659984D01*
X104929273Y-73576846D01*
X104984722Y-73486826D01*
X104993105Y-73470621D01*
X105030094Y-73379200D01*
X105051729Y-73282931D01*
X105058073Y-73191207D01*
G37*
G36*
X105021926Y-74615143D02*
G01*
X104748862Y-74571667D01*
X104710760Y-74531123D01*
X103640000Y-74531123D01*
X103640000Y-74942428D01*
X105021926Y-74942428D01*
X105021926Y-74615143D01*
G37*
G36*
X105058073Y-74053384D02*
G01*
X105048628Y-73947339D01*
X105016420Y-73850194D01*
X104961353Y-73773482D01*
X104875922Y-73714337D01*
X104774316Y-73683655D01*
X104674612Y-73675296D01*
X103640000Y-73675296D01*
X103640000Y-74072923D01*
X104547117Y-74072923D01*
X104645307Y-74090933D01*
X104673147Y-74111025D01*
X104708889Y-74203710D01*
X104709783Y-74227285D01*
X104697083Y-74321563D01*
X104661019Y-74413352D01*
X104653607Y-74428053D01*
X104605789Y-74513614D01*
X104568122Y-74575575D01*
X104796245Y-74599511D01*
X104865140Y-74523704D01*
X104929273Y-74440833D01*
X104984722Y-74351328D01*
X104993105Y-74335240D01*
X105030094Y-74243752D01*
X105051729Y-74146607D01*
X105058073Y-74053384D01*
G37*
G36*
X104345360Y-71108860D02*
G01*
X104455679Y-71113097D01*
X104555760Y-71123926D01*
X104657602Y-71144374D01*
X104756189Y-71177669D01*
X104775925Y-71186563D01*
X104864015Y-71241393D01*
X104934454Y-71313493D01*
X104987243Y-71402861D01*
X104991601Y-71412762D01*
X105024595Y-71510976D01*
X105044516Y-71612032D01*
X105054684Y-71711074D01*
X105058073Y-71820027D01*
X105058004Y-71836109D01*
X105053647Y-71943095D01*
X105042510Y-72040311D01*
X105021482Y-72139451D01*
X104987243Y-72235729D01*
X104978097Y-72254991D01*
X104921778Y-72341173D01*
X104847809Y-72410467D01*
X104756189Y-72462875D01*
X104746071Y-72467172D01*
X104645603Y-72499711D01*
X104542089Y-72519358D01*
X104440546Y-72529385D01*
X104328764Y-72532728D01*
X104312320Y-72532660D01*
X104203010Y-72528362D01*
X104103844Y-72517379D01*
X104002933Y-72496642D01*
X103905247Y-72462875D01*
X103885746Y-72453744D01*
X103798544Y-72397959D01*
X103728515Y-72325288D01*
X103675659Y-72235729D01*
X103671301Y-72225829D01*
X103638307Y-72127756D01*
X103618386Y-72027021D01*
X103608218Y-71928410D01*
X103604829Y-71820027D01*
X103904759Y-71820027D01*
X103909773Y-71894399D01*
X103940418Y-71989043D01*
X103978582Y-72032454D01*
X104067424Y-72075017D01*
X104132406Y-72088155D01*
X104230409Y-72097497D01*
X104328764Y-72099930D01*
X104390611Y-72099054D01*
X104489367Y-72092899D01*
X104593524Y-72075017D01*
X104645740Y-72055706D01*
X104721995Y-71989043D01*
X104748292Y-71921495D01*
X104758632Y-71820027D01*
X104753480Y-71745587D01*
X104721995Y-71650523D01*
X104683354Y-71606641D01*
X104593524Y-71564549D01*
X104527998Y-71551669D01*
X104428713Y-71542510D01*
X104328764Y-71540125D01*
X104277690Y-71540721D01*
X104170586Y-71547018D01*
X104067424Y-71564549D01*
X104015771Y-71583440D01*
X103940418Y-71650523D01*
X103914823Y-71718422D01*
X103904759Y-71820027D01*
X103604829Y-71820027D01*
X103604898Y-71803856D01*
X103609255Y-71696318D01*
X103620392Y-71598692D01*
X103641420Y-71499255D01*
X103675659Y-71402861D01*
X103684856Y-71383606D01*
X103741147Y-71297691D01*
X103814610Y-71229046D01*
X103905247Y-71177669D01*
X103915273Y-71173431D01*
X104014823Y-71141347D01*
X104117389Y-71121976D01*
X104218004Y-71112088D01*
X104328764Y-71108792D01*
X104345360Y-71108860D01*
G37*
G36*
X105058073Y-70353593D02*
G01*
X105053167Y-70253950D01*
X105038448Y-70157193D01*
X105016552Y-70071737D01*
X104978153Y-69974719D01*
X104924503Y-69886632D01*
X104880265Y-69832868D01*
X104691221Y-69861200D01*
X104719394Y-69955888D01*
X104741046Y-70031193D01*
X104759400Y-70130295D01*
X104763028Y-70208025D01*
X104749564Y-70308924D01*
X104731765Y-70349685D01*
X104652630Y-70413891D01*
X104611598Y-70428332D01*
X104508579Y-70446213D01*
X104408611Y-70452369D01*
X104345373Y-70453244D01*
X104241212Y-70450416D01*
X104142224Y-70439781D01*
X104094291Y-70429309D01*
X104004802Y-70385691D01*
X103976566Y-70353105D01*
X103947257Y-70258033D01*
X103945303Y-70219260D01*
X103954546Y-70118557D01*
X103960446Y-70094207D01*
X103998648Y-70003751D01*
X104008318Y-69987229D01*
X104061729Y-69902614D01*
X104086475Y-69865108D01*
X103882288Y-69835799D01*
X103806631Y-69899623D01*
X103739517Y-69975568D01*
X103685917Y-70055129D01*
X103643928Y-70145212D01*
X103617491Y-70246936D01*
X103606994Y-70348438D01*
X103606294Y-70384368D01*
X103615363Y-70493525D01*
X103642572Y-70588049D01*
X103695878Y-70678160D01*
X103772875Y-70749158D01*
X103795826Y-70763921D01*
X103886885Y-70808080D01*
X103993791Y-70841392D01*
X104098039Y-70861313D01*
X104213930Y-70873266D01*
X104319401Y-70877139D01*
X104341465Y-70877250D01*
X104441053Y-70875206D01*
X104546430Y-70867656D01*
X104652607Y-70852216D01*
X104753882Y-70826159D01*
X104773775Y-70819120D01*
X104862198Y-70777065D01*
X104944630Y-70711485D01*
X104993593Y-70644242D01*
X105032886Y-70548644D01*
X105052973Y-70446892D01*
X105058073Y-70353593D01*
G37*
G36*
X105599804Y-69495812D02*
G01*
X103640000Y-69495812D01*
X103640000Y-69821632D01*
X103893524Y-69863642D01*
X103925764Y-69908583D01*
X104832882Y-69908583D01*
X104870495Y-69891974D01*
X104971990Y-69900458D01*
X105043419Y-69904675D01*
X105144055Y-69907835D01*
X105223182Y-69908583D01*
X105599804Y-69908583D01*
X105599804Y-69495812D01*
G37*
G36*
X105021926Y-68750383D02*
G01*
X104113342Y-68750383D01*
X104014091Y-68732302D01*
X103989267Y-68714235D01*
X103953447Y-68621040D01*
X103952142Y-68590648D01*
X103963508Y-68488963D01*
X103984382Y-68419190D01*
X104026025Y-68322836D01*
X104073708Y-68229262D01*
X104086475Y-68205722D01*
X103859818Y-68173482D01*
X103792378Y-68258159D01*
X103735140Y-68341832D01*
X103683505Y-68433623D01*
X103666378Y-68469993D01*
X103629945Y-68570669D01*
X103608635Y-68673886D01*
X103602386Y-68769923D01*
X103611748Y-68883207D01*
X103639833Y-68977291D01*
X103698251Y-69064846D01*
X103783631Y-69124752D01*
X103895974Y-69157009D01*
X103985847Y-69163154D01*
X105021926Y-69163154D01*
X105021926Y-68750383D01*
G37*
G36*
X105021926Y-67834961D02*
G01*
X103640000Y-67834961D01*
X103640000Y-68160781D01*
X103911598Y-68208653D01*
X103949211Y-68249197D01*
X105021926Y-68249197D01*
X105021926Y-67834961D01*
G37*
G36*
X105599804Y-67081716D02*
G01*
X104082568Y-67083182D01*
X103987475Y-67053274D01*
X103975589Y-67041172D01*
X103942126Y-66947753D01*
X103940907Y-66919050D01*
X103940907Y-66805722D01*
X103662470Y-66759804D01*
X103632672Y-66855059D01*
X103617169Y-66953018D01*
X103614110Y-66981088D01*
X103607815Y-67081427D01*
X103607759Y-67090020D01*
X103615410Y-67188565D01*
X103641857Y-67283648D01*
X103692767Y-67370718D01*
X103704480Y-67384577D01*
X103780383Y-67446318D01*
X103875104Y-67482431D01*
X103977543Y-67493021D01*
X105599804Y-67493021D01*
X105599804Y-67081716D01*
G37*
G36*
X105058073Y-65849755D02*
G01*
X105053542Y-65745799D01*
X105038088Y-65643790D01*
X105011667Y-65554710D01*
X104963798Y-65466351D01*
X104888625Y-65392834D01*
X104855840Y-65372016D01*
X104761937Y-65333914D01*
X104655703Y-65314436D01*
X104554445Y-65309490D01*
X103640000Y-65309490D01*
X103640000Y-65636775D01*
X103937976Y-65695882D01*
X103981451Y-65723726D01*
X104555422Y-65723726D01*
X104654125Y-65741310D01*
X104699036Y-65771598D01*
X104737805Y-65866997D01*
X104743000Y-65945010D01*
X104741691Y-66049048D01*
X104738486Y-66154149D01*
X104736161Y-66212212D01*
X104731458Y-66312857D01*
X104725896Y-66415124D01*
X104719475Y-66519013D01*
X104718087Y-66539986D01*
X104992616Y-66577599D01*
X105008809Y-66476820D01*
X105021628Y-66379060D01*
X105025345Y-66347034D01*
X105035512Y-66249077D01*
X105044030Y-66150846D01*
X105048792Y-66085205D01*
X105054801Y-65982720D01*
X105057847Y-65882809D01*
X105058073Y-65849755D01*
G37*
G36*
X104489965Y-65478506D02*
G01*
X104258911Y-65481437D01*
X104257445Y-66097418D01*
X104231846Y-66192399D01*
X104219344Y-66206350D01*
X104124093Y-66239046D01*
X104120181Y-66239078D01*
X104054235Y-66239078D01*
X103958228Y-66210562D01*
X103945792Y-66199023D01*
X103909972Y-66103941D01*
X103908667Y-66073482D01*
X103921920Y-65972272D01*
X103939441Y-65914724D01*
X103979308Y-65823928D01*
X104026392Y-65744731D01*
X104087086Y-65665230D01*
X104156817Y-65594766D01*
X103979009Y-65594766D01*
X103895785Y-65652167D01*
X103873007Y-65669993D01*
X103799682Y-65737880D01*
X103749909Y-65795045D01*
X103693977Y-65877110D01*
X103650858Y-65965582D01*
X103648304Y-65971877D01*
X103619202Y-66072333D01*
X103608116Y-66177133D01*
X103607759Y-66200976D01*
X103616174Y-66305575D01*
X103641419Y-66401385D01*
X103651723Y-66427145D01*
X103702628Y-66513062D01*
X103777274Y-66584121D01*
X103782637Y-66587857D01*
X103873062Y-66629932D01*
X103973534Y-66645960D01*
X103997083Y-66646475D01*
X104141186Y-66646475D01*
X104245263Y-66633257D01*
X104339579Y-66588687D01*
X104397152Y-66534612D01*
X104449994Y-66447500D01*
X104478998Y-66351177D01*
X104489602Y-66250537D01*
X104489965Y-66226378D01*
X104489965Y-65478506D01*
G37*
G36*
X105021926Y-64661270D02*
G01*
X104748862Y-64609490D01*
X104710760Y-64570411D01*
X103640000Y-64570411D01*
X103640000Y-64983182D01*
X105021926Y-64983182D01*
X105021926Y-64661270D01*
G37*
G36*
X105058073Y-63986671D02*
G01*
X104677543Y-64025750D01*
X104677543Y-64139078D01*
X104670460Y-64239462D01*
X104650954Y-64337565D01*
X104649211Y-64344242D01*
X104621751Y-64440353D01*
X104590959Y-64536034D01*
X104564214Y-64613886D01*
X104796245Y-64640265D01*
X104863170Y-64558820D01*
X104920511Y-64476603D01*
X104972985Y-64384344D01*
X104990662Y-64347173D01*
X105026211Y-64254704D01*
X105050108Y-64155193D01*
X105058073Y-64057990D01*
X105058073Y-63986671D01*
G37*
D10*
X92154819Y-146557142D02*
X91678628Y-146223809D01*
X92154819Y-145985714D02*
X91154819Y-145985714D01*
X91154819Y-145985714D02*
X91154819Y-146366666D01*
X91154819Y-146366666D02*
X91202438Y-146461904D01*
X91202438Y-146461904D02*
X91250057Y-146509523D01*
X91250057Y-146509523D02*
X91345295Y-146557142D01*
X91345295Y-146557142D02*
X91488152Y-146557142D01*
X91488152Y-146557142D02*
X91583390Y-146509523D01*
X91583390Y-146509523D02*
X91631009Y-146461904D01*
X91631009Y-146461904D02*
X91678628Y-146366666D01*
X91678628Y-146366666D02*
X91678628Y-145985714D01*
X91250057Y-146938095D02*
X91202438Y-146985714D01*
X91202438Y-146985714D02*
X91154819Y-147080952D01*
X91154819Y-147080952D02*
X91154819Y-147319047D01*
X91154819Y-147319047D02*
X91202438Y-147414285D01*
X91202438Y-147414285D02*
X91250057Y-147461904D01*
X91250057Y-147461904D02*
X91345295Y-147509523D01*
X91345295Y-147509523D02*
X91440533Y-147509523D01*
X91440533Y-147509523D02*
X91583390Y-147461904D01*
X91583390Y-147461904D02*
X92154819Y-146890476D01*
X92154819Y-146890476D02*
X92154819Y-147509523D01*
X91250057Y-147890476D02*
X91202438Y-147938095D01*
X91202438Y-147938095D02*
X91154819Y-148033333D01*
X91154819Y-148033333D02*
X91154819Y-148271428D01*
X91154819Y-148271428D02*
X91202438Y-148366666D01*
X91202438Y-148366666D02*
X91250057Y-148414285D01*
X91250057Y-148414285D02*
X91345295Y-148461904D01*
X91345295Y-148461904D02*
X91440533Y-148461904D01*
X91440533Y-148461904D02*
X91583390Y-148414285D01*
X91583390Y-148414285D02*
X92154819Y-147842857D01*
X92154819Y-147842857D02*
X92154819Y-148461904D01*
X109959580Y-76833333D02*
X110007200Y-76785714D01*
X110007200Y-76785714D02*
X110054819Y-76642857D01*
X110054819Y-76642857D02*
X110054819Y-76547619D01*
X110054819Y-76547619D02*
X110007200Y-76404762D01*
X110007200Y-76404762D02*
X109911961Y-76309524D01*
X109911961Y-76309524D02*
X109816723Y-76261905D01*
X109816723Y-76261905D02*
X109626247Y-76214286D01*
X109626247Y-76214286D02*
X109483390Y-76214286D01*
X109483390Y-76214286D02*
X109292914Y-76261905D01*
X109292914Y-76261905D02*
X109197676Y-76309524D01*
X109197676Y-76309524D02*
X109102438Y-76404762D01*
X109102438Y-76404762D02*
X109054819Y-76547619D01*
X109054819Y-76547619D02*
X109054819Y-76642857D01*
X109054819Y-76642857D02*
X109102438Y-76785714D01*
X109102438Y-76785714D02*
X109150057Y-76833333D01*
X109054819Y-77738095D02*
X109054819Y-77261905D01*
X109054819Y-77261905D02*
X109531009Y-77214286D01*
X109531009Y-77214286D02*
X109483390Y-77261905D01*
X109483390Y-77261905D02*
X109435771Y-77357143D01*
X109435771Y-77357143D02*
X109435771Y-77595238D01*
X109435771Y-77595238D02*
X109483390Y-77690476D01*
X109483390Y-77690476D02*
X109531009Y-77738095D01*
X109531009Y-77738095D02*
X109626247Y-77785714D01*
X109626247Y-77785714D02*
X109864342Y-77785714D01*
X109864342Y-77785714D02*
X109959580Y-77738095D01*
X109959580Y-77738095D02*
X110007200Y-77690476D01*
X110007200Y-77690476D02*
X110054819Y-77595238D01*
X110054819Y-77595238D02*
X110054819Y-77357143D01*
X110054819Y-77357143D02*
X110007200Y-77261905D01*
X110007200Y-77261905D02*
X109959580Y-77214286D01*
X113359580Y-86133333D02*
X113407200Y-86085714D01*
X113407200Y-86085714D02*
X113454819Y-85942857D01*
X113454819Y-85942857D02*
X113454819Y-85847619D01*
X113454819Y-85847619D02*
X113407200Y-85704762D01*
X113407200Y-85704762D02*
X113311961Y-85609524D01*
X113311961Y-85609524D02*
X113216723Y-85561905D01*
X113216723Y-85561905D02*
X113026247Y-85514286D01*
X113026247Y-85514286D02*
X112883390Y-85514286D01*
X112883390Y-85514286D02*
X112692914Y-85561905D01*
X112692914Y-85561905D02*
X112597676Y-85609524D01*
X112597676Y-85609524D02*
X112502438Y-85704762D01*
X112502438Y-85704762D02*
X112454819Y-85847619D01*
X112454819Y-85847619D02*
X112454819Y-85942857D01*
X112454819Y-85942857D02*
X112502438Y-86085714D01*
X112502438Y-86085714D02*
X112550057Y-86133333D01*
X112788152Y-86990476D02*
X113454819Y-86990476D01*
X112407200Y-86752381D02*
X113121485Y-86514286D01*
X113121485Y-86514286D02*
X113121485Y-87133333D01*
X92254819Y-116657142D02*
X91778628Y-116323809D01*
X92254819Y-116085714D02*
X91254819Y-116085714D01*
X91254819Y-116085714D02*
X91254819Y-116466666D01*
X91254819Y-116466666D02*
X91302438Y-116561904D01*
X91302438Y-116561904D02*
X91350057Y-116609523D01*
X91350057Y-116609523D02*
X91445295Y-116657142D01*
X91445295Y-116657142D02*
X91588152Y-116657142D01*
X91588152Y-116657142D02*
X91683390Y-116609523D01*
X91683390Y-116609523D02*
X91731009Y-116561904D01*
X91731009Y-116561904D02*
X91778628Y-116466666D01*
X91778628Y-116466666D02*
X91778628Y-116085714D01*
X92254819Y-117609523D02*
X92254819Y-117038095D01*
X92254819Y-117323809D02*
X91254819Y-117323809D01*
X91254819Y-117323809D02*
X91397676Y-117228571D01*
X91397676Y-117228571D02*
X91492914Y-117133333D01*
X91492914Y-117133333D02*
X91540533Y-117038095D01*
X91254819Y-117942857D02*
X91254819Y-118609523D01*
X91254819Y-118609523D02*
X92254819Y-118180952D01*
X111138094Y-58854819D02*
X111138094Y-57854819D01*
X111138094Y-57854819D02*
X110899999Y-57854819D01*
X110899999Y-57854819D02*
X110757142Y-57902438D01*
X110757142Y-57902438D02*
X110661904Y-57997676D01*
X110661904Y-57997676D02*
X110614285Y-58092914D01*
X110614285Y-58092914D02*
X110566666Y-58283390D01*
X110566666Y-58283390D02*
X110566666Y-58426247D01*
X110566666Y-58426247D02*
X110614285Y-58616723D01*
X110614285Y-58616723D02*
X110661904Y-58711961D01*
X110661904Y-58711961D02*
X110757142Y-58807200D01*
X110757142Y-58807200D02*
X110899999Y-58854819D01*
X110899999Y-58854819D02*
X111138094Y-58854819D01*
X110233332Y-57854819D02*
X109614285Y-57854819D01*
X109614285Y-57854819D02*
X109947618Y-58235771D01*
X109947618Y-58235771D02*
X109804761Y-58235771D01*
X109804761Y-58235771D02*
X109709523Y-58283390D01*
X109709523Y-58283390D02*
X109661904Y-58331009D01*
X109661904Y-58331009D02*
X109614285Y-58426247D01*
X109614285Y-58426247D02*
X109614285Y-58664342D01*
X109614285Y-58664342D02*
X109661904Y-58759580D01*
X109661904Y-58759580D02*
X109709523Y-58807200D01*
X109709523Y-58807200D02*
X109804761Y-58854819D01*
X109804761Y-58854819D02*
X110090475Y-58854819D01*
X110090475Y-58854819D02*
X110185713Y-58807200D01*
X110185713Y-58807200D02*
X110233332Y-58759580D01*
D13*
X110142580Y-98433333D02*
X109428295Y-98433333D01*
X109428295Y-98433333D02*
X109285438Y-98480952D01*
X109285438Y-98480952D02*
X109190200Y-98576190D01*
X109190200Y-98576190D02*
X109142580Y-98719047D01*
X109142580Y-98719047D02*
X109142580Y-98814285D01*
X109142580Y-97433333D02*
X109142580Y-98004761D01*
X109142580Y-97719047D02*
X110142580Y-97719047D01*
X110142580Y-97719047D02*
X109999723Y-97814285D01*
X109999723Y-97814285D02*
X109904485Y-97909523D01*
X109904485Y-97909523D02*
X109856866Y-98004761D01*
D14*
G36*
X112085157Y-106879531D02*
G01*
X112127928Y-106878549D01*
X112166998Y-106875604D01*
X112207115Y-106869833D01*
X112246466Y-106860276D01*
X112250460Y-106859014D01*
X112286726Y-106843348D01*
X112318994Y-106819548D01*
X112343272Y-106788868D01*
X112360182Y-106750194D01*
X112368796Y-106711580D01*
X112372508Y-106671988D01*
X112372972Y-106650333D01*
X112370618Y-106608423D01*
X112362818Y-106568267D01*
X112358709Y-106555176D01*
X112339902Y-106518442D01*
X112312009Y-106489914D01*
X112276406Y-106471021D01*
X112237146Y-106460828D01*
X112223496Y-106458847D01*
X112223496Y-106452789D01*
X112261578Y-106439193D01*
X112265701Y-106436963D01*
X112297245Y-106411903D01*
X112306929Y-106400619D01*
X112326667Y-106364395D01*
X112334480Y-106336725D01*
X112402086Y-106096000D01*
X112222323Y-106096000D01*
X112163119Y-106331840D01*
X112147326Y-106368519D01*
X112133028Y-106384011D01*
X112095109Y-106397566D01*
X112078513Y-106398470D01*
X112037580Y-106398769D01*
X111996632Y-106399028D01*
X111957098Y-106399225D01*
X111950530Y-106399251D01*
X111911168Y-106399571D01*
X111870159Y-106400408D01*
X111863384Y-106400619D01*
X111823961Y-106402011D01*
X111799685Y-106402964D01*
X111803007Y-106526648D01*
X112081249Y-106526648D01*
X112122184Y-106529433D01*
X112153154Y-106536614D01*
X112184643Y-106560756D01*
X112190083Y-106570808D01*
X112199487Y-106609291D01*
X112201025Y-106639782D01*
X112198290Y-106679300D01*
X112190083Y-106708365D01*
X112162430Y-106737557D01*
X112153154Y-106741582D01*
X112112884Y-106749810D01*
X112081249Y-106751157D01*
X112037172Y-106751100D01*
X111996068Y-106750932D01*
X111952733Y-106750602D01*
X111913282Y-106750126D01*
X111904026Y-106749984D01*
X111862913Y-106749297D01*
X111823102Y-106748176D01*
X111804570Y-106747249D01*
X111787766Y-106868784D01*
X111827811Y-106872668D01*
X111868142Y-106875585D01*
X111875889Y-106876013D01*
X111916301Y-106877825D01*
X111957195Y-106878819D01*
X111966357Y-106878944D01*
X112006236Y-106879302D01*
X112047715Y-106879484D01*
X112085157Y-106879531D01*
G37*
G36*
X111955806Y-106868784D02*
G01*
X111955806Y-106096000D01*
X111787766Y-106096000D01*
X111787766Y-106868784D01*
X111955806Y-106868784D01*
G37*
G36*
X112671339Y-106871519D02*
G01*
X112714020Y-106871496D01*
X112753221Y-106871435D01*
X112792803Y-106871336D01*
X112796782Y-106871324D01*
X112836506Y-106870992D01*
X112875810Y-106870240D01*
X112918560Y-106868928D01*
X112922421Y-106868784D01*
X112964058Y-106866891D01*
X113003802Y-106864166D01*
X113038290Y-106860968D01*
X113030279Y-106736697D01*
X112733475Y-106736697D01*
X112695049Y-106725777D01*
X112691270Y-106722434D01*
X112677131Y-106684705D01*
X112677006Y-106679447D01*
X112677006Y-106285337D01*
X112687160Y-106247073D01*
X112691270Y-106242154D01*
X112728356Y-106227822D01*
X112733475Y-106227695D01*
X113030279Y-106227695D01*
X113038290Y-106103815D01*
X112996717Y-106100390D01*
X112956629Y-106097926D01*
X112922421Y-106096390D01*
X112879718Y-106095120D01*
X112840456Y-106094327D01*
X112800774Y-106093876D01*
X112796782Y-106093850D01*
X112757162Y-106093541D01*
X112717923Y-106093346D01*
X112675200Y-106093265D01*
X112671339Y-106093264D01*
X112632050Y-106096618D01*
X112593689Y-106108212D01*
X112557927Y-106130530D01*
X112552149Y-106135665D01*
X112526271Y-106168205D01*
X112510967Y-106207256D01*
X112506231Y-106248407D01*
X112506231Y-106716572D01*
X112510967Y-106757891D01*
X112526271Y-106796950D01*
X112552149Y-106829314D01*
X112586685Y-106853343D01*
X112623932Y-106866532D01*
X112666751Y-106871478D01*
X112671339Y-106871519D01*
G37*
G36*
X112526357Y-106557912D02*
G01*
X112988269Y-106557912D01*
X112988269Y-106437549D01*
X112526357Y-106437549D01*
X112526357Y-106557912D01*
G37*
G36*
X113462491Y-106879531D02*
G01*
X113506369Y-106878322D01*
X113546755Y-106874695D01*
X113588013Y-106867724D01*
X113617048Y-106860187D01*
X113654230Y-106845578D01*
X113689620Y-106823690D01*
X113719239Y-106795706D01*
X113743455Y-106760935D01*
X113761101Y-106722833D01*
X113773426Y-106683255D01*
X113775708Y-106673780D01*
X113783487Y-106633102D01*
X113788470Y-106593601D01*
X113791752Y-106550454D01*
X113793211Y-106510568D01*
X113793489Y-106482489D01*
X113792864Y-106440744D01*
X113790988Y-106401679D01*
X113787220Y-106359488D01*
X113780830Y-106315735D01*
X113775708Y-106290808D01*
X113764131Y-106250212D01*
X113747317Y-106210942D01*
X113726342Y-106177816D01*
X113719239Y-106169077D01*
X113689620Y-106141094D01*
X113654230Y-106119206D01*
X113617048Y-106104597D01*
X113574752Y-106094499D01*
X113532019Y-106088608D01*
X113490324Y-106085916D01*
X113462491Y-106085448D01*
X113419382Y-106085644D01*
X113377983Y-106086230D01*
X113338293Y-106087207D01*
X113300314Y-106088575D01*
X113259151Y-106090347D01*
X113219194Y-106092366D01*
X113176211Y-106094900D01*
X113159434Y-106096000D01*
X113229972Y-106222615D01*
X113270748Y-106220275D01*
X113310462Y-106218626D01*
X113331967Y-106217926D01*
X113373926Y-106217036D01*
X113414714Y-106216547D01*
X113458022Y-106216364D01*
X113462491Y-106216362D01*
X113502260Y-106219632D01*
X113539905Y-106231712D01*
X113553154Y-106239614D01*
X113579861Y-106269012D01*
X113596131Y-106306784D01*
X113599853Y-106320703D01*
X113607169Y-106361438D01*
X113611071Y-106400456D01*
X113613238Y-106445189D01*
X113613726Y-106482489D01*
X113613062Y-106525609D01*
X113610678Y-106569530D01*
X113605922Y-106612109D01*
X113599853Y-106643885D01*
X113586875Y-106682546D01*
X113564857Y-106715356D01*
X113553154Y-106725364D01*
X113516786Y-106742335D01*
X113476516Y-106748638D01*
X113462491Y-106749007D01*
X113420870Y-106748950D01*
X113378526Y-106748755D01*
X113339783Y-106748421D01*
X113299868Y-106748064D01*
X113260722Y-106747871D01*
X113235052Y-106747835D01*
X113159434Y-106868784D01*
X113202036Y-106871459D01*
X113241388Y-106873638D01*
X113281699Y-106875601D01*
X113299923Y-106876404D01*
X113342485Y-106877915D01*
X113382394Y-106878844D01*
X113424258Y-106879381D01*
X113462491Y-106879531D01*
G37*
G36*
X113330404Y-106868784D02*
G01*
X113330404Y-106096000D01*
X113159434Y-106096000D01*
X113159434Y-106868784D01*
X113330404Y-106868784D01*
G37*
G36*
X114221207Y-106879531D02*
G01*
X114263979Y-106878549D01*
X114303048Y-106875604D01*
X114343165Y-106869833D01*
X114382516Y-106860276D01*
X114386510Y-106859014D01*
X114422777Y-106843348D01*
X114455044Y-106819548D01*
X114479323Y-106788868D01*
X114496232Y-106750194D01*
X114504846Y-106711580D01*
X114508558Y-106671988D01*
X114509023Y-106650333D01*
X114506668Y-106608423D01*
X114498868Y-106568267D01*
X114494759Y-106555176D01*
X114475952Y-106518442D01*
X114448060Y-106489914D01*
X114412456Y-106471021D01*
X114373196Y-106460828D01*
X114359546Y-106458847D01*
X114359546Y-106452789D01*
X114397628Y-106439193D01*
X114401751Y-106436963D01*
X114433295Y-106411903D01*
X114442979Y-106400619D01*
X114462717Y-106364395D01*
X114470530Y-106336725D01*
X114538136Y-106096000D01*
X114358374Y-106096000D01*
X114299169Y-106331840D01*
X114283376Y-106368519D01*
X114269078Y-106384011D01*
X114231160Y-106397566D01*
X114214563Y-106398470D01*
X114173631Y-106398769D01*
X114132682Y-106399028D01*
X114093148Y-106399225D01*
X114086580Y-106399251D01*
X114047218Y-106399571D01*
X114006210Y-106400408D01*
X113999434Y-106400619D01*
X113960011Y-106402011D01*
X113935736Y-106402964D01*
X113939057Y-106526648D01*
X114217299Y-106526648D01*
X114258234Y-106529433D01*
X114289204Y-106536614D01*
X114320693Y-106560756D01*
X114326133Y-106570808D01*
X114335537Y-106609291D01*
X114337076Y-106639782D01*
X114334340Y-106679300D01*
X114326133Y-106708365D01*
X114298480Y-106737557D01*
X114289204Y-106741582D01*
X114248934Y-106749810D01*
X114217299Y-106751157D01*
X114173222Y-106751100D01*
X114132118Y-106750932D01*
X114088784Y-106750602D01*
X114049332Y-106750126D01*
X114040076Y-106749984D01*
X113998963Y-106749297D01*
X113959152Y-106748176D01*
X113940621Y-106747249D01*
X113923817Y-106868784D01*
X113963861Y-106872668D01*
X114004193Y-106875585D01*
X114011939Y-106876013D01*
X114052351Y-106877825D01*
X114093245Y-106878819D01*
X114102407Y-106878944D01*
X114142286Y-106879302D01*
X114183765Y-106879484D01*
X114221207Y-106879531D01*
G37*
G36*
X114091856Y-106868784D02*
G01*
X114091856Y-106096000D01*
X113923817Y-106096000D01*
X113923817Y-106868784D01*
X114091856Y-106868784D01*
G37*
G36*
X114807390Y-106871519D02*
G01*
X114850070Y-106871496D01*
X114889271Y-106871435D01*
X114928853Y-106871336D01*
X114932833Y-106871324D01*
X114972557Y-106870992D01*
X115011861Y-106870240D01*
X115054610Y-106868928D01*
X115058471Y-106868784D01*
X115100108Y-106866891D01*
X115139852Y-106864166D01*
X115174340Y-106860968D01*
X115166329Y-106736697D01*
X114869525Y-106736697D01*
X114831099Y-106725777D01*
X114827320Y-106722434D01*
X114813181Y-106684705D01*
X114813056Y-106679447D01*
X114813056Y-106285337D01*
X114823211Y-106247073D01*
X114827320Y-106242154D01*
X114864406Y-106227822D01*
X114869525Y-106227695D01*
X115166329Y-106227695D01*
X115174340Y-106103815D01*
X115132767Y-106100390D01*
X115092679Y-106097926D01*
X115058471Y-106096390D01*
X115015768Y-106095120D01*
X114976506Y-106094327D01*
X114936824Y-106093876D01*
X114932833Y-106093850D01*
X114893212Y-106093541D01*
X114853973Y-106093346D01*
X114811251Y-106093265D01*
X114807390Y-106093264D01*
X114768100Y-106096618D01*
X114729739Y-106108212D01*
X114693977Y-106130530D01*
X114688199Y-106135665D01*
X114662321Y-106168205D01*
X114647017Y-106207256D01*
X114642281Y-106248407D01*
X114642281Y-106716572D01*
X114647017Y-106757891D01*
X114662321Y-106796950D01*
X114688199Y-106829314D01*
X114722735Y-106853343D01*
X114759982Y-106866532D01*
X114802801Y-106871478D01*
X114807390Y-106871519D01*
G37*
G36*
X114662407Y-106557912D02*
G01*
X115124319Y-106557912D01*
X115124319Y-106437549D01*
X114662407Y-106437549D01*
X114662407Y-106557912D01*
G37*
G36*
X115598541Y-106879531D02*
G01*
X115642419Y-106878322D01*
X115682805Y-106874695D01*
X115724064Y-106867724D01*
X115753098Y-106860187D01*
X115790280Y-106845578D01*
X115825671Y-106823690D01*
X115855289Y-106795706D01*
X115879505Y-106760935D01*
X115897151Y-106722833D01*
X115909477Y-106683255D01*
X115911758Y-106673780D01*
X115919537Y-106633102D01*
X115924521Y-106593601D01*
X115927803Y-106550454D01*
X115929261Y-106510568D01*
X115929539Y-106482489D01*
X115928914Y-106440744D01*
X115927038Y-106401679D01*
X115923270Y-106359488D01*
X115916880Y-106315735D01*
X115911758Y-106290808D01*
X115900182Y-106250212D01*
X115883367Y-106210942D01*
X115862393Y-106177816D01*
X115855289Y-106169077D01*
X115825671Y-106141094D01*
X115790280Y-106119206D01*
X115753098Y-106104597D01*
X115710802Y-106094499D01*
X115668070Y-106088608D01*
X115626374Y-106085916D01*
X115598541Y-106085448D01*
X115555432Y-106085644D01*
X115514033Y-106086230D01*
X115474344Y-106087207D01*
X115436364Y-106088575D01*
X115395201Y-106090347D01*
X115355244Y-106092366D01*
X115312261Y-106094900D01*
X115295484Y-106096000D01*
X115366022Y-106222615D01*
X115406798Y-106220275D01*
X115446512Y-106218626D01*
X115468018Y-106217926D01*
X115509976Y-106217036D01*
X115550764Y-106216547D01*
X115594072Y-106216364D01*
X115598541Y-106216362D01*
X115638310Y-106219632D01*
X115675955Y-106231712D01*
X115689204Y-106239614D01*
X115715911Y-106269012D01*
X115732182Y-106306784D01*
X115735903Y-106320703D01*
X115743219Y-106361438D01*
X115747121Y-106400456D01*
X115749288Y-106445189D01*
X115749776Y-106482489D01*
X115749112Y-106525609D01*
X115746728Y-106569530D01*
X115741973Y-106612109D01*
X115735903Y-106643885D01*
X115722925Y-106682546D01*
X115700907Y-106715356D01*
X115689204Y-106725364D01*
X115652837Y-106742335D01*
X115612567Y-106748638D01*
X115598541Y-106749007D01*
X115556921Y-106748950D01*
X115514576Y-106748755D01*
X115475833Y-106748421D01*
X115435918Y-106748064D01*
X115396772Y-106747871D01*
X115371102Y-106747835D01*
X115295484Y-106868784D01*
X115338086Y-106871459D01*
X115377438Y-106873638D01*
X115417749Y-106875601D01*
X115435973Y-106876404D01*
X115478535Y-106877915D01*
X115518445Y-106878844D01*
X115560308Y-106879381D01*
X115598541Y-106879531D01*
G37*
G36*
X115466454Y-106868784D02*
G01*
X115466454Y-106096000D01*
X115295484Y-106096000D01*
X115295484Y-106868784D01*
X115466454Y-106868784D01*
G37*
G36*
X116357257Y-106879531D02*
G01*
X116400029Y-106878549D01*
X116439098Y-106875604D01*
X116479215Y-106869833D01*
X116518566Y-106860276D01*
X116522561Y-106859014D01*
X116558827Y-106843348D01*
X116591094Y-106819548D01*
X116615373Y-106788868D01*
X116632282Y-106750194D01*
X116640896Y-106711580D01*
X116644609Y-106671988D01*
X116645073Y-106650333D01*
X116642719Y-106608423D01*
X116634918Y-106568267D01*
X116630809Y-106555176D01*
X116612002Y-106518442D01*
X116584110Y-106489914D01*
X116548507Y-106471021D01*
X116509246Y-106460828D01*
X116495596Y-106458847D01*
X116495596Y-106452789D01*
X116533679Y-106439193D01*
X116537801Y-106436963D01*
X116569345Y-106411903D01*
X116579030Y-106400619D01*
X116598767Y-106364395D01*
X116606580Y-106336725D01*
X116674187Y-106096000D01*
X116494424Y-106096000D01*
X116435219Y-106331840D01*
X116419427Y-106368519D01*
X116405129Y-106384011D01*
X116367210Y-106397566D01*
X116350614Y-106398470D01*
X116309681Y-106398769D01*
X116268732Y-106399028D01*
X116229198Y-106399225D01*
X116222630Y-106399251D01*
X116183268Y-106399571D01*
X116142260Y-106400408D01*
X116135484Y-106400619D01*
X116096061Y-106402011D01*
X116071786Y-106402964D01*
X116075108Y-106526648D01*
X116353349Y-106526648D01*
X116394284Y-106529433D01*
X116425254Y-106536614D01*
X116456743Y-106560756D01*
X116462184Y-106570808D01*
X116471587Y-106609291D01*
X116473126Y-106639782D01*
X116470390Y-106679300D01*
X116462184Y-106708365D01*
X116434530Y-106737557D01*
X116425254Y-106741582D01*
X116384985Y-106749810D01*
X116353349Y-106751157D01*
X116309272Y-106751100D01*
X116268169Y-106750932D01*
X116224834Y-106750602D01*
X116185383Y-106750126D01*
X116176127Y-106749984D01*
X116135014Y-106749297D01*
X116095203Y-106748176D01*
X116076671Y-106747249D01*
X116059867Y-106868784D01*
X116099911Y-106872668D01*
X116140243Y-106875585D01*
X116147990Y-106876013D01*
X116188401Y-106877825D01*
X116229295Y-106878819D01*
X116238457Y-106878944D01*
X116278336Y-106879302D01*
X116319816Y-106879484D01*
X116357257Y-106879531D01*
G37*
G36*
X116227906Y-106868784D02*
G01*
X116227906Y-106096000D01*
X116059867Y-106096000D01*
X116059867Y-106868784D01*
X116227906Y-106868784D01*
G37*
G36*
X116943440Y-106871519D02*
G01*
X116986120Y-106871496D01*
X117025321Y-106871435D01*
X117064904Y-106871336D01*
X117068883Y-106871324D01*
X117108607Y-106870992D01*
X117147911Y-106870240D01*
X117190660Y-106868928D01*
X117194521Y-106868784D01*
X117236159Y-106866891D01*
X117275902Y-106864166D01*
X117310390Y-106860968D01*
X117302379Y-106736697D01*
X117005575Y-106736697D01*
X116967150Y-106725777D01*
X116963370Y-106722434D01*
X116949232Y-106684705D01*
X116949106Y-106679447D01*
X116949106Y-106285337D01*
X116959261Y-106247073D01*
X116963370Y-106242154D01*
X117000456Y-106227822D01*
X117005575Y-106227695D01*
X117302379Y-106227695D01*
X117310390Y-106103815D01*
X117268817Y-106100390D01*
X117228729Y-106097926D01*
X117194521Y-106096390D01*
X117151818Y-106095120D01*
X117112556Y-106094327D01*
X117072874Y-106093876D01*
X117068883Y-106093850D01*
X117029262Y-106093541D01*
X116990023Y-106093346D01*
X116947301Y-106093265D01*
X116943440Y-106093264D01*
X116904151Y-106096618D01*
X116865789Y-106108212D01*
X116830027Y-106130530D01*
X116824249Y-106135665D01*
X116798371Y-106168205D01*
X116783068Y-106207256D01*
X116778332Y-106248407D01*
X116778332Y-106716572D01*
X116783068Y-106757891D01*
X116798371Y-106796950D01*
X116824249Y-106829314D01*
X116858786Y-106853343D01*
X116896033Y-106866532D01*
X116938852Y-106871478D01*
X116943440Y-106871519D01*
G37*
G36*
X116798457Y-106557912D02*
G01*
X117260369Y-106557912D01*
X117260369Y-106437549D01*
X116798457Y-106437549D01*
X116798457Y-106557912D01*
G37*
G36*
X117734591Y-106879531D02*
G01*
X117778469Y-106878322D01*
X117818855Y-106874695D01*
X117860114Y-106867724D01*
X117889148Y-106860187D01*
X117926330Y-106845578D01*
X117961721Y-106823690D01*
X117991339Y-106795706D01*
X118015555Y-106760935D01*
X118033202Y-106722833D01*
X118045527Y-106683255D01*
X118047808Y-106673780D01*
X118055587Y-106633102D01*
X118060571Y-106593601D01*
X118063853Y-106550454D01*
X118065311Y-106510568D01*
X118065589Y-106482489D01*
X118064964Y-106440744D01*
X118063089Y-106401679D01*
X118059321Y-106359488D01*
X118052931Y-106315735D01*
X118047808Y-106290808D01*
X118036232Y-106250212D01*
X118019417Y-106210942D01*
X117998443Y-106177816D01*
X117991339Y-106169077D01*
X117961721Y-106141094D01*
X117926330Y-106119206D01*
X117889148Y-106104597D01*
X117846852Y-106094499D01*
X117804120Y-106088608D01*
X117762424Y-106085916D01*
X117734591Y-106085448D01*
X117691482Y-106085644D01*
X117650083Y-106086230D01*
X117610394Y-106087207D01*
X117572414Y-106088575D01*
X117531251Y-106090347D01*
X117491294Y-106092366D01*
X117448311Y-106094900D01*
X117431535Y-106096000D01*
X117502072Y-106222615D01*
X117542848Y-106220275D01*
X117582562Y-106218626D01*
X117604068Y-106217926D01*
X117646026Y-106217036D01*
X117686815Y-106216547D01*
X117730122Y-106216364D01*
X117734591Y-106216362D01*
X117774360Y-106219632D01*
X117812006Y-106231712D01*
X117825254Y-106239614D01*
X117851962Y-106269012D01*
X117868232Y-106306784D01*
X117871953Y-106320703D01*
X117879269Y-106361438D01*
X117883171Y-106400456D01*
X117885339Y-106445189D01*
X117885826Y-106482489D01*
X117885163Y-106525609D01*
X117882778Y-106569530D01*
X117878023Y-106612109D01*
X117871953Y-106643885D01*
X117858975Y-106682546D01*
X117836957Y-106715356D01*
X117825254Y-106725364D01*
X117788887Y-106742335D01*
X117748617Y-106748638D01*
X117734591Y-106749007D01*
X117692971Y-106748950D01*
X117650626Y-106748755D01*
X117611884Y-106748421D01*
X117571968Y-106748064D01*
X117532822Y-106747871D01*
X117507152Y-106747835D01*
X117431535Y-106868784D01*
X117474136Y-106871459D01*
X117513489Y-106873638D01*
X117553800Y-106875601D01*
X117572023Y-106876404D01*
X117614586Y-106877915D01*
X117654495Y-106878844D01*
X117696358Y-106879381D01*
X117734591Y-106879531D01*
G37*
G36*
X117602505Y-106868784D02*
G01*
X117602505Y-106096000D01*
X117431535Y-106096000D01*
X117431535Y-106868784D01*
X117602505Y-106868784D01*
G37*
D10*
X110054819Y-81033333D02*
X109578628Y-80700000D01*
X110054819Y-80461905D02*
X109054819Y-80461905D01*
X109054819Y-80461905D02*
X109054819Y-80842857D01*
X109054819Y-80842857D02*
X109102438Y-80938095D01*
X109102438Y-80938095D02*
X109150057Y-80985714D01*
X109150057Y-80985714D02*
X109245295Y-81033333D01*
X109245295Y-81033333D02*
X109388152Y-81033333D01*
X109388152Y-81033333D02*
X109483390Y-80985714D01*
X109483390Y-80985714D02*
X109531009Y-80938095D01*
X109531009Y-80938095D02*
X109578628Y-80842857D01*
X109578628Y-80842857D02*
X109578628Y-80461905D01*
X109483390Y-81604762D02*
X109435771Y-81509524D01*
X109435771Y-81509524D02*
X109388152Y-81461905D01*
X109388152Y-81461905D02*
X109292914Y-81414286D01*
X109292914Y-81414286D02*
X109245295Y-81414286D01*
X109245295Y-81414286D02*
X109150057Y-81461905D01*
X109150057Y-81461905D02*
X109102438Y-81509524D01*
X109102438Y-81509524D02*
X109054819Y-81604762D01*
X109054819Y-81604762D02*
X109054819Y-81795238D01*
X109054819Y-81795238D02*
X109102438Y-81890476D01*
X109102438Y-81890476D02*
X109150057Y-81938095D01*
X109150057Y-81938095D02*
X109245295Y-81985714D01*
X109245295Y-81985714D02*
X109292914Y-81985714D01*
X109292914Y-81985714D02*
X109388152Y-81938095D01*
X109388152Y-81938095D02*
X109435771Y-81890476D01*
X109435771Y-81890476D02*
X109483390Y-81795238D01*
X109483390Y-81795238D02*
X109483390Y-81604762D01*
X109483390Y-81604762D02*
X109531009Y-81509524D01*
X109531009Y-81509524D02*
X109578628Y-81461905D01*
X109578628Y-81461905D02*
X109673866Y-81414286D01*
X109673866Y-81414286D02*
X109864342Y-81414286D01*
X109864342Y-81414286D02*
X109959580Y-81461905D01*
X109959580Y-81461905D02*
X110007200Y-81509524D01*
X110007200Y-81509524D02*
X110054819Y-81604762D01*
X110054819Y-81604762D02*
X110054819Y-81795238D01*
X110054819Y-81795238D02*
X110007200Y-81890476D01*
X110007200Y-81890476D02*
X109959580Y-81938095D01*
X109959580Y-81938095D02*
X109864342Y-81985714D01*
X109864342Y-81985714D02*
X109673866Y-81985714D01*
X109673866Y-81985714D02*
X109578628Y-81938095D01*
X109578628Y-81938095D02*
X109531009Y-81890476D01*
X109531009Y-81890476D02*
X109483390Y-81795238D01*
X101254819Y-80633333D02*
X100778628Y-80300000D01*
X101254819Y-80061905D02*
X100254819Y-80061905D01*
X100254819Y-80061905D02*
X100254819Y-80442857D01*
X100254819Y-80442857D02*
X100302438Y-80538095D01*
X100302438Y-80538095D02*
X100350057Y-80585714D01*
X100350057Y-80585714D02*
X100445295Y-80633333D01*
X100445295Y-80633333D02*
X100588152Y-80633333D01*
X100588152Y-80633333D02*
X100683390Y-80585714D01*
X100683390Y-80585714D02*
X100731009Y-80538095D01*
X100731009Y-80538095D02*
X100778628Y-80442857D01*
X100778628Y-80442857D02*
X100778628Y-80061905D01*
X101254819Y-81109524D02*
X101254819Y-81300000D01*
X101254819Y-81300000D02*
X101207200Y-81395238D01*
X101207200Y-81395238D02*
X101159580Y-81442857D01*
X101159580Y-81442857D02*
X101016723Y-81538095D01*
X101016723Y-81538095D02*
X100826247Y-81585714D01*
X100826247Y-81585714D02*
X100445295Y-81585714D01*
X100445295Y-81585714D02*
X100350057Y-81538095D01*
X100350057Y-81538095D02*
X100302438Y-81490476D01*
X100302438Y-81490476D02*
X100254819Y-81395238D01*
X100254819Y-81395238D02*
X100254819Y-81204762D01*
X100254819Y-81204762D02*
X100302438Y-81109524D01*
X100302438Y-81109524D02*
X100350057Y-81061905D01*
X100350057Y-81061905D02*
X100445295Y-81014286D01*
X100445295Y-81014286D02*
X100683390Y-81014286D01*
X100683390Y-81014286D02*
X100778628Y-81061905D01*
X100778628Y-81061905D02*
X100826247Y-81109524D01*
X100826247Y-81109524D02*
X100873866Y-81204762D01*
X100873866Y-81204762D02*
X100873866Y-81395238D01*
X100873866Y-81395238D02*
X100826247Y-81490476D01*
X100826247Y-81490476D02*
X100778628Y-81538095D01*
X100778628Y-81538095D02*
X100683390Y-81585714D01*
X103759580Y-93833333D02*
X103807200Y-93785714D01*
X103807200Y-93785714D02*
X103854819Y-93642857D01*
X103854819Y-93642857D02*
X103854819Y-93547619D01*
X103854819Y-93547619D02*
X103807200Y-93404762D01*
X103807200Y-93404762D02*
X103711961Y-93309524D01*
X103711961Y-93309524D02*
X103616723Y-93261905D01*
X103616723Y-93261905D02*
X103426247Y-93214286D01*
X103426247Y-93214286D02*
X103283390Y-93214286D01*
X103283390Y-93214286D02*
X103092914Y-93261905D01*
X103092914Y-93261905D02*
X102997676Y-93309524D01*
X102997676Y-93309524D02*
X102902438Y-93404762D01*
X102902438Y-93404762D02*
X102854819Y-93547619D01*
X102854819Y-93547619D02*
X102854819Y-93642857D01*
X102854819Y-93642857D02*
X102902438Y-93785714D01*
X102902438Y-93785714D02*
X102950057Y-93833333D01*
X102950057Y-94214286D02*
X102902438Y-94261905D01*
X102902438Y-94261905D02*
X102854819Y-94357143D01*
X102854819Y-94357143D02*
X102854819Y-94595238D01*
X102854819Y-94595238D02*
X102902438Y-94690476D01*
X102902438Y-94690476D02*
X102950057Y-94738095D01*
X102950057Y-94738095D02*
X103045295Y-94785714D01*
X103045295Y-94785714D02*
X103140533Y-94785714D01*
X103140533Y-94785714D02*
X103283390Y-94738095D01*
X103283390Y-94738095D02*
X103854819Y-94166667D01*
X103854819Y-94166667D02*
X103854819Y-94785714D01*
X92566666Y-57854819D02*
X92899999Y-57378628D01*
X93138094Y-57854819D02*
X93138094Y-56854819D01*
X93138094Y-56854819D02*
X92757142Y-56854819D01*
X92757142Y-56854819D02*
X92661904Y-56902438D01*
X92661904Y-56902438D02*
X92614285Y-56950057D01*
X92614285Y-56950057D02*
X92566666Y-57045295D01*
X92566666Y-57045295D02*
X92566666Y-57188152D01*
X92566666Y-57188152D02*
X92614285Y-57283390D01*
X92614285Y-57283390D02*
X92661904Y-57331009D01*
X92661904Y-57331009D02*
X92757142Y-57378628D01*
X92757142Y-57378628D02*
X93138094Y-57378628D01*
X92185713Y-56950057D02*
X92138094Y-56902438D01*
X92138094Y-56902438D02*
X92042856Y-56854819D01*
X92042856Y-56854819D02*
X91804761Y-56854819D01*
X91804761Y-56854819D02*
X91709523Y-56902438D01*
X91709523Y-56902438D02*
X91661904Y-56950057D01*
X91661904Y-56950057D02*
X91614285Y-57045295D01*
X91614285Y-57045295D02*
X91614285Y-57140533D01*
X91614285Y-57140533D02*
X91661904Y-57283390D01*
X91661904Y-57283390D02*
X92233332Y-57854819D01*
X92233332Y-57854819D02*
X91614285Y-57854819D01*
X100004819Y-54933333D02*
X99528628Y-54600000D01*
X100004819Y-54361905D02*
X99004819Y-54361905D01*
X99004819Y-54361905D02*
X99004819Y-54742857D01*
X99004819Y-54742857D02*
X99052438Y-54838095D01*
X99052438Y-54838095D02*
X99100057Y-54885714D01*
X99100057Y-54885714D02*
X99195295Y-54933333D01*
X99195295Y-54933333D02*
X99338152Y-54933333D01*
X99338152Y-54933333D02*
X99433390Y-54885714D01*
X99433390Y-54885714D02*
X99481009Y-54838095D01*
X99481009Y-54838095D02*
X99528628Y-54742857D01*
X99528628Y-54742857D02*
X99528628Y-54361905D01*
X99338152Y-55790476D02*
X100004819Y-55790476D01*
X98957200Y-55552381D02*
X99671485Y-55314286D01*
X99671485Y-55314286D02*
X99671485Y-55933333D01*
X118654819Y-126357142D02*
X118178628Y-126023809D01*
X118654819Y-125785714D02*
X117654819Y-125785714D01*
X117654819Y-125785714D02*
X117654819Y-126166666D01*
X117654819Y-126166666D02*
X117702438Y-126261904D01*
X117702438Y-126261904D02*
X117750057Y-126309523D01*
X117750057Y-126309523D02*
X117845295Y-126357142D01*
X117845295Y-126357142D02*
X117988152Y-126357142D01*
X117988152Y-126357142D02*
X118083390Y-126309523D01*
X118083390Y-126309523D02*
X118131009Y-126261904D01*
X118131009Y-126261904D02*
X118178628Y-126166666D01*
X118178628Y-126166666D02*
X118178628Y-125785714D01*
X117750057Y-126738095D02*
X117702438Y-126785714D01*
X117702438Y-126785714D02*
X117654819Y-126880952D01*
X117654819Y-126880952D02*
X117654819Y-127119047D01*
X117654819Y-127119047D02*
X117702438Y-127214285D01*
X117702438Y-127214285D02*
X117750057Y-127261904D01*
X117750057Y-127261904D02*
X117845295Y-127309523D01*
X117845295Y-127309523D02*
X117940533Y-127309523D01*
X117940533Y-127309523D02*
X118083390Y-127261904D01*
X118083390Y-127261904D02*
X118654819Y-126690476D01*
X118654819Y-126690476D02*
X118654819Y-127309523D01*
X117654819Y-128214285D02*
X117654819Y-127738095D01*
X117654819Y-127738095D02*
X118131009Y-127690476D01*
X118131009Y-127690476D02*
X118083390Y-127738095D01*
X118083390Y-127738095D02*
X118035771Y-127833333D01*
X118035771Y-127833333D02*
X118035771Y-128071428D01*
X118035771Y-128071428D02*
X118083390Y-128166666D01*
X118083390Y-128166666D02*
X118131009Y-128214285D01*
X118131009Y-128214285D02*
X118226247Y-128261904D01*
X118226247Y-128261904D02*
X118464342Y-128261904D01*
X118464342Y-128261904D02*
X118559580Y-128214285D01*
X118559580Y-128214285D02*
X118607200Y-128166666D01*
X118607200Y-128166666D02*
X118654819Y-128071428D01*
X118654819Y-128071428D02*
X118654819Y-127833333D01*
X118654819Y-127833333D02*
X118607200Y-127738095D01*
X118607200Y-127738095D02*
X118559580Y-127690476D01*
X92154819Y-126457142D02*
X91678628Y-126123809D01*
X92154819Y-125885714D02*
X91154819Y-125885714D01*
X91154819Y-125885714D02*
X91154819Y-126266666D01*
X91154819Y-126266666D02*
X91202438Y-126361904D01*
X91202438Y-126361904D02*
X91250057Y-126409523D01*
X91250057Y-126409523D02*
X91345295Y-126457142D01*
X91345295Y-126457142D02*
X91488152Y-126457142D01*
X91488152Y-126457142D02*
X91583390Y-126409523D01*
X91583390Y-126409523D02*
X91631009Y-126361904D01*
X91631009Y-126361904D02*
X91678628Y-126266666D01*
X91678628Y-126266666D02*
X91678628Y-125885714D01*
X92154819Y-127409523D02*
X92154819Y-126838095D01*
X92154819Y-127123809D02*
X91154819Y-127123809D01*
X91154819Y-127123809D02*
X91297676Y-127028571D01*
X91297676Y-127028571D02*
X91392914Y-126933333D01*
X91392914Y-126933333D02*
X91440533Y-126838095D01*
X91154819Y-128314285D02*
X91154819Y-127838095D01*
X91154819Y-127838095D02*
X91631009Y-127790476D01*
X91631009Y-127790476D02*
X91583390Y-127838095D01*
X91583390Y-127838095D02*
X91535771Y-127933333D01*
X91535771Y-127933333D02*
X91535771Y-128171428D01*
X91535771Y-128171428D02*
X91583390Y-128266666D01*
X91583390Y-128266666D02*
X91631009Y-128314285D01*
X91631009Y-128314285D02*
X91726247Y-128361904D01*
X91726247Y-128361904D02*
X91964342Y-128361904D01*
X91964342Y-128361904D02*
X92059580Y-128314285D01*
X92059580Y-128314285D02*
X92107200Y-128266666D01*
X92107200Y-128266666D02*
X92154819Y-128171428D01*
X92154819Y-128171428D02*
X92154819Y-127933333D01*
X92154819Y-127933333D02*
X92107200Y-127838095D01*
X92107200Y-127838095D02*
X92059580Y-127790476D01*
X93754819Y-136757142D02*
X93278628Y-136423809D01*
X93754819Y-136185714D02*
X92754819Y-136185714D01*
X92754819Y-136185714D02*
X92754819Y-136566666D01*
X92754819Y-136566666D02*
X92802438Y-136661904D01*
X92802438Y-136661904D02*
X92850057Y-136709523D01*
X92850057Y-136709523D02*
X92945295Y-136757142D01*
X92945295Y-136757142D02*
X93088152Y-136757142D01*
X93088152Y-136757142D02*
X93183390Y-136709523D01*
X93183390Y-136709523D02*
X93231009Y-136661904D01*
X93231009Y-136661904D02*
X93278628Y-136566666D01*
X93278628Y-136566666D02*
X93278628Y-136185714D01*
X93754819Y-137709523D02*
X93754819Y-137138095D01*
X93754819Y-137423809D02*
X92754819Y-137423809D01*
X92754819Y-137423809D02*
X92897676Y-137328571D01*
X92897676Y-137328571D02*
X92992914Y-137233333D01*
X92992914Y-137233333D02*
X93040533Y-137138095D01*
X92754819Y-138042857D02*
X92754819Y-138661904D01*
X92754819Y-138661904D02*
X93135771Y-138328571D01*
X93135771Y-138328571D02*
X93135771Y-138471428D01*
X93135771Y-138471428D02*
X93183390Y-138566666D01*
X93183390Y-138566666D02*
X93231009Y-138614285D01*
X93231009Y-138614285D02*
X93326247Y-138661904D01*
X93326247Y-138661904D02*
X93564342Y-138661904D01*
X93564342Y-138661904D02*
X93659580Y-138614285D01*
X93659580Y-138614285D02*
X93707200Y-138566666D01*
X93707200Y-138566666D02*
X93754819Y-138471428D01*
X93754819Y-138471428D02*
X93754819Y-138185714D01*
X93754819Y-138185714D02*
X93707200Y-138090476D01*
X93707200Y-138090476D02*
X93659580Y-138042857D01*
X93654819Y-146557142D02*
X93178628Y-146223809D01*
X93654819Y-145985714D02*
X92654819Y-145985714D01*
X92654819Y-145985714D02*
X92654819Y-146366666D01*
X92654819Y-146366666D02*
X92702438Y-146461904D01*
X92702438Y-146461904D02*
X92750057Y-146509523D01*
X92750057Y-146509523D02*
X92845295Y-146557142D01*
X92845295Y-146557142D02*
X92988152Y-146557142D01*
X92988152Y-146557142D02*
X93083390Y-146509523D01*
X93083390Y-146509523D02*
X93131009Y-146461904D01*
X93131009Y-146461904D02*
X93178628Y-146366666D01*
X93178628Y-146366666D02*
X93178628Y-145985714D01*
X93654819Y-147509523D02*
X93654819Y-146938095D01*
X93654819Y-147223809D02*
X92654819Y-147223809D01*
X92654819Y-147223809D02*
X92797676Y-147128571D01*
X92797676Y-147128571D02*
X92892914Y-147033333D01*
X92892914Y-147033333D02*
X92940533Y-146938095D01*
X93083390Y-148080952D02*
X93035771Y-147985714D01*
X93035771Y-147985714D02*
X92988152Y-147938095D01*
X92988152Y-147938095D02*
X92892914Y-147890476D01*
X92892914Y-147890476D02*
X92845295Y-147890476D01*
X92845295Y-147890476D02*
X92750057Y-147938095D01*
X92750057Y-147938095D02*
X92702438Y-147985714D01*
X92702438Y-147985714D02*
X92654819Y-148080952D01*
X92654819Y-148080952D02*
X92654819Y-148271428D01*
X92654819Y-148271428D02*
X92702438Y-148366666D01*
X92702438Y-148366666D02*
X92750057Y-148414285D01*
X92750057Y-148414285D02*
X92845295Y-148461904D01*
X92845295Y-148461904D02*
X92892914Y-148461904D01*
X92892914Y-148461904D02*
X92988152Y-148414285D01*
X92988152Y-148414285D02*
X93035771Y-148366666D01*
X93035771Y-148366666D02*
X93083390Y-148271428D01*
X93083390Y-148271428D02*
X93083390Y-148080952D01*
X93083390Y-148080952D02*
X93131009Y-147985714D01*
X93131009Y-147985714D02*
X93178628Y-147938095D01*
X93178628Y-147938095D02*
X93273866Y-147890476D01*
X93273866Y-147890476D02*
X93464342Y-147890476D01*
X93464342Y-147890476D02*
X93559580Y-147938095D01*
X93559580Y-147938095D02*
X93607200Y-147985714D01*
X93607200Y-147985714D02*
X93654819Y-148080952D01*
X93654819Y-148080952D02*
X93654819Y-148271428D01*
X93654819Y-148271428D02*
X93607200Y-148366666D01*
X93607200Y-148366666D02*
X93559580Y-148414285D01*
X93559580Y-148414285D02*
X93464342Y-148461904D01*
X93464342Y-148461904D02*
X93273866Y-148461904D01*
X93273866Y-148461904D02*
X93178628Y-148414285D01*
X93178628Y-148414285D02*
X93131009Y-148366666D01*
X93131009Y-148366666D02*
X93083390Y-148271428D01*
X103759580Y-101833333D02*
X103807200Y-101785714D01*
X103807200Y-101785714D02*
X103854819Y-101642857D01*
X103854819Y-101642857D02*
X103854819Y-101547619D01*
X103854819Y-101547619D02*
X103807200Y-101404762D01*
X103807200Y-101404762D02*
X103711961Y-101309524D01*
X103711961Y-101309524D02*
X103616723Y-101261905D01*
X103616723Y-101261905D02*
X103426247Y-101214286D01*
X103426247Y-101214286D02*
X103283390Y-101214286D01*
X103283390Y-101214286D02*
X103092914Y-101261905D01*
X103092914Y-101261905D02*
X102997676Y-101309524D01*
X102997676Y-101309524D02*
X102902438Y-101404762D01*
X102902438Y-101404762D02*
X102854819Y-101547619D01*
X102854819Y-101547619D02*
X102854819Y-101642857D01*
X102854819Y-101642857D02*
X102902438Y-101785714D01*
X102902438Y-101785714D02*
X102950057Y-101833333D01*
X102854819Y-102166667D02*
X102854819Y-102785714D01*
X102854819Y-102785714D02*
X103235771Y-102452381D01*
X103235771Y-102452381D02*
X103235771Y-102595238D01*
X103235771Y-102595238D02*
X103283390Y-102690476D01*
X103283390Y-102690476D02*
X103331009Y-102738095D01*
X103331009Y-102738095D02*
X103426247Y-102785714D01*
X103426247Y-102785714D02*
X103664342Y-102785714D01*
X103664342Y-102785714D02*
X103759580Y-102738095D01*
X103759580Y-102738095D02*
X103807200Y-102690476D01*
X103807200Y-102690476D02*
X103854819Y-102595238D01*
X103854819Y-102595238D02*
X103854819Y-102309524D01*
X103854819Y-102309524D02*
X103807200Y-102214286D01*
X103807200Y-102214286D02*
X103759580Y-102166667D01*
X111138094Y-60054819D02*
X111138094Y-59054819D01*
X111138094Y-59054819D02*
X110899999Y-59054819D01*
X110899999Y-59054819D02*
X110757142Y-59102438D01*
X110757142Y-59102438D02*
X110661904Y-59197676D01*
X110661904Y-59197676D02*
X110614285Y-59292914D01*
X110614285Y-59292914D02*
X110566666Y-59483390D01*
X110566666Y-59483390D02*
X110566666Y-59626247D01*
X110566666Y-59626247D02*
X110614285Y-59816723D01*
X110614285Y-59816723D02*
X110661904Y-59911961D01*
X110661904Y-59911961D02*
X110757142Y-60007200D01*
X110757142Y-60007200D02*
X110899999Y-60054819D01*
X110899999Y-60054819D02*
X111138094Y-60054819D01*
X110185713Y-59150057D02*
X110138094Y-59102438D01*
X110138094Y-59102438D02*
X110042856Y-59054819D01*
X110042856Y-59054819D02*
X109804761Y-59054819D01*
X109804761Y-59054819D02*
X109709523Y-59102438D01*
X109709523Y-59102438D02*
X109661904Y-59150057D01*
X109661904Y-59150057D02*
X109614285Y-59245295D01*
X109614285Y-59245295D02*
X109614285Y-59340533D01*
X109614285Y-59340533D02*
X109661904Y-59483390D01*
X109661904Y-59483390D02*
X110233332Y-60054819D01*
X110233332Y-60054819D02*
X109614285Y-60054819D01*
X115066666Y-63504819D02*
X115399999Y-63028628D01*
X115638094Y-63504819D02*
X115638094Y-62504819D01*
X115638094Y-62504819D02*
X115257142Y-62504819D01*
X115257142Y-62504819D02*
X115161904Y-62552438D01*
X115161904Y-62552438D02*
X115114285Y-62600057D01*
X115114285Y-62600057D02*
X115066666Y-62695295D01*
X115066666Y-62695295D02*
X115066666Y-62838152D01*
X115066666Y-62838152D02*
X115114285Y-62933390D01*
X115114285Y-62933390D02*
X115161904Y-62981009D01*
X115161904Y-62981009D02*
X115257142Y-63028628D01*
X115257142Y-63028628D02*
X115638094Y-63028628D01*
X114733332Y-62504819D02*
X114114285Y-62504819D01*
X114114285Y-62504819D02*
X114447618Y-62885771D01*
X114447618Y-62885771D02*
X114304761Y-62885771D01*
X114304761Y-62885771D02*
X114209523Y-62933390D01*
X114209523Y-62933390D02*
X114161904Y-62981009D01*
X114161904Y-62981009D02*
X114114285Y-63076247D01*
X114114285Y-63076247D02*
X114114285Y-63314342D01*
X114114285Y-63314342D02*
X114161904Y-63409580D01*
X114161904Y-63409580D02*
X114209523Y-63457200D01*
X114209523Y-63457200D02*
X114304761Y-63504819D01*
X114304761Y-63504819D02*
X114590475Y-63504819D01*
X114590475Y-63504819D02*
X114685713Y-63457200D01*
X114685713Y-63457200D02*
X114733332Y-63409580D01*
X115429166Y-87054819D02*
X115762499Y-86578628D01*
X116000594Y-87054819D02*
X116000594Y-86054819D01*
X116000594Y-86054819D02*
X115619642Y-86054819D01*
X115619642Y-86054819D02*
X115524404Y-86102438D01*
X115524404Y-86102438D02*
X115476785Y-86150057D01*
X115476785Y-86150057D02*
X115429166Y-86245295D01*
X115429166Y-86245295D02*
X115429166Y-86388152D01*
X115429166Y-86388152D02*
X115476785Y-86483390D01*
X115476785Y-86483390D02*
X115524404Y-86531009D01*
X115524404Y-86531009D02*
X115619642Y-86578628D01*
X115619642Y-86578628D02*
X116000594Y-86578628D01*
X114572023Y-86054819D02*
X114762499Y-86054819D01*
X114762499Y-86054819D02*
X114857737Y-86102438D01*
X114857737Y-86102438D02*
X114905356Y-86150057D01*
X114905356Y-86150057D02*
X115000594Y-86292914D01*
X115000594Y-86292914D02*
X115048213Y-86483390D01*
X115048213Y-86483390D02*
X115048213Y-86864342D01*
X115048213Y-86864342D02*
X115000594Y-86959580D01*
X115000594Y-86959580D02*
X114952975Y-87007200D01*
X114952975Y-87007200D02*
X114857737Y-87054819D01*
X114857737Y-87054819D02*
X114667261Y-87054819D01*
X114667261Y-87054819D02*
X114572023Y-87007200D01*
X114572023Y-87007200D02*
X114524404Y-86959580D01*
X114524404Y-86959580D02*
X114476785Y-86864342D01*
X114476785Y-86864342D02*
X114476785Y-86626247D01*
X114476785Y-86626247D02*
X114524404Y-86531009D01*
X114524404Y-86531009D02*
X114572023Y-86483390D01*
X114572023Y-86483390D02*
X114667261Y-86435771D01*
X114667261Y-86435771D02*
X114857737Y-86435771D01*
X114857737Y-86435771D02*
X114952975Y-86483390D01*
X114952975Y-86483390D02*
X115000594Y-86531009D01*
X115000594Y-86531009D02*
X115048213Y-86626247D01*
X118066666Y-57359580D02*
X118114285Y-57407200D01*
X118114285Y-57407200D02*
X118257142Y-57454819D01*
X118257142Y-57454819D02*
X118352380Y-57454819D01*
X118352380Y-57454819D02*
X118495237Y-57407200D01*
X118495237Y-57407200D02*
X118590475Y-57311961D01*
X118590475Y-57311961D02*
X118638094Y-57216723D01*
X118638094Y-57216723D02*
X118685713Y-57026247D01*
X118685713Y-57026247D02*
X118685713Y-56883390D01*
X118685713Y-56883390D02*
X118638094Y-56692914D01*
X118638094Y-56692914D02*
X118590475Y-56597676D01*
X118590475Y-56597676D02*
X118495237Y-56502438D01*
X118495237Y-56502438D02*
X118352380Y-56454819D01*
X118352380Y-56454819D02*
X118257142Y-56454819D01*
X118257142Y-56454819D02*
X118114285Y-56502438D01*
X118114285Y-56502438D02*
X118066666Y-56550057D01*
X117114285Y-57454819D02*
X117685713Y-57454819D01*
X117399999Y-57454819D02*
X117399999Y-56454819D01*
X117399999Y-56454819D02*
X117495237Y-56597676D01*
X117495237Y-56597676D02*
X117590475Y-56692914D01*
X117590475Y-56692914D02*
X117685713Y-56740533D01*
X92154819Y-106977142D02*
X91678628Y-106643809D01*
X92154819Y-106405714D02*
X91154819Y-106405714D01*
X91154819Y-106405714D02*
X91154819Y-106786666D01*
X91154819Y-106786666D02*
X91202438Y-106881904D01*
X91202438Y-106881904D02*
X91250057Y-106929523D01*
X91250057Y-106929523D02*
X91345295Y-106977142D01*
X91345295Y-106977142D02*
X91488152Y-106977142D01*
X91488152Y-106977142D02*
X91583390Y-106929523D01*
X91583390Y-106929523D02*
X91631009Y-106881904D01*
X91631009Y-106881904D02*
X91678628Y-106786666D01*
X91678628Y-106786666D02*
X91678628Y-106405714D01*
X92154819Y-107929523D02*
X92154819Y-107358095D01*
X92154819Y-107643809D02*
X91154819Y-107643809D01*
X91154819Y-107643809D02*
X91297676Y-107548571D01*
X91297676Y-107548571D02*
X91392914Y-107453333D01*
X91392914Y-107453333D02*
X91440533Y-107358095D01*
X91488152Y-108786666D02*
X92154819Y-108786666D01*
X91107200Y-108548571D02*
X91821485Y-108310476D01*
X91821485Y-108310476D02*
X91821485Y-108929523D01*
X93754819Y-126457142D02*
X93278628Y-126123809D01*
X93754819Y-125885714D02*
X92754819Y-125885714D01*
X92754819Y-125885714D02*
X92754819Y-126266666D01*
X92754819Y-126266666D02*
X92802438Y-126361904D01*
X92802438Y-126361904D02*
X92850057Y-126409523D01*
X92850057Y-126409523D02*
X92945295Y-126457142D01*
X92945295Y-126457142D02*
X93088152Y-126457142D01*
X93088152Y-126457142D02*
X93183390Y-126409523D01*
X93183390Y-126409523D02*
X93231009Y-126361904D01*
X93231009Y-126361904D02*
X93278628Y-126266666D01*
X93278628Y-126266666D02*
X93278628Y-125885714D01*
X93754819Y-127409523D02*
X93754819Y-126838095D01*
X93754819Y-127123809D02*
X92754819Y-127123809D01*
X92754819Y-127123809D02*
X92897676Y-127028571D01*
X92897676Y-127028571D02*
X92992914Y-126933333D01*
X92992914Y-126933333D02*
X93040533Y-126838095D01*
X92850057Y-127790476D02*
X92802438Y-127838095D01*
X92802438Y-127838095D02*
X92754819Y-127933333D01*
X92754819Y-127933333D02*
X92754819Y-128171428D01*
X92754819Y-128171428D02*
X92802438Y-128266666D01*
X92802438Y-128266666D02*
X92850057Y-128314285D01*
X92850057Y-128314285D02*
X92945295Y-128361904D01*
X92945295Y-128361904D02*
X93040533Y-128361904D01*
X93040533Y-128361904D02*
X93183390Y-128314285D01*
X93183390Y-128314285D02*
X93754819Y-127742857D01*
X93754819Y-127742857D02*
X93754819Y-128361904D01*
X111654819Y-81033333D02*
X111178628Y-80700000D01*
X111654819Y-80461905D02*
X110654819Y-80461905D01*
X110654819Y-80461905D02*
X110654819Y-80842857D01*
X110654819Y-80842857D02*
X110702438Y-80938095D01*
X110702438Y-80938095D02*
X110750057Y-80985714D01*
X110750057Y-80985714D02*
X110845295Y-81033333D01*
X110845295Y-81033333D02*
X110988152Y-81033333D01*
X110988152Y-81033333D02*
X111083390Y-80985714D01*
X111083390Y-80985714D02*
X111131009Y-80938095D01*
X111131009Y-80938095D02*
X111178628Y-80842857D01*
X111178628Y-80842857D02*
X111178628Y-80461905D01*
X110654819Y-81366667D02*
X110654819Y-82033333D01*
X110654819Y-82033333D02*
X111654819Y-81604762D01*
X93754819Y-116657142D02*
X93278628Y-116323809D01*
X93754819Y-116085714D02*
X92754819Y-116085714D01*
X92754819Y-116085714D02*
X92754819Y-116466666D01*
X92754819Y-116466666D02*
X92802438Y-116561904D01*
X92802438Y-116561904D02*
X92850057Y-116609523D01*
X92850057Y-116609523D02*
X92945295Y-116657142D01*
X92945295Y-116657142D02*
X93088152Y-116657142D01*
X93088152Y-116657142D02*
X93183390Y-116609523D01*
X93183390Y-116609523D02*
X93231009Y-116561904D01*
X93231009Y-116561904D02*
X93278628Y-116466666D01*
X93278628Y-116466666D02*
X93278628Y-116085714D01*
X93754819Y-117609523D02*
X93754819Y-117038095D01*
X93754819Y-117323809D02*
X92754819Y-117323809D01*
X92754819Y-117323809D02*
X92897676Y-117228571D01*
X92897676Y-117228571D02*
X92992914Y-117133333D01*
X92992914Y-117133333D02*
X93040533Y-117038095D01*
X93754819Y-118561904D02*
X93754819Y-117990476D01*
X93754819Y-118276190D02*
X92754819Y-118276190D01*
X92754819Y-118276190D02*
X92897676Y-118180952D01*
X92897676Y-118180952D02*
X92992914Y-118085714D01*
X92992914Y-118085714D02*
X93040533Y-117990476D01*
X107861904Y-52604819D02*
X107861904Y-53414342D01*
X107861904Y-53414342D02*
X107814285Y-53509580D01*
X107814285Y-53509580D02*
X107766666Y-53557200D01*
X107766666Y-53557200D02*
X107671428Y-53604819D01*
X107671428Y-53604819D02*
X107480952Y-53604819D01*
X107480952Y-53604819D02*
X107385714Y-53557200D01*
X107385714Y-53557200D02*
X107338095Y-53509580D01*
X107338095Y-53509580D02*
X107290476Y-53414342D01*
X107290476Y-53414342D02*
X107290476Y-52604819D01*
X106861904Y-52700057D02*
X106814285Y-52652438D01*
X106814285Y-52652438D02*
X106719047Y-52604819D01*
X106719047Y-52604819D02*
X106480952Y-52604819D01*
X106480952Y-52604819D02*
X106385714Y-52652438D01*
X106385714Y-52652438D02*
X106338095Y-52700057D01*
X106338095Y-52700057D02*
X106290476Y-52795295D01*
X106290476Y-52795295D02*
X106290476Y-52890533D01*
X106290476Y-52890533D02*
X106338095Y-53033390D01*
X106338095Y-53033390D02*
X106909523Y-53604819D01*
X106909523Y-53604819D02*
X106290476Y-53604819D01*
X118654819Y-116957142D02*
X118178628Y-116623809D01*
X118654819Y-116385714D02*
X117654819Y-116385714D01*
X117654819Y-116385714D02*
X117654819Y-116766666D01*
X117654819Y-116766666D02*
X117702438Y-116861904D01*
X117702438Y-116861904D02*
X117750057Y-116909523D01*
X117750057Y-116909523D02*
X117845295Y-116957142D01*
X117845295Y-116957142D02*
X117988152Y-116957142D01*
X117988152Y-116957142D02*
X118083390Y-116909523D01*
X118083390Y-116909523D02*
X118131009Y-116861904D01*
X118131009Y-116861904D02*
X118178628Y-116766666D01*
X118178628Y-116766666D02*
X118178628Y-116385714D01*
X117750057Y-117338095D02*
X117702438Y-117385714D01*
X117702438Y-117385714D02*
X117654819Y-117480952D01*
X117654819Y-117480952D02*
X117654819Y-117719047D01*
X117654819Y-117719047D02*
X117702438Y-117814285D01*
X117702438Y-117814285D02*
X117750057Y-117861904D01*
X117750057Y-117861904D02*
X117845295Y-117909523D01*
X117845295Y-117909523D02*
X117940533Y-117909523D01*
X117940533Y-117909523D02*
X118083390Y-117861904D01*
X118083390Y-117861904D02*
X118654819Y-117290476D01*
X118654819Y-117290476D02*
X118654819Y-117909523D01*
X117988152Y-118766666D02*
X118654819Y-118766666D01*
X117607200Y-118528571D02*
X118321485Y-118290476D01*
X118321485Y-118290476D02*
X118321485Y-118909523D01*
X116254819Y-113107142D02*
X115778628Y-112773809D01*
X116254819Y-112535714D02*
X115254819Y-112535714D01*
X115254819Y-112535714D02*
X115254819Y-112916666D01*
X115254819Y-112916666D02*
X115302438Y-113011904D01*
X115302438Y-113011904D02*
X115350057Y-113059523D01*
X115350057Y-113059523D02*
X115445295Y-113107142D01*
X115445295Y-113107142D02*
X115588152Y-113107142D01*
X115588152Y-113107142D02*
X115683390Y-113059523D01*
X115683390Y-113059523D02*
X115731009Y-113011904D01*
X115731009Y-113011904D02*
X115778628Y-112916666D01*
X115778628Y-112916666D02*
X115778628Y-112535714D01*
X116254819Y-114059523D02*
X116254819Y-113488095D01*
X116254819Y-113773809D02*
X115254819Y-113773809D01*
X115254819Y-113773809D02*
X115397676Y-113678571D01*
X115397676Y-113678571D02*
X115492914Y-113583333D01*
X115492914Y-113583333D02*
X115540533Y-113488095D01*
X116254819Y-114535714D02*
X116254819Y-114726190D01*
X116254819Y-114726190D02*
X116207200Y-114821428D01*
X116207200Y-114821428D02*
X116159580Y-114869047D01*
X116159580Y-114869047D02*
X116016723Y-114964285D01*
X116016723Y-114964285D02*
X115826247Y-115011904D01*
X115826247Y-115011904D02*
X115445295Y-115011904D01*
X115445295Y-115011904D02*
X115350057Y-114964285D01*
X115350057Y-114964285D02*
X115302438Y-114916666D01*
X115302438Y-114916666D02*
X115254819Y-114821428D01*
X115254819Y-114821428D02*
X115254819Y-114630952D01*
X115254819Y-114630952D02*
X115302438Y-114535714D01*
X115302438Y-114535714D02*
X115350057Y-114488095D01*
X115350057Y-114488095D02*
X115445295Y-114440476D01*
X115445295Y-114440476D02*
X115683390Y-114440476D01*
X115683390Y-114440476D02*
X115778628Y-114488095D01*
X115778628Y-114488095D02*
X115826247Y-114535714D01*
X115826247Y-114535714D02*
X115873866Y-114630952D01*
X115873866Y-114630952D02*
X115873866Y-114821428D01*
X115873866Y-114821428D02*
X115826247Y-114916666D01*
X115826247Y-114916666D02*
X115778628Y-114964285D01*
X115778628Y-114964285D02*
X115683390Y-115011904D01*
X116561904Y-74254819D02*
X116561904Y-75064342D01*
X116561904Y-75064342D02*
X116514285Y-75159580D01*
X116514285Y-75159580D02*
X116466666Y-75207200D01*
X116466666Y-75207200D02*
X116371428Y-75254819D01*
X116371428Y-75254819D02*
X116180952Y-75254819D01*
X116180952Y-75254819D02*
X116085714Y-75207200D01*
X116085714Y-75207200D02*
X116038095Y-75159580D01*
X116038095Y-75159580D02*
X115990476Y-75064342D01*
X115990476Y-75064342D02*
X115990476Y-74254819D01*
X115085714Y-74588152D02*
X115085714Y-75254819D01*
X115323809Y-74207200D02*
X115561904Y-74921485D01*
X115561904Y-74921485D02*
X114942857Y-74921485D01*
X93654819Y-106977142D02*
X93178628Y-106643809D01*
X93654819Y-106405714D02*
X92654819Y-106405714D01*
X92654819Y-106405714D02*
X92654819Y-106786666D01*
X92654819Y-106786666D02*
X92702438Y-106881904D01*
X92702438Y-106881904D02*
X92750057Y-106929523D01*
X92750057Y-106929523D02*
X92845295Y-106977142D01*
X92845295Y-106977142D02*
X92988152Y-106977142D01*
X92988152Y-106977142D02*
X93083390Y-106929523D01*
X93083390Y-106929523D02*
X93131009Y-106881904D01*
X93131009Y-106881904D02*
X93178628Y-106786666D01*
X93178628Y-106786666D02*
X93178628Y-106405714D01*
X93654819Y-107929523D02*
X93654819Y-107358095D01*
X93654819Y-107643809D02*
X92654819Y-107643809D01*
X92654819Y-107643809D02*
X92797676Y-107548571D01*
X92797676Y-107548571D02*
X92892914Y-107453333D01*
X92892914Y-107453333D02*
X92940533Y-107358095D01*
X92654819Y-108548571D02*
X92654819Y-108643809D01*
X92654819Y-108643809D02*
X92702438Y-108739047D01*
X92702438Y-108739047D02*
X92750057Y-108786666D01*
X92750057Y-108786666D02*
X92845295Y-108834285D01*
X92845295Y-108834285D02*
X93035771Y-108881904D01*
X93035771Y-108881904D02*
X93273866Y-108881904D01*
X93273866Y-108881904D02*
X93464342Y-108834285D01*
X93464342Y-108834285D02*
X93559580Y-108786666D01*
X93559580Y-108786666D02*
X93607200Y-108739047D01*
X93607200Y-108739047D02*
X93654819Y-108643809D01*
X93654819Y-108643809D02*
X93654819Y-108548571D01*
X93654819Y-108548571D02*
X93607200Y-108453333D01*
X93607200Y-108453333D02*
X93559580Y-108405714D01*
X93559580Y-108405714D02*
X93464342Y-108358095D01*
X93464342Y-108358095D02*
X93273866Y-108310476D01*
X93273866Y-108310476D02*
X93035771Y-108310476D01*
X93035771Y-108310476D02*
X92845295Y-108358095D01*
X92845295Y-108358095D02*
X92750057Y-108405714D01*
X92750057Y-108405714D02*
X92702438Y-108453333D01*
X92702438Y-108453333D02*
X92654819Y-108548571D01*
X95566666Y-79959580D02*
X95614285Y-80007200D01*
X95614285Y-80007200D02*
X95757142Y-80054819D01*
X95757142Y-80054819D02*
X95852380Y-80054819D01*
X95852380Y-80054819D02*
X95995237Y-80007200D01*
X95995237Y-80007200D02*
X96090475Y-79911961D01*
X96090475Y-79911961D02*
X96138094Y-79816723D01*
X96138094Y-79816723D02*
X96185713Y-79626247D01*
X96185713Y-79626247D02*
X96185713Y-79483390D01*
X96185713Y-79483390D02*
X96138094Y-79292914D01*
X96138094Y-79292914D02*
X96090475Y-79197676D01*
X96090475Y-79197676D02*
X95995237Y-79102438D01*
X95995237Y-79102438D02*
X95852380Y-79054819D01*
X95852380Y-79054819D02*
X95757142Y-79054819D01*
X95757142Y-79054819D02*
X95614285Y-79102438D01*
X95614285Y-79102438D02*
X95566666Y-79150057D01*
X95233332Y-79054819D02*
X94566666Y-79054819D01*
X94566666Y-79054819D02*
X94995237Y-80054819D01*
X91474819Y-101463095D02*
X92284342Y-101463095D01*
X92284342Y-101463095D02*
X92379580Y-101510714D01*
X92379580Y-101510714D02*
X92427200Y-101558333D01*
X92427200Y-101558333D02*
X92474819Y-101653571D01*
X92474819Y-101653571D02*
X92474819Y-101844047D01*
X92474819Y-101844047D02*
X92427200Y-101939285D01*
X92427200Y-101939285D02*
X92379580Y-101986904D01*
X92379580Y-101986904D02*
X92284342Y-102034523D01*
X92284342Y-102034523D02*
X91474819Y-102034523D01*
X91474819Y-102415476D02*
X91474819Y-103034523D01*
X91474819Y-103034523D02*
X91855771Y-102701190D01*
X91855771Y-102701190D02*
X91855771Y-102844047D01*
X91855771Y-102844047D02*
X91903390Y-102939285D01*
X91903390Y-102939285D02*
X91951009Y-102986904D01*
X91951009Y-102986904D02*
X92046247Y-103034523D01*
X92046247Y-103034523D02*
X92284342Y-103034523D01*
X92284342Y-103034523D02*
X92379580Y-102986904D01*
X92379580Y-102986904D02*
X92427200Y-102939285D01*
X92427200Y-102939285D02*
X92474819Y-102844047D01*
X92474819Y-102844047D02*
X92474819Y-102558333D01*
X92474819Y-102558333D02*
X92427200Y-102463095D01*
X92427200Y-102463095D02*
X92379580Y-102415476D01*
X93138094Y-59854819D02*
X93138094Y-58854819D01*
X93138094Y-58854819D02*
X92899999Y-58854819D01*
X92899999Y-58854819D02*
X92757142Y-58902438D01*
X92757142Y-58902438D02*
X92661904Y-58997676D01*
X92661904Y-58997676D02*
X92614285Y-59092914D01*
X92614285Y-59092914D02*
X92566666Y-59283390D01*
X92566666Y-59283390D02*
X92566666Y-59426247D01*
X92566666Y-59426247D02*
X92614285Y-59616723D01*
X92614285Y-59616723D02*
X92661904Y-59711961D01*
X92661904Y-59711961D02*
X92757142Y-59807200D01*
X92757142Y-59807200D02*
X92899999Y-59854819D01*
X92899999Y-59854819D02*
X93138094Y-59854819D01*
X91614285Y-59854819D02*
X92185713Y-59854819D01*
X91899999Y-59854819D02*
X91899999Y-58854819D01*
X91899999Y-58854819D02*
X91995237Y-58997676D01*
X91995237Y-58997676D02*
X92090475Y-59092914D01*
X92090475Y-59092914D02*
X92185713Y-59140533D01*
X117054819Y-116957142D02*
X116578628Y-116623809D01*
X117054819Y-116385714D02*
X116054819Y-116385714D01*
X116054819Y-116385714D02*
X116054819Y-116766666D01*
X116054819Y-116766666D02*
X116102438Y-116861904D01*
X116102438Y-116861904D02*
X116150057Y-116909523D01*
X116150057Y-116909523D02*
X116245295Y-116957142D01*
X116245295Y-116957142D02*
X116388152Y-116957142D01*
X116388152Y-116957142D02*
X116483390Y-116909523D01*
X116483390Y-116909523D02*
X116531009Y-116861904D01*
X116531009Y-116861904D02*
X116578628Y-116766666D01*
X116578628Y-116766666D02*
X116578628Y-116385714D01*
X116150057Y-117338095D02*
X116102438Y-117385714D01*
X116102438Y-117385714D02*
X116054819Y-117480952D01*
X116054819Y-117480952D02*
X116054819Y-117719047D01*
X116054819Y-117719047D02*
X116102438Y-117814285D01*
X116102438Y-117814285D02*
X116150057Y-117861904D01*
X116150057Y-117861904D02*
X116245295Y-117909523D01*
X116245295Y-117909523D02*
X116340533Y-117909523D01*
X116340533Y-117909523D02*
X116483390Y-117861904D01*
X116483390Y-117861904D02*
X117054819Y-117290476D01*
X117054819Y-117290476D02*
X117054819Y-117909523D01*
X116054819Y-118528571D02*
X116054819Y-118623809D01*
X116054819Y-118623809D02*
X116102438Y-118719047D01*
X116102438Y-118719047D02*
X116150057Y-118766666D01*
X116150057Y-118766666D02*
X116245295Y-118814285D01*
X116245295Y-118814285D02*
X116435771Y-118861904D01*
X116435771Y-118861904D02*
X116673866Y-118861904D01*
X116673866Y-118861904D02*
X116864342Y-118814285D01*
X116864342Y-118814285D02*
X116959580Y-118766666D01*
X116959580Y-118766666D02*
X117007200Y-118719047D01*
X117007200Y-118719047D02*
X117054819Y-118623809D01*
X117054819Y-118623809D02*
X117054819Y-118528571D01*
X117054819Y-118528571D02*
X117007200Y-118433333D01*
X117007200Y-118433333D02*
X116959580Y-118385714D01*
X116959580Y-118385714D02*
X116864342Y-118338095D01*
X116864342Y-118338095D02*
X116673866Y-118290476D01*
X116673866Y-118290476D02*
X116435771Y-118290476D01*
X116435771Y-118290476D02*
X116245295Y-118338095D01*
X116245295Y-118338095D02*
X116150057Y-118385714D01*
X116150057Y-118385714D02*
X116102438Y-118433333D01*
X116102438Y-118433333D02*
X116054819Y-118528571D01*
X110411904Y-63654819D02*
X110411904Y-64464342D01*
X110411904Y-64464342D02*
X110364285Y-64559580D01*
X110364285Y-64559580D02*
X110316666Y-64607200D01*
X110316666Y-64607200D02*
X110221428Y-64654819D01*
X110221428Y-64654819D02*
X110030952Y-64654819D01*
X110030952Y-64654819D02*
X109935714Y-64607200D01*
X109935714Y-64607200D02*
X109888095Y-64559580D01*
X109888095Y-64559580D02*
X109840476Y-64464342D01*
X109840476Y-64464342D02*
X109840476Y-63654819D01*
X108888095Y-63654819D02*
X109364285Y-63654819D01*
X109364285Y-63654819D02*
X109411904Y-64131009D01*
X109411904Y-64131009D02*
X109364285Y-64083390D01*
X109364285Y-64083390D02*
X109269047Y-64035771D01*
X109269047Y-64035771D02*
X109030952Y-64035771D01*
X109030952Y-64035771D02*
X108935714Y-64083390D01*
X108935714Y-64083390D02*
X108888095Y-64131009D01*
X108888095Y-64131009D02*
X108840476Y-64226247D01*
X108840476Y-64226247D02*
X108840476Y-64464342D01*
X108840476Y-64464342D02*
X108888095Y-64559580D01*
X108888095Y-64559580D02*
X108935714Y-64607200D01*
X108935714Y-64607200D02*
X109030952Y-64654819D01*
X109030952Y-64654819D02*
X109269047Y-64654819D01*
X109269047Y-64654819D02*
X109364285Y-64607200D01*
X109364285Y-64607200D02*
X109411904Y-64559580D01*
X119204819Y-110357142D02*
X118728628Y-110023809D01*
X119204819Y-109785714D02*
X118204819Y-109785714D01*
X118204819Y-109785714D02*
X118204819Y-110166666D01*
X118204819Y-110166666D02*
X118252438Y-110261904D01*
X118252438Y-110261904D02*
X118300057Y-110309523D01*
X118300057Y-110309523D02*
X118395295Y-110357142D01*
X118395295Y-110357142D02*
X118538152Y-110357142D01*
X118538152Y-110357142D02*
X118633390Y-110309523D01*
X118633390Y-110309523D02*
X118681009Y-110261904D01*
X118681009Y-110261904D02*
X118728628Y-110166666D01*
X118728628Y-110166666D02*
X118728628Y-109785714D01*
X118300057Y-110738095D02*
X118252438Y-110785714D01*
X118252438Y-110785714D02*
X118204819Y-110880952D01*
X118204819Y-110880952D02*
X118204819Y-111119047D01*
X118204819Y-111119047D02*
X118252438Y-111214285D01*
X118252438Y-111214285D02*
X118300057Y-111261904D01*
X118300057Y-111261904D02*
X118395295Y-111309523D01*
X118395295Y-111309523D02*
X118490533Y-111309523D01*
X118490533Y-111309523D02*
X118633390Y-111261904D01*
X118633390Y-111261904D02*
X119204819Y-110690476D01*
X119204819Y-110690476D02*
X119204819Y-111309523D01*
X118204819Y-111642857D02*
X118204819Y-112261904D01*
X118204819Y-112261904D02*
X118585771Y-111928571D01*
X118585771Y-111928571D02*
X118585771Y-112071428D01*
X118585771Y-112071428D02*
X118633390Y-112166666D01*
X118633390Y-112166666D02*
X118681009Y-112214285D01*
X118681009Y-112214285D02*
X118776247Y-112261904D01*
X118776247Y-112261904D02*
X119014342Y-112261904D01*
X119014342Y-112261904D02*
X119109580Y-112214285D01*
X119109580Y-112214285D02*
X119157200Y-112166666D01*
X119157200Y-112166666D02*
X119204819Y-112071428D01*
X119204819Y-112071428D02*
X119204819Y-111785714D01*
X119204819Y-111785714D02*
X119157200Y-111690476D01*
X119157200Y-111690476D02*
X119109580Y-111642857D01*
X92154819Y-136757142D02*
X91678628Y-136423809D01*
X92154819Y-136185714D02*
X91154819Y-136185714D01*
X91154819Y-136185714D02*
X91154819Y-136566666D01*
X91154819Y-136566666D02*
X91202438Y-136661904D01*
X91202438Y-136661904D02*
X91250057Y-136709523D01*
X91250057Y-136709523D02*
X91345295Y-136757142D01*
X91345295Y-136757142D02*
X91488152Y-136757142D01*
X91488152Y-136757142D02*
X91583390Y-136709523D01*
X91583390Y-136709523D02*
X91631009Y-136661904D01*
X91631009Y-136661904D02*
X91678628Y-136566666D01*
X91678628Y-136566666D02*
X91678628Y-136185714D01*
X92154819Y-137709523D02*
X92154819Y-137138095D01*
X92154819Y-137423809D02*
X91154819Y-137423809D01*
X91154819Y-137423809D02*
X91297676Y-137328571D01*
X91297676Y-137328571D02*
X91392914Y-137233333D01*
X91392914Y-137233333D02*
X91440533Y-137138095D01*
X91154819Y-138566666D02*
X91154819Y-138376190D01*
X91154819Y-138376190D02*
X91202438Y-138280952D01*
X91202438Y-138280952D02*
X91250057Y-138233333D01*
X91250057Y-138233333D02*
X91392914Y-138138095D01*
X91392914Y-138138095D02*
X91583390Y-138090476D01*
X91583390Y-138090476D02*
X91964342Y-138090476D01*
X91964342Y-138090476D02*
X92059580Y-138138095D01*
X92059580Y-138138095D02*
X92107200Y-138185714D01*
X92107200Y-138185714D02*
X92154819Y-138280952D01*
X92154819Y-138280952D02*
X92154819Y-138471428D01*
X92154819Y-138471428D02*
X92107200Y-138566666D01*
X92107200Y-138566666D02*
X92059580Y-138614285D01*
X92059580Y-138614285D02*
X91964342Y-138661904D01*
X91964342Y-138661904D02*
X91726247Y-138661904D01*
X91726247Y-138661904D02*
X91631009Y-138614285D01*
X91631009Y-138614285D02*
X91583390Y-138566666D01*
X91583390Y-138566666D02*
X91535771Y-138471428D01*
X91535771Y-138471428D02*
X91535771Y-138280952D01*
X91535771Y-138280952D02*
X91583390Y-138185714D01*
X91583390Y-138185714D02*
X91631009Y-138138095D01*
X91631009Y-138138095D02*
X91726247Y-138090476D01*
X115116666Y-64609580D02*
X115164285Y-64657200D01*
X115164285Y-64657200D02*
X115307142Y-64704819D01*
X115307142Y-64704819D02*
X115402380Y-64704819D01*
X115402380Y-64704819D02*
X115545237Y-64657200D01*
X115545237Y-64657200D02*
X115640475Y-64561961D01*
X115640475Y-64561961D02*
X115688094Y-64466723D01*
X115688094Y-64466723D02*
X115735713Y-64276247D01*
X115735713Y-64276247D02*
X115735713Y-64133390D01*
X115735713Y-64133390D02*
X115688094Y-63942914D01*
X115688094Y-63942914D02*
X115640475Y-63847676D01*
X115640475Y-63847676D02*
X115545237Y-63752438D01*
X115545237Y-63752438D02*
X115402380Y-63704819D01*
X115402380Y-63704819D02*
X115307142Y-63704819D01*
X115307142Y-63704819D02*
X115164285Y-63752438D01*
X115164285Y-63752438D02*
X115116666Y-63800057D01*
X114259523Y-63704819D02*
X114449999Y-63704819D01*
X114449999Y-63704819D02*
X114545237Y-63752438D01*
X114545237Y-63752438D02*
X114592856Y-63800057D01*
X114592856Y-63800057D02*
X114688094Y-63942914D01*
X114688094Y-63942914D02*
X114735713Y-64133390D01*
X114735713Y-64133390D02*
X114735713Y-64514342D01*
X114735713Y-64514342D02*
X114688094Y-64609580D01*
X114688094Y-64609580D02*
X114640475Y-64657200D01*
X114640475Y-64657200D02*
X114545237Y-64704819D01*
X114545237Y-64704819D02*
X114354761Y-64704819D01*
X114354761Y-64704819D02*
X114259523Y-64657200D01*
X114259523Y-64657200D02*
X114211904Y-64609580D01*
X114211904Y-64609580D02*
X114164285Y-64514342D01*
X114164285Y-64514342D02*
X114164285Y-64276247D01*
X114164285Y-64276247D02*
X114211904Y-64181009D01*
X114211904Y-64181009D02*
X114259523Y-64133390D01*
X114259523Y-64133390D02*
X114354761Y-64085771D01*
X114354761Y-64085771D02*
X114545237Y-64085771D01*
X114545237Y-64085771D02*
X114640475Y-64133390D01*
X114640475Y-64133390D02*
X114688094Y-64181009D01*
X114688094Y-64181009D02*
X114735713Y-64276247D01*
X117054819Y-146957142D02*
X116578628Y-146623809D01*
X117054819Y-146385714D02*
X116054819Y-146385714D01*
X116054819Y-146385714D02*
X116054819Y-146766666D01*
X116054819Y-146766666D02*
X116102438Y-146861904D01*
X116102438Y-146861904D02*
X116150057Y-146909523D01*
X116150057Y-146909523D02*
X116245295Y-146957142D01*
X116245295Y-146957142D02*
X116388152Y-146957142D01*
X116388152Y-146957142D02*
X116483390Y-146909523D01*
X116483390Y-146909523D02*
X116531009Y-146861904D01*
X116531009Y-146861904D02*
X116578628Y-146766666D01*
X116578628Y-146766666D02*
X116578628Y-146385714D01*
X116150057Y-147338095D02*
X116102438Y-147385714D01*
X116102438Y-147385714D02*
X116054819Y-147480952D01*
X116054819Y-147480952D02*
X116054819Y-147719047D01*
X116054819Y-147719047D02*
X116102438Y-147814285D01*
X116102438Y-147814285D02*
X116150057Y-147861904D01*
X116150057Y-147861904D02*
X116245295Y-147909523D01*
X116245295Y-147909523D02*
X116340533Y-147909523D01*
X116340533Y-147909523D02*
X116483390Y-147861904D01*
X116483390Y-147861904D02*
X117054819Y-147290476D01*
X117054819Y-147290476D02*
X117054819Y-147909523D01*
X116054819Y-148242857D02*
X116054819Y-148909523D01*
X116054819Y-148909523D02*
X117054819Y-148480952D01*
X115166666Y-52454819D02*
X115499999Y-51978628D01*
X115738094Y-52454819D02*
X115738094Y-51454819D01*
X115738094Y-51454819D02*
X115357142Y-51454819D01*
X115357142Y-51454819D02*
X115261904Y-51502438D01*
X115261904Y-51502438D02*
X115214285Y-51550057D01*
X115214285Y-51550057D02*
X115166666Y-51645295D01*
X115166666Y-51645295D02*
X115166666Y-51788152D01*
X115166666Y-51788152D02*
X115214285Y-51883390D01*
X115214285Y-51883390D02*
X115261904Y-51931009D01*
X115261904Y-51931009D02*
X115357142Y-51978628D01*
X115357142Y-51978628D02*
X115738094Y-51978628D01*
X114214285Y-52454819D02*
X114785713Y-52454819D01*
X114499999Y-52454819D02*
X114499999Y-51454819D01*
X114499999Y-51454819D02*
X114595237Y-51597676D01*
X114595237Y-51597676D02*
X114690475Y-51692914D01*
X114690475Y-51692914D02*
X114785713Y-51740533D01*
X118654819Y-136957142D02*
X118178628Y-136623809D01*
X118654819Y-136385714D02*
X117654819Y-136385714D01*
X117654819Y-136385714D02*
X117654819Y-136766666D01*
X117654819Y-136766666D02*
X117702438Y-136861904D01*
X117702438Y-136861904D02*
X117750057Y-136909523D01*
X117750057Y-136909523D02*
X117845295Y-136957142D01*
X117845295Y-136957142D02*
X117988152Y-136957142D01*
X117988152Y-136957142D02*
X118083390Y-136909523D01*
X118083390Y-136909523D02*
X118131009Y-136861904D01*
X118131009Y-136861904D02*
X118178628Y-136766666D01*
X118178628Y-136766666D02*
X118178628Y-136385714D01*
X117750057Y-137338095D02*
X117702438Y-137385714D01*
X117702438Y-137385714D02*
X117654819Y-137480952D01*
X117654819Y-137480952D02*
X117654819Y-137719047D01*
X117654819Y-137719047D02*
X117702438Y-137814285D01*
X117702438Y-137814285D02*
X117750057Y-137861904D01*
X117750057Y-137861904D02*
X117845295Y-137909523D01*
X117845295Y-137909523D02*
X117940533Y-137909523D01*
X117940533Y-137909523D02*
X118083390Y-137861904D01*
X118083390Y-137861904D02*
X118654819Y-137290476D01*
X118654819Y-137290476D02*
X118654819Y-137909523D01*
X118083390Y-138480952D02*
X118035771Y-138385714D01*
X118035771Y-138385714D02*
X117988152Y-138338095D01*
X117988152Y-138338095D02*
X117892914Y-138290476D01*
X117892914Y-138290476D02*
X117845295Y-138290476D01*
X117845295Y-138290476D02*
X117750057Y-138338095D01*
X117750057Y-138338095D02*
X117702438Y-138385714D01*
X117702438Y-138385714D02*
X117654819Y-138480952D01*
X117654819Y-138480952D02*
X117654819Y-138671428D01*
X117654819Y-138671428D02*
X117702438Y-138766666D01*
X117702438Y-138766666D02*
X117750057Y-138814285D01*
X117750057Y-138814285D02*
X117845295Y-138861904D01*
X117845295Y-138861904D02*
X117892914Y-138861904D01*
X117892914Y-138861904D02*
X117988152Y-138814285D01*
X117988152Y-138814285D02*
X118035771Y-138766666D01*
X118035771Y-138766666D02*
X118083390Y-138671428D01*
X118083390Y-138671428D02*
X118083390Y-138480952D01*
X118083390Y-138480952D02*
X118131009Y-138385714D01*
X118131009Y-138385714D02*
X118178628Y-138338095D01*
X118178628Y-138338095D02*
X118273866Y-138290476D01*
X118273866Y-138290476D02*
X118464342Y-138290476D01*
X118464342Y-138290476D02*
X118559580Y-138338095D01*
X118559580Y-138338095D02*
X118607200Y-138385714D01*
X118607200Y-138385714D02*
X118654819Y-138480952D01*
X118654819Y-138480952D02*
X118654819Y-138671428D01*
X118654819Y-138671428D02*
X118607200Y-138766666D01*
X118607200Y-138766666D02*
X118559580Y-138814285D01*
X118559580Y-138814285D02*
X118464342Y-138861904D01*
X118464342Y-138861904D02*
X118273866Y-138861904D01*
X118273866Y-138861904D02*
X118178628Y-138814285D01*
X118178628Y-138814285D02*
X118131009Y-138766666D01*
X118131009Y-138766666D02*
X118083390Y-138671428D01*
X117054819Y-136957142D02*
X116578628Y-136623809D01*
X117054819Y-136385714D02*
X116054819Y-136385714D01*
X116054819Y-136385714D02*
X116054819Y-136766666D01*
X116054819Y-136766666D02*
X116102438Y-136861904D01*
X116102438Y-136861904D02*
X116150057Y-136909523D01*
X116150057Y-136909523D02*
X116245295Y-136957142D01*
X116245295Y-136957142D02*
X116388152Y-136957142D01*
X116388152Y-136957142D02*
X116483390Y-136909523D01*
X116483390Y-136909523D02*
X116531009Y-136861904D01*
X116531009Y-136861904D02*
X116578628Y-136766666D01*
X116578628Y-136766666D02*
X116578628Y-136385714D01*
X116150057Y-137338095D02*
X116102438Y-137385714D01*
X116102438Y-137385714D02*
X116054819Y-137480952D01*
X116054819Y-137480952D02*
X116054819Y-137719047D01*
X116054819Y-137719047D02*
X116102438Y-137814285D01*
X116102438Y-137814285D02*
X116150057Y-137861904D01*
X116150057Y-137861904D02*
X116245295Y-137909523D01*
X116245295Y-137909523D02*
X116340533Y-137909523D01*
X116340533Y-137909523D02*
X116483390Y-137861904D01*
X116483390Y-137861904D02*
X117054819Y-137290476D01*
X117054819Y-137290476D02*
X117054819Y-137909523D01*
X116054819Y-138766666D02*
X116054819Y-138576190D01*
X116054819Y-138576190D02*
X116102438Y-138480952D01*
X116102438Y-138480952D02*
X116150057Y-138433333D01*
X116150057Y-138433333D02*
X116292914Y-138338095D01*
X116292914Y-138338095D02*
X116483390Y-138290476D01*
X116483390Y-138290476D02*
X116864342Y-138290476D01*
X116864342Y-138290476D02*
X116959580Y-138338095D01*
X116959580Y-138338095D02*
X117007200Y-138385714D01*
X117007200Y-138385714D02*
X117054819Y-138480952D01*
X117054819Y-138480952D02*
X117054819Y-138671428D01*
X117054819Y-138671428D02*
X117007200Y-138766666D01*
X117007200Y-138766666D02*
X116959580Y-138814285D01*
X116959580Y-138814285D02*
X116864342Y-138861904D01*
X116864342Y-138861904D02*
X116626247Y-138861904D01*
X116626247Y-138861904D02*
X116531009Y-138814285D01*
X116531009Y-138814285D02*
X116483390Y-138766666D01*
X116483390Y-138766666D02*
X116435771Y-138671428D01*
X116435771Y-138671428D02*
X116435771Y-138480952D01*
X116435771Y-138480952D02*
X116483390Y-138385714D01*
X116483390Y-138385714D02*
X116531009Y-138338095D01*
X116531009Y-138338095D02*
X116626247Y-138290476D01*
X117254819Y-126357142D02*
X116778628Y-126023809D01*
X117254819Y-125785714D02*
X116254819Y-125785714D01*
X116254819Y-125785714D02*
X116254819Y-126166666D01*
X116254819Y-126166666D02*
X116302438Y-126261904D01*
X116302438Y-126261904D02*
X116350057Y-126309523D01*
X116350057Y-126309523D02*
X116445295Y-126357142D01*
X116445295Y-126357142D02*
X116588152Y-126357142D01*
X116588152Y-126357142D02*
X116683390Y-126309523D01*
X116683390Y-126309523D02*
X116731009Y-126261904D01*
X116731009Y-126261904D02*
X116778628Y-126166666D01*
X116778628Y-126166666D02*
X116778628Y-125785714D01*
X116350057Y-126738095D02*
X116302438Y-126785714D01*
X116302438Y-126785714D02*
X116254819Y-126880952D01*
X116254819Y-126880952D02*
X116254819Y-127119047D01*
X116254819Y-127119047D02*
X116302438Y-127214285D01*
X116302438Y-127214285D02*
X116350057Y-127261904D01*
X116350057Y-127261904D02*
X116445295Y-127309523D01*
X116445295Y-127309523D02*
X116540533Y-127309523D01*
X116540533Y-127309523D02*
X116683390Y-127261904D01*
X116683390Y-127261904D02*
X117254819Y-126690476D01*
X117254819Y-126690476D02*
X117254819Y-127309523D01*
X117254819Y-128261904D02*
X117254819Y-127690476D01*
X117254819Y-127976190D02*
X116254819Y-127976190D01*
X116254819Y-127976190D02*
X116397676Y-127880952D01*
X116397676Y-127880952D02*
X116492914Y-127785714D01*
X116492914Y-127785714D02*
X116540533Y-127690476D01*
X118654819Y-146957142D02*
X118178628Y-146623809D01*
X118654819Y-146385714D02*
X117654819Y-146385714D01*
X117654819Y-146385714D02*
X117654819Y-146766666D01*
X117654819Y-146766666D02*
X117702438Y-146861904D01*
X117702438Y-146861904D02*
X117750057Y-146909523D01*
X117750057Y-146909523D02*
X117845295Y-146957142D01*
X117845295Y-146957142D02*
X117988152Y-146957142D01*
X117988152Y-146957142D02*
X118083390Y-146909523D01*
X118083390Y-146909523D02*
X118131009Y-146861904D01*
X118131009Y-146861904D02*
X118178628Y-146766666D01*
X118178628Y-146766666D02*
X118178628Y-146385714D01*
X117750057Y-147338095D02*
X117702438Y-147385714D01*
X117702438Y-147385714D02*
X117654819Y-147480952D01*
X117654819Y-147480952D02*
X117654819Y-147719047D01*
X117654819Y-147719047D02*
X117702438Y-147814285D01*
X117702438Y-147814285D02*
X117750057Y-147861904D01*
X117750057Y-147861904D02*
X117845295Y-147909523D01*
X117845295Y-147909523D02*
X117940533Y-147909523D01*
X117940533Y-147909523D02*
X118083390Y-147861904D01*
X118083390Y-147861904D02*
X118654819Y-147290476D01*
X118654819Y-147290476D02*
X118654819Y-147909523D01*
X118654819Y-148385714D02*
X118654819Y-148576190D01*
X118654819Y-148576190D02*
X118607200Y-148671428D01*
X118607200Y-148671428D02*
X118559580Y-148719047D01*
X118559580Y-148719047D02*
X118416723Y-148814285D01*
X118416723Y-148814285D02*
X118226247Y-148861904D01*
X118226247Y-148861904D02*
X117845295Y-148861904D01*
X117845295Y-148861904D02*
X117750057Y-148814285D01*
X117750057Y-148814285D02*
X117702438Y-148766666D01*
X117702438Y-148766666D02*
X117654819Y-148671428D01*
X117654819Y-148671428D02*
X117654819Y-148480952D01*
X117654819Y-148480952D02*
X117702438Y-148385714D01*
X117702438Y-148385714D02*
X117750057Y-148338095D01*
X117750057Y-148338095D02*
X117845295Y-148290476D01*
X117845295Y-148290476D02*
X118083390Y-148290476D01*
X118083390Y-148290476D02*
X118178628Y-148338095D01*
X118178628Y-148338095D02*
X118226247Y-148385714D01*
X118226247Y-148385714D02*
X118273866Y-148480952D01*
X118273866Y-148480952D02*
X118273866Y-148671428D01*
X118273866Y-148671428D02*
X118226247Y-148766666D01*
X118226247Y-148766666D02*
X118178628Y-148814285D01*
X118178628Y-148814285D02*
X118083390Y-148861904D01*
X91494819Y-91883095D02*
X92304342Y-91883095D01*
X92304342Y-91883095D02*
X92399580Y-91930714D01*
X92399580Y-91930714D02*
X92447200Y-91978333D01*
X92447200Y-91978333D02*
X92494819Y-92073571D01*
X92494819Y-92073571D02*
X92494819Y-92264047D01*
X92494819Y-92264047D02*
X92447200Y-92359285D01*
X92447200Y-92359285D02*
X92399580Y-92406904D01*
X92399580Y-92406904D02*
X92304342Y-92454523D01*
X92304342Y-92454523D02*
X91494819Y-92454523D01*
X92494819Y-93454523D02*
X92494819Y-92883095D01*
X92494819Y-93168809D02*
X91494819Y-93168809D01*
X91494819Y-93168809D02*
X91637676Y-93073571D01*
X91637676Y-93073571D02*
X91732914Y-92978333D01*
X91732914Y-92978333D02*
X91780533Y-92883095D01*
X115466666Y-85354819D02*
X115799999Y-84878628D01*
X116038094Y-85354819D02*
X116038094Y-84354819D01*
X116038094Y-84354819D02*
X115657142Y-84354819D01*
X115657142Y-84354819D02*
X115561904Y-84402438D01*
X115561904Y-84402438D02*
X115514285Y-84450057D01*
X115514285Y-84450057D02*
X115466666Y-84545295D01*
X115466666Y-84545295D02*
X115466666Y-84688152D01*
X115466666Y-84688152D02*
X115514285Y-84783390D01*
X115514285Y-84783390D02*
X115561904Y-84831009D01*
X115561904Y-84831009D02*
X115657142Y-84878628D01*
X115657142Y-84878628D02*
X116038094Y-84878628D01*
X114561904Y-84354819D02*
X115038094Y-84354819D01*
X115038094Y-84354819D02*
X115085713Y-84831009D01*
X115085713Y-84831009D02*
X115038094Y-84783390D01*
X115038094Y-84783390D02*
X114942856Y-84735771D01*
X114942856Y-84735771D02*
X114704761Y-84735771D01*
X114704761Y-84735771D02*
X114609523Y-84783390D01*
X114609523Y-84783390D02*
X114561904Y-84831009D01*
X114561904Y-84831009D02*
X114514285Y-84926247D01*
X114514285Y-84926247D02*
X114514285Y-85164342D01*
X114514285Y-85164342D02*
X114561904Y-85259580D01*
X114561904Y-85259580D02*
X114609523Y-85307200D01*
X114609523Y-85307200D02*
X114704761Y-85354819D01*
X114704761Y-85354819D02*
X114942856Y-85354819D01*
X114942856Y-85354819D02*
X115038094Y-85307200D01*
X115038094Y-85307200D02*
X115085713Y-85259580D01*
D15*
%TO.C,J10*%
X112465000Y-142200000D02*
X114375000Y-142200000D01*
X112465000Y-142865000D02*
X112465000Y-142200000D01*
X114375000Y-142200000D02*
X114375000Y-142865000D01*
%TO.C,J3*%
X95625000Y-125800000D02*
X95625000Y-125135000D01*
X97535000Y-125135000D02*
X97535000Y-125800000D01*
X97535000Y-125800000D02*
X95625000Y-125800000D01*
%TO.C,J11*%
X112465000Y-152200000D02*
X114375000Y-152200000D01*
X112465000Y-152865000D02*
X112465000Y-152200000D01*
X114375000Y-152200000D02*
X114375000Y-152865000D01*
%TO.C,J7*%
X112490000Y-112200000D02*
X114400000Y-112200000D01*
X112490000Y-112865000D02*
X112490000Y-112200000D01*
X114400000Y-112200000D02*
X114400000Y-112865000D01*
%TO.C,J2*%
X95625000Y-115800000D02*
X95625000Y-115135000D01*
X97535000Y-115135000D02*
X97535000Y-115800000D01*
X97535000Y-115800000D02*
X95625000Y-115800000D01*
%TO.C,J8*%
X112490000Y-122200000D02*
X114400000Y-122200000D01*
X112490000Y-122865000D02*
X112490000Y-122200000D01*
X114400000Y-122200000D02*
X114400000Y-122865000D01*
%TO.C,J5*%
X95600000Y-145800000D02*
X95600000Y-145135000D01*
X97510000Y-145135000D02*
X97510000Y-145800000D01*
X97510000Y-145800000D02*
X95600000Y-145800000D01*
%TO.C,J6*%
X95625000Y-155800000D02*
X95625000Y-155135000D01*
X97535000Y-155135000D02*
X97535000Y-155800000D01*
X97535000Y-155800000D02*
X95625000Y-155800000D01*
%TO.C,J4*%
X95600000Y-135800000D02*
X95600000Y-135135000D01*
X97510000Y-135135000D02*
X97510000Y-135800000D01*
X97510000Y-135800000D02*
X95600000Y-135800000D01*
%TO.C,J9*%
X112490000Y-132200000D02*
X114400000Y-132200000D01*
X112490000Y-132865000D02*
X112490000Y-132200000D01*
X114400000Y-132200000D02*
X114400000Y-132865000D01*
%TO.C,R22*%
X91177500Y-150082776D02*
X91177500Y-150592224D01*
X92222500Y-150082776D02*
X92222500Y-150592224D01*
%TO.C,C5*%
X110565000Y-77361252D02*
X110565000Y-76838748D01*
X112035000Y-77361252D02*
X112035000Y-76838748D01*
%TO.C,C4*%
X110453733Y-85890000D02*
X110746267Y-85890000D01*
X110453733Y-86910000D02*
X110746267Y-86910000D01*
%TO.C,R17*%
X91177500Y-120132776D02*
X91177500Y-120642224D01*
X92222500Y-120132776D02*
X92222500Y-120642224D01*
%TO.C,D3*%
X111440000Y-57400000D02*
X111440000Y-59400000D01*
X115450000Y-57400000D02*
X111440000Y-57400000D01*
X115450000Y-59400000D02*
X111440000Y-59400000D01*
%TO.C,J1*%
X110320000Y-87790000D02*
X119440000Y-87790000D01*
X110320000Y-96030000D02*
X111630000Y-96030000D01*
X110320000Y-108370000D02*
X110320000Y-87790000D01*
X111630000Y-89090000D02*
X118130000Y-89090000D01*
X111630000Y-96030000D02*
X111630000Y-89090000D01*
X111630000Y-96030000D02*
X111630000Y-96030000D01*
X111630000Y-100130000D02*
X110320000Y-100130000D01*
X111630000Y-107070000D02*
X111630000Y-100130000D01*
X118130000Y-89090000D02*
X118130000Y-107070000D01*
X118130000Y-107070000D02*
X111630000Y-107070000D01*
X119440000Y-87790000D02*
X119440000Y-108370000D01*
X119440000Y-108370000D02*
X110320000Y-108370000D01*
%TO.C,R8*%
X109177500Y-83657776D02*
X109177500Y-84167224D01*
X110222500Y-83657776D02*
X110222500Y-84167224D01*
%TO.C,R9*%
X98777500Y-80992224D02*
X98777500Y-80482776D01*
X99822500Y-80992224D02*
X99822500Y-80482776D01*
%TO.C,C2*%
X104340000Y-92804437D02*
X105404437Y-91740000D01*
X104340000Y-96260000D02*
X104340000Y-92804437D01*
X105040000Y-91500000D02*
X105040000Y-91000000D01*
X105290000Y-91250000D02*
X104790000Y-91250000D01*
X105540000Y-91740000D02*
X105404437Y-91740000D01*
X105540000Y-96260000D02*
X104340000Y-96260000D01*
X107660000Y-91740000D02*
X107795563Y-91740000D01*
X107660000Y-96260000D02*
X108860000Y-96260000D01*
X108860000Y-92804437D02*
X107795563Y-91740000D01*
X108860000Y-96260000D02*
X108860000Y-92804437D01*
%TO.C,R2*%
X95354724Y-56977500D02*
X94845276Y-56977500D01*
X95354724Y-58022500D02*
X94845276Y-58022500D01*
%TO.C,R4*%
X98927500Y-57645276D02*
X98927500Y-58154724D01*
X99972500Y-57645276D02*
X99972500Y-58154724D01*
%TO.C,R25*%
X117787500Y-129787776D02*
X117787500Y-130297224D01*
X118832500Y-129787776D02*
X118832500Y-130297224D01*
%TO.C,R15*%
X91177500Y-129932776D02*
X91177500Y-130442224D01*
X92222500Y-129932776D02*
X92222500Y-130442224D01*
%TO.C,R13*%
X92777500Y-140742224D02*
X92777500Y-140232776D01*
X93822500Y-140742224D02*
X93822500Y-140232776D01*
%TO.C,R18*%
X92717500Y-150567224D02*
X92717500Y-150057776D01*
X93762500Y-150567224D02*
X93762500Y-150057776D01*
%TO.C,C3*%
X104340000Y-100804437D02*
X105404437Y-99740000D01*
X104340000Y-104260000D02*
X104340000Y-100804437D01*
X105040000Y-99500000D02*
X105040000Y-99000000D01*
X105290000Y-99250000D02*
X104790000Y-99250000D01*
X105540000Y-99740000D02*
X105404437Y-99740000D01*
X105540000Y-104260000D02*
X104340000Y-104260000D01*
X107660000Y-99740000D02*
X107795563Y-99740000D01*
X107660000Y-104260000D02*
X108860000Y-104260000D01*
X108860000Y-100804437D02*
X107795563Y-99740000D01*
X108860000Y-104260000D02*
X108860000Y-100804437D01*
%TO.C,D2*%
X111440000Y-60200000D02*
X111440000Y-62200000D01*
X115450000Y-60200000D02*
X111440000Y-60200000D01*
X115450000Y-62200000D02*
X111440000Y-62200000D01*
%TO.C,R3*%
X112095276Y-62627500D02*
X112604724Y-62627500D01*
X112095276Y-63672500D02*
X112604724Y-63672500D01*
%TO.C,R6*%
X117645276Y-85977500D02*
X118154724Y-85977500D01*
X117645276Y-87022500D02*
X118154724Y-87022500D01*
%TO.C,C1*%
X118046267Y-57890000D02*
X117753733Y-57890000D01*
X118046267Y-58910000D02*
X117753733Y-58910000D01*
%TO.C,R14*%
X91217500Y-110465276D02*
X91217500Y-110974724D01*
X92262500Y-110465276D02*
X92262500Y-110974724D01*
%TO.C,R12*%
X92777500Y-130442224D02*
X92777500Y-129932776D01*
X93822500Y-130442224D02*
X93822500Y-129932776D01*
%TO.C,R7*%
X110777500Y-84167224D02*
X110777500Y-83657776D01*
X111822500Y-84167224D02*
X111822500Y-83657776D01*
%TO.C,R11*%
X92777500Y-120642224D02*
X92777500Y-120132776D01*
X93822500Y-120642224D02*
X93822500Y-120132776D01*
%TO.C,U2*%
X102300000Y-53930000D02*
X105025000Y-53930000D01*
X102300000Y-54190000D02*
X102300000Y-53930000D01*
X102300000Y-59120000D02*
X102300000Y-59380000D01*
X102300000Y-59380000D02*
X105025000Y-59380000D01*
X107750000Y-53930000D02*
X105025000Y-53930000D01*
X107750000Y-54190000D02*
X107750000Y-53930000D01*
X107750000Y-59120000D02*
X107750000Y-59380000D01*
X107750000Y-59380000D02*
X105025000Y-59380000D01*
X101757500Y-59450000D02*
X101277500Y-59450000D01*
X101517500Y-59120000D01*
X101757500Y-59450000D01*
G36*
X101757500Y-59450000D02*
G01*
X101277500Y-59450000D01*
X101517500Y-59120000D01*
X101757500Y-59450000D01*
G37*
%TO.C,R24*%
X117757500Y-120520276D02*
X117757500Y-121029724D01*
X118802500Y-120520276D02*
X118802500Y-121029724D01*
%TO.C,R19*%
X115277500Y-110954724D02*
X115277500Y-110445276D01*
X116322500Y-110954724D02*
X116322500Y-110445276D01*
%TO.C,U4*%
X112590000Y-77740000D02*
X112590000Y-81500000D01*
X113850000Y-77740000D02*
X112590000Y-77740000D01*
X118150000Y-77740000D02*
X119410000Y-77740000D01*
X119410000Y-77740000D02*
X119410000Y-81500000D01*
X119640000Y-83020000D02*
X119310000Y-82780000D01*
X119640000Y-82540000D01*
X119640000Y-83020000D01*
G36*
X119640000Y-83020000D02*
G01*
X119310000Y-82780000D01*
X119640000Y-82540000D01*
X119640000Y-83020000D01*
G37*
%TO.C,R10*%
X92777500Y-110465276D02*
X92777500Y-110974724D01*
X93822500Y-110465276D02*
X93822500Y-110974724D01*
%TO.C,C7*%
X95623752Y-80565000D02*
X95101248Y-80565000D01*
X95623752Y-82035000D02*
X95101248Y-82035000D01*
%TO.C,U3*%
X92865000Y-100275000D02*
X92865000Y-102225000D01*
X92865000Y-104175000D02*
X92865000Y-102225000D01*
X101735000Y-100275000D02*
X101735000Y-102225000D01*
X101735000Y-104175000D02*
X101735000Y-102225000D01*
X92930000Y-99525000D02*
X92600000Y-99765000D01*
X92600000Y-99285000D01*
X92930000Y-99525000D01*
G36*
X92930000Y-99525000D02*
G01*
X92600000Y-99765000D01*
X92600000Y-99285000D01*
X92930000Y-99525000D01*
G37*
%TO.C,D1*%
X94175000Y-58500000D02*
X98185000Y-58500000D01*
X94175000Y-60500000D02*
X98185000Y-60500000D01*
X98185000Y-60500000D02*
X98185000Y-58500000D01*
%TO.C,R20*%
X116177500Y-120992224D02*
X116177500Y-120482776D01*
X117222500Y-120992224D02*
X117222500Y-120482776D01*
%TO.C,U5*%
X109115000Y-66840000D02*
X109115000Y-69600000D01*
X109115000Y-72360000D02*
X109115000Y-69600000D01*
X109320000Y-66840000D02*
X109115000Y-66840000D01*
X109320000Y-72360000D02*
X109115000Y-72360000D01*
X119330000Y-66840000D02*
X119535000Y-66840000D01*
X119330000Y-72360000D02*
X119535000Y-72360000D01*
X119535000Y-66840000D02*
X119535000Y-69600000D01*
X119535000Y-72360000D02*
X119535000Y-69600000D01*
X119660000Y-73390000D02*
X119330000Y-73150000D01*
X119660000Y-72910000D01*
X119660000Y-73390000D01*
G36*
X119660000Y-73390000D02*
G01*
X119330000Y-73150000D01*
X119660000Y-72910000D01*
X119660000Y-73390000D01*
G37*
%TO.C,R23*%
X116877500Y-110445276D02*
X116877500Y-110954724D01*
X117922500Y-110445276D02*
X117922500Y-110954724D01*
%TO.C,R16*%
X91177500Y-140220276D02*
X91177500Y-140729724D01*
X92222500Y-140220276D02*
X92222500Y-140729724D01*
%TO.C,C6*%
X117526248Y-63115000D02*
X118048752Y-63115000D01*
X117526248Y-64585000D02*
X118048752Y-64585000D01*
%TO.C,R27*%
X116177500Y-150942224D02*
X116177500Y-150432776D01*
X117222500Y-150942224D02*
X117222500Y-150432776D01*
%TO.C,R1*%
X112554724Y-51577500D02*
X112045276Y-51577500D01*
X112554724Y-52622500D02*
X112045276Y-52622500D01*
%TO.C,R28*%
X117777500Y-140507776D02*
X117777500Y-141017224D01*
X118822500Y-140507776D02*
X118822500Y-141017224D01*
%TO.C,R26*%
X116227500Y-141004724D02*
X116227500Y-140495276D01*
X117272500Y-141004724D02*
X117272500Y-140495276D01*
%TO.C,R21*%
X116227500Y-130284724D02*
X116227500Y-129775276D01*
X117272500Y-130284724D02*
X117272500Y-129775276D01*
%TO.C,R29*%
X117727500Y-150432776D02*
X117727500Y-150942224D01*
X118772500Y-150432776D02*
X118772500Y-150942224D01*
%TO.C,U1*%
X92885000Y-90695000D02*
X92885000Y-92645000D01*
X92885000Y-94595000D02*
X92885000Y-92645000D01*
X101755000Y-90695000D02*
X101755000Y-92645000D01*
X101755000Y-94595000D02*
X101755000Y-92645000D01*
X92950000Y-89945000D02*
X92620000Y-90185000D01*
X92620000Y-89705000D01*
X92950000Y-89945000D01*
G36*
X92950000Y-89945000D02*
G01*
X92620000Y-90185000D01*
X92620000Y-89705000D01*
X92950000Y-89945000D01*
G37*
%TO.C,R5*%
X118154724Y-84377500D02*
X117645276Y-84377500D01*
X118154724Y-85422500D02*
X117645276Y-85422500D01*
%TD*%
M02*
