%TF.GenerationSoftware,KiCad,Pcbnew,8.0.5+1*%
%TF.CreationDate,2024-11-27T03:26:14+08:00*%
%TF.ProjectId,MiniDiv v0.3 - Main,4d696e69-4469-4762-9076-302e33202d20,0.3*%
%TF.SameCoordinates,Original*%
%TF.FileFunction,Profile,NP*%
%FSLAX46Y46*%
G04 Gerber Fmt 4.6, Leading zero omitted, Abs format (unit mm)*
G04 Created by KiCad (PCBNEW 8.0.5+1) date 2024-11-27 03:26:14*
%MOMM*%
%LPD*%
G01*
G04 APERTURE LIST*
%TA.AperFunction,Profile*%
%ADD10C,0.100000*%
%TD*%
%TA.AperFunction,Profile*%
%ADD11C,0.050000*%
%TD*%
G04 APERTURE END LIST*
D10*
X90000000Y-49000000D02*
X120000000Y-49000000D01*
X120000000Y-159000000D01*
X90000000Y-159000000D01*
X90000000Y-49000000D01*
%TO.C,J10*%
D11*
X112075000Y-144700000D02*
X114775000Y-144700000D01*
X114775000Y-143300000D01*
X112075000Y-143300000D01*
X112075000Y-144700000D01*
%TO.C,J3*%
X97925000Y-123300000D02*
X95225000Y-123300000D01*
X95225000Y-124700000D01*
X97925000Y-124700000D01*
X97925000Y-123300000D01*
%TO.C,J11*%
X112075000Y-154700000D02*
X114775000Y-154700000D01*
X114775000Y-153300000D01*
X112075000Y-153300000D01*
X112075000Y-154700000D01*
%TO.C,J7*%
X112100000Y-114700000D02*
X114800000Y-114700000D01*
X114800000Y-113300000D01*
X112100000Y-113300000D01*
X112100000Y-114700000D01*
%TO.C,J2*%
X97925000Y-113300000D02*
X95225000Y-113300000D01*
X95225000Y-114700000D01*
X97925000Y-114700000D01*
X97925000Y-113300000D01*
%TO.C,J8*%
X112100000Y-124700000D02*
X114800000Y-124700000D01*
X114800000Y-123300000D01*
X112100000Y-123300000D01*
X112100000Y-124700000D01*
%TO.C,J5*%
X97900000Y-143300000D02*
X95200000Y-143300000D01*
X95200000Y-144700000D01*
X97900000Y-144700000D01*
X97900000Y-143300000D01*
%TO.C,J6*%
X97925000Y-153300000D02*
X95225000Y-153300000D01*
X95225000Y-154700000D01*
X97925000Y-154700000D01*
X97925000Y-153300000D01*
%TO.C,J4*%
X97900000Y-133300000D02*
X95200000Y-133300000D01*
X95200000Y-134700000D01*
X97900000Y-134700000D01*
X97900000Y-133300000D01*
%TO.C,J9*%
X112100000Y-134700000D02*
X114800000Y-134700000D01*
X114800000Y-133300000D01*
X112100000Y-133300000D01*
X112100000Y-134700000D01*
%TD*%
M02*
