%TF.GenerationSoftware,KiCad,Pcbnew,8.0.5+1*%
%TF.CreationDate,2024-11-27T03:26:16+08:00*%
%TF.ProjectId,MiniDiv v0.3 - Main,4d696e69-4469-4762-9076-302e33202d20,0.3*%
%TF.SameCoordinates,Original*%
%TF.FileFunction,Drillmap*%
%TF.FilePolarity,Positive*%
%FSLAX45Y45*%
G04 Gerber Fmt 4.5, Leading zero omitted, Abs format (unit mm)*
G04 Created by KiCad (PCBNEW 8.0.5+1) date 2024-11-27 03:26:16*
%MOMM*%
%LPD*%
G01*
G04 APERTURE LIST*
%ADD10C,0.100000*%
%ADD11C,0.050000*%
%ADD12C,0.200000*%
%ADD13C,0.110000*%
%ADD14C,0.122000*%
%ADD15C,0.142000*%
%ADD16C,0.143000*%
G04 APERTURE END LIST*
D10*
X9000000Y-4900000D02*
X12000000Y-4900000D01*
X12000000Y-15900000D01*
X9000000Y-15900000D01*
X9000000Y-4900000D01*
D11*
X11207500Y-14470000D02*
X11477500Y-14470000D01*
X11477500Y-14330000D01*
X11207500Y-14330000D01*
X11207500Y-14470000D01*
X9792500Y-12330000D02*
X9522500Y-12330000D01*
X9522500Y-12470000D01*
X9792500Y-12470000D01*
X9792500Y-12330000D01*
X11207500Y-15470000D02*
X11477500Y-15470000D01*
X11477500Y-15330000D01*
X11207500Y-15330000D01*
X11207500Y-15470000D01*
X11210000Y-11470000D02*
X11480000Y-11470000D01*
X11480000Y-11330000D01*
X11210000Y-11330000D01*
X11210000Y-11470000D01*
X9792500Y-11330000D02*
X9522500Y-11330000D01*
X9522500Y-11470000D01*
X9792500Y-11470000D01*
X9792500Y-11330000D01*
X11210000Y-12470000D02*
X11480000Y-12470000D01*
X11480000Y-12330000D01*
X11210000Y-12330000D01*
X11210000Y-12470000D01*
X9790000Y-14330000D02*
X9520000Y-14330000D01*
X9520000Y-14470000D01*
X9790000Y-14470000D01*
X9790000Y-14330000D01*
X9792500Y-15330000D02*
X9522500Y-15330000D01*
X9522500Y-15470000D01*
X9792500Y-15470000D01*
X9792500Y-15330000D01*
X9790000Y-13330000D02*
X9520000Y-13330000D01*
X9520000Y-13470000D01*
X9790000Y-13470000D01*
X9790000Y-13330000D01*
X11210000Y-13470000D02*
X11480000Y-13470000D01*
X11480000Y-13330000D01*
X11210000Y-13330000D01*
X11210000Y-13470000D01*
D12*
D10*
X9080000Y-5080000D02*
X9120000Y-5120000D01*
X9120000Y-5080000D02*
X9080000Y-5120000D01*
X9080000Y-5180000D02*
X9120000Y-5220000D01*
X9120000Y-5180000D02*
X9080000Y-5220000D01*
X9080000Y-5280000D02*
X9120000Y-5320000D01*
X9120000Y-5280000D02*
X9080000Y-5320000D01*
X9080000Y-5380000D02*
X9120000Y-5420000D01*
X9120000Y-5380000D02*
X9080000Y-5420000D01*
X9080000Y-5480000D02*
X9120000Y-5520000D01*
X9120000Y-5480000D02*
X9080000Y-5520000D01*
X9080000Y-5580000D02*
X9120000Y-5620000D01*
X9120000Y-5580000D02*
X9080000Y-5620000D01*
X9080000Y-5680000D02*
X9120000Y-5720000D01*
X9120000Y-5680000D02*
X9080000Y-5720000D01*
X9080000Y-5780000D02*
X9120000Y-5820000D01*
X9120000Y-5780000D02*
X9080000Y-5820000D01*
X9180000Y-5080000D02*
X9220000Y-5120000D01*
X9220000Y-5080000D02*
X9180000Y-5120000D01*
X9180000Y-5180000D02*
X9220000Y-5220000D01*
X9220000Y-5180000D02*
X9180000Y-5220000D01*
X9180000Y-5280000D02*
X9220000Y-5320000D01*
X9220000Y-5280000D02*
X9180000Y-5320000D01*
X9180000Y-5380000D02*
X9220000Y-5420000D01*
X9220000Y-5380000D02*
X9180000Y-5420000D01*
X9180000Y-5480000D02*
X9220000Y-5520000D01*
X9220000Y-5480000D02*
X9180000Y-5520000D01*
X9180000Y-5580000D02*
X9220000Y-5620000D01*
X9220000Y-5580000D02*
X9180000Y-5620000D01*
X9180000Y-5680000D02*
X9220000Y-5720000D01*
X9220000Y-5680000D02*
X9180000Y-5720000D01*
X9258000Y-12688000D02*
X9298000Y-12728000D01*
X9298000Y-12688000D02*
X9258000Y-12728000D01*
X9280000Y-5080000D02*
X9320000Y-5120000D01*
X9320000Y-5080000D02*
X9280000Y-5120000D01*
X9280000Y-5180000D02*
X9320000Y-5220000D01*
X9320000Y-5180000D02*
X9280000Y-5220000D01*
X9280000Y-5280000D02*
X9320000Y-5320000D01*
X9320000Y-5280000D02*
X9280000Y-5320000D01*
X9280000Y-5380000D02*
X9320000Y-5420000D01*
X9320000Y-5380000D02*
X9280000Y-5420000D01*
X9280000Y-5480000D02*
X9320000Y-5520000D01*
X9320000Y-5480000D02*
X9280000Y-5520000D01*
X9280000Y-5580000D02*
X9320000Y-5620000D01*
X9320000Y-5580000D02*
X9280000Y-5620000D01*
X9285000Y-13764000D02*
X9325000Y-13804000D01*
X9325000Y-13764000D02*
X9285000Y-13804000D01*
X9317000Y-14744000D02*
X9357000Y-14784000D01*
X9357000Y-14744000D02*
X9317000Y-14784000D01*
X9329000Y-10140000D02*
X9369000Y-10180000D01*
X9369000Y-10140000D02*
X9329000Y-10180000D01*
X9352500Y-10620000D02*
X9392500Y-10660000D01*
X9392500Y-10620000D02*
X9352500Y-10660000D01*
X9377500Y-9795000D02*
X9417500Y-9835000D01*
X9417500Y-9795000D02*
X9377500Y-9835000D01*
X9380000Y-5080000D02*
X9420000Y-5120000D01*
X9420000Y-5080000D02*
X9380000Y-5120000D01*
X9380000Y-5180000D02*
X9420000Y-5220000D01*
X9420000Y-5180000D02*
X9380000Y-5220000D01*
X9380000Y-5280000D02*
X9420000Y-5320000D01*
X9420000Y-5280000D02*
X9380000Y-5320000D01*
X9380000Y-5380000D02*
X9420000Y-5420000D01*
X9420000Y-5380000D02*
X9380000Y-5420000D01*
X9380000Y-5480000D02*
X9420000Y-5520000D01*
X9420000Y-5480000D02*
X9380000Y-5520000D01*
X9380000Y-6280000D02*
X9420000Y-6320000D01*
X9420000Y-6280000D02*
X9380000Y-6320000D01*
X9380000Y-6380000D02*
X9420000Y-6420000D01*
X9420000Y-6380000D02*
X9380000Y-6420000D01*
X9380000Y-6480000D02*
X9420000Y-6520000D01*
X9420000Y-6480000D02*
X9380000Y-6520000D01*
X9380000Y-6580000D02*
X9420000Y-6620000D01*
X9420000Y-6580000D02*
X9380000Y-6620000D01*
X9380000Y-6680000D02*
X9420000Y-6720000D01*
X9420000Y-6680000D02*
X9380000Y-6720000D01*
X9380000Y-6780000D02*
X9420000Y-6820000D01*
X9420000Y-6780000D02*
X9380000Y-6820000D01*
X9380000Y-6880000D02*
X9420000Y-6920000D01*
X9420000Y-6880000D02*
X9380000Y-6920000D01*
X9380000Y-6980000D02*
X9420000Y-7020000D01*
X9420000Y-6980000D02*
X9380000Y-7020000D01*
X9380000Y-7080000D02*
X9420000Y-7120000D01*
X9420000Y-7080000D02*
X9380000Y-7120000D01*
X9380000Y-7180000D02*
X9420000Y-7220000D01*
X9420000Y-7180000D02*
X9380000Y-7220000D01*
X9380000Y-7280000D02*
X9420000Y-7320000D01*
X9420000Y-7280000D02*
X9380000Y-7320000D01*
X9480000Y-6180000D02*
X9520000Y-6220000D01*
X9520000Y-6180000D02*
X9480000Y-6220000D01*
X9480000Y-6280000D02*
X9520000Y-6320000D01*
X9520000Y-6280000D02*
X9480000Y-6320000D01*
X9480000Y-6380000D02*
X9520000Y-6420000D01*
X9520000Y-6380000D02*
X9480000Y-6420000D01*
X9480000Y-6480000D02*
X9520000Y-6520000D01*
X9520000Y-6480000D02*
X9480000Y-6520000D01*
X9480000Y-6580000D02*
X9520000Y-6620000D01*
X9520000Y-6580000D02*
X9480000Y-6620000D01*
X9480000Y-6680000D02*
X9520000Y-6720000D01*
X9520000Y-6680000D02*
X9480000Y-6720000D01*
X9480000Y-6780000D02*
X9520000Y-6820000D01*
X9520000Y-6780000D02*
X9480000Y-6820000D01*
X9480000Y-6880000D02*
X9520000Y-6920000D01*
X9520000Y-6880000D02*
X9480000Y-6920000D01*
X9480000Y-6980000D02*
X9520000Y-7020000D01*
X9520000Y-6980000D02*
X9480000Y-7020000D01*
X9480000Y-7080000D02*
X9520000Y-7120000D01*
X9520000Y-7080000D02*
X9480000Y-7120000D01*
X9480000Y-7180000D02*
X9520000Y-7220000D01*
X9520000Y-7180000D02*
X9480000Y-7220000D01*
X9480000Y-7280000D02*
X9520000Y-7320000D01*
X9520000Y-7280000D02*
X9480000Y-7320000D01*
X9480000Y-7380000D02*
X9520000Y-7420000D01*
X9520000Y-7380000D02*
X9480000Y-7420000D01*
X9499920Y-10617520D02*
X9539920Y-10657520D01*
X9539920Y-10617520D02*
X9499920Y-10657520D01*
X9500000Y-11872000D02*
X9540000Y-11912000D01*
X9540000Y-11872000D02*
X9500000Y-11912000D01*
X9579250Y-8799500D02*
X9619250Y-8839500D01*
X9619250Y-8799500D02*
X9579250Y-8839500D01*
X9580000Y-6180000D02*
X9620000Y-6220000D01*
X9620000Y-6180000D02*
X9580000Y-6220000D01*
X9580000Y-6280000D02*
X9620000Y-6320000D01*
X9620000Y-6280000D02*
X9580000Y-6320000D01*
X9580000Y-6380000D02*
X9620000Y-6420000D01*
X9620000Y-6380000D02*
X9580000Y-6420000D01*
X9580000Y-6480000D02*
X9620000Y-6520000D01*
X9620000Y-6480000D02*
X9580000Y-6520000D01*
X9580000Y-6580000D02*
X9620000Y-6620000D01*
X9620000Y-6580000D02*
X9580000Y-6620000D01*
X9580000Y-6680000D02*
X9620000Y-6720000D01*
X9620000Y-6680000D02*
X9580000Y-6720000D01*
X9580000Y-6780000D02*
X9620000Y-6820000D01*
X9620000Y-6780000D02*
X9580000Y-6820000D01*
X9580000Y-6880000D02*
X9620000Y-6920000D01*
X9620000Y-6880000D02*
X9580000Y-6920000D01*
X9580000Y-6980000D02*
X9620000Y-7020000D01*
X9620000Y-6980000D02*
X9580000Y-7020000D01*
X9580000Y-7080000D02*
X9620000Y-7120000D01*
X9620000Y-7080000D02*
X9580000Y-7120000D01*
X9580000Y-7180000D02*
X9620000Y-7220000D01*
X9620000Y-7180000D02*
X9580000Y-7220000D01*
X9580000Y-7280000D02*
X9620000Y-7320000D01*
X9620000Y-7280000D02*
X9580000Y-7320000D01*
X9580000Y-7380000D02*
X9620000Y-7420000D01*
X9620000Y-7380000D02*
X9580000Y-7420000D01*
X9580000Y-10140000D02*
X9620000Y-10180000D01*
X9620000Y-10140000D02*
X9580000Y-10180000D01*
X9598500Y-9673000D02*
X9638500Y-9713000D01*
X9638500Y-9673000D02*
X9598500Y-9713000D01*
X9625000Y-10886000D02*
X9665000Y-10926000D01*
X9665000Y-10886000D02*
X9625000Y-10926000D01*
X9680000Y-6180000D02*
X9720000Y-6220000D01*
X9720000Y-6180000D02*
X9680000Y-6220000D01*
X9680000Y-6280000D02*
X9720000Y-6320000D01*
X9720000Y-6280000D02*
X9680000Y-6320000D01*
X9680000Y-6380000D02*
X9720000Y-6420000D01*
X9720000Y-6380000D02*
X9680000Y-6420000D01*
X9680000Y-6480000D02*
X9720000Y-6520000D01*
X9720000Y-6480000D02*
X9680000Y-6520000D01*
X9680000Y-6580000D02*
X9720000Y-6620000D01*
X9720000Y-6580000D02*
X9680000Y-6620000D01*
X9680000Y-6680000D02*
X9720000Y-6720000D01*
X9720000Y-6680000D02*
X9680000Y-6720000D01*
X9680000Y-6780000D02*
X9720000Y-6820000D01*
X9720000Y-6780000D02*
X9680000Y-6820000D01*
X9680000Y-6880000D02*
X9720000Y-6920000D01*
X9720000Y-6880000D02*
X9680000Y-6920000D01*
X9680000Y-6980000D02*
X9720000Y-7020000D01*
X9720000Y-6980000D02*
X9680000Y-7020000D01*
X9680000Y-7080000D02*
X9720000Y-7120000D01*
X9720000Y-7080000D02*
X9680000Y-7120000D01*
X9680000Y-7180000D02*
X9720000Y-7220000D01*
X9720000Y-7180000D02*
X9680000Y-7220000D01*
X9680000Y-7280000D02*
X9720000Y-7320000D01*
X9720000Y-7280000D02*
X9680000Y-7320000D01*
X9680000Y-7380000D02*
X9720000Y-7420000D01*
X9720000Y-7380000D02*
X9680000Y-7420000D01*
X9680000Y-9347500D02*
X9720000Y-9387500D01*
X9720000Y-9347500D02*
X9680000Y-9387500D01*
X9687000Y-11115000D02*
X9727000Y-11155000D01*
X9727000Y-11115000D02*
X9687000Y-11155000D01*
X9710000Y-10140000D02*
X9750000Y-10180000D01*
X9750000Y-10140000D02*
X9710000Y-10180000D01*
X9744000Y-10913000D02*
X9784000Y-10953000D01*
X9784000Y-10913000D02*
X9744000Y-10953000D01*
X9750000Y-5695000D02*
X9790000Y-5735000D01*
X9790000Y-5695000D02*
X9750000Y-5735000D01*
X9780000Y-6280000D02*
X9820000Y-6320000D01*
X9820000Y-6280000D02*
X9780000Y-6320000D01*
X9780000Y-6380000D02*
X9820000Y-6420000D01*
X9820000Y-6380000D02*
X9780000Y-6420000D01*
X9780000Y-6480000D02*
X9820000Y-6520000D01*
X9820000Y-6480000D02*
X9780000Y-6520000D01*
X9780000Y-6580000D02*
X9820000Y-6620000D01*
X9820000Y-6580000D02*
X9780000Y-6620000D01*
X9780000Y-6680000D02*
X9820000Y-6720000D01*
X9820000Y-6680000D02*
X9780000Y-6720000D01*
X9780000Y-6780000D02*
X9820000Y-6820000D01*
X9820000Y-6780000D02*
X9780000Y-6820000D01*
X9780000Y-6880000D02*
X9820000Y-6920000D01*
X9820000Y-6880000D02*
X9780000Y-6920000D01*
X9780000Y-6980000D02*
X9820000Y-7020000D01*
X9820000Y-6980000D02*
X9780000Y-7020000D01*
X9780000Y-7080000D02*
X9820000Y-7120000D01*
X9820000Y-7080000D02*
X9780000Y-7120000D01*
X9780000Y-7180000D02*
X9820000Y-7220000D01*
X9820000Y-7180000D02*
X9780000Y-7220000D01*
X9780000Y-7280000D02*
X9820000Y-7320000D01*
X9820000Y-7280000D02*
X9780000Y-7320000D01*
X9827235Y-10109765D02*
X9867235Y-10149765D01*
X9867235Y-10109765D02*
X9827235Y-10149765D01*
X9849250Y-8799500D02*
X9889250Y-8839500D01*
X9889250Y-8799500D02*
X9849250Y-8839500D01*
X9860000Y-10998000D02*
X9900000Y-11038000D01*
X9900000Y-10998000D02*
X9860000Y-11038000D01*
X9880000Y-7490000D02*
X9920000Y-7530000D01*
X9920000Y-7490000D02*
X9880000Y-7530000D01*
X9921560Y-10307640D02*
X9961560Y-10347640D01*
X9961560Y-10307640D02*
X9921560Y-10347640D01*
X9966000Y-9289500D02*
X10006000Y-9329500D01*
X10006000Y-9289500D02*
X9966000Y-9329500D01*
X9980000Y-4980000D02*
X10020000Y-5020000D01*
X10020000Y-4980000D02*
X9980000Y-5020000D01*
X9980000Y-5080000D02*
X10020000Y-5120000D01*
X10020000Y-5080000D02*
X9980000Y-5120000D01*
X9980000Y-5180000D02*
X10020000Y-5220000D01*
X10020000Y-5180000D02*
X9980000Y-5220000D01*
X9980000Y-5280000D02*
X10020000Y-5320000D01*
X10020000Y-5280000D02*
X9980000Y-5320000D01*
X9980000Y-5380000D02*
X10020000Y-5420000D01*
X10020000Y-5380000D02*
X9980000Y-5420000D01*
X9980000Y-10755000D02*
X10020000Y-10795000D01*
X10020000Y-10755000D02*
X9980000Y-10795000D01*
X10055000Y-10680000D02*
X10095000Y-10720000D01*
X10095000Y-10680000D02*
X10055000Y-10720000D01*
X10080000Y-4980000D02*
X10120000Y-5020000D01*
X10120000Y-4980000D02*
X10080000Y-5020000D01*
X10080000Y-5080000D02*
X10120000Y-5120000D01*
X10120000Y-5080000D02*
X10080000Y-5120000D01*
X10080000Y-5180000D02*
X10120000Y-5220000D01*
X10120000Y-5180000D02*
X10080000Y-5220000D01*
X10080000Y-5280000D02*
X10120000Y-5320000D01*
X10120000Y-5280000D02*
X10080000Y-5320000D01*
X10130000Y-10755000D02*
X10170000Y-10795000D01*
X10170000Y-10755000D02*
X10130000Y-10795000D01*
X10180000Y-4980000D02*
X10220000Y-5020000D01*
X10220000Y-4980000D02*
X10180000Y-5020000D01*
X10180000Y-5080000D02*
X10220000Y-5120000D01*
X10220000Y-5080000D02*
X10180000Y-5120000D01*
X10180000Y-5180000D02*
X10220000Y-5220000D01*
X10220000Y-5180000D02*
X10180000Y-5220000D01*
X10180000Y-5280000D02*
X10220000Y-5320000D01*
X10220000Y-5280000D02*
X10180000Y-5320000D01*
X10192840Y-9705160D02*
X10232840Y-9745160D01*
X10232840Y-9705160D02*
X10192840Y-9745160D01*
X10205000Y-10680000D02*
X10245000Y-10720000D01*
X10245000Y-10680000D02*
X10205000Y-10720000D01*
X10280000Y-4980000D02*
X10320000Y-5020000D01*
X10320000Y-4980000D02*
X10280000Y-5020000D01*
X10280000Y-5080000D02*
X10320000Y-5120000D01*
X10320000Y-5080000D02*
X10280000Y-5120000D01*
X10280000Y-5180000D02*
X10320000Y-5220000D01*
X10320000Y-5180000D02*
X10280000Y-5220000D01*
X10280000Y-5280000D02*
X10320000Y-5320000D01*
X10320000Y-5280000D02*
X10280000Y-5320000D01*
X10280000Y-6380000D02*
X10320000Y-6420000D01*
X10320000Y-6380000D02*
X10280000Y-6420000D01*
X10280000Y-6480000D02*
X10320000Y-6520000D01*
X10320000Y-6480000D02*
X10280000Y-6520000D01*
X10280000Y-6580000D02*
X10320000Y-6620000D01*
X10320000Y-6580000D02*
X10280000Y-6620000D01*
X10280000Y-6680000D02*
X10320000Y-6720000D01*
X10320000Y-6680000D02*
X10280000Y-6720000D01*
X10280000Y-10755000D02*
X10320000Y-10795000D01*
X10320000Y-10755000D02*
X10280000Y-10795000D01*
X10355000Y-10680000D02*
X10395000Y-10720000D01*
X10395000Y-10680000D02*
X10355000Y-10720000D01*
X10380000Y-4980000D02*
X10420000Y-5020000D01*
X10420000Y-4980000D02*
X10380000Y-5020000D01*
X10380000Y-5080000D02*
X10420000Y-5120000D01*
X10420000Y-5080000D02*
X10380000Y-5120000D01*
X10380000Y-5180000D02*
X10420000Y-5220000D01*
X10420000Y-5180000D02*
X10380000Y-5220000D01*
X10380000Y-5280000D02*
X10420000Y-5320000D01*
X10420000Y-5280000D02*
X10380000Y-5320000D01*
X10380000Y-6480000D02*
X10420000Y-6520000D01*
X10420000Y-6480000D02*
X10380000Y-6520000D01*
X10380000Y-6580000D02*
X10420000Y-6620000D01*
X10420000Y-6580000D02*
X10380000Y-6620000D01*
X10380000Y-6680000D02*
X10420000Y-6720000D01*
X10420000Y-6680000D02*
X10380000Y-6720000D01*
X10380000Y-6780000D02*
X10420000Y-6820000D01*
X10420000Y-6780000D02*
X10380000Y-6820000D01*
X10380000Y-9780000D02*
X10420000Y-9820000D01*
X10420000Y-9780000D02*
X10380000Y-9820000D01*
X10380000Y-9880000D02*
X10420000Y-9920000D01*
X10420000Y-9880000D02*
X10380000Y-9920000D01*
X10380000Y-9980000D02*
X10420000Y-10020000D01*
X10420000Y-9980000D02*
X10380000Y-10020000D01*
X10380000Y-10080000D02*
X10420000Y-10120000D01*
X10420000Y-10080000D02*
X10380000Y-10120000D01*
X10380000Y-10180000D02*
X10420000Y-10220000D01*
X10420000Y-10180000D02*
X10380000Y-10220000D01*
X10380000Y-10280000D02*
X10420000Y-10320000D01*
X10420000Y-10280000D02*
X10380000Y-10320000D01*
X10420000Y-5770000D02*
X10460000Y-5810000D01*
X10460000Y-5770000D02*
X10420000Y-5810000D01*
X10430000Y-10755000D02*
X10470000Y-10795000D01*
X10470000Y-10755000D02*
X10430000Y-10795000D01*
X10475000Y-7080000D02*
X10515000Y-7120000D01*
X10515000Y-7080000D02*
X10475000Y-7120000D01*
X10480000Y-4980000D02*
X10520000Y-5020000D01*
X10520000Y-4980000D02*
X10480000Y-5020000D01*
X10480000Y-5080000D02*
X10520000Y-5120000D01*
X10520000Y-5080000D02*
X10480000Y-5120000D01*
X10480000Y-5180000D02*
X10520000Y-5220000D01*
X10520000Y-5180000D02*
X10480000Y-5220000D01*
X10480000Y-5280000D02*
X10520000Y-5320000D01*
X10520000Y-5280000D02*
X10480000Y-5320000D01*
X10480000Y-5380000D02*
X10520000Y-5420000D01*
X10520000Y-5380000D02*
X10480000Y-5420000D01*
X10480000Y-5480000D02*
X10520000Y-5520000D01*
X10520000Y-5480000D02*
X10480000Y-5520000D01*
X10480000Y-6580000D02*
X10520000Y-6620000D01*
X10520000Y-6580000D02*
X10480000Y-6620000D01*
X10480000Y-6680000D02*
X10520000Y-6720000D01*
X10520000Y-6680000D02*
X10480000Y-6720000D01*
X10480000Y-6780000D02*
X10520000Y-6820000D01*
X10520000Y-6780000D02*
X10480000Y-6820000D01*
X10480000Y-6880000D02*
X10520000Y-6920000D01*
X10520000Y-6880000D02*
X10480000Y-6920000D01*
X10480000Y-6980000D02*
X10520000Y-7020000D01*
X10520000Y-6980000D02*
X10480000Y-7020000D01*
X10480000Y-9780000D02*
X10520000Y-9820000D01*
X10520000Y-9780000D02*
X10480000Y-9820000D01*
X10480000Y-9880000D02*
X10520000Y-9920000D01*
X10520000Y-9880000D02*
X10480000Y-9920000D01*
X10480000Y-9980000D02*
X10520000Y-10020000D01*
X10520000Y-9980000D02*
X10480000Y-10020000D01*
X10480000Y-10080000D02*
X10520000Y-10120000D01*
X10520000Y-10080000D02*
X10480000Y-10120000D01*
X10480000Y-10180000D02*
X10520000Y-10220000D01*
X10520000Y-10180000D02*
X10480000Y-10220000D01*
X10480000Y-10280000D02*
X10520000Y-10320000D01*
X10520000Y-10280000D02*
X10480000Y-10320000D01*
X10480000Y-10380000D02*
X10520000Y-10420000D01*
X10520000Y-10380000D02*
X10480000Y-10420000D01*
X10550322Y-5753978D02*
X10590322Y-5793978D01*
X10590322Y-5753978D02*
X10550322Y-5793978D01*
X10580000Y-4980000D02*
X10620000Y-5020000D01*
X10620000Y-4980000D02*
X10580000Y-5020000D01*
X10580000Y-5080000D02*
X10620000Y-5120000D01*
X10620000Y-5080000D02*
X10580000Y-5120000D01*
X10580000Y-5180000D02*
X10620000Y-5220000D01*
X10620000Y-5180000D02*
X10580000Y-5220000D01*
X10580000Y-5280000D02*
X10620000Y-5320000D01*
X10620000Y-5280000D02*
X10580000Y-5320000D01*
X10580000Y-6680000D02*
X10620000Y-6720000D01*
X10620000Y-6680000D02*
X10580000Y-6720000D01*
X10580000Y-6780000D02*
X10620000Y-6820000D01*
X10620000Y-6780000D02*
X10580000Y-6820000D01*
X10580000Y-6880000D02*
X10620000Y-6920000D01*
X10620000Y-6880000D02*
X10580000Y-6920000D01*
X10580000Y-6980000D02*
X10620000Y-7020000D01*
X10620000Y-6980000D02*
X10580000Y-7020000D01*
X10580000Y-7080000D02*
X10620000Y-7120000D01*
X10620000Y-7080000D02*
X10580000Y-7120000D01*
X10580000Y-7180000D02*
X10620000Y-7220000D01*
X10620000Y-7180000D02*
X10580000Y-7220000D01*
X10580000Y-7280000D02*
X10620000Y-7320000D01*
X10620000Y-7280000D02*
X10580000Y-7320000D01*
X10580000Y-7380000D02*
X10620000Y-7420000D01*
X10620000Y-7380000D02*
X10580000Y-7420000D01*
X10580000Y-10755000D02*
X10620000Y-10795000D01*
X10620000Y-10755000D02*
X10580000Y-10795000D01*
X10620000Y-6467500D02*
X10660000Y-6507500D01*
X10660000Y-6467500D02*
X10620000Y-6507500D01*
X10630000Y-5930000D02*
X10670000Y-5970000D01*
X10670000Y-5930000D02*
X10630000Y-5970000D01*
X10680000Y-4980000D02*
X10720000Y-5020000D01*
X10720000Y-4980000D02*
X10680000Y-5020000D01*
X10680000Y-5080000D02*
X10720000Y-5120000D01*
X10720000Y-5080000D02*
X10680000Y-5120000D01*
X10680000Y-5180000D02*
X10720000Y-5220000D01*
X10720000Y-5180000D02*
X10680000Y-5220000D01*
X10680000Y-5280000D02*
X10720000Y-5320000D01*
X10720000Y-5280000D02*
X10680000Y-5320000D01*
X10680000Y-6680000D02*
X10720000Y-6720000D01*
X10720000Y-6680000D02*
X10680000Y-6720000D01*
X10680000Y-6780000D02*
X10720000Y-6820000D01*
X10720000Y-6780000D02*
X10680000Y-6820000D01*
X10680000Y-6880000D02*
X10720000Y-6920000D01*
X10720000Y-6880000D02*
X10680000Y-6920000D01*
X10680000Y-6980000D02*
X10720000Y-7020000D01*
X10720000Y-6980000D02*
X10680000Y-7020000D01*
X10730000Y-5930000D02*
X10770000Y-5970000D01*
X10770000Y-5930000D02*
X10730000Y-5970000D01*
X10730000Y-10755000D02*
X10770000Y-10795000D01*
X10770000Y-10755000D02*
X10730000Y-10795000D01*
X10780000Y-4980000D02*
X10820000Y-5020000D01*
X10820000Y-4980000D02*
X10780000Y-5020000D01*
X10780000Y-5080000D02*
X10820000Y-5120000D01*
X10820000Y-5080000D02*
X10780000Y-5120000D01*
X10780000Y-6680000D02*
X10820000Y-6720000D01*
X10820000Y-6680000D02*
X10780000Y-6720000D01*
X10780000Y-6780000D02*
X10820000Y-6820000D01*
X10820000Y-6780000D02*
X10780000Y-6820000D01*
X10780000Y-6880000D02*
X10820000Y-6920000D01*
X10820000Y-6880000D02*
X10780000Y-6920000D01*
X10880000Y-4980000D02*
X10920000Y-5020000D01*
X10920000Y-4980000D02*
X10880000Y-5020000D01*
X10880000Y-9480000D02*
X10920000Y-9520000D01*
X10920000Y-9480000D02*
X10880000Y-9520000D01*
X10880000Y-9580000D02*
X10920000Y-9620000D01*
X10920000Y-9580000D02*
X10880000Y-9620000D01*
X10880000Y-9680000D02*
X10920000Y-9720000D01*
X10920000Y-9680000D02*
X10880000Y-9720000D01*
X10880000Y-9780000D02*
X10920000Y-9820000D01*
X10920000Y-9780000D02*
X10880000Y-9820000D01*
X10880000Y-9880000D02*
X10920000Y-9920000D01*
X10920000Y-9880000D02*
X10880000Y-9920000D01*
X10880000Y-9980000D02*
X10920000Y-10020000D01*
X10920000Y-9980000D02*
X10880000Y-10020000D01*
X10880000Y-10080000D02*
X10920000Y-10120000D01*
X10920000Y-10080000D02*
X10880000Y-10120000D01*
X10880000Y-10180000D02*
X10920000Y-10220000D01*
X10920000Y-10180000D02*
X10880000Y-10220000D01*
X10880000Y-10405000D02*
X10920000Y-10445000D01*
X10920000Y-10405000D02*
X10880000Y-10445000D01*
X10880000Y-10505000D02*
X10920000Y-10545000D01*
X10920000Y-10505000D02*
X10880000Y-10545000D01*
X10959000Y-6882000D02*
X10999000Y-6922000D01*
X10999000Y-6882000D02*
X10959000Y-6922000D01*
X10980000Y-5175000D02*
X11020000Y-5215000D01*
X11020000Y-5175000D02*
X10980000Y-5215000D01*
X10980000Y-7980000D02*
X11020000Y-8020000D01*
X11020000Y-7980000D02*
X10980000Y-8020000D01*
X10980000Y-9480000D02*
X11020000Y-9520000D01*
X11020000Y-9480000D02*
X10980000Y-9520000D01*
X10980000Y-9580000D02*
X11020000Y-9620000D01*
X11020000Y-9580000D02*
X10980000Y-9620000D01*
X10980000Y-9680000D02*
X11020000Y-9720000D01*
X11020000Y-9680000D02*
X10980000Y-9720000D01*
X10980000Y-9780000D02*
X11020000Y-9820000D01*
X11020000Y-9780000D02*
X10980000Y-9820000D01*
X10980000Y-9880000D02*
X11020000Y-9920000D01*
X11020000Y-9880000D02*
X10980000Y-9920000D01*
X10980000Y-9980000D02*
X11020000Y-10020000D01*
X11020000Y-9980000D02*
X10980000Y-10020000D01*
X10980000Y-10080000D02*
X11020000Y-10120000D01*
X11020000Y-10080000D02*
X10980000Y-10120000D01*
X10980000Y-10180000D02*
X11020000Y-10220000D01*
X11020000Y-10180000D02*
X10980000Y-10220000D01*
X10980000Y-10405000D02*
X11020000Y-10445000D01*
X11020000Y-10405000D02*
X10980000Y-10445000D01*
X10980000Y-10505000D02*
X11020000Y-10545000D01*
X11020000Y-10505000D02*
X10980000Y-10545000D01*
X10985000Y-5920000D02*
X11025000Y-5960000D01*
X11025000Y-5920000D02*
X10985000Y-5960000D01*
X11010000Y-5320000D02*
X11050000Y-5360000D01*
X11050000Y-5320000D02*
X11010000Y-5360000D01*
X11080000Y-6880000D02*
X11120000Y-6920000D01*
X11120000Y-6880000D02*
X11080000Y-6920000D01*
X11080000Y-7980000D02*
X11120000Y-8020000D01*
X11120000Y-7980000D02*
X11080000Y-8020000D01*
X11080000Y-8080000D02*
X11120000Y-8120000D01*
X11120000Y-8080000D02*
X11080000Y-8120000D01*
X11080000Y-10405000D02*
X11120000Y-10445000D01*
X11120000Y-10405000D02*
X11080000Y-10445000D01*
X11080000Y-10505000D02*
X11120000Y-10545000D01*
X11120000Y-10505000D02*
X11080000Y-10545000D01*
X11090000Y-7075000D02*
X11130000Y-7115000D01*
X11130000Y-7075000D02*
X11090000Y-7115000D01*
X11130000Y-5330000D02*
X11170000Y-5370000D01*
X11170000Y-5330000D02*
X11130000Y-5370000D01*
X11135369Y-10767500D02*
X11175369Y-10807500D01*
X11175369Y-10767500D02*
X11135369Y-10807500D01*
X11150906Y-7467500D02*
X11190906Y-7507500D01*
X11190906Y-7467500D02*
X11150906Y-7507500D01*
X11180000Y-5680000D02*
X11220000Y-5720000D01*
X11220000Y-5680000D02*
X11180000Y-5720000D01*
X11180000Y-7980000D02*
X11220000Y-8020000D01*
X11220000Y-7980000D02*
X11180000Y-8020000D01*
X11180000Y-8080000D02*
X11220000Y-8120000D01*
X11220000Y-8080000D02*
X11180000Y-8120000D01*
X11195000Y-6435000D02*
X11235000Y-6475000D01*
X11235000Y-6435000D02*
X11195000Y-6475000D01*
X11213000Y-10840000D02*
X11253000Y-10880000D01*
X11253000Y-10840000D02*
X11213000Y-10880000D01*
X11221915Y-7071915D02*
X11261915Y-7111915D01*
X11261915Y-7071915D02*
X11221915Y-7111915D01*
X11250000Y-5330000D02*
X11290000Y-5370000D01*
X11290000Y-5330000D02*
X11250000Y-5370000D01*
X11254380Y-10931037D02*
X11294380Y-10971037D01*
X11294380Y-10931037D02*
X11254380Y-10971037D01*
X11280000Y-5680000D02*
X11320000Y-5720000D01*
X11320000Y-5680000D02*
X11280000Y-5720000D01*
X11280000Y-6880000D02*
X11320000Y-6920000D01*
X11320000Y-6880000D02*
X11280000Y-6920000D01*
X11280000Y-7880000D02*
X11320000Y-7920000D01*
X11320000Y-7880000D02*
X11280000Y-7920000D01*
X11280000Y-7980000D02*
X11320000Y-8020000D01*
X11320000Y-7980000D02*
X11280000Y-8020000D01*
X11280000Y-8080000D02*
X11320000Y-8120000D01*
X11320000Y-8080000D02*
X11280000Y-8120000D01*
X11290775Y-7560775D02*
X11330775Y-7600775D01*
X11330775Y-7560775D02*
X11290775Y-7600775D01*
X11341000Y-8481000D02*
X11381000Y-8521000D01*
X11381000Y-8481000D02*
X11341000Y-8521000D01*
X11350000Y-7060000D02*
X11390000Y-7100000D01*
X11390000Y-7060000D02*
X11350000Y-7100000D01*
X11380000Y-5320000D02*
X11420000Y-5360000D01*
X11420000Y-5320000D02*
X11380000Y-5360000D01*
X11380000Y-5680000D02*
X11420000Y-5720000D01*
X11420000Y-5680000D02*
X11380000Y-5720000D01*
X11380000Y-5780000D02*
X11420000Y-5820000D01*
X11420000Y-5780000D02*
X11380000Y-5820000D01*
X11380000Y-5880000D02*
X11420000Y-5920000D01*
X11420000Y-5880000D02*
X11380000Y-5920000D01*
X11380000Y-6880000D02*
X11420000Y-6920000D01*
X11420000Y-6880000D02*
X11380000Y-6920000D01*
X11380000Y-7880000D02*
X11420000Y-7920000D01*
X11420000Y-7880000D02*
X11380000Y-7920000D01*
X11380000Y-7980000D02*
X11420000Y-8020000D01*
X11420000Y-7980000D02*
X11380000Y-8020000D01*
X11380000Y-8080000D02*
X11420000Y-8120000D01*
X11420000Y-8080000D02*
X11380000Y-8120000D01*
X11420000Y-6397500D02*
X11460000Y-6437500D01*
X11460000Y-6397500D02*
X11420000Y-6437500D01*
X11445000Y-10842000D02*
X11485000Y-10882000D01*
X11485000Y-10842000D02*
X11445000Y-10882000D01*
X11460000Y-5220000D02*
X11500000Y-5260000D01*
X11500000Y-5220000D02*
X11460000Y-5260000D01*
X11467500Y-7040000D02*
X11507500Y-7080000D01*
X11507500Y-7040000D02*
X11467500Y-7080000D01*
X11475000Y-6815000D02*
X11515000Y-6855000D01*
X11515000Y-6815000D02*
X11475000Y-6855000D01*
X11500000Y-5320000D02*
X11540000Y-5360000D01*
X11540000Y-5320000D02*
X11500000Y-5360000D01*
X11570000Y-5220000D02*
X11610000Y-5260000D01*
X11610000Y-5220000D02*
X11570000Y-5260000D01*
X11610000Y-5330000D02*
X11650000Y-5370000D01*
X11650000Y-5330000D02*
X11610000Y-5370000D01*
X11642000Y-11754000D02*
X11682000Y-11794000D01*
X11682000Y-11754000D02*
X11642000Y-11794000D01*
X11646000Y-14784000D02*
X11686000Y-14824000D01*
X11686000Y-14784000D02*
X11646000Y-14824000D01*
X11650000Y-13789000D02*
X11690000Y-13829000D01*
X11690000Y-13789000D02*
X11650000Y-13829000D01*
X11655000Y-12729000D02*
X11695000Y-12769000D01*
X11695000Y-12729000D02*
X11655000Y-12769000D01*
X11680000Y-4980000D02*
X11720000Y-5020000D01*
X11720000Y-4980000D02*
X11680000Y-5020000D01*
X11690000Y-6815000D02*
X11730000Y-6855000D01*
X11730000Y-6815000D02*
X11690000Y-6855000D01*
X11730000Y-5390000D02*
X11770000Y-5430000D01*
X11770000Y-5390000D02*
X11730000Y-5430000D01*
X11780000Y-4980000D02*
X11820000Y-5020000D01*
X11820000Y-4980000D02*
X11780000Y-5020000D01*
X11780000Y-5080000D02*
X11820000Y-5120000D01*
X11820000Y-5080000D02*
X11780000Y-5120000D01*
X11780000Y-5580000D02*
X11820000Y-5620000D01*
X11820000Y-5580000D02*
X11780000Y-5620000D01*
X11780000Y-5680000D02*
X11820000Y-5720000D01*
X11820000Y-5680000D02*
X11780000Y-5720000D01*
X11780000Y-7880000D02*
X11820000Y-7920000D01*
X11820000Y-7880000D02*
X11780000Y-7920000D01*
X11780000Y-7980000D02*
X11820000Y-8020000D01*
X11820000Y-7980000D02*
X11780000Y-8020000D01*
X11780000Y-8080000D02*
X11820000Y-8120000D01*
X11820000Y-8080000D02*
X11780000Y-8120000D01*
X11880000Y-4980000D02*
X11920000Y-5020000D01*
X11920000Y-4980000D02*
X11880000Y-5020000D01*
X11880000Y-5080000D02*
X11920000Y-5120000D01*
X11920000Y-5080000D02*
X11880000Y-5120000D01*
X11880000Y-5180000D02*
X11920000Y-5220000D01*
X11920000Y-5180000D02*
X11880000Y-5220000D01*
X11880000Y-5280000D02*
X11920000Y-5320000D01*
X11920000Y-5280000D02*
X11880000Y-5320000D01*
X11880000Y-5380000D02*
X11920000Y-5420000D01*
X11920000Y-5380000D02*
X11880000Y-5420000D01*
X11880000Y-5480000D02*
X11920000Y-5520000D01*
X11920000Y-5480000D02*
X11880000Y-5520000D01*
X11880000Y-5580000D02*
X11920000Y-5620000D01*
X11920000Y-5580000D02*
X11880000Y-5620000D01*
X11880000Y-5680000D02*
X11920000Y-5720000D01*
X11920000Y-5680000D02*
X11880000Y-5720000D01*
X11880000Y-7680000D02*
X11920000Y-7720000D01*
X11920000Y-7680000D02*
X11880000Y-7720000D01*
X11880000Y-7780000D02*
X11920000Y-7820000D01*
X11920000Y-7780000D02*
X11880000Y-7820000D01*
X11880000Y-7880000D02*
X11920000Y-7920000D01*
X11920000Y-7880000D02*
X11880000Y-7920000D01*
X11880000Y-7980000D02*
X11920000Y-8020000D01*
X11920000Y-7980000D02*
X11880000Y-8020000D01*
X11880000Y-8080000D02*
X11920000Y-8120000D01*
X11920000Y-8080000D02*
X11880000Y-8120000D01*
X11565000Y-7920000D02*
G75*
G02*
X11515000Y-7920000I-25000J0D01*
G01*
X11515000Y-7920000D02*
G75*
G02*
X11565000Y-7920000I25000J0D01*
G01*
X11787500Y-6960000D02*
G75*
G02*
X11737500Y-6960000I-25000J0D01*
G01*
X11737500Y-6960000D02*
G75*
G02*
X11787500Y-6960000I25000J0D01*
G01*
X11120000Y-4981900D02*
X11120000Y-5058100D01*
X11081900Y-5020000D02*
X11158100Y-5020000D01*
X11120000Y-5481900D02*
X11120000Y-5558100D01*
X11081900Y-5520000D02*
X11158100Y-5520000D01*
X11320000Y-4981900D02*
X11320000Y-5058100D01*
X11281900Y-5020000D02*
X11358100Y-5020000D01*
X11320000Y-5481900D02*
X11320000Y-5558100D01*
X11281900Y-5520000D02*
X11358100Y-5520000D01*
X11520000Y-4981900D02*
X11520000Y-5058100D01*
X11481900Y-5020000D02*
X11558100Y-5020000D01*
X11520000Y-5481900D02*
X11520000Y-5558100D01*
X11481900Y-5520000D02*
X11558100Y-5520000D01*
X9711820Y-5174320D02*
X9711820Y-5110680D01*
X9648180Y-5110680D01*
X9648180Y-5174320D01*
X9711820Y-5174320D01*
X9711820Y-5428320D02*
X9711820Y-5364680D01*
X9648180Y-5364680D01*
X9648180Y-5428320D01*
X9711820Y-5428320D01*
X9430000Y-8447500D02*
X9480000Y-8397500D01*
X9430000Y-8347500D01*
X9380000Y-8397500D01*
X9430000Y-8447500D01*
X9680000Y-8447500D02*
X9730000Y-8397500D01*
X9680000Y-8347500D01*
X9630000Y-8397500D01*
X9680000Y-8447500D01*
X9930000Y-8447500D02*
X9980000Y-8397500D01*
X9930000Y-8347500D01*
X9880000Y-8397500D01*
X9930000Y-8447500D01*
X11361000Y-9350000D02*
X11411000Y-9300000D01*
X11361000Y-9250000D01*
X11311000Y-9300000D01*
X11361000Y-9350000D01*
X11361000Y-9604000D02*
X11411000Y-9554000D01*
X11361000Y-9504000D01*
X11311000Y-9554000D01*
X11361000Y-9604000D01*
X11361000Y-9858000D02*
X11411000Y-9808000D01*
X11361000Y-9758000D01*
X11311000Y-9808000D01*
X11361000Y-9858000D01*
X11361000Y-10112000D02*
X11411000Y-10062000D01*
X11361000Y-10012000D01*
X11311000Y-10062000D01*
X11361000Y-10112000D01*
X11361000Y-10366000D02*
X11411000Y-10316000D01*
X11361000Y-10266000D01*
X11311000Y-10316000D01*
X11361000Y-10366000D01*
X11615000Y-9350000D02*
X11665000Y-9300000D01*
X11615000Y-9250000D01*
X11565000Y-9300000D01*
X11615000Y-9350000D01*
X11615000Y-9604000D02*
X11665000Y-9554000D01*
X11615000Y-9504000D01*
X11565000Y-9554000D01*
X11615000Y-9604000D01*
X11615000Y-9858000D02*
X11665000Y-9808000D01*
X11615000Y-9758000D01*
X11565000Y-9808000D01*
X11615000Y-9858000D01*
X11615000Y-10112000D02*
X11665000Y-10062000D01*
X11615000Y-10012000D01*
X11565000Y-10062000D01*
X11615000Y-10112000D01*
X11615000Y-10366000D02*
X11665000Y-10316000D01*
X11615000Y-10266000D01*
X11565000Y-10316000D01*
X11615000Y-10366000D01*
D13*
X9145000Y-7592500D02*
X9255000Y-7702500D01*
X9255000Y-7592500D02*
X9145000Y-7702500D01*
X9255000Y-7647500D02*
G75*
G02*
X9145000Y-7647500I-55000J0D01*
G01*
X9145000Y-7647500D02*
G75*
G02*
X9255000Y-7647500I55000J0D01*
G01*
D10*
X9255000Y-7707500D02*
X9255000Y-7587500D01*
X9145000Y-7587500D02*
G75*
G02*
X9255000Y-7587500I55000J0D01*
G01*
X9145000Y-7587500D02*
X9145000Y-7707500D01*
X9145000Y-7707500D02*
G75*
G03*
X9255000Y-7707500I55000J0D01*
G01*
D13*
X10105000Y-7592500D02*
X10215000Y-7702500D01*
X10215000Y-7592500D02*
X10105000Y-7702500D01*
X10215000Y-7647500D02*
G75*
G02*
X10105000Y-7647500I-55000J0D01*
G01*
X10105000Y-7647500D02*
G75*
G02*
X10215000Y-7647500I55000J0D01*
G01*
D10*
X10215000Y-7707500D02*
X10215000Y-7587500D01*
X10105000Y-7587500D02*
G75*
G02*
X10215000Y-7587500I55000J0D01*
G01*
X10105000Y-7587500D02*
X10105000Y-7707500D01*
X10105000Y-7707500D02*
G75*
G03*
X10215000Y-7707500I55000J0D01*
G01*
D14*
X10249000Y-13339000D02*
X10371000Y-13461000D01*
X10371000Y-13339000D02*
X10249000Y-13461000D01*
X10310000Y-13339000D02*
X10310000Y-13461000D01*
X10249000Y-13400000D02*
X10371000Y-13400000D01*
X10249000Y-14339000D02*
X10371000Y-14461000D01*
X10371000Y-14339000D02*
X10249000Y-14461000D01*
X10310000Y-14339000D02*
X10310000Y-14461000D01*
X10249000Y-14400000D02*
X10371000Y-14400000D01*
X10251500Y-11339000D02*
X10373500Y-11461000D01*
X10373500Y-11339000D02*
X10251500Y-11461000D01*
X10312500Y-11339000D02*
X10312500Y-11461000D01*
X10251500Y-11400000D02*
X10373500Y-11400000D01*
X10251500Y-12339000D02*
X10373500Y-12461000D01*
X10373500Y-12339000D02*
X10251500Y-12461000D01*
X10312500Y-12339000D02*
X10312500Y-12461000D01*
X10251500Y-12400000D02*
X10373500Y-12400000D01*
X10251500Y-15339000D02*
X10373500Y-15461000D01*
X10373500Y-15339000D02*
X10251500Y-15461000D01*
X10312500Y-15339000D02*
X10312500Y-15461000D01*
X10251500Y-15400000D02*
X10373500Y-15400000D01*
X10267000Y-6089000D02*
X10389000Y-6211000D01*
X10389000Y-6089000D02*
X10267000Y-6211000D01*
X10328000Y-6089000D02*
X10328000Y-6211000D01*
X10267000Y-6150000D02*
X10389000Y-6150000D01*
X10609000Y-6089000D02*
X10731000Y-6211000D01*
X10731000Y-6089000D02*
X10609000Y-6211000D01*
X10670000Y-6089000D02*
X10670000Y-6211000D01*
X10609000Y-6150000D02*
X10731000Y-6150000D01*
X10626500Y-14339000D02*
X10748500Y-14461000D01*
X10748500Y-14339000D02*
X10626500Y-14461000D01*
X10687500Y-14339000D02*
X10687500Y-14461000D01*
X10626500Y-14400000D02*
X10748500Y-14400000D01*
X10626500Y-15339000D02*
X10748500Y-15461000D01*
X10748500Y-15339000D02*
X10626500Y-15461000D01*
X10687500Y-15339000D02*
X10687500Y-15461000D01*
X10626500Y-15400000D02*
X10748500Y-15400000D01*
X10629000Y-11339000D02*
X10751000Y-11461000D01*
X10751000Y-11339000D02*
X10629000Y-11461000D01*
X10690000Y-11339000D02*
X10690000Y-11461000D01*
X10629000Y-11400000D02*
X10751000Y-11400000D01*
X10629000Y-12339000D02*
X10751000Y-12461000D01*
X10751000Y-12339000D02*
X10629000Y-12461000D01*
X10690000Y-12339000D02*
X10690000Y-12461000D01*
X10629000Y-12400000D02*
X10751000Y-12400000D01*
X10629000Y-13339000D02*
X10751000Y-13461000D01*
X10751000Y-13339000D02*
X10629000Y-13461000D01*
X10690000Y-13339000D02*
X10690000Y-13461000D01*
X10629000Y-13400000D02*
X10751000Y-13400000D01*
D15*
X9929000Y-13329000D02*
X10071000Y-13471000D01*
X10071000Y-13329000D02*
X9929000Y-13471000D01*
X10050205Y-13450205D02*
X10050205Y-13349795D01*
X9949795Y-13349795D01*
X9949795Y-13450205D01*
X10050205Y-13450205D01*
X9929000Y-14329000D02*
X10071000Y-14471000D01*
X10071000Y-14329000D02*
X9929000Y-14471000D01*
X10050205Y-14450205D02*
X10050205Y-14349795D01*
X9949795Y-14349795D01*
X9949795Y-14450205D01*
X10050205Y-14450205D01*
X9931500Y-11329000D02*
X10073500Y-11471000D01*
X10073500Y-11329000D02*
X9931500Y-11471000D01*
X10052705Y-11450205D02*
X10052705Y-11349795D01*
X9952295Y-11349795D01*
X9952295Y-11450205D01*
X10052705Y-11450205D01*
X9931500Y-12329000D02*
X10073500Y-12471000D01*
X10073500Y-12329000D02*
X9931500Y-12471000D01*
X10052705Y-12450205D02*
X10052705Y-12349795D01*
X9952295Y-12349795D01*
X9952295Y-12450205D01*
X10052705Y-12450205D01*
X9931500Y-15329000D02*
X10073500Y-15471000D01*
X10073500Y-15329000D02*
X9931500Y-15471000D01*
X10052705Y-15450205D02*
X10052705Y-15349795D01*
X9952295Y-15349795D01*
X9952295Y-15450205D01*
X10052705Y-15450205D01*
X9947000Y-6079000D02*
X10089000Y-6221000D01*
X10089000Y-6079000D02*
X9947000Y-6221000D01*
X10068205Y-6200205D02*
X10068205Y-6099795D01*
X9967795Y-6099795D01*
X9967795Y-6200205D01*
X10068205Y-6200205D01*
X10909000Y-6079000D02*
X11051000Y-6221000D01*
X11051000Y-6079000D02*
X10909000Y-6221000D01*
X11030205Y-6200205D02*
X11030205Y-6099795D01*
X10929795Y-6099795D01*
X10929795Y-6200205D01*
X11030205Y-6200205D01*
X10926500Y-14329000D02*
X11068500Y-14471000D01*
X11068500Y-14329000D02*
X10926500Y-14471000D01*
X11047705Y-14450205D02*
X11047705Y-14349795D01*
X10947295Y-14349795D01*
X10947295Y-14450205D01*
X11047705Y-14450205D01*
X10926500Y-15329000D02*
X11068500Y-15471000D01*
X11068500Y-15329000D02*
X10926500Y-15471000D01*
X11047705Y-15450205D02*
X11047705Y-15349795D01*
X10947295Y-15349795D01*
X10947295Y-15450205D01*
X11047705Y-15450205D01*
X10929000Y-11329000D02*
X11071000Y-11471000D01*
X11071000Y-11329000D02*
X10929000Y-11471000D01*
X11050205Y-11450205D02*
X11050205Y-11349795D01*
X10949795Y-11349795D01*
X10949795Y-11450205D01*
X11050205Y-11450205D01*
X10929000Y-12329000D02*
X11071000Y-12471000D01*
X11071000Y-12329000D02*
X10929000Y-12471000D01*
X11050205Y-12450205D02*
X11050205Y-12349795D01*
X10949795Y-12349795D01*
X10949795Y-12450205D01*
X11050205Y-12450205D01*
X10929000Y-13329000D02*
X11071000Y-13471000D01*
X11071000Y-13329000D02*
X10929000Y-13471000D01*
X11050205Y-13450205D02*
X11050205Y-13349795D01*
X10949795Y-13349795D01*
X10949795Y-13450205D01*
X11050205Y-13450205D01*
D16*
X9098500Y-13328500D02*
X9241500Y-13471500D01*
X9241500Y-13328500D02*
X9098500Y-13471500D01*
X9170000Y-13471500D02*
X9241500Y-13400000D01*
X9170000Y-13328500D01*
X9098500Y-13400000D01*
X9170000Y-13471500D01*
X9098500Y-14328500D02*
X9241500Y-14471500D01*
X9241500Y-14328500D02*
X9098500Y-14471500D01*
X9170000Y-14471500D02*
X9241500Y-14400000D01*
X9170000Y-14328500D01*
X9098500Y-14400000D01*
X9170000Y-14471500D01*
X9101000Y-11328500D02*
X9244000Y-11471500D01*
X9244000Y-11328500D02*
X9101000Y-11471500D01*
X9172500Y-11471500D02*
X9244000Y-11400000D01*
X9172500Y-11328500D01*
X9101000Y-11400000D01*
X9172500Y-11471500D01*
X9101000Y-12328500D02*
X9244000Y-12471500D01*
X9244000Y-12328500D02*
X9101000Y-12471500D01*
X9172500Y-12471500D02*
X9244000Y-12400000D01*
X9172500Y-12328500D01*
X9101000Y-12400000D01*
X9172500Y-12471500D01*
X9101000Y-15328500D02*
X9244000Y-15471500D01*
X9244000Y-15328500D02*
X9101000Y-15471500D01*
X9172500Y-15471500D02*
X9244000Y-15400000D01*
X9172500Y-15328500D01*
X9101000Y-15400000D01*
X9172500Y-15471500D01*
X9116500Y-6078500D02*
X9259500Y-6221500D01*
X9259500Y-6078500D02*
X9116500Y-6221500D01*
X9188000Y-6221500D02*
X9259500Y-6150000D01*
X9188000Y-6078500D01*
X9116500Y-6150000D01*
X9188000Y-6221500D01*
X11738500Y-6078500D02*
X11881500Y-6221500D01*
X11881500Y-6078500D02*
X11738500Y-6221500D01*
X11810000Y-6221500D02*
X11881500Y-6150000D01*
X11810000Y-6078500D01*
X11738500Y-6150000D01*
X11810000Y-6221500D01*
X11756000Y-14328500D02*
X11899000Y-14471500D01*
X11899000Y-14328500D02*
X11756000Y-14471500D01*
X11827500Y-14471500D02*
X11899000Y-14400000D01*
X11827500Y-14328500D01*
X11756000Y-14400000D01*
X11827500Y-14471500D01*
X11756000Y-15328500D02*
X11899000Y-15471500D01*
X11899000Y-15328500D02*
X11756000Y-15471500D01*
X11827500Y-15471500D02*
X11899000Y-15400000D01*
X11827500Y-15328500D01*
X11756000Y-15400000D01*
X11827500Y-15471500D01*
X11758500Y-11328500D02*
X11901500Y-11471500D01*
X11901500Y-11328500D02*
X11758500Y-11471500D01*
X11830000Y-11471500D02*
X11901500Y-11400000D01*
X11830000Y-11328500D01*
X11758500Y-11400000D01*
X11830000Y-11471500D01*
X11758500Y-12328500D02*
X11901500Y-12471500D01*
X11901500Y-12328500D02*
X11758500Y-12471500D01*
X11830000Y-12471500D02*
X11901500Y-12400000D01*
X11830000Y-12328500D01*
X11758500Y-12400000D01*
X11830000Y-12471500D01*
X11758500Y-13328500D02*
X11901500Y-13471500D01*
X11901500Y-13328500D02*
X11758500Y-13471500D01*
X11830000Y-13471500D02*
X11901500Y-13400000D01*
X11830000Y-13328500D01*
X11758500Y-13400000D01*
X11830000Y-13471500D01*
D12*
X9255777Y-16216484D02*
X9255777Y-16016484D01*
X9255777Y-16016484D02*
X9303396Y-16016484D01*
X9303396Y-16016484D02*
X9331967Y-16026008D01*
X9331967Y-16026008D02*
X9351015Y-16045055D01*
X9351015Y-16045055D02*
X9360539Y-16064103D01*
X9360539Y-16064103D02*
X9370063Y-16102198D01*
X9370063Y-16102198D02*
X9370063Y-16130769D01*
X9370063Y-16130769D02*
X9360539Y-16168865D01*
X9360539Y-16168865D02*
X9351015Y-16187912D01*
X9351015Y-16187912D02*
X9331967Y-16206960D01*
X9331967Y-16206960D02*
X9303396Y-16216484D01*
X9303396Y-16216484D02*
X9255777Y-16216484D01*
X9455777Y-16216484D02*
X9455777Y-16083150D01*
X9455777Y-16121246D02*
X9465301Y-16102198D01*
X9465301Y-16102198D02*
X9474824Y-16092674D01*
X9474824Y-16092674D02*
X9493872Y-16083150D01*
X9493872Y-16083150D02*
X9512920Y-16083150D01*
X9579586Y-16216484D02*
X9579586Y-16083150D01*
X9579586Y-16016484D02*
X9570063Y-16026008D01*
X9570063Y-16026008D02*
X9579586Y-16035531D01*
X9579586Y-16035531D02*
X9589110Y-16026008D01*
X9589110Y-16026008D02*
X9579586Y-16016484D01*
X9579586Y-16016484D02*
X9579586Y-16035531D01*
X9703396Y-16216484D02*
X9684348Y-16206960D01*
X9684348Y-16206960D02*
X9674824Y-16187912D01*
X9674824Y-16187912D02*
X9674824Y-16016484D01*
X9808158Y-16216484D02*
X9789110Y-16206960D01*
X9789110Y-16206960D02*
X9779586Y-16187912D01*
X9779586Y-16187912D02*
X9779586Y-16016484D01*
X10036729Y-16216484D02*
X10036729Y-16016484D01*
X10036729Y-16016484D02*
X10103396Y-16159341D01*
X10103396Y-16159341D02*
X10170063Y-16016484D01*
X10170063Y-16016484D02*
X10170063Y-16216484D01*
X10351015Y-16216484D02*
X10351015Y-16111722D01*
X10351015Y-16111722D02*
X10341491Y-16092674D01*
X10341491Y-16092674D02*
X10322444Y-16083150D01*
X10322444Y-16083150D02*
X10284348Y-16083150D01*
X10284348Y-16083150D02*
X10265301Y-16092674D01*
X10351015Y-16206960D02*
X10331967Y-16216484D01*
X10331967Y-16216484D02*
X10284348Y-16216484D01*
X10284348Y-16216484D02*
X10265301Y-16206960D01*
X10265301Y-16206960D02*
X10255777Y-16187912D01*
X10255777Y-16187912D02*
X10255777Y-16168865D01*
X10255777Y-16168865D02*
X10265301Y-16149817D01*
X10265301Y-16149817D02*
X10284348Y-16140293D01*
X10284348Y-16140293D02*
X10331967Y-16140293D01*
X10331967Y-16140293D02*
X10351015Y-16130769D01*
X10446253Y-16083150D02*
X10446253Y-16283150D01*
X10446253Y-16092674D02*
X10465301Y-16083150D01*
X10465301Y-16083150D02*
X10503396Y-16083150D01*
X10503396Y-16083150D02*
X10522444Y-16092674D01*
X10522444Y-16092674D02*
X10531967Y-16102198D01*
X10531967Y-16102198D02*
X10541491Y-16121246D01*
X10541491Y-16121246D02*
X10541491Y-16178388D01*
X10541491Y-16178388D02*
X10531967Y-16197436D01*
X10531967Y-16197436D02*
X10522444Y-16206960D01*
X10522444Y-16206960D02*
X10503396Y-16216484D01*
X10503396Y-16216484D02*
X10465301Y-16216484D01*
X10465301Y-16216484D02*
X10446253Y-16206960D01*
X10627205Y-16197436D02*
X10636729Y-16206960D01*
X10636729Y-16206960D02*
X10627205Y-16216484D01*
X10627205Y-16216484D02*
X10617682Y-16206960D01*
X10617682Y-16206960D02*
X10627205Y-16197436D01*
X10627205Y-16197436D02*
X10627205Y-16216484D01*
X10627205Y-16092674D02*
X10636729Y-16102198D01*
X10636729Y-16102198D02*
X10627205Y-16111722D01*
X10627205Y-16111722D02*
X10617682Y-16102198D01*
X10617682Y-16102198D02*
X10627205Y-16092674D01*
X10627205Y-16092674D02*
X10627205Y-16111722D01*
D10*
X8955000Y-16525000D02*
X8995000Y-16565000D01*
X8995000Y-16525000D02*
X8955000Y-16565000D01*
D12*
X9293872Y-16436484D02*
X9312920Y-16436484D01*
X9312920Y-16436484D02*
X9331967Y-16446008D01*
X9331967Y-16446008D02*
X9341491Y-16455531D01*
X9341491Y-16455531D02*
X9351015Y-16474579D01*
X9351015Y-16474579D02*
X9360539Y-16512674D01*
X9360539Y-16512674D02*
X9360539Y-16560293D01*
X9360539Y-16560293D02*
X9351015Y-16598388D01*
X9351015Y-16598388D02*
X9341491Y-16617436D01*
X9341491Y-16617436D02*
X9331967Y-16626960D01*
X9331967Y-16626960D02*
X9312920Y-16636484D01*
X9312920Y-16636484D02*
X9293872Y-16636484D01*
X9293872Y-16636484D02*
X9274824Y-16626960D01*
X9274824Y-16626960D02*
X9265301Y-16617436D01*
X9265301Y-16617436D02*
X9255777Y-16598388D01*
X9255777Y-16598388D02*
X9246253Y-16560293D01*
X9246253Y-16560293D02*
X9246253Y-16512674D01*
X9246253Y-16512674D02*
X9255777Y-16474579D01*
X9255777Y-16474579D02*
X9265301Y-16455531D01*
X9265301Y-16455531D02*
X9274824Y-16446008D01*
X9274824Y-16446008D02*
X9293872Y-16436484D01*
X9446253Y-16617436D02*
X9455777Y-16626960D01*
X9455777Y-16626960D02*
X9446253Y-16636484D01*
X9446253Y-16636484D02*
X9436729Y-16626960D01*
X9436729Y-16626960D02*
X9446253Y-16617436D01*
X9446253Y-16617436D02*
X9446253Y-16636484D01*
X9627205Y-16503150D02*
X9627205Y-16636484D01*
X9579586Y-16426960D02*
X9531967Y-16569817D01*
X9531967Y-16569817D02*
X9655777Y-16569817D01*
X9770063Y-16436484D02*
X9789110Y-16436484D01*
X9789110Y-16436484D02*
X9808158Y-16446008D01*
X9808158Y-16446008D02*
X9817682Y-16455531D01*
X9817682Y-16455531D02*
X9827205Y-16474579D01*
X9827205Y-16474579D02*
X9836729Y-16512674D01*
X9836729Y-16512674D02*
X9836729Y-16560293D01*
X9836729Y-16560293D02*
X9827205Y-16598388D01*
X9827205Y-16598388D02*
X9817682Y-16617436D01*
X9817682Y-16617436D02*
X9808158Y-16626960D01*
X9808158Y-16626960D02*
X9789110Y-16636484D01*
X9789110Y-16636484D02*
X9770063Y-16636484D01*
X9770063Y-16636484D02*
X9751015Y-16626960D01*
X9751015Y-16626960D02*
X9741491Y-16617436D01*
X9741491Y-16617436D02*
X9731967Y-16598388D01*
X9731967Y-16598388D02*
X9722444Y-16560293D01*
X9722444Y-16560293D02*
X9722444Y-16512674D01*
X9722444Y-16512674D02*
X9731967Y-16474579D01*
X9731967Y-16474579D02*
X9741491Y-16455531D01*
X9741491Y-16455531D02*
X9751015Y-16446008D01*
X9751015Y-16446008D02*
X9770063Y-16436484D01*
X9960539Y-16436484D02*
X9979586Y-16436484D01*
X9979586Y-16436484D02*
X9998634Y-16446008D01*
X9998634Y-16446008D02*
X10008158Y-16455531D01*
X10008158Y-16455531D02*
X10017682Y-16474579D01*
X10017682Y-16474579D02*
X10027205Y-16512674D01*
X10027205Y-16512674D02*
X10027205Y-16560293D01*
X10027205Y-16560293D02*
X10017682Y-16598388D01*
X10017682Y-16598388D02*
X10008158Y-16617436D01*
X10008158Y-16617436D02*
X9998634Y-16626960D01*
X9998634Y-16626960D02*
X9979586Y-16636484D01*
X9979586Y-16636484D02*
X9960539Y-16636484D01*
X9960539Y-16636484D02*
X9941491Y-16626960D01*
X9941491Y-16626960D02*
X9931967Y-16617436D01*
X9931967Y-16617436D02*
X9922444Y-16598388D01*
X9922444Y-16598388D02*
X9912920Y-16560293D01*
X9912920Y-16560293D02*
X9912920Y-16512674D01*
X9912920Y-16512674D02*
X9922444Y-16474579D01*
X9922444Y-16474579D02*
X9931967Y-16455531D01*
X9931967Y-16455531D02*
X9941491Y-16446008D01*
X9941491Y-16446008D02*
X9960539Y-16436484D01*
X10112920Y-16636484D02*
X10112920Y-16503150D01*
X10112920Y-16522198D02*
X10122444Y-16512674D01*
X10122444Y-16512674D02*
X10141491Y-16503150D01*
X10141491Y-16503150D02*
X10170063Y-16503150D01*
X10170063Y-16503150D02*
X10189110Y-16512674D01*
X10189110Y-16512674D02*
X10198634Y-16531722D01*
X10198634Y-16531722D02*
X10198634Y-16636484D01*
X10198634Y-16531722D02*
X10208158Y-16512674D01*
X10208158Y-16512674D02*
X10227205Y-16503150D01*
X10227205Y-16503150D02*
X10255777Y-16503150D01*
X10255777Y-16503150D02*
X10274825Y-16512674D01*
X10274825Y-16512674D02*
X10284348Y-16531722D01*
X10284348Y-16531722D02*
X10284348Y-16636484D01*
X10379586Y-16636484D02*
X10379586Y-16503150D01*
X10379586Y-16522198D02*
X10389110Y-16512674D01*
X10389110Y-16512674D02*
X10408158Y-16503150D01*
X10408158Y-16503150D02*
X10436729Y-16503150D01*
X10436729Y-16503150D02*
X10455777Y-16512674D01*
X10455777Y-16512674D02*
X10465301Y-16531722D01*
X10465301Y-16531722D02*
X10465301Y-16636484D01*
X10465301Y-16531722D02*
X10474825Y-16512674D01*
X10474825Y-16512674D02*
X10493872Y-16503150D01*
X10493872Y-16503150D02*
X10522444Y-16503150D01*
X10522444Y-16503150D02*
X10541491Y-16512674D01*
X10541491Y-16512674D02*
X10551015Y-16531722D01*
X10551015Y-16531722D02*
X10551015Y-16636484D01*
X10941491Y-16426960D02*
X10770063Y-16684103D01*
X11198634Y-16436484D02*
X11217682Y-16436484D01*
X11217682Y-16436484D02*
X11236729Y-16446008D01*
X11236729Y-16446008D02*
X11246253Y-16455531D01*
X11246253Y-16455531D02*
X11255777Y-16474579D01*
X11255777Y-16474579D02*
X11265301Y-16512674D01*
X11265301Y-16512674D02*
X11265301Y-16560293D01*
X11265301Y-16560293D02*
X11255777Y-16598388D01*
X11255777Y-16598388D02*
X11246253Y-16617436D01*
X11246253Y-16617436D02*
X11236729Y-16626960D01*
X11236729Y-16626960D02*
X11217682Y-16636484D01*
X11217682Y-16636484D02*
X11198634Y-16636484D01*
X11198634Y-16636484D02*
X11179587Y-16626960D01*
X11179587Y-16626960D02*
X11170063Y-16617436D01*
X11170063Y-16617436D02*
X11160539Y-16598388D01*
X11160539Y-16598388D02*
X11151015Y-16560293D01*
X11151015Y-16560293D02*
X11151015Y-16512674D01*
X11151015Y-16512674D02*
X11160539Y-16474579D01*
X11160539Y-16474579D02*
X11170063Y-16455531D01*
X11170063Y-16455531D02*
X11179587Y-16446008D01*
X11179587Y-16446008D02*
X11198634Y-16436484D01*
X11351015Y-16617436D02*
X11360539Y-16626960D01*
X11360539Y-16626960D02*
X11351015Y-16636484D01*
X11351015Y-16636484D02*
X11341491Y-16626960D01*
X11341491Y-16626960D02*
X11351015Y-16617436D01*
X11351015Y-16617436D02*
X11351015Y-16636484D01*
X11484348Y-16436484D02*
X11503396Y-16436484D01*
X11503396Y-16436484D02*
X11522444Y-16446008D01*
X11522444Y-16446008D02*
X11531967Y-16455531D01*
X11531967Y-16455531D02*
X11541491Y-16474579D01*
X11541491Y-16474579D02*
X11551015Y-16512674D01*
X11551015Y-16512674D02*
X11551015Y-16560293D01*
X11551015Y-16560293D02*
X11541491Y-16598388D01*
X11541491Y-16598388D02*
X11531967Y-16617436D01*
X11531967Y-16617436D02*
X11522444Y-16626960D01*
X11522444Y-16626960D02*
X11503396Y-16636484D01*
X11503396Y-16636484D02*
X11484348Y-16636484D01*
X11484348Y-16636484D02*
X11465301Y-16626960D01*
X11465301Y-16626960D02*
X11455777Y-16617436D01*
X11455777Y-16617436D02*
X11446253Y-16598388D01*
X11446253Y-16598388D02*
X11436729Y-16560293D01*
X11436729Y-16560293D02*
X11436729Y-16512674D01*
X11436729Y-16512674D02*
X11446253Y-16474579D01*
X11446253Y-16474579D02*
X11455777Y-16455531D01*
X11455777Y-16455531D02*
X11465301Y-16446008D01*
X11465301Y-16446008D02*
X11484348Y-16436484D01*
X11741491Y-16636484D02*
X11627206Y-16636484D01*
X11684348Y-16636484D02*
X11684348Y-16436484D01*
X11684348Y-16436484D02*
X11665301Y-16465055D01*
X11665301Y-16465055D02*
X11646253Y-16484103D01*
X11646253Y-16484103D02*
X11627206Y-16493627D01*
X11922444Y-16436484D02*
X11827206Y-16436484D01*
X11827206Y-16436484D02*
X11817682Y-16531722D01*
X11817682Y-16531722D02*
X11827206Y-16522198D01*
X11827206Y-16522198D02*
X11846253Y-16512674D01*
X11846253Y-16512674D02*
X11893872Y-16512674D01*
X11893872Y-16512674D02*
X11912920Y-16522198D01*
X11912920Y-16522198D02*
X11922444Y-16531722D01*
X11922444Y-16531722D02*
X11931967Y-16550769D01*
X11931967Y-16550769D02*
X11931967Y-16598388D01*
X11931967Y-16598388D02*
X11922444Y-16617436D01*
X11922444Y-16617436D02*
X11912920Y-16626960D01*
X11912920Y-16626960D02*
X11893872Y-16636484D01*
X11893872Y-16636484D02*
X11846253Y-16636484D01*
X11846253Y-16636484D02*
X11827206Y-16626960D01*
X11827206Y-16626960D02*
X11817682Y-16617436D01*
X11998634Y-16436484D02*
X12131967Y-16436484D01*
X12131967Y-16436484D02*
X12046253Y-16636484D01*
X12198634Y-16436484D02*
X12198634Y-16474579D01*
X12274825Y-16436484D02*
X12274825Y-16474579D01*
X12570063Y-16712674D02*
X12560539Y-16703150D01*
X12560539Y-16703150D02*
X12541491Y-16674579D01*
X12541491Y-16674579D02*
X12531968Y-16655531D01*
X12531968Y-16655531D02*
X12522444Y-16626960D01*
X12522444Y-16626960D02*
X12512920Y-16579341D01*
X12512920Y-16579341D02*
X12512920Y-16541246D01*
X12512920Y-16541246D02*
X12522444Y-16493627D01*
X12522444Y-16493627D02*
X12531968Y-16465055D01*
X12531968Y-16465055D02*
X12541491Y-16446008D01*
X12541491Y-16446008D02*
X12560539Y-16417436D01*
X12560539Y-16417436D02*
X12570063Y-16407912D01*
X12636729Y-16455531D02*
X12646253Y-16446008D01*
X12646253Y-16446008D02*
X12665301Y-16436484D01*
X12665301Y-16436484D02*
X12712920Y-16436484D01*
X12712920Y-16436484D02*
X12731968Y-16446008D01*
X12731968Y-16446008D02*
X12741491Y-16455531D01*
X12741491Y-16455531D02*
X12751015Y-16474579D01*
X12751015Y-16474579D02*
X12751015Y-16493627D01*
X12751015Y-16493627D02*
X12741491Y-16522198D01*
X12741491Y-16522198D02*
X12627206Y-16636484D01*
X12627206Y-16636484D02*
X12751015Y-16636484D01*
X12846253Y-16636484D02*
X12884348Y-16636484D01*
X12884348Y-16636484D02*
X12903396Y-16626960D01*
X12903396Y-16626960D02*
X12912920Y-16617436D01*
X12912920Y-16617436D02*
X12931968Y-16588865D01*
X12931968Y-16588865D02*
X12941491Y-16550769D01*
X12941491Y-16550769D02*
X12941491Y-16474579D01*
X12941491Y-16474579D02*
X12931968Y-16455531D01*
X12931968Y-16455531D02*
X12922444Y-16446008D01*
X12922444Y-16446008D02*
X12903396Y-16436484D01*
X12903396Y-16436484D02*
X12865301Y-16436484D01*
X12865301Y-16436484D02*
X12846253Y-16446008D01*
X12846253Y-16446008D02*
X12836729Y-16455531D01*
X12836729Y-16455531D02*
X12827206Y-16474579D01*
X12827206Y-16474579D02*
X12827206Y-16522198D01*
X12827206Y-16522198D02*
X12836729Y-16541246D01*
X12836729Y-16541246D02*
X12846253Y-16550769D01*
X12846253Y-16550769D02*
X12865301Y-16560293D01*
X12865301Y-16560293D02*
X12903396Y-16560293D01*
X12903396Y-16560293D02*
X12922444Y-16550769D01*
X12922444Y-16550769D02*
X12931968Y-16541246D01*
X12931968Y-16541246D02*
X12941491Y-16522198D01*
X13055777Y-16522198D02*
X13036729Y-16512674D01*
X13036729Y-16512674D02*
X13027206Y-16503150D01*
X13027206Y-16503150D02*
X13017682Y-16484103D01*
X13017682Y-16484103D02*
X13017682Y-16474579D01*
X13017682Y-16474579D02*
X13027206Y-16455531D01*
X13027206Y-16455531D02*
X13036729Y-16446008D01*
X13036729Y-16446008D02*
X13055777Y-16436484D01*
X13055777Y-16436484D02*
X13093872Y-16436484D01*
X13093872Y-16436484D02*
X13112920Y-16446008D01*
X13112920Y-16446008D02*
X13122444Y-16455531D01*
X13122444Y-16455531D02*
X13131968Y-16474579D01*
X13131968Y-16474579D02*
X13131968Y-16484103D01*
X13131968Y-16484103D02*
X13122444Y-16503150D01*
X13122444Y-16503150D02*
X13112920Y-16512674D01*
X13112920Y-16512674D02*
X13093872Y-16522198D01*
X13093872Y-16522198D02*
X13055777Y-16522198D01*
X13055777Y-16522198D02*
X13036729Y-16531722D01*
X13036729Y-16531722D02*
X13027206Y-16541246D01*
X13027206Y-16541246D02*
X13017682Y-16560293D01*
X13017682Y-16560293D02*
X13017682Y-16598388D01*
X13017682Y-16598388D02*
X13027206Y-16617436D01*
X13027206Y-16617436D02*
X13036729Y-16626960D01*
X13036729Y-16626960D02*
X13055777Y-16636484D01*
X13055777Y-16636484D02*
X13093872Y-16636484D01*
X13093872Y-16636484D02*
X13112920Y-16626960D01*
X13112920Y-16626960D02*
X13122444Y-16617436D01*
X13122444Y-16617436D02*
X13131968Y-16598388D01*
X13131968Y-16598388D02*
X13131968Y-16560293D01*
X13131968Y-16560293D02*
X13122444Y-16541246D01*
X13122444Y-16541246D02*
X13112920Y-16531722D01*
X13112920Y-16531722D02*
X13093872Y-16522198D01*
X13370063Y-16636484D02*
X13370063Y-16436484D01*
X13455777Y-16636484D02*
X13455777Y-16531722D01*
X13455777Y-16531722D02*
X13446253Y-16512674D01*
X13446253Y-16512674D02*
X13427206Y-16503150D01*
X13427206Y-16503150D02*
X13398634Y-16503150D01*
X13398634Y-16503150D02*
X13379587Y-16512674D01*
X13379587Y-16512674D02*
X13370063Y-16522198D01*
X13579587Y-16636484D02*
X13560539Y-16626960D01*
X13560539Y-16626960D02*
X13551015Y-16617436D01*
X13551015Y-16617436D02*
X13541491Y-16598388D01*
X13541491Y-16598388D02*
X13541491Y-16541246D01*
X13541491Y-16541246D02*
X13551015Y-16522198D01*
X13551015Y-16522198D02*
X13560539Y-16512674D01*
X13560539Y-16512674D02*
X13579587Y-16503150D01*
X13579587Y-16503150D02*
X13608158Y-16503150D01*
X13608158Y-16503150D02*
X13627206Y-16512674D01*
X13627206Y-16512674D02*
X13636730Y-16522198D01*
X13636730Y-16522198D02*
X13646253Y-16541246D01*
X13646253Y-16541246D02*
X13646253Y-16598388D01*
X13646253Y-16598388D02*
X13636730Y-16617436D01*
X13636730Y-16617436D02*
X13627206Y-16626960D01*
X13627206Y-16626960D02*
X13608158Y-16636484D01*
X13608158Y-16636484D02*
X13579587Y-16636484D01*
X13760539Y-16636484D02*
X13741491Y-16626960D01*
X13741491Y-16626960D02*
X13731968Y-16607912D01*
X13731968Y-16607912D02*
X13731968Y-16436484D01*
X13912920Y-16626960D02*
X13893872Y-16636484D01*
X13893872Y-16636484D02*
X13855777Y-16636484D01*
X13855777Y-16636484D02*
X13836730Y-16626960D01*
X13836730Y-16626960D02*
X13827206Y-16607912D01*
X13827206Y-16607912D02*
X13827206Y-16531722D01*
X13827206Y-16531722D02*
X13836730Y-16512674D01*
X13836730Y-16512674D02*
X13855777Y-16503150D01*
X13855777Y-16503150D02*
X13893872Y-16503150D01*
X13893872Y-16503150D02*
X13912920Y-16512674D01*
X13912920Y-16512674D02*
X13922444Y-16531722D01*
X13922444Y-16531722D02*
X13922444Y-16550769D01*
X13922444Y-16550769D02*
X13827206Y-16569817D01*
X13998634Y-16626960D02*
X14017682Y-16636484D01*
X14017682Y-16636484D02*
X14055777Y-16636484D01*
X14055777Y-16636484D02*
X14074825Y-16626960D01*
X14074825Y-16626960D02*
X14084349Y-16607912D01*
X14084349Y-16607912D02*
X14084349Y-16598388D01*
X14084349Y-16598388D02*
X14074825Y-16579341D01*
X14074825Y-16579341D02*
X14055777Y-16569817D01*
X14055777Y-16569817D02*
X14027206Y-16569817D01*
X14027206Y-16569817D02*
X14008158Y-16560293D01*
X14008158Y-16560293D02*
X13998634Y-16541246D01*
X13998634Y-16541246D02*
X13998634Y-16531722D01*
X13998634Y-16531722D02*
X14008158Y-16512674D01*
X14008158Y-16512674D02*
X14027206Y-16503150D01*
X14027206Y-16503150D02*
X14055777Y-16503150D01*
X14055777Y-16503150D02*
X14074825Y-16512674D01*
X14151015Y-16712674D02*
X14160539Y-16703150D01*
X14160539Y-16703150D02*
X14179587Y-16674579D01*
X14179587Y-16674579D02*
X14189111Y-16655531D01*
X14189111Y-16655531D02*
X14198634Y-16626960D01*
X14198634Y-16626960D02*
X14208158Y-16579341D01*
X14208158Y-16579341D02*
X14208158Y-16541246D01*
X14208158Y-16541246D02*
X14198634Y-16493627D01*
X14198634Y-16493627D02*
X14189111Y-16465055D01*
X14189111Y-16465055D02*
X14179587Y-16446008D01*
X14179587Y-16446008D02*
X14160539Y-16417436D01*
X14160539Y-16417436D02*
X14151015Y-16407912D01*
D10*
X8995000Y-16809000D02*
G75*
G02*
X8945000Y-16809000I-25000J0D01*
G01*
X8945000Y-16809000D02*
G75*
G02*
X8995000Y-16809000I25000J0D01*
G01*
D12*
X9293872Y-16700484D02*
X9312920Y-16700484D01*
X9312920Y-16700484D02*
X9331967Y-16710008D01*
X9331967Y-16710008D02*
X9341491Y-16719531D01*
X9341491Y-16719531D02*
X9351015Y-16738579D01*
X9351015Y-16738579D02*
X9360539Y-16776674D01*
X9360539Y-16776674D02*
X9360539Y-16824293D01*
X9360539Y-16824293D02*
X9351015Y-16862389D01*
X9351015Y-16862389D02*
X9341491Y-16881436D01*
X9341491Y-16881436D02*
X9331967Y-16890960D01*
X9331967Y-16890960D02*
X9312920Y-16900484D01*
X9312920Y-16900484D02*
X9293872Y-16900484D01*
X9293872Y-16900484D02*
X9274824Y-16890960D01*
X9274824Y-16890960D02*
X9265301Y-16881436D01*
X9265301Y-16881436D02*
X9255777Y-16862389D01*
X9255777Y-16862389D02*
X9246253Y-16824293D01*
X9246253Y-16824293D02*
X9246253Y-16776674D01*
X9246253Y-16776674D02*
X9255777Y-16738579D01*
X9255777Y-16738579D02*
X9265301Y-16719531D01*
X9265301Y-16719531D02*
X9274824Y-16710008D01*
X9274824Y-16710008D02*
X9293872Y-16700484D01*
X9446253Y-16881436D02*
X9455777Y-16890960D01*
X9455777Y-16890960D02*
X9446253Y-16900484D01*
X9446253Y-16900484D02*
X9436729Y-16890960D01*
X9436729Y-16890960D02*
X9446253Y-16881436D01*
X9446253Y-16881436D02*
X9446253Y-16900484D01*
X9636729Y-16700484D02*
X9541491Y-16700484D01*
X9541491Y-16700484D02*
X9531967Y-16795722D01*
X9531967Y-16795722D02*
X9541491Y-16786198D01*
X9541491Y-16786198D02*
X9560539Y-16776674D01*
X9560539Y-16776674D02*
X9608158Y-16776674D01*
X9608158Y-16776674D02*
X9627205Y-16786198D01*
X9627205Y-16786198D02*
X9636729Y-16795722D01*
X9636729Y-16795722D02*
X9646253Y-16814770D01*
X9646253Y-16814770D02*
X9646253Y-16862389D01*
X9646253Y-16862389D02*
X9636729Y-16881436D01*
X9636729Y-16881436D02*
X9627205Y-16890960D01*
X9627205Y-16890960D02*
X9608158Y-16900484D01*
X9608158Y-16900484D02*
X9560539Y-16900484D01*
X9560539Y-16900484D02*
X9541491Y-16890960D01*
X9541491Y-16890960D02*
X9531967Y-16881436D01*
X9770063Y-16700484D02*
X9789110Y-16700484D01*
X9789110Y-16700484D02*
X9808158Y-16710008D01*
X9808158Y-16710008D02*
X9817682Y-16719531D01*
X9817682Y-16719531D02*
X9827205Y-16738579D01*
X9827205Y-16738579D02*
X9836729Y-16776674D01*
X9836729Y-16776674D02*
X9836729Y-16824293D01*
X9836729Y-16824293D02*
X9827205Y-16862389D01*
X9827205Y-16862389D02*
X9817682Y-16881436D01*
X9817682Y-16881436D02*
X9808158Y-16890960D01*
X9808158Y-16890960D02*
X9789110Y-16900484D01*
X9789110Y-16900484D02*
X9770063Y-16900484D01*
X9770063Y-16900484D02*
X9751015Y-16890960D01*
X9751015Y-16890960D02*
X9741491Y-16881436D01*
X9741491Y-16881436D02*
X9731967Y-16862389D01*
X9731967Y-16862389D02*
X9722444Y-16824293D01*
X9722444Y-16824293D02*
X9722444Y-16776674D01*
X9722444Y-16776674D02*
X9731967Y-16738579D01*
X9731967Y-16738579D02*
X9741491Y-16719531D01*
X9741491Y-16719531D02*
X9751015Y-16710008D01*
X9751015Y-16710008D02*
X9770063Y-16700484D01*
X9960539Y-16700484D02*
X9979586Y-16700484D01*
X9979586Y-16700484D02*
X9998634Y-16710008D01*
X9998634Y-16710008D02*
X10008158Y-16719531D01*
X10008158Y-16719531D02*
X10017682Y-16738579D01*
X10017682Y-16738579D02*
X10027205Y-16776674D01*
X10027205Y-16776674D02*
X10027205Y-16824293D01*
X10027205Y-16824293D02*
X10017682Y-16862389D01*
X10017682Y-16862389D02*
X10008158Y-16881436D01*
X10008158Y-16881436D02*
X9998634Y-16890960D01*
X9998634Y-16890960D02*
X9979586Y-16900484D01*
X9979586Y-16900484D02*
X9960539Y-16900484D01*
X9960539Y-16900484D02*
X9941491Y-16890960D01*
X9941491Y-16890960D02*
X9931967Y-16881436D01*
X9931967Y-16881436D02*
X9922444Y-16862389D01*
X9922444Y-16862389D02*
X9912920Y-16824293D01*
X9912920Y-16824293D02*
X9912920Y-16776674D01*
X9912920Y-16776674D02*
X9922444Y-16738579D01*
X9922444Y-16738579D02*
X9931967Y-16719531D01*
X9931967Y-16719531D02*
X9941491Y-16710008D01*
X9941491Y-16710008D02*
X9960539Y-16700484D01*
X10112920Y-16900484D02*
X10112920Y-16767150D01*
X10112920Y-16786198D02*
X10122444Y-16776674D01*
X10122444Y-16776674D02*
X10141491Y-16767150D01*
X10141491Y-16767150D02*
X10170063Y-16767150D01*
X10170063Y-16767150D02*
X10189110Y-16776674D01*
X10189110Y-16776674D02*
X10198634Y-16795722D01*
X10198634Y-16795722D02*
X10198634Y-16900484D01*
X10198634Y-16795722D02*
X10208158Y-16776674D01*
X10208158Y-16776674D02*
X10227205Y-16767150D01*
X10227205Y-16767150D02*
X10255777Y-16767150D01*
X10255777Y-16767150D02*
X10274825Y-16776674D01*
X10274825Y-16776674D02*
X10284348Y-16795722D01*
X10284348Y-16795722D02*
X10284348Y-16900484D01*
X10379586Y-16900484D02*
X10379586Y-16767150D01*
X10379586Y-16786198D02*
X10389110Y-16776674D01*
X10389110Y-16776674D02*
X10408158Y-16767150D01*
X10408158Y-16767150D02*
X10436729Y-16767150D01*
X10436729Y-16767150D02*
X10455777Y-16776674D01*
X10455777Y-16776674D02*
X10465301Y-16795722D01*
X10465301Y-16795722D02*
X10465301Y-16900484D01*
X10465301Y-16795722D02*
X10474825Y-16776674D01*
X10474825Y-16776674D02*
X10493872Y-16767150D01*
X10493872Y-16767150D02*
X10522444Y-16767150D01*
X10522444Y-16767150D02*
X10541491Y-16776674D01*
X10541491Y-16776674D02*
X10551015Y-16795722D01*
X10551015Y-16795722D02*
X10551015Y-16900484D01*
X10941491Y-16690960D02*
X10770063Y-16948103D01*
X11198634Y-16700484D02*
X11217682Y-16700484D01*
X11217682Y-16700484D02*
X11236729Y-16710008D01*
X11236729Y-16710008D02*
X11246253Y-16719531D01*
X11246253Y-16719531D02*
X11255777Y-16738579D01*
X11255777Y-16738579D02*
X11265301Y-16776674D01*
X11265301Y-16776674D02*
X11265301Y-16824293D01*
X11265301Y-16824293D02*
X11255777Y-16862389D01*
X11255777Y-16862389D02*
X11246253Y-16881436D01*
X11246253Y-16881436D02*
X11236729Y-16890960D01*
X11236729Y-16890960D02*
X11217682Y-16900484D01*
X11217682Y-16900484D02*
X11198634Y-16900484D01*
X11198634Y-16900484D02*
X11179587Y-16890960D01*
X11179587Y-16890960D02*
X11170063Y-16881436D01*
X11170063Y-16881436D02*
X11160539Y-16862389D01*
X11160539Y-16862389D02*
X11151015Y-16824293D01*
X11151015Y-16824293D02*
X11151015Y-16776674D01*
X11151015Y-16776674D02*
X11160539Y-16738579D01*
X11160539Y-16738579D02*
X11170063Y-16719531D01*
X11170063Y-16719531D02*
X11179587Y-16710008D01*
X11179587Y-16710008D02*
X11198634Y-16700484D01*
X11351015Y-16881436D02*
X11360539Y-16890960D01*
X11360539Y-16890960D02*
X11351015Y-16900484D01*
X11351015Y-16900484D02*
X11341491Y-16890960D01*
X11341491Y-16890960D02*
X11351015Y-16881436D01*
X11351015Y-16881436D02*
X11351015Y-16900484D01*
X11484348Y-16700484D02*
X11503396Y-16700484D01*
X11503396Y-16700484D02*
X11522444Y-16710008D01*
X11522444Y-16710008D02*
X11531967Y-16719531D01*
X11531967Y-16719531D02*
X11541491Y-16738579D01*
X11541491Y-16738579D02*
X11551015Y-16776674D01*
X11551015Y-16776674D02*
X11551015Y-16824293D01*
X11551015Y-16824293D02*
X11541491Y-16862389D01*
X11541491Y-16862389D02*
X11531967Y-16881436D01*
X11531967Y-16881436D02*
X11522444Y-16890960D01*
X11522444Y-16890960D02*
X11503396Y-16900484D01*
X11503396Y-16900484D02*
X11484348Y-16900484D01*
X11484348Y-16900484D02*
X11465301Y-16890960D01*
X11465301Y-16890960D02*
X11455777Y-16881436D01*
X11455777Y-16881436D02*
X11446253Y-16862389D01*
X11446253Y-16862389D02*
X11436729Y-16824293D01*
X11436729Y-16824293D02*
X11436729Y-16776674D01*
X11436729Y-16776674D02*
X11446253Y-16738579D01*
X11446253Y-16738579D02*
X11455777Y-16719531D01*
X11455777Y-16719531D02*
X11465301Y-16710008D01*
X11465301Y-16710008D02*
X11484348Y-16700484D01*
X11741491Y-16900484D02*
X11627206Y-16900484D01*
X11684348Y-16900484D02*
X11684348Y-16700484D01*
X11684348Y-16700484D02*
X11665301Y-16729055D01*
X11665301Y-16729055D02*
X11646253Y-16748103D01*
X11646253Y-16748103D02*
X11627206Y-16757627D01*
X11836729Y-16900484D02*
X11874825Y-16900484D01*
X11874825Y-16900484D02*
X11893872Y-16890960D01*
X11893872Y-16890960D02*
X11903396Y-16881436D01*
X11903396Y-16881436D02*
X11922444Y-16852865D01*
X11922444Y-16852865D02*
X11931967Y-16814770D01*
X11931967Y-16814770D02*
X11931967Y-16738579D01*
X11931967Y-16738579D02*
X11922444Y-16719531D01*
X11922444Y-16719531D02*
X11912920Y-16710008D01*
X11912920Y-16710008D02*
X11893872Y-16700484D01*
X11893872Y-16700484D02*
X11855777Y-16700484D01*
X11855777Y-16700484D02*
X11836729Y-16710008D01*
X11836729Y-16710008D02*
X11827206Y-16719531D01*
X11827206Y-16719531D02*
X11817682Y-16738579D01*
X11817682Y-16738579D02*
X11817682Y-16786198D01*
X11817682Y-16786198D02*
X11827206Y-16805246D01*
X11827206Y-16805246D02*
X11836729Y-16814770D01*
X11836729Y-16814770D02*
X11855777Y-16824293D01*
X11855777Y-16824293D02*
X11893872Y-16824293D01*
X11893872Y-16824293D02*
X11912920Y-16814770D01*
X11912920Y-16814770D02*
X11922444Y-16805246D01*
X11922444Y-16805246D02*
X11931967Y-16786198D01*
X11998634Y-16700484D02*
X12131967Y-16700484D01*
X12131967Y-16700484D02*
X12046253Y-16900484D01*
X12198634Y-16700484D02*
X12198634Y-16738579D01*
X12274825Y-16700484D02*
X12274825Y-16738579D01*
X12570063Y-16976674D02*
X12560539Y-16967150D01*
X12560539Y-16967150D02*
X12541491Y-16938579D01*
X12541491Y-16938579D02*
X12531968Y-16919531D01*
X12531968Y-16919531D02*
X12522444Y-16890960D01*
X12522444Y-16890960D02*
X12512920Y-16843341D01*
X12512920Y-16843341D02*
X12512920Y-16805246D01*
X12512920Y-16805246D02*
X12522444Y-16757627D01*
X12522444Y-16757627D02*
X12531968Y-16729055D01*
X12531968Y-16729055D02*
X12541491Y-16710008D01*
X12541491Y-16710008D02*
X12560539Y-16681436D01*
X12560539Y-16681436D02*
X12570063Y-16671912D01*
X12636729Y-16719531D02*
X12646253Y-16710008D01*
X12646253Y-16710008D02*
X12665301Y-16700484D01*
X12665301Y-16700484D02*
X12712920Y-16700484D01*
X12712920Y-16700484D02*
X12731968Y-16710008D01*
X12731968Y-16710008D02*
X12741491Y-16719531D01*
X12741491Y-16719531D02*
X12751015Y-16738579D01*
X12751015Y-16738579D02*
X12751015Y-16757627D01*
X12751015Y-16757627D02*
X12741491Y-16786198D01*
X12741491Y-16786198D02*
X12627206Y-16900484D01*
X12627206Y-16900484D02*
X12751015Y-16900484D01*
X12989110Y-16900484D02*
X12989110Y-16700484D01*
X13074825Y-16900484D02*
X13074825Y-16795722D01*
X13074825Y-16795722D02*
X13065301Y-16776674D01*
X13065301Y-16776674D02*
X13046253Y-16767150D01*
X13046253Y-16767150D02*
X13017682Y-16767150D01*
X13017682Y-16767150D02*
X12998634Y-16776674D01*
X12998634Y-16776674D02*
X12989110Y-16786198D01*
X13198634Y-16900484D02*
X13179587Y-16890960D01*
X13179587Y-16890960D02*
X13170063Y-16881436D01*
X13170063Y-16881436D02*
X13160539Y-16862389D01*
X13160539Y-16862389D02*
X13160539Y-16805246D01*
X13160539Y-16805246D02*
X13170063Y-16786198D01*
X13170063Y-16786198D02*
X13179587Y-16776674D01*
X13179587Y-16776674D02*
X13198634Y-16767150D01*
X13198634Y-16767150D02*
X13227206Y-16767150D01*
X13227206Y-16767150D02*
X13246253Y-16776674D01*
X13246253Y-16776674D02*
X13255777Y-16786198D01*
X13255777Y-16786198D02*
X13265301Y-16805246D01*
X13265301Y-16805246D02*
X13265301Y-16862389D01*
X13265301Y-16862389D02*
X13255777Y-16881436D01*
X13255777Y-16881436D02*
X13246253Y-16890960D01*
X13246253Y-16890960D02*
X13227206Y-16900484D01*
X13227206Y-16900484D02*
X13198634Y-16900484D01*
X13379587Y-16900484D02*
X13360539Y-16890960D01*
X13360539Y-16890960D02*
X13351015Y-16871912D01*
X13351015Y-16871912D02*
X13351015Y-16700484D01*
X13531968Y-16890960D02*
X13512920Y-16900484D01*
X13512920Y-16900484D02*
X13474825Y-16900484D01*
X13474825Y-16900484D02*
X13455777Y-16890960D01*
X13455777Y-16890960D02*
X13446253Y-16871912D01*
X13446253Y-16871912D02*
X13446253Y-16795722D01*
X13446253Y-16795722D02*
X13455777Y-16776674D01*
X13455777Y-16776674D02*
X13474825Y-16767150D01*
X13474825Y-16767150D02*
X13512920Y-16767150D01*
X13512920Y-16767150D02*
X13531968Y-16776674D01*
X13531968Y-16776674D02*
X13541491Y-16795722D01*
X13541491Y-16795722D02*
X13541491Y-16814770D01*
X13541491Y-16814770D02*
X13446253Y-16833817D01*
X13617682Y-16890960D02*
X13636730Y-16900484D01*
X13636730Y-16900484D02*
X13674825Y-16900484D01*
X13674825Y-16900484D02*
X13693872Y-16890960D01*
X13693872Y-16890960D02*
X13703396Y-16871912D01*
X13703396Y-16871912D02*
X13703396Y-16862389D01*
X13703396Y-16862389D02*
X13693872Y-16843341D01*
X13693872Y-16843341D02*
X13674825Y-16833817D01*
X13674825Y-16833817D02*
X13646253Y-16833817D01*
X13646253Y-16833817D02*
X13627206Y-16824293D01*
X13627206Y-16824293D02*
X13617682Y-16805246D01*
X13617682Y-16805246D02*
X13617682Y-16795722D01*
X13617682Y-16795722D02*
X13627206Y-16776674D01*
X13627206Y-16776674D02*
X13646253Y-16767150D01*
X13646253Y-16767150D02*
X13674825Y-16767150D01*
X13674825Y-16767150D02*
X13693872Y-16776674D01*
X13770063Y-16976674D02*
X13779587Y-16967150D01*
X13779587Y-16967150D02*
X13798634Y-16938579D01*
X13798634Y-16938579D02*
X13808158Y-16919531D01*
X13808158Y-16919531D02*
X13817682Y-16890960D01*
X13817682Y-16890960D02*
X13827206Y-16843341D01*
X13827206Y-16843341D02*
X13827206Y-16805246D01*
X13827206Y-16805246D02*
X13817682Y-16757627D01*
X13817682Y-16757627D02*
X13808158Y-16729055D01*
X13808158Y-16729055D02*
X13798634Y-16710008D01*
X13798634Y-16710008D02*
X13779587Y-16681436D01*
X13779587Y-16681436D02*
X13770063Y-16671912D01*
D10*
X8956900Y-17034900D02*
X8956900Y-17111100D01*
X8918800Y-17073000D02*
X8995000Y-17073000D01*
D12*
X9293872Y-16964484D02*
X9312920Y-16964484D01*
X9312920Y-16964484D02*
X9331967Y-16974008D01*
X9331967Y-16974008D02*
X9341491Y-16983531D01*
X9341491Y-16983531D02*
X9351015Y-17002579D01*
X9351015Y-17002579D02*
X9360539Y-17040674D01*
X9360539Y-17040674D02*
X9360539Y-17088293D01*
X9360539Y-17088293D02*
X9351015Y-17126389D01*
X9351015Y-17126389D02*
X9341491Y-17145436D01*
X9341491Y-17145436D02*
X9331967Y-17154960D01*
X9331967Y-17154960D02*
X9312920Y-17164484D01*
X9312920Y-17164484D02*
X9293872Y-17164484D01*
X9293872Y-17164484D02*
X9274824Y-17154960D01*
X9274824Y-17154960D02*
X9265301Y-17145436D01*
X9265301Y-17145436D02*
X9255777Y-17126389D01*
X9255777Y-17126389D02*
X9246253Y-17088293D01*
X9246253Y-17088293D02*
X9246253Y-17040674D01*
X9246253Y-17040674D02*
X9255777Y-17002579D01*
X9255777Y-17002579D02*
X9265301Y-16983531D01*
X9265301Y-16983531D02*
X9274824Y-16974008D01*
X9274824Y-16974008D02*
X9293872Y-16964484D01*
X9446253Y-17145436D02*
X9455777Y-17154960D01*
X9455777Y-17154960D02*
X9446253Y-17164484D01*
X9446253Y-17164484D02*
X9436729Y-17154960D01*
X9436729Y-17154960D02*
X9446253Y-17145436D01*
X9446253Y-17145436D02*
X9446253Y-17164484D01*
X9522444Y-16964484D02*
X9655777Y-16964484D01*
X9655777Y-16964484D02*
X9570063Y-17164484D01*
X9817682Y-16964484D02*
X9779586Y-16964484D01*
X9779586Y-16964484D02*
X9760539Y-16974008D01*
X9760539Y-16974008D02*
X9751015Y-16983531D01*
X9751015Y-16983531D02*
X9731967Y-17012103D01*
X9731967Y-17012103D02*
X9722444Y-17050198D01*
X9722444Y-17050198D02*
X9722444Y-17126389D01*
X9722444Y-17126389D02*
X9731967Y-17145436D01*
X9731967Y-17145436D02*
X9741491Y-17154960D01*
X9741491Y-17154960D02*
X9760539Y-17164484D01*
X9760539Y-17164484D02*
X9798634Y-17164484D01*
X9798634Y-17164484D02*
X9817682Y-17154960D01*
X9817682Y-17154960D02*
X9827205Y-17145436D01*
X9827205Y-17145436D02*
X9836729Y-17126389D01*
X9836729Y-17126389D02*
X9836729Y-17078770D01*
X9836729Y-17078770D02*
X9827205Y-17059722D01*
X9827205Y-17059722D02*
X9817682Y-17050198D01*
X9817682Y-17050198D02*
X9798634Y-17040674D01*
X9798634Y-17040674D02*
X9760539Y-17040674D01*
X9760539Y-17040674D02*
X9741491Y-17050198D01*
X9741491Y-17050198D02*
X9731967Y-17059722D01*
X9731967Y-17059722D02*
X9722444Y-17078770D01*
X9912920Y-16983531D02*
X9922444Y-16974008D01*
X9922444Y-16974008D02*
X9941491Y-16964484D01*
X9941491Y-16964484D02*
X9989110Y-16964484D01*
X9989110Y-16964484D02*
X10008158Y-16974008D01*
X10008158Y-16974008D02*
X10017682Y-16983531D01*
X10017682Y-16983531D02*
X10027205Y-17002579D01*
X10027205Y-17002579D02*
X10027205Y-17021627D01*
X10027205Y-17021627D02*
X10017682Y-17050198D01*
X10017682Y-17050198D02*
X9903396Y-17164484D01*
X9903396Y-17164484D02*
X10027205Y-17164484D01*
X10112920Y-17164484D02*
X10112920Y-17031150D01*
X10112920Y-17050198D02*
X10122444Y-17040674D01*
X10122444Y-17040674D02*
X10141491Y-17031150D01*
X10141491Y-17031150D02*
X10170063Y-17031150D01*
X10170063Y-17031150D02*
X10189110Y-17040674D01*
X10189110Y-17040674D02*
X10198634Y-17059722D01*
X10198634Y-17059722D02*
X10198634Y-17164484D01*
X10198634Y-17059722D02*
X10208158Y-17040674D01*
X10208158Y-17040674D02*
X10227205Y-17031150D01*
X10227205Y-17031150D02*
X10255777Y-17031150D01*
X10255777Y-17031150D02*
X10274825Y-17040674D01*
X10274825Y-17040674D02*
X10284348Y-17059722D01*
X10284348Y-17059722D02*
X10284348Y-17164484D01*
X10379586Y-17164484D02*
X10379586Y-17031150D01*
X10379586Y-17050198D02*
X10389110Y-17040674D01*
X10389110Y-17040674D02*
X10408158Y-17031150D01*
X10408158Y-17031150D02*
X10436729Y-17031150D01*
X10436729Y-17031150D02*
X10455777Y-17040674D01*
X10455777Y-17040674D02*
X10465301Y-17059722D01*
X10465301Y-17059722D02*
X10465301Y-17164484D01*
X10465301Y-17059722D02*
X10474825Y-17040674D01*
X10474825Y-17040674D02*
X10493872Y-17031150D01*
X10493872Y-17031150D02*
X10522444Y-17031150D01*
X10522444Y-17031150D02*
X10541491Y-17040674D01*
X10541491Y-17040674D02*
X10551015Y-17059722D01*
X10551015Y-17059722D02*
X10551015Y-17164484D01*
X10941491Y-16954960D02*
X10770063Y-17212103D01*
X11198634Y-16964484D02*
X11217682Y-16964484D01*
X11217682Y-16964484D02*
X11236729Y-16974008D01*
X11236729Y-16974008D02*
X11246253Y-16983531D01*
X11246253Y-16983531D02*
X11255777Y-17002579D01*
X11255777Y-17002579D02*
X11265301Y-17040674D01*
X11265301Y-17040674D02*
X11265301Y-17088293D01*
X11265301Y-17088293D02*
X11255777Y-17126389D01*
X11255777Y-17126389D02*
X11246253Y-17145436D01*
X11246253Y-17145436D02*
X11236729Y-17154960D01*
X11236729Y-17154960D02*
X11217682Y-17164484D01*
X11217682Y-17164484D02*
X11198634Y-17164484D01*
X11198634Y-17164484D02*
X11179587Y-17154960D01*
X11179587Y-17154960D02*
X11170063Y-17145436D01*
X11170063Y-17145436D02*
X11160539Y-17126389D01*
X11160539Y-17126389D02*
X11151015Y-17088293D01*
X11151015Y-17088293D02*
X11151015Y-17040674D01*
X11151015Y-17040674D02*
X11160539Y-17002579D01*
X11160539Y-17002579D02*
X11170063Y-16983531D01*
X11170063Y-16983531D02*
X11179587Y-16974008D01*
X11179587Y-16974008D02*
X11198634Y-16964484D01*
X11351015Y-17145436D02*
X11360539Y-17154960D01*
X11360539Y-17154960D02*
X11351015Y-17164484D01*
X11351015Y-17164484D02*
X11341491Y-17154960D01*
X11341491Y-17154960D02*
X11351015Y-17145436D01*
X11351015Y-17145436D02*
X11351015Y-17164484D01*
X11484348Y-16964484D02*
X11503396Y-16964484D01*
X11503396Y-16964484D02*
X11522444Y-16974008D01*
X11522444Y-16974008D02*
X11531967Y-16983531D01*
X11531967Y-16983531D02*
X11541491Y-17002579D01*
X11541491Y-17002579D02*
X11551015Y-17040674D01*
X11551015Y-17040674D02*
X11551015Y-17088293D01*
X11551015Y-17088293D02*
X11541491Y-17126389D01*
X11541491Y-17126389D02*
X11531967Y-17145436D01*
X11531967Y-17145436D02*
X11522444Y-17154960D01*
X11522444Y-17154960D02*
X11503396Y-17164484D01*
X11503396Y-17164484D02*
X11484348Y-17164484D01*
X11484348Y-17164484D02*
X11465301Y-17154960D01*
X11465301Y-17154960D02*
X11455777Y-17145436D01*
X11455777Y-17145436D02*
X11446253Y-17126389D01*
X11446253Y-17126389D02*
X11436729Y-17088293D01*
X11436729Y-17088293D02*
X11436729Y-17040674D01*
X11436729Y-17040674D02*
X11446253Y-17002579D01*
X11446253Y-17002579D02*
X11455777Y-16983531D01*
X11455777Y-16983531D02*
X11465301Y-16974008D01*
X11465301Y-16974008D02*
X11484348Y-16964484D01*
X11617682Y-16964484D02*
X11741491Y-16964484D01*
X11741491Y-16964484D02*
X11674825Y-17040674D01*
X11674825Y-17040674D02*
X11703396Y-17040674D01*
X11703396Y-17040674D02*
X11722444Y-17050198D01*
X11722444Y-17050198D02*
X11731967Y-17059722D01*
X11731967Y-17059722D02*
X11741491Y-17078770D01*
X11741491Y-17078770D02*
X11741491Y-17126389D01*
X11741491Y-17126389D02*
X11731967Y-17145436D01*
X11731967Y-17145436D02*
X11722444Y-17154960D01*
X11722444Y-17154960D02*
X11703396Y-17164484D01*
X11703396Y-17164484D02*
X11646253Y-17164484D01*
X11646253Y-17164484D02*
X11627206Y-17154960D01*
X11627206Y-17154960D02*
X11617682Y-17145436D01*
X11865301Y-16964484D02*
X11884348Y-16964484D01*
X11884348Y-16964484D02*
X11903396Y-16974008D01*
X11903396Y-16974008D02*
X11912920Y-16983531D01*
X11912920Y-16983531D02*
X11922444Y-17002579D01*
X11922444Y-17002579D02*
X11931967Y-17040674D01*
X11931967Y-17040674D02*
X11931967Y-17088293D01*
X11931967Y-17088293D02*
X11922444Y-17126389D01*
X11922444Y-17126389D02*
X11912920Y-17145436D01*
X11912920Y-17145436D02*
X11903396Y-17154960D01*
X11903396Y-17154960D02*
X11884348Y-17164484D01*
X11884348Y-17164484D02*
X11865301Y-17164484D01*
X11865301Y-17164484D02*
X11846253Y-17154960D01*
X11846253Y-17154960D02*
X11836729Y-17145436D01*
X11836729Y-17145436D02*
X11827206Y-17126389D01*
X11827206Y-17126389D02*
X11817682Y-17088293D01*
X11817682Y-17088293D02*
X11817682Y-17040674D01*
X11817682Y-17040674D02*
X11827206Y-17002579D01*
X11827206Y-17002579D02*
X11836729Y-16983531D01*
X11836729Y-16983531D02*
X11846253Y-16974008D01*
X11846253Y-16974008D02*
X11865301Y-16964484D01*
X12055777Y-16964484D02*
X12074825Y-16964484D01*
X12074825Y-16964484D02*
X12093872Y-16974008D01*
X12093872Y-16974008D02*
X12103396Y-16983531D01*
X12103396Y-16983531D02*
X12112920Y-17002579D01*
X12112920Y-17002579D02*
X12122444Y-17040674D01*
X12122444Y-17040674D02*
X12122444Y-17088293D01*
X12122444Y-17088293D02*
X12112920Y-17126389D01*
X12112920Y-17126389D02*
X12103396Y-17145436D01*
X12103396Y-17145436D02*
X12093872Y-17154960D01*
X12093872Y-17154960D02*
X12074825Y-17164484D01*
X12074825Y-17164484D02*
X12055777Y-17164484D01*
X12055777Y-17164484D02*
X12036729Y-17154960D01*
X12036729Y-17154960D02*
X12027206Y-17145436D01*
X12027206Y-17145436D02*
X12017682Y-17126389D01*
X12017682Y-17126389D02*
X12008158Y-17088293D01*
X12008158Y-17088293D02*
X12008158Y-17040674D01*
X12008158Y-17040674D02*
X12017682Y-17002579D01*
X12017682Y-17002579D02*
X12027206Y-16983531D01*
X12027206Y-16983531D02*
X12036729Y-16974008D01*
X12036729Y-16974008D02*
X12055777Y-16964484D01*
X12198634Y-16964484D02*
X12198634Y-17002579D01*
X12274825Y-16964484D02*
X12274825Y-17002579D01*
X12570063Y-17240674D02*
X12560539Y-17231150D01*
X12560539Y-17231150D02*
X12541491Y-17202579D01*
X12541491Y-17202579D02*
X12531968Y-17183531D01*
X12531968Y-17183531D02*
X12522444Y-17154960D01*
X12522444Y-17154960D02*
X12512920Y-17107341D01*
X12512920Y-17107341D02*
X12512920Y-17069246D01*
X12512920Y-17069246D02*
X12522444Y-17021627D01*
X12522444Y-17021627D02*
X12531968Y-16993055D01*
X12531968Y-16993055D02*
X12541491Y-16974008D01*
X12541491Y-16974008D02*
X12560539Y-16945436D01*
X12560539Y-16945436D02*
X12570063Y-16935912D01*
X12731968Y-16964484D02*
X12693872Y-16964484D01*
X12693872Y-16964484D02*
X12674825Y-16974008D01*
X12674825Y-16974008D02*
X12665301Y-16983531D01*
X12665301Y-16983531D02*
X12646253Y-17012103D01*
X12646253Y-17012103D02*
X12636729Y-17050198D01*
X12636729Y-17050198D02*
X12636729Y-17126389D01*
X12636729Y-17126389D02*
X12646253Y-17145436D01*
X12646253Y-17145436D02*
X12655777Y-17154960D01*
X12655777Y-17154960D02*
X12674825Y-17164484D01*
X12674825Y-17164484D02*
X12712920Y-17164484D01*
X12712920Y-17164484D02*
X12731968Y-17154960D01*
X12731968Y-17154960D02*
X12741491Y-17145436D01*
X12741491Y-17145436D02*
X12751015Y-17126389D01*
X12751015Y-17126389D02*
X12751015Y-17078770D01*
X12751015Y-17078770D02*
X12741491Y-17059722D01*
X12741491Y-17059722D02*
X12731968Y-17050198D01*
X12731968Y-17050198D02*
X12712920Y-17040674D01*
X12712920Y-17040674D02*
X12674825Y-17040674D01*
X12674825Y-17040674D02*
X12655777Y-17050198D01*
X12655777Y-17050198D02*
X12646253Y-17059722D01*
X12646253Y-17059722D02*
X12636729Y-17078770D01*
X12989110Y-17164484D02*
X12989110Y-16964484D01*
X13074825Y-17164484D02*
X13074825Y-17059722D01*
X13074825Y-17059722D02*
X13065301Y-17040674D01*
X13065301Y-17040674D02*
X13046253Y-17031150D01*
X13046253Y-17031150D02*
X13017682Y-17031150D01*
X13017682Y-17031150D02*
X12998634Y-17040674D01*
X12998634Y-17040674D02*
X12989110Y-17050198D01*
X13198634Y-17164484D02*
X13179587Y-17154960D01*
X13179587Y-17154960D02*
X13170063Y-17145436D01*
X13170063Y-17145436D02*
X13160539Y-17126389D01*
X13160539Y-17126389D02*
X13160539Y-17069246D01*
X13160539Y-17069246D02*
X13170063Y-17050198D01*
X13170063Y-17050198D02*
X13179587Y-17040674D01*
X13179587Y-17040674D02*
X13198634Y-17031150D01*
X13198634Y-17031150D02*
X13227206Y-17031150D01*
X13227206Y-17031150D02*
X13246253Y-17040674D01*
X13246253Y-17040674D02*
X13255777Y-17050198D01*
X13255777Y-17050198D02*
X13265301Y-17069246D01*
X13265301Y-17069246D02*
X13265301Y-17126389D01*
X13265301Y-17126389D02*
X13255777Y-17145436D01*
X13255777Y-17145436D02*
X13246253Y-17154960D01*
X13246253Y-17154960D02*
X13227206Y-17164484D01*
X13227206Y-17164484D02*
X13198634Y-17164484D01*
X13379587Y-17164484D02*
X13360539Y-17154960D01*
X13360539Y-17154960D02*
X13351015Y-17135912D01*
X13351015Y-17135912D02*
X13351015Y-16964484D01*
X13531968Y-17154960D02*
X13512920Y-17164484D01*
X13512920Y-17164484D02*
X13474825Y-17164484D01*
X13474825Y-17164484D02*
X13455777Y-17154960D01*
X13455777Y-17154960D02*
X13446253Y-17135912D01*
X13446253Y-17135912D02*
X13446253Y-17059722D01*
X13446253Y-17059722D02*
X13455777Y-17040674D01*
X13455777Y-17040674D02*
X13474825Y-17031150D01*
X13474825Y-17031150D02*
X13512920Y-17031150D01*
X13512920Y-17031150D02*
X13531968Y-17040674D01*
X13531968Y-17040674D02*
X13541491Y-17059722D01*
X13541491Y-17059722D02*
X13541491Y-17078770D01*
X13541491Y-17078770D02*
X13446253Y-17097817D01*
X13617682Y-17154960D02*
X13636730Y-17164484D01*
X13636730Y-17164484D02*
X13674825Y-17164484D01*
X13674825Y-17164484D02*
X13693872Y-17154960D01*
X13693872Y-17154960D02*
X13703396Y-17135912D01*
X13703396Y-17135912D02*
X13703396Y-17126389D01*
X13703396Y-17126389D02*
X13693872Y-17107341D01*
X13693872Y-17107341D02*
X13674825Y-17097817D01*
X13674825Y-17097817D02*
X13646253Y-17097817D01*
X13646253Y-17097817D02*
X13627206Y-17088293D01*
X13627206Y-17088293D02*
X13617682Y-17069246D01*
X13617682Y-17069246D02*
X13617682Y-17059722D01*
X13617682Y-17059722D02*
X13627206Y-17040674D01*
X13627206Y-17040674D02*
X13646253Y-17031150D01*
X13646253Y-17031150D02*
X13674825Y-17031150D01*
X13674825Y-17031150D02*
X13693872Y-17040674D01*
X13770063Y-17240674D02*
X13779587Y-17231150D01*
X13779587Y-17231150D02*
X13798634Y-17202579D01*
X13798634Y-17202579D02*
X13808158Y-17183531D01*
X13808158Y-17183531D02*
X13817682Y-17154960D01*
X13817682Y-17154960D02*
X13827206Y-17107341D01*
X13827206Y-17107341D02*
X13827206Y-17069246D01*
X13827206Y-17069246D02*
X13817682Y-17021627D01*
X13817682Y-17021627D02*
X13808158Y-16993055D01*
X13808158Y-16993055D02*
X13798634Y-16974008D01*
X13798634Y-16974008D02*
X13779587Y-16945436D01*
X13779587Y-16945436D02*
X13770063Y-16935912D01*
D10*
X8981820Y-17368820D02*
X8981820Y-17305180D01*
X8918180Y-17305180D01*
X8918180Y-17368820D01*
X8981820Y-17368820D01*
D12*
X9293872Y-17228484D02*
X9312920Y-17228484D01*
X9312920Y-17228484D02*
X9331967Y-17238008D01*
X9331967Y-17238008D02*
X9341491Y-17247531D01*
X9341491Y-17247531D02*
X9351015Y-17266579D01*
X9351015Y-17266579D02*
X9360539Y-17304674D01*
X9360539Y-17304674D02*
X9360539Y-17352293D01*
X9360539Y-17352293D02*
X9351015Y-17390389D01*
X9351015Y-17390389D02*
X9341491Y-17409436D01*
X9341491Y-17409436D02*
X9331967Y-17418960D01*
X9331967Y-17418960D02*
X9312920Y-17428484D01*
X9312920Y-17428484D02*
X9293872Y-17428484D01*
X9293872Y-17428484D02*
X9274824Y-17418960D01*
X9274824Y-17418960D02*
X9265301Y-17409436D01*
X9265301Y-17409436D02*
X9255777Y-17390389D01*
X9255777Y-17390389D02*
X9246253Y-17352293D01*
X9246253Y-17352293D02*
X9246253Y-17304674D01*
X9246253Y-17304674D02*
X9255777Y-17266579D01*
X9255777Y-17266579D02*
X9265301Y-17247531D01*
X9265301Y-17247531D02*
X9274824Y-17238008D01*
X9274824Y-17238008D02*
X9293872Y-17228484D01*
X9446253Y-17409436D02*
X9455777Y-17418960D01*
X9455777Y-17418960D02*
X9446253Y-17428484D01*
X9446253Y-17428484D02*
X9436729Y-17418960D01*
X9436729Y-17418960D02*
X9446253Y-17409436D01*
X9446253Y-17409436D02*
X9446253Y-17428484D01*
X9551015Y-17428484D02*
X9589110Y-17428484D01*
X9589110Y-17428484D02*
X9608158Y-17418960D01*
X9608158Y-17418960D02*
X9617682Y-17409436D01*
X9617682Y-17409436D02*
X9636729Y-17380865D01*
X9636729Y-17380865D02*
X9646253Y-17342770D01*
X9646253Y-17342770D02*
X9646253Y-17266579D01*
X9646253Y-17266579D02*
X9636729Y-17247531D01*
X9636729Y-17247531D02*
X9627205Y-17238008D01*
X9627205Y-17238008D02*
X9608158Y-17228484D01*
X9608158Y-17228484D02*
X9570063Y-17228484D01*
X9570063Y-17228484D02*
X9551015Y-17238008D01*
X9551015Y-17238008D02*
X9541491Y-17247531D01*
X9541491Y-17247531D02*
X9531967Y-17266579D01*
X9531967Y-17266579D02*
X9531967Y-17314198D01*
X9531967Y-17314198D02*
X9541491Y-17333246D01*
X9541491Y-17333246D02*
X9551015Y-17342770D01*
X9551015Y-17342770D02*
X9570063Y-17352293D01*
X9570063Y-17352293D02*
X9608158Y-17352293D01*
X9608158Y-17352293D02*
X9627205Y-17342770D01*
X9627205Y-17342770D02*
X9636729Y-17333246D01*
X9636729Y-17333246D02*
X9646253Y-17314198D01*
X9770063Y-17228484D02*
X9789110Y-17228484D01*
X9789110Y-17228484D02*
X9808158Y-17238008D01*
X9808158Y-17238008D02*
X9817682Y-17247531D01*
X9817682Y-17247531D02*
X9827205Y-17266579D01*
X9827205Y-17266579D02*
X9836729Y-17304674D01*
X9836729Y-17304674D02*
X9836729Y-17352293D01*
X9836729Y-17352293D02*
X9827205Y-17390389D01*
X9827205Y-17390389D02*
X9817682Y-17409436D01*
X9817682Y-17409436D02*
X9808158Y-17418960D01*
X9808158Y-17418960D02*
X9789110Y-17428484D01*
X9789110Y-17428484D02*
X9770063Y-17428484D01*
X9770063Y-17428484D02*
X9751015Y-17418960D01*
X9751015Y-17418960D02*
X9741491Y-17409436D01*
X9741491Y-17409436D02*
X9731967Y-17390389D01*
X9731967Y-17390389D02*
X9722444Y-17352293D01*
X9722444Y-17352293D02*
X9722444Y-17304674D01*
X9722444Y-17304674D02*
X9731967Y-17266579D01*
X9731967Y-17266579D02*
X9741491Y-17247531D01*
X9741491Y-17247531D02*
X9751015Y-17238008D01*
X9751015Y-17238008D02*
X9770063Y-17228484D01*
X9960539Y-17228484D02*
X9979586Y-17228484D01*
X9979586Y-17228484D02*
X9998634Y-17238008D01*
X9998634Y-17238008D02*
X10008158Y-17247531D01*
X10008158Y-17247531D02*
X10017682Y-17266579D01*
X10017682Y-17266579D02*
X10027205Y-17304674D01*
X10027205Y-17304674D02*
X10027205Y-17352293D01*
X10027205Y-17352293D02*
X10017682Y-17390389D01*
X10017682Y-17390389D02*
X10008158Y-17409436D01*
X10008158Y-17409436D02*
X9998634Y-17418960D01*
X9998634Y-17418960D02*
X9979586Y-17428484D01*
X9979586Y-17428484D02*
X9960539Y-17428484D01*
X9960539Y-17428484D02*
X9941491Y-17418960D01*
X9941491Y-17418960D02*
X9931967Y-17409436D01*
X9931967Y-17409436D02*
X9922444Y-17390389D01*
X9922444Y-17390389D02*
X9912920Y-17352293D01*
X9912920Y-17352293D02*
X9912920Y-17304674D01*
X9912920Y-17304674D02*
X9922444Y-17266579D01*
X9922444Y-17266579D02*
X9931967Y-17247531D01*
X9931967Y-17247531D02*
X9941491Y-17238008D01*
X9941491Y-17238008D02*
X9960539Y-17228484D01*
X10112920Y-17428484D02*
X10112920Y-17295150D01*
X10112920Y-17314198D02*
X10122444Y-17304674D01*
X10122444Y-17304674D02*
X10141491Y-17295150D01*
X10141491Y-17295150D02*
X10170063Y-17295150D01*
X10170063Y-17295150D02*
X10189110Y-17304674D01*
X10189110Y-17304674D02*
X10198634Y-17323722D01*
X10198634Y-17323722D02*
X10198634Y-17428484D01*
X10198634Y-17323722D02*
X10208158Y-17304674D01*
X10208158Y-17304674D02*
X10227205Y-17295150D01*
X10227205Y-17295150D02*
X10255777Y-17295150D01*
X10255777Y-17295150D02*
X10274825Y-17304674D01*
X10274825Y-17304674D02*
X10284348Y-17323722D01*
X10284348Y-17323722D02*
X10284348Y-17428484D01*
X10379586Y-17428484D02*
X10379586Y-17295150D01*
X10379586Y-17314198D02*
X10389110Y-17304674D01*
X10389110Y-17304674D02*
X10408158Y-17295150D01*
X10408158Y-17295150D02*
X10436729Y-17295150D01*
X10436729Y-17295150D02*
X10455777Y-17304674D01*
X10455777Y-17304674D02*
X10465301Y-17323722D01*
X10465301Y-17323722D02*
X10465301Y-17428484D01*
X10465301Y-17323722D02*
X10474825Y-17304674D01*
X10474825Y-17304674D02*
X10493872Y-17295150D01*
X10493872Y-17295150D02*
X10522444Y-17295150D01*
X10522444Y-17295150D02*
X10541491Y-17304674D01*
X10541491Y-17304674D02*
X10551015Y-17323722D01*
X10551015Y-17323722D02*
X10551015Y-17428484D01*
X10941491Y-17218960D02*
X10770063Y-17476103D01*
X11198634Y-17228484D02*
X11217682Y-17228484D01*
X11217682Y-17228484D02*
X11236729Y-17238008D01*
X11236729Y-17238008D02*
X11246253Y-17247531D01*
X11246253Y-17247531D02*
X11255777Y-17266579D01*
X11255777Y-17266579D02*
X11265301Y-17304674D01*
X11265301Y-17304674D02*
X11265301Y-17352293D01*
X11265301Y-17352293D02*
X11255777Y-17390389D01*
X11255777Y-17390389D02*
X11246253Y-17409436D01*
X11246253Y-17409436D02*
X11236729Y-17418960D01*
X11236729Y-17418960D02*
X11217682Y-17428484D01*
X11217682Y-17428484D02*
X11198634Y-17428484D01*
X11198634Y-17428484D02*
X11179587Y-17418960D01*
X11179587Y-17418960D02*
X11170063Y-17409436D01*
X11170063Y-17409436D02*
X11160539Y-17390389D01*
X11160539Y-17390389D02*
X11151015Y-17352293D01*
X11151015Y-17352293D02*
X11151015Y-17304674D01*
X11151015Y-17304674D02*
X11160539Y-17266579D01*
X11160539Y-17266579D02*
X11170063Y-17247531D01*
X11170063Y-17247531D02*
X11179587Y-17238008D01*
X11179587Y-17238008D02*
X11198634Y-17228484D01*
X11351015Y-17409436D02*
X11360539Y-17418960D01*
X11360539Y-17418960D02*
X11351015Y-17428484D01*
X11351015Y-17428484D02*
X11341491Y-17418960D01*
X11341491Y-17418960D02*
X11351015Y-17409436D01*
X11351015Y-17409436D02*
X11351015Y-17428484D01*
X11484348Y-17228484D02*
X11503396Y-17228484D01*
X11503396Y-17228484D02*
X11522444Y-17238008D01*
X11522444Y-17238008D02*
X11531967Y-17247531D01*
X11531967Y-17247531D02*
X11541491Y-17266579D01*
X11541491Y-17266579D02*
X11551015Y-17304674D01*
X11551015Y-17304674D02*
X11551015Y-17352293D01*
X11551015Y-17352293D02*
X11541491Y-17390389D01*
X11541491Y-17390389D02*
X11531967Y-17409436D01*
X11531967Y-17409436D02*
X11522444Y-17418960D01*
X11522444Y-17418960D02*
X11503396Y-17428484D01*
X11503396Y-17428484D02*
X11484348Y-17428484D01*
X11484348Y-17428484D02*
X11465301Y-17418960D01*
X11465301Y-17418960D02*
X11455777Y-17409436D01*
X11455777Y-17409436D02*
X11446253Y-17390389D01*
X11446253Y-17390389D02*
X11436729Y-17352293D01*
X11436729Y-17352293D02*
X11436729Y-17304674D01*
X11436729Y-17304674D02*
X11446253Y-17266579D01*
X11446253Y-17266579D02*
X11455777Y-17247531D01*
X11455777Y-17247531D02*
X11465301Y-17238008D01*
X11465301Y-17238008D02*
X11484348Y-17228484D01*
X11617682Y-17228484D02*
X11741491Y-17228484D01*
X11741491Y-17228484D02*
X11674825Y-17304674D01*
X11674825Y-17304674D02*
X11703396Y-17304674D01*
X11703396Y-17304674D02*
X11722444Y-17314198D01*
X11722444Y-17314198D02*
X11731967Y-17323722D01*
X11731967Y-17323722D02*
X11741491Y-17342770D01*
X11741491Y-17342770D02*
X11741491Y-17390389D01*
X11741491Y-17390389D02*
X11731967Y-17409436D01*
X11731967Y-17409436D02*
X11722444Y-17418960D01*
X11722444Y-17418960D02*
X11703396Y-17428484D01*
X11703396Y-17428484D02*
X11646253Y-17428484D01*
X11646253Y-17428484D02*
X11627206Y-17418960D01*
X11627206Y-17418960D02*
X11617682Y-17409436D01*
X11922444Y-17228484D02*
X11827206Y-17228484D01*
X11827206Y-17228484D02*
X11817682Y-17323722D01*
X11817682Y-17323722D02*
X11827206Y-17314198D01*
X11827206Y-17314198D02*
X11846253Y-17304674D01*
X11846253Y-17304674D02*
X11893872Y-17304674D01*
X11893872Y-17304674D02*
X11912920Y-17314198D01*
X11912920Y-17314198D02*
X11922444Y-17323722D01*
X11922444Y-17323722D02*
X11931967Y-17342770D01*
X11931967Y-17342770D02*
X11931967Y-17390389D01*
X11931967Y-17390389D02*
X11922444Y-17409436D01*
X11922444Y-17409436D02*
X11912920Y-17418960D01*
X11912920Y-17418960D02*
X11893872Y-17428484D01*
X11893872Y-17428484D02*
X11846253Y-17428484D01*
X11846253Y-17428484D02*
X11827206Y-17418960D01*
X11827206Y-17418960D02*
X11817682Y-17409436D01*
X12103396Y-17295150D02*
X12103396Y-17428484D01*
X12055777Y-17218960D02*
X12008158Y-17361817D01*
X12008158Y-17361817D02*
X12131967Y-17361817D01*
X12198634Y-17228484D02*
X12198634Y-17266579D01*
X12274825Y-17228484D02*
X12274825Y-17266579D01*
X12570063Y-17504674D02*
X12560539Y-17495150D01*
X12560539Y-17495150D02*
X12541491Y-17466579D01*
X12541491Y-17466579D02*
X12531968Y-17447531D01*
X12531968Y-17447531D02*
X12522444Y-17418960D01*
X12522444Y-17418960D02*
X12512920Y-17371341D01*
X12512920Y-17371341D02*
X12512920Y-17333246D01*
X12512920Y-17333246D02*
X12522444Y-17285627D01*
X12522444Y-17285627D02*
X12531968Y-17257055D01*
X12531968Y-17257055D02*
X12541491Y-17238008D01*
X12541491Y-17238008D02*
X12560539Y-17209436D01*
X12560539Y-17209436D02*
X12570063Y-17199912D01*
X12636729Y-17247531D02*
X12646253Y-17238008D01*
X12646253Y-17238008D02*
X12665301Y-17228484D01*
X12665301Y-17228484D02*
X12712920Y-17228484D01*
X12712920Y-17228484D02*
X12731968Y-17238008D01*
X12731968Y-17238008D02*
X12741491Y-17247531D01*
X12741491Y-17247531D02*
X12751015Y-17266579D01*
X12751015Y-17266579D02*
X12751015Y-17285627D01*
X12751015Y-17285627D02*
X12741491Y-17314198D01*
X12741491Y-17314198D02*
X12627206Y-17428484D01*
X12627206Y-17428484D02*
X12751015Y-17428484D01*
X12989110Y-17428484D02*
X12989110Y-17228484D01*
X13074825Y-17428484D02*
X13074825Y-17323722D01*
X13074825Y-17323722D02*
X13065301Y-17304674D01*
X13065301Y-17304674D02*
X13046253Y-17295150D01*
X13046253Y-17295150D02*
X13017682Y-17295150D01*
X13017682Y-17295150D02*
X12998634Y-17304674D01*
X12998634Y-17304674D02*
X12989110Y-17314198D01*
X13198634Y-17428484D02*
X13179587Y-17418960D01*
X13179587Y-17418960D02*
X13170063Y-17409436D01*
X13170063Y-17409436D02*
X13160539Y-17390389D01*
X13160539Y-17390389D02*
X13160539Y-17333246D01*
X13160539Y-17333246D02*
X13170063Y-17314198D01*
X13170063Y-17314198D02*
X13179587Y-17304674D01*
X13179587Y-17304674D02*
X13198634Y-17295150D01*
X13198634Y-17295150D02*
X13227206Y-17295150D01*
X13227206Y-17295150D02*
X13246253Y-17304674D01*
X13246253Y-17304674D02*
X13255777Y-17314198D01*
X13255777Y-17314198D02*
X13265301Y-17333246D01*
X13265301Y-17333246D02*
X13265301Y-17390389D01*
X13265301Y-17390389D02*
X13255777Y-17409436D01*
X13255777Y-17409436D02*
X13246253Y-17418960D01*
X13246253Y-17418960D02*
X13227206Y-17428484D01*
X13227206Y-17428484D02*
X13198634Y-17428484D01*
X13379587Y-17428484D02*
X13360539Y-17418960D01*
X13360539Y-17418960D02*
X13351015Y-17399912D01*
X13351015Y-17399912D02*
X13351015Y-17228484D01*
X13531968Y-17418960D02*
X13512920Y-17428484D01*
X13512920Y-17428484D02*
X13474825Y-17428484D01*
X13474825Y-17428484D02*
X13455777Y-17418960D01*
X13455777Y-17418960D02*
X13446253Y-17399912D01*
X13446253Y-17399912D02*
X13446253Y-17323722D01*
X13446253Y-17323722D02*
X13455777Y-17304674D01*
X13455777Y-17304674D02*
X13474825Y-17295150D01*
X13474825Y-17295150D02*
X13512920Y-17295150D01*
X13512920Y-17295150D02*
X13531968Y-17304674D01*
X13531968Y-17304674D02*
X13541491Y-17323722D01*
X13541491Y-17323722D02*
X13541491Y-17342770D01*
X13541491Y-17342770D02*
X13446253Y-17361817D01*
X13617682Y-17418960D02*
X13636730Y-17428484D01*
X13636730Y-17428484D02*
X13674825Y-17428484D01*
X13674825Y-17428484D02*
X13693872Y-17418960D01*
X13693872Y-17418960D02*
X13703396Y-17399912D01*
X13703396Y-17399912D02*
X13703396Y-17390389D01*
X13703396Y-17390389D02*
X13693872Y-17371341D01*
X13693872Y-17371341D02*
X13674825Y-17361817D01*
X13674825Y-17361817D02*
X13646253Y-17361817D01*
X13646253Y-17361817D02*
X13627206Y-17352293D01*
X13627206Y-17352293D02*
X13617682Y-17333246D01*
X13617682Y-17333246D02*
X13617682Y-17323722D01*
X13617682Y-17323722D02*
X13627206Y-17304674D01*
X13627206Y-17304674D02*
X13646253Y-17295150D01*
X13646253Y-17295150D02*
X13674825Y-17295150D01*
X13674825Y-17295150D02*
X13693872Y-17304674D01*
X13770063Y-17504674D02*
X13779587Y-17495150D01*
X13779587Y-17495150D02*
X13798634Y-17466579D01*
X13798634Y-17466579D02*
X13808158Y-17447531D01*
X13808158Y-17447531D02*
X13817682Y-17418960D01*
X13817682Y-17418960D02*
X13827206Y-17371341D01*
X13827206Y-17371341D02*
X13827206Y-17333246D01*
X13827206Y-17333246D02*
X13817682Y-17285627D01*
X13817682Y-17285627D02*
X13808158Y-17257055D01*
X13808158Y-17257055D02*
X13798634Y-17238008D01*
X13798634Y-17238008D02*
X13779587Y-17209436D01*
X13779587Y-17209436D02*
X13770063Y-17199912D01*
D10*
X8945000Y-17651000D02*
X8995000Y-17601000D01*
X8945000Y-17551000D01*
X8895000Y-17601000D01*
X8945000Y-17651000D01*
D12*
X9360539Y-17692484D02*
X9246253Y-17692484D01*
X9303396Y-17692484D02*
X9303396Y-17492484D01*
X9303396Y-17492484D02*
X9284348Y-17521055D01*
X9284348Y-17521055D02*
X9265301Y-17540103D01*
X9265301Y-17540103D02*
X9246253Y-17549627D01*
X9446253Y-17673436D02*
X9455777Y-17682960D01*
X9455777Y-17682960D02*
X9446253Y-17692484D01*
X9446253Y-17692484D02*
X9436729Y-17682960D01*
X9436729Y-17682960D02*
X9446253Y-17673436D01*
X9446253Y-17673436D02*
X9446253Y-17692484D01*
X9579586Y-17492484D02*
X9598634Y-17492484D01*
X9598634Y-17492484D02*
X9617682Y-17502008D01*
X9617682Y-17502008D02*
X9627205Y-17511531D01*
X9627205Y-17511531D02*
X9636729Y-17530579D01*
X9636729Y-17530579D02*
X9646253Y-17568674D01*
X9646253Y-17568674D02*
X9646253Y-17616293D01*
X9646253Y-17616293D02*
X9636729Y-17654389D01*
X9636729Y-17654389D02*
X9627205Y-17673436D01*
X9627205Y-17673436D02*
X9617682Y-17682960D01*
X9617682Y-17682960D02*
X9598634Y-17692484D01*
X9598634Y-17692484D02*
X9579586Y-17692484D01*
X9579586Y-17692484D02*
X9560539Y-17682960D01*
X9560539Y-17682960D02*
X9551015Y-17673436D01*
X9551015Y-17673436D02*
X9541491Y-17654389D01*
X9541491Y-17654389D02*
X9531967Y-17616293D01*
X9531967Y-17616293D02*
X9531967Y-17568674D01*
X9531967Y-17568674D02*
X9541491Y-17530579D01*
X9541491Y-17530579D02*
X9551015Y-17511531D01*
X9551015Y-17511531D02*
X9560539Y-17502008D01*
X9560539Y-17502008D02*
X9579586Y-17492484D01*
X9770063Y-17492484D02*
X9789110Y-17492484D01*
X9789110Y-17492484D02*
X9808158Y-17502008D01*
X9808158Y-17502008D02*
X9817682Y-17511531D01*
X9817682Y-17511531D02*
X9827205Y-17530579D01*
X9827205Y-17530579D02*
X9836729Y-17568674D01*
X9836729Y-17568674D02*
X9836729Y-17616293D01*
X9836729Y-17616293D02*
X9827205Y-17654389D01*
X9827205Y-17654389D02*
X9817682Y-17673436D01*
X9817682Y-17673436D02*
X9808158Y-17682960D01*
X9808158Y-17682960D02*
X9789110Y-17692484D01*
X9789110Y-17692484D02*
X9770063Y-17692484D01*
X9770063Y-17692484D02*
X9751015Y-17682960D01*
X9751015Y-17682960D02*
X9741491Y-17673436D01*
X9741491Y-17673436D02*
X9731967Y-17654389D01*
X9731967Y-17654389D02*
X9722444Y-17616293D01*
X9722444Y-17616293D02*
X9722444Y-17568674D01*
X9722444Y-17568674D02*
X9731967Y-17530579D01*
X9731967Y-17530579D02*
X9741491Y-17511531D01*
X9741491Y-17511531D02*
X9751015Y-17502008D01*
X9751015Y-17502008D02*
X9770063Y-17492484D01*
X9960539Y-17492484D02*
X9979586Y-17492484D01*
X9979586Y-17492484D02*
X9998634Y-17502008D01*
X9998634Y-17502008D02*
X10008158Y-17511531D01*
X10008158Y-17511531D02*
X10017682Y-17530579D01*
X10017682Y-17530579D02*
X10027205Y-17568674D01*
X10027205Y-17568674D02*
X10027205Y-17616293D01*
X10027205Y-17616293D02*
X10017682Y-17654389D01*
X10017682Y-17654389D02*
X10008158Y-17673436D01*
X10008158Y-17673436D02*
X9998634Y-17682960D01*
X9998634Y-17682960D02*
X9979586Y-17692484D01*
X9979586Y-17692484D02*
X9960539Y-17692484D01*
X9960539Y-17692484D02*
X9941491Y-17682960D01*
X9941491Y-17682960D02*
X9931967Y-17673436D01*
X9931967Y-17673436D02*
X9922444Y-17654389D01*
X9922444Y-17654389D02*
X9912920Y-17616293D01*
X9912920Y-17616293D02*
X9912920Y-17568674D01*
X9912920Y-17568674D02*
X9922444Y-17530579D01*
X9922444Y-17530579D02*
X9931967Y-17511531D01*
X9931967Y-17511531D02*
X9941491Y-17502008D01*
X9941491Y-17502008D02*
X9960539Y-17492484D01*
X10112920Y-17692484D02*
X10112920Y-17559150D01*
X10112920Y-17578198D02*
X10122444Y-17568674D01*
X10122444Y-17568674D02*
X10141491Y-17559150D01*
X10141491Y-17559150D02*
X10170063Y-17559150D01*
X10170063Y-17559150D02*
X10189110Y-17568674D01*
X10189110Y-17568674D02*
X10198634Y-17587722D01*
X10198634Y-17587722D02*
X10198634Y-17692484D01*
X10198634Y-17587722D02*
X10208158Y-17568674D01*
X10208158Y-17568674D02*
X10227205Y-17559150D01*
X10227205Y-17559150D02*
X10255777Y-17559150D01*
X10255777Y-17559150D02*
X10274825Y-17568674D01*
X10274825Y-17568674D02*
X10284348Y-17587722D01*
X10284348Y-17587722D02*
X10284348Y-17692484D01*
X10379586Y-17692484D02*
X10379586Y-17559150D01*
X10379586Y-17578198D02*
X10389110Y-17568674D01*
X10389110Y-17568674D02*
X10408158Y-17559150D01*
X10408158Y-17559150D02*
X10436729Y-17559150D01*
X10436729Y-17559150D02*
X10455777Y-17568674D01*
X10455777Y-17568674D02*
X10465301Y-17587722D01*
X10465301Y-17587722D02*
X10465301Y-17692484D01*
X10465301Y-17587722D02*
X10474825Y-17568674D01*
X10474825Y-17568674D02*
X10493872Y-17559150D01*
X10493872Y-17559150D02*
X10522444Y-17559150D01*
X10522444Y-17559150D02*
X10541491Y-17568674D01*
X10541491Y-17568674D02*
X10551015Y-17587722D01*
X10551015Y-17587722D02*
X10551015Y-17692484D01*
X10941491Y-17482960D02*
X10770063Y-17740103D01*
X11198634Y-17492484D02*
X11217682Y-17492484D01*
X11217682Y-17492484D02*
X11236729Y-17502008D01*
X11236729Y-17502008D02*
X11246253Y-17511531D01*
X11246253Y-17511531D02*
X11255777Y-17530579D01*
X11255777Y-17530579D02*
X11265301Y-17568674D01*
X11265301Y-17568674D02*
X11265301Y-17616293D01*
X11265301Y-17616293D02*
X11255777Y-17654389D01*
X11255777Y-17654389D02*
X11246253Y-17673436D01*
X11246253Y-17673436D02*
X11236729Y-17682960D01*
X11236729Y-17682960D02*
X11217682Y-17692484D01*
X11217682Y-17692484D02*
X11198634Y-17692484D01*
X11198634Y-17692484D02*
X11179587Y-17682960D01*
X11179587Y-17682960D02*
X11170063Y-17673436D01*
X11170063Y-17673436D02*
X11160539Y-17654389D01*
X11160539Y-17654389D02*
X11151015Y-17616293D01*
X11151015Y-17616293D02*
X11151015Y-17568674D01*
X11151015Y-17568674D02*
X11160539Y-17530579D01*
X11160539Y-17530579D02*
X11170063Y-17511531D01*
X11170063Y-17511531D02*
X11179587Y-17502008D01*
X11179587Y-17502008D02*
X11198634Y-17492484D01*
X11351015Y-17673436D02*
X11360539Y-17682960D01*
X11360539Y-17682960D02*
X11351015Y-17692484D01*
X11351015Y-17692484D02*
X11341491Y-17682960D01*
X11341491Y-17682960D02*
X11351015Y-17673436D01*
X11351015Y-17673436D02*
X11351015Y-17692484D01*
X11484348Y-17492484D02*
X11503396Y-17492484D01*
X11503396Y-17492484D02*
X11522444Y-17502008D01*
X11522444Y-17502008D02*
X11531967Y-17511531D01*
X11531967Y-17511531D02*
X11541491Y-17530579D01*
X11541491Y-17530579D02*
X11551015Y-17568674D01*
X11551015Y-17568674D02*
X11551015Y-17616293D01*
X11551015Y-17616293D02*
X11541491Y-17654389D01*
X11541491Y-17654389D02*
X11531967Y-17673436D01*
X11531967Y-17673436D02*
X11522444Y-17682960D01*
X11522444Y-17682960D02*
X11503396Y-17692484D01*
X11503396Y-17692484D02*
X11484348Y-17692484D01*
X11484348Y-17692484D02*
X11465301Y-17682960D01*
X11465301Y-17682960D02*
X11455777Y-17673436D01*
X11455777Y-17673436D02*
X11446253Y-17654389D01*
X11446253Y-17654389D02*
X11436729Y-17616293D01*
X11436729Y-17616293D02*
X11436729Y-17568674D01*
X11436729Y-17568674D02*
X11446253Y-17530579D01*
X11446253Y-17530579D02*
X11455777Y-17511531D01*
X11455777Y-17511531D02*
X11465301Y-17502008D01*
X11465301Y-17502008D02*
X11484348Y-17492484D01*
X11617682Y-17492484D02*
X11741491Y-17492484D01*
X11741491Y-17492484D02*
X11674825Y-17568674D01*
X11674825Y-17568674D02*
X11703396Y-17568674D01*
X11703396Y-17568674D02*
X11722444Y-17578198D01*
X11722444Y-17578198D02*
X11731967Y-17587722D01*
X11731967Y-17587722D02*
X11741491Y-17606770D01*
X11741491Y-17606770D02*
X11741491Y-17654389D01*
X11741491Y-17654389D02*
X11731967Y-17673436D01*
X11731967Y-17673436D02*
X11722444Y-17682960D01*
X11722444Y-17682960D02*
X11703396Y-17692484D01*
X11703396Y-17692484D02*
X11646253Y-17692484D01*
X11646253Y-17692484D02*
X11627206Y-17682960D01*
X11627206Y-17682960D02*
X11617682Y-17673436D01*
X11836729Y-17692484D02*
X11874825Y-17692484D01*
X11874825Y-17692484D02*
X11893872Y-17682960D01*
X11893872Y-17682960D02*
X11903396Y-17673436D01*
X11903396Y-17673436D02*
X11922444Y-17644865D01*
X11922444Y-17644865D02*
X11931967Y-17606770D01*
X11931967Y-17606770D02*
X11931967Y-17530579D01*
X11931967Y-17530579D02*
X11922444Y-17511531D01*
X11922444Y-17511531D02*
X11912920Y-17502008D01*
X11912920Y-17502008D02*
X11893872Y-17492484D01*
X11893872Y-17492484D02*
X11855777Y-17492484D01*
X11855777Y-17492484D02*
X11836729Y-17502008D01*
X11836729Y-17502008D02*
X11827206Y-17511531D01*
X11827206Y-17511531D02*
X11817682Y-17530579D01*
X11817682Y-17530579D02*
X11817682Y-17578198D01*
X11817682Y-17578198D02*
X11827206Y-17597246D01*
X11827206Y-17597246D02*
X11836729Y-17606770D01*
X11836729Y-17606770D02*
X11855777Y-17616293D01*
X11855777Y-17616293D02*
X11893872Y-17616293D01*
X11893872Y-17616293D02*
X11912920Y-17606770D01*
X11912920Y-17606770D02*
X11922444Y-17597246D01*
X11922444Y-17597246D02*
X11931967Y-17578198D01*
X12103396Y-17559150D02*
X12103396Y-17692484D01*
X12055777Y-17482960D02*
X12008158Y-17625817D01*
X12008158Y-17625817D02*
X12131967Y-17625817D01*
X12198634Y-17492484D02*
X12198634Y-17530579D01*
X12274825Y-17492484D02*
X12274825Y-17530579D01*
X12570063Y-17768674D02*
X12560539Y-17759150D01*
X12560539Y-17759150D02*
X12541491Y-17730579D01*
X12541491Y-17730579D02*
X12531968Y-17711531D01*
X12531968Y-17711531D02*
X12522444Y-17682960D01*
X12522444Y-17682960D02*
X12512920Y-17635341D01*
X12512920Y-17635341D02*
X12512920Y-17597246D01*
X12512920Y-17597246D02*
X12522444Y-17549627D01*
X12522444Y-17549627D02*
X12531968Y-17521055D01*
X12531968Y-17521055D02*
X12541491Y-17502008D01*
X12541491Y-17502008D02*
X12560539Y-17473436D01*
X12560539Y-17473436D02*
X12570063Y-17463912D01*
X12751015Y-17692484D02*
X12636729Y-17692484D01*
X12693872Y-17692484D02*
X12693872Y-17492484D01*
X12693872Y-17492484D02*
X12674825Y-17521055D01*
X12674825Y-17521055D02*
X12655777Y-17540103D01*
X12655777Y-17540103D02*
X12636729Y-17549627D01*
X12817682Y-17492484D02*
X12941491Y-17492484D01*
X12941491Y-17492484D02*
X12874825Y-17568674D01*
X12874825Y-17568674D02*
X12903396Y-17568674D01*
X12903396Y-17568674D02*
X12922444Y-17578198D01*
X12922444Y-17578198D02*
X12931968Y-17587722D01*
X12931968Y-17587722D02*
X12941491Y-17606770D01*
X12941491Y-17606770D02*
X12941491Y-17654389D01*
X12941491Y-17654389D02*
X12931968Y-17673436D01*
X12931968Y-17673436D02*
X12922444Y-17682960D01*
X12922444Y-17682960D02*
X12903396Y-17692484D01*
X12903396Y-17692484D02*
X12846253Y-17692484D01*
X12846253Y-17692484D02*
X12827206Y-17682960D01*
X12827206Y-17682960D02*
X12817682Y-17673436D01*
X13179587Y-17692484D02*
X13179587Y-17492484D01*
X13265301Y-17692484D02*
X13265301Y-17587722D01*
X13265301Y-17587722D02*
X13255777Y-17568674D01*
X13255777Y-17568674D02*
X13236730Y-17559150D01*
X13236730Y-17559150D02*
X13208158Y-17559150D01*
X13208158Y-17559150D02*
X13189110Y-17568674D01*
X13189110Y-17568674D02*
X13179587Y-17578198D01*
X13389110Y-17692484D02*
X13370063Y-17682960D01*
X13370063Y-17682960D02*
X13360539Y-17673436D01*
X13360539Y-17673436D02*
X13351015Y-17654389D01*
X13351015Y-17654389D02*
X13351015Y-17597246D01*
X13351015Y-17597246D02*
X13360539Y-17578198D01*
X13360539Y-17578198D02*
X13370063Y-17568674D01*
X13370063Y-17568674D02*
X13389110Y-17559150D01*
X13389110Y-17559150D02*
X13417682Y-17559150D01*
X13417682Y-17559150D02*
X13436730Y-17568674D01*
X13436730Y-17568674D02*
X13446253Y-17578198D01*
X13446253Y-17578198D02*
X13455777Y-17597246D01*
X13455777Y-17597246D02*
X13455777Y-17654389D01*
X13455777Y-17654389D02*
X13446253Y-17673436D01*
X13446253Y-17673436D02*
X13436730Y-17682960D01*
X13436730Y-17682960D02*
X13417682Y-17692484D01*
X13417682Y-17692484D02*
X13389110Y-17692484D01*
X13570063Y-17692484D02*
X13551015Y-17682960D01*
X13551015Y-17682960D02*
X13541491Y-17663912D01*
X13541491Y-17663912D02*
X13541491Y-17492484D01*
X13722444Y-17682960D02*
X13703396Y-17692484D01*
X13703396Y-17692484D02*
X13665301Y-17692484D01*
X13665301Y-17692484D02*
X13646253Y-17682960D01*
X13646253Y-17682960D02*
X13636730Y-17663912D01*
X13636730Y-17663912D02*
X13636730Y-17587722D01*
X13636730Y-17587722D02*
X13646253Y-17568674D01*
X13646253Y-17568674D02*
X13665301Y-17559150D01*
X13665301Y-17559150D02*
X13703396Y-17559150D01*
X13703396Y-17559150D02*
X13722444Y-17568674D01*
X13722444Y-17568674D02*
X13731968Y-17587722D01*
X13731968Y-17587722D02*
X13731968Y-17606770D01*
X13731968Y-17606770D02*
X13636730Y-17625817D01*
X13808158Y-17682960D02*
X13827206Y-17692484D01*
X13827206Y-17692484D02*
X13865301Y-17692484D01*
X13865301Y-17692484D02*
X13884349Y-17682960D01*
X13884349Y-17682960D02*
X13893872Y-17663912D01*
X13893872Y-17663912D02*
X13893872Y-17654389D01*
X13893872Y-17654389D02*
X13884349Y-17635341D01*
X13884349Y-17635341D02*
X13865301Y-17625817D01*
X13865301Y-17625817D02*
X13836730Y-17625817D01*
X13836730Y-17625817D02*
X13817682Y-17616293D01*
X13817682Y-17616293D02*
X13808158Y-17597246D01*
X13808158Y-17597246D02*
X13808158Y-17587722D01*
X13808158Y-17587722D02*
X13817682Y-17568674D01*
X13817682Y-17568674D02*
X13836730Y-17559150D01*
X13836730Y-17559150D02*
X13865301Y-17559150D01*
X13865301Y-17559150D02*
X13884349Y-17568674D01*
X13960539Y-17768674D02*
X13970063Y-17759150D01*
X13970063Y-17759150D02*
X13989111Y-17730579D01*
X13989111Y-17730579D02*
X13998634Y-17711531D01*
X13998634Y-17711531D02*
X14008158Y-17682960D01*
X14008158Y-17682960D02*
X14017682Y-17635341D01*
X14017682Y-17635341D02*
X14017682Y-17597246D01*
X14017682Y-17597246D02*
X14008158Y-17549627D01*
X14008158Y-17549627D02*
X13998634Y-17521055D01*
X13998634Y-17521055D02*
X13989111Y-17502008D01*
X13989111Y-17502008D02*
X13970063Y-17473436D01*
X13970063Y-17473436D02*
X13960539Y-17463912D01*
D13*
X8885000Y-17810000D02*
X8995000Y-17920000D01*
X8995000Y-17810000D02*
X8885000Y-17920000D01*
X8995000Y-17865000D02*
G75*
G02*
X8885000Y-17865000I-55000J0D01*
G01*
X8885000Y-17865000D02*
G75*
G02*
X8995000Y-17865000I55000J0D01*
G01*
D12*
X9360539Y-17956484D02*
X9246253Y-17956484D01*
X9303396Y-17956484D02*
X9303396Y-17756484D01*
X9303396Y-17756484D02*
X9284348Y-17785055D01*
X9284348Y-17785055D02*
X9265301Y-17804103D01*
X9265301Y-17804103D02*
X9246253Y-17813627D01*
X9446253Y-17937436D02*
X9455777Y-17946960D01*
X9455777Y-17946960D02*
X9446253Y-17956484D01*
X9446253Y-17956484D02*
X9436729Y-17946960D01*
X9436729Y-17946960D02*
X9446253Y-17937436D01*
X9446253Y-17937436D02*
X9446253Y-17956484D01*
X9646253Y-17956484D02*
X9531967Y-17956484D01*
X9589110Y-17956484D02*
X9589110Y-17756484D01*
X9589110Y-17756484D02*
X9570063Y-17785055D01*
X9570063Y-17785055D02*
X9551015Y-17804103D01*
X9551015Y-17804103D02*
X9531967Y-17813627D01*
X9770063Y-17756484D02*
X9789110Y-17756484D01*
X9789110Y-17756484D02*
X9808158Y-17766008D01*
X9808158Y-17766008D02*
X9817682Y-17775531D01*
X9817682Y-17775531D02*
X9827205Y-17794579D01*
X9827205Y-17794579D02*
X9836729Y-17832674D01*
X9836729Y-17832674D02*
X9836729Y-17880293D01*
X9836729Y-17880293D02*
X9827205Y-17918389D01*
X9827205Y-17918389D02*
X9817682Y-17937436D01*
X9817682Y-17937436D02*
X9808158Y-17946960D01*
X9808158Y-17946960D02*
X9789110Y-17956484D01*
X9789110Y-17956484D02*
X9770063Y-17956484D01*
X9770063Y-17956484D02*
X9751015Y-17946960D01*
X9751015Y-17946960D02*
X9741491Y-17937436D01*
X9741491Y-17937436D02*
X9731967Y-17918389D01*
X9731967Y-17918389D02*
X9722444Y-17880293D01*
X9722444Y-17880293D02*
X9722444Y-17832674D01*
X9722444Y-17832674D02*
X9731967Y-17794579D01*
X9731967Y-17794579D02*
X9741491Y-17775531D01*
X9741491Y-17775531D02*
X9751015Y-17766008D01*
X9751015Y-17766008D02*
X9770063Y-17756484D01*
X9960539Y-17756484D02*
X9979586Y-17756484D01*
X9979586Y-17756484D02*
X9998634Y-17766008D01*
X9998634Y-17766008D02*
X10008158Y-17775531D01*
X10008158Y-17775531D02*
X10017682Y-17794579D01*
X10017682Y-17794579D02*
X10027205Y-17832674D01*
X10027205Y-17832674D02*
X10027205Y-17880293D01*
X10027205Y-17880293D02*
X10017682Y-17918389D01*
X10017682Y-17918389D02*
X10008158Y-17937436D01*
X10008158Y-17937436D02*
X9998634Y-17946960D01*
X9998634Y-17946960D02*
X9979586Y-17956484D01*
X9979586Y-17956484D02*
X9960539Y-17956484D01*
X9960539Y-17956484D02*
X9941491Y-17946960D01*
X9941491Y-17946960D02*
X9931967Y-17937436D01*
X9931967Y-17937436D02*
X9922444Y-17918389D01*
X9922444Y-17918389D02*
X9912920Y-17880293D01*
X9912920Y-17880293D02*
X9912920Y-17832674D01*
X9912920Y-17832674D02*
X9922444Y-17794579D01*
X9922444Y-17794579D02*
X9931967Y-17775531D01*
X9931967Y-17775531D02*
X9941491Y-17766008D01*
X9941491Y-17766008D02*
X9960539Y-17756484D01*
X10112920Y-17956484D02*
X10112920Y-17823150D01*
X10112920Y-17842198D02*
X10122444Y-17832674D01*
X10122444Y-17832674D02*
X10141491Y-17823150D01*
X10141491Y-17823150D02*
X10170063Y-17823150D01*
X10170063Y-17823150D02*
X10189110Y-17832674D01*
X10189110Y-17832674D02*
X10198634Y-17851722D01*
X10198634Y-17851722D02*
X10198634Y-17956484D01*
X10198634Y-17851722D02*
X10208158Y-17832674D01*
X10208158Y-17832674D02*
X10227205Y-17823150D01*
X10227205Y-17823150D02*
X10255777Y-17823150D01*
X10255777Y-17823150D02*
X10274825Y-17832674D01*
X10274825Y-17832674D02*
X10284348Y-17851722D01*
X10284348Y-17851722D02*
X10284348Y-17956484D01*
X10379586Y-17956484D02*
X10379586Y-17823150D01*
X10379586Y-17842198D02*
X10389110Y-17832674D01*
X10389110Y-17832674D02*
X10408158Y-17823150D01*
X10408158Y-17823150D02*
X10436729Y-17823150D01*
X10436729Y-17823150D02*
X10455777Y-17832674D01*
X10455777Y-17832674D02*
X10465301Y-17851722D01*
X10465301Y-17851722D02*
X10465301Y-17956484D01*
X10465301Y-17851722D02*
X10474825Y-17832674D01*
X10474825Y-17832674D02*
X10493872Y-17823150D01*
X10493872Y-17823150D02*
X10522444Y-17823150D01*
X10522444Y-17823150D02*
X10541491Y-17832674D01*
X10541491Y-17832674D02*
X10551015Y-17851722D01*
X10551015Y-17851722D02*
X10551015Y-17956484D01*
X10941491Y-17746960D02*
X10770063Y-18004103D01*
X11198634Y-17756484D02*
X11217682Y-17756484D01*
X11217682Y-17756484D02*
X11236729Y-17766008D01*
X11236729Y-17766008D02*
X11246253Y-17775531D01*
X11246253Y-17775531D02*
X11255777Y-17794579D01*
X11255777Y-17794579D02*
X11265301Y-17832674D01*
X11265301Y-17832674D02*
X11265301Y-17880293D01*
X11265301Y-17880293D02*
X11255777Y-17918389D01*
X11255777Y-17918389D02*
X11246253Y-17937436D01*
X11246253Y-17937436D02*
X11236729Y-17946960D01*
X11236729Y-17946960D02*
X11217682Y-17956484D01*
X11217682Y-17956484D02*
X11198634Y-17956484D01*
X11198634Y-17956484D02*
X11179587Y-17946960D01*
X11179587Y-17946960D02*
X11170063Y-17937436D01*
X11170063Y-17937436D02*
X11160539Y-17918389D01*
X11160539Y-17918389D02*
X11151015Y-17880293D01*
X11151015Y-17880293D02*
X11151015Y-17832674D01*
X11151015Y-17832674D02*
X11160539Y-17794579D01*
X11160539Y-17794579D02*
X11170063Y-17775531D01*
X11170063Y-17775531D02*
X11179587Y-17766008D01*
X11179587Y-17766008D02*
X11198634Y-17756484D01*
X11351015Y-17937436D02*
X11360539Y-17946960D01*
X11360539Y-17946960D02*
X11351015Y-17956484D01*
X11351015Y-17956484D02*
X11341491Y-17946960D01*
X11341491Y-17946960D02*
X11351015Y-17937436D01*
X11351015Y-17937436D02*
X11351015Y-17956484D01*
X11484348Y-17756484D02*
X11503396Y-17756484D01*
X11503396Y-17756484D02*
X11522444Y-17766008D01*
X11522444Y-17766008D02*
X11531967Y-17775531D01*
X11531967Y-17775531D02*
X11541491Y-17794579D01*
X11541491Y-17794579D02*
X11551015Y-17832674D01*
X11551015Y-17832674D02*
X11551015Y-17880293D01*
X11551015Y-17880293D02*
X11541491Y-17918389D01*
X11541491Y-17918389D02*
X11531967Y-17937436D01*
X11531967Y-17937436D02*
X11522444Y-17946960D01*
X11522444Y-17946960D02*
X11503396Y-17956484D01*
X11503396Y-17956484D02*
X11484348Y-17956484D01*
X11484348Y-17956484D02*
X11465301Y-17946960D01*
X11465301Y-17946960D02*
X11455777Y-17937436D01*
X11455777Y-17937436D02*
X11446253Y-17918389D01*
X11446253Y-17918389D02*
X11436729Y-17880293D01*
X11436729Y-17880293D02*
X11436729Y-17832674D01*
X11436729Y-17832674D02*
X11446253Y-17794579D01*
X11446253Y-17794579D02*
X11455777Y-17775531D01*
X11455777Y-17775531D02*
X11465301Y-17766008D01*
X11465301Y-17766008D02*
X11484348Y-17756484D01*
X11722444Y-17823150D02*
X11722444Y-17956484D01*
X11674825Y-17746960D02*
X11627206Y-17889817D01*
X11627206Y-17889817D02*
X11751015Y-17889817D01*
X11808158Y-17756484D02*
X11931967Y-17756484D01*
X11931967Y-17756484D02*
X11865301Y-17832674D01*
X11865301Y-17832674D02*
X11893872Y-17832674D01*
X11893872Y-17832674D02*
X11912920Y-17842198D01*
X11912920Y-17842198D02*
X11922444Y-17851722D01*
X11922444Y-17851722D02*
X11931967Y-17870770D01*
X11931967Y-17870770D02*
X11931967Y-17918389D01*
X11931967Y-17918389D02*
X11922444Y-17937436D01*
X11922444Y-17937436D02*
X11912920Y-17946960D01*
X11912920Y-17946960D02*
X11893872Y-17956484D01*
X11893872Y-17956484D02*
X11836729Y-17956484D01*
X11836729Y-17956484D02*
X11817682Y-17946960D01*
X11817682Y-17946960D02*
X11808158Y-17937436D01*
X11998634Y-17756484D02*
X12122444Y-17756484D01*
X12122444Y-17756484D02*
X12055777Y-17832674D01*
X12055777Y-17832674D02*
X12084348Y-17832674D01*
X12084348Y-17832674D02*
X12103396Y-17842198D01*
X12103396Y-17842198D02*
X12112920Y-17851722D01*
X12112920Y-17851722D02*
X12122444Y-17870770D01*
X12122444Y-17870770D02*
X12122444Y-17918389D01*
X12122444Y-17918389D02*
X12112920Y-17937436D01*
X12112920Y-17937436D02*
X12103396Y-17946960D01*
X12103396Y-17946960D02*
X12084348Y-17956484D01*
X12084348Y-17956484D02*
X12027206Y-17956484D01*
X12027206Y-17956484D02*
X12008158Y-17946960D01*
X12008158Y-17946960D02*
X11998634Y-17937436D01*
X12198634Y-17756484D02*
X12198634Y-17794579D01*
X12274825Y-17756484D02*
X12274825Y-17794579D01*
X12570063Y-18032674D02*
X12560539Y-18023150D01*
X12560539Y-18023150D02*
X12541491Y-17994579D01*
X12541491Y-17994579D02*
X12531968Y-17975531D01*
X12531968Y-17975531D02*
X12522444Y-17946960D01*
X12522444Y-17946960D02*
X12512920Y-17899341D01*
X12512920Y-17899341D02*
X12512920Y-17861246D01*
X12512920Y-17861246D02*
X12522444Y-17813627D01*
X12522444Y-17813627D02*
X12531968Y-17785055D01*
X12531968Y-17785055D02*
X12541491Y-17766008D01*
X12541491Y-17766008D02*
X12560539Y-17737436D01*
X12560539Y-17737436D02*
X12570063Y-17727912D01*
X12684348Y-17756484D02*
X12703396Y-17756484D01*
X12703396Y-17756484D02*
X12722444Y-17766008D01*
X12722444Y-17766008D02*
X12731968Y-17775531D01*
X12731968Y-17775531D02*
X12741491Y-17794579D01*
X12741491Y-17794579D02*
X12751015Y-17832674D01*
X12751015Y-17832674D02*
X12751015Y-17880293D01*
X12751015Y-17880293D02*
X12741491Y-17918389D01*
X12741491Y-17918389D02*
X12731968Y-17937436D01*
X12731968Y-17937436D02*
X12722444Y-17946960D01*
X12722444Y-17946960D02*
X12703396Y-17956484D01*
X12703396Y-17956484D02*
X12684348Y-17956484D01*
X12684348Y-17956484D02*
X12665301Y-17946960D01*
X12665301Y-17946960D02*
X12655777Y-17937436D01*
X12655777Y-17937436D02*
X12646253Y-17918389D01*
X12646253Y-17918389D02*
X12636729Y-17880293D01*
X12636729Y-17880293D02*
X12636729Y-17832674D01*
X12636729Y-17832674D02*
X12646253Y-17794579D01*
X12646253Y-17794579D02*
X12655777Y-17775531D01*
X12655777Y-17775531D02*
X12665301Y-17766008D01*
X12665301Y-17766008D02*
X12684348Y-17756484D01*
X12989110Y-17956484D02*
X12989110Y-17756484D01*
X13074825Y-17956484D02*
X13074825Y-17851722D01*
X13074825Y-17851722D02*
X13065301Y-17832674D01*
X13065301Y-17832674D02*
X13046253Y-17823150D01*
X13046253Y-17823150D02*
X13017682Y-17823150D01*
X13017682Y-17823150D02*
X12998634Y-17832674D01*
X12998634Y-17832674D02*
X12989110Y-17842198D01*
X13198634Y-17956484D02*
X13179587Y-17946960D01*
X13179587Y-17946960D02*
X13170063Y-17937436D01*
X13170063Y-17937436D02*
X13160539Y-17918389D01*
X13160539Y-17918389D02*
X13160539Y-17861246D01*
X13160539Y-17861246D02*
X13170063Y-17842198D01*
X13170063Y-17842198D02*
X13179587Y-17832674D01*
X13179587Y-17832674D02*
X13198634Y-17823150D01*
X13198634Y-17823150D02*
X13227206Y-17823150D01*
X13227206Y-17823150D02*
X13246253Y-17832674D01*
X13246253Y-17832674D02*
X13255777Y-17842198D01*
X13255777Y-17842198D02*
X13265301Y-17861246D01*
X13265301Y-17861246D02*
X13265301Y-17918389D01*
X13265301Y-17918389D02*
X13255777Y-17937436D01*
X13255777Y-17937436D02*
X13246253Y-17946960D01*
X13246253Y-17946960D02*
X13227206Y-17956484D01*
X13227206Y-17956484D02*
X13198634Y-17956484D01*
X13379587Y-17956484D02*
X13360539Y-17946960D01*
X13360539Y-17946960D02*
X13351015Y-17927912D01*
X13351015Y-17927912D02*
X13351015Y-17756484D01*
X13531968Y-17946960D02*
X13512920Y-17956484D01*
X13512920Y-17956484D02*
X13474825Y-17956484D01*
X13474825Y-17956484D02*
X13455777Y-17946960D01*
X13455777Y-17946960D02*
X13446253Y-17927912D01*
X13446253Y-17927912D02*
X13446253Y-17851722D01*
X13446253Y-17851722D02*
X13455777Y-17832674D01*
X13455777Y-17832674D02*
X13474825Y-17823150D01*
X13474825Y-17823150D02*
X13512920Y-17823150D01*
X13512920Y-17823150D02*
X13531968Y-17832674D01*
X13531968Y-17832674D02*
X13541491Y-17851722D01*
X13541491Y-17851722D02*
X13541491Y-17870770D01*
X13541491Y-17870770D02*
X13446253Y-17889817D01*
X13617682Y-17946960D02*
X13636730Y-17956484D01*
X13636730Y-17956484D02*
X13674825Y-17956484D01*
X13674825Y-17956484D02*
X13693872Y-17946960D01*
X13693872Y-17946960D02*
X13703396Y-17927912D01*
X13703396Y-17927912D02*
X13703396Y-17918389D01*
X13703396Y-17918389D02*
X13693872Y-17899341D01*
X13693872Y-17899341D02*
X13674825Y-17889817D01*
X13674825Y-17889817D02*
X13646253Y-17889817D01*
X13646253Y-17889817D02*
X13627206Y-17880293D01*
X13627206Y-17880293D02*
X13617682Y-17861246D01*
X13617682Y-17861246D02*
X13617682Y-17851722D01*
X13617682Y-17851722D02*
X13627206Y-17832674D01*
X13627206Y-17832674D02*
X13646253Y-17823150D01*
X13646253Y-17823150D02*
X13674825Y-17823150D01*
X13674825Y-17823150D02*
X13693872Y-17832674D01*
X13941492Y-17880293D02*
X14093873Y-17880293D01*
X14017682Y-17956484D02*
X14017682Y-17804103D01*
X14331968Y-17775531D02*
X14341492Y-17766008D01*
X14341492Y-17766008D02*
X14360539Y-17756484D01*
X14360539Y-17756484D02*
X14408158Y-17756484D01*
X14408158Y-17756484D02*
X14427206Y-17766008D01*
X14427206Y-17766008D02*
X14436730Y-17775531D01*
X14436730Y-17775531D02*
X14446253Y-17794579D01*
X14446253Y-17794579D02*
X14446253Y-17813627D01*
X14446253Y-17813627D02*
X14436730Y-17842198D01*
X14436730Y-17842198D02*
X14322444Y-17956484D01*
X14322444Y-17956484D02*
X14446253Y-17956484D01*
X14674825Y-17946960D02*
X14693873Y-17956484D01*
X14693873Y-17956484D02*
X14731968Y-17956484D01*
X14731968Y-17956484D02*
X14751015Y-17946960D01*
X14751015Y-17946960D02*
X14760539Y-17927912D01*
X14760539Y-17927912D02*
X14760539Y-17918389D01*
X14760539Y-17918389D02*
X14751015Y-17899341D01*
X14751015Y-17899341D02*
X14731968Y-17889817D01*
X14731968Y-17889817D02*
X14703396Y-17889817D01*
X14703396Y-17889817D02*
X14684349Y-17880293D01*
X14684349Y-17880293D02*
X14674825Y-17861246D01*
X14674825Y-17861246D02*
X14674825Y-17851722D01*
X14674825Y-17851722D02*
X14684349Y-17832674D01*
X14684349Y-17832674D02*
X14703396Y-17823150D01*
X14703396Y-17823150D02*
X14731968Y-17823150D01*
X14731968Y-17823150D02*
X14751015Y-17832674D01*
X14874825Y-17956484D02*
X14855777Y-17946960D01*
X14855777Y-17946960D02*
X14846254Y-17927912D01*
X14846254Y-17927912D02*
X14846254Y-17756484D01*
X14979587Y-17956484D02*
X14960539Y-17946960D01*
X14960539Y-17946960D02*
X14951015Y-17937436D01*
X14951015Y-17937436D02*
X14941492Y-17918389D01*
X14941492Y-17918389D02*
X14941492Y-17861246D01*
X14941492Y-17861246D02*
X14951015Y-17842198D01*
X14951015Y-17842198D02*
X14960539Y-17832674D01*
X14960539Y-17832674D02*
X14979587Y-17823150D01*
X14979587Y-17823150D02*
X15008158Y-17823150D01*
X15008158Y-17823150D02*
X15027206Y-17832674D01*
X15027206Y-17832674D02*
X15036730Y-17842198D01*
X15036730Y-17842198D02*
X15046254Y-17861246D01*
X15046254Y-17861246D02*
X15046254Y-17918389D01*
X15046254Y-17918389D02*
X15036730Y-17937436D01*
X15036730Y-17937436D02*
X15027206Y-17946960D01*
X15027206Y-17946960D02*
X15008158Y-17956484D01*
X15008158Y-17956484D02*
X14979587Y-17956484D01*
X15103396Y-17823150D02*
X15179587Y-17823150D01*
X15131968Y-17756484D02*
X15131968Y-17927912D01*
X15131968Y-17927912D02*
X15141492Y-17946960D01*
X15141492Y-17946960D02*
X15160539Y-17956484D01*
X15160539Y-17956484D02*
X15179587Y-17956484D01*
X15236730Y-17946960D02*
X15255777Y-17956484D01*
X15255777Y-17956484D02*
X15293873Y-17956484D01*
X15293873Y-17956484D02*
X15312920Y-17946960D01*
X15312920Y-17946960D02*
X15322444Y-17927912D01*
X15322444Y-17927912D02*
X15322444Y-17918389D01*
X15322444Y-17918389D02*
X15312920Y-17899341D01*
X15312920Y-17899341D02*
X15293873Y-17889817D01*
X15293873Y-17889817D02*
X15265301Y-17889817D01*
X15265301Y-17889817D02*
X15246254Y-17880293D01*
X15246254Y-17880293D02*
X15236730Y-17861246D01*
X15236730Y-17861246D02*
X15236730Y-17851722D01*
X15236730Y-17851722D02*
X15246254Y-17832674D01*
X15246254Y-17832674D02*
X15265301Y-17823150D01*
X15265301Y-17823150D02*
X15293873Y-17823150D01*
X15293873Y-17823150D02*
X15312920Y-17832674D01*
X15389111Y-18032674D02*
X15398635Y-18023150D01*
X15398635Y-18023150D02*
X15417682Y-17994579D01*
X15417682Y-17994579D02*
X15427206Y-17975531D01*
X15427206Y-17975531D02*
X15436730Y-17946960D01*
X15436730Y-17946960D02*
X15446254Y-17899341D01*
X15446254Y-17899341D02*
X15446254Y-17861246D01*
X15446254Y-17861246D02*
X15436730Y-17813627D01*
X15436730Y-17813627D02*
X15427206Y-17785055D01*
X15427206Y-17785055D02*
X15417682Y-17766008D01*
X15417682Y-17766008D02*
X15398635Y-17737436D01*
X15398635Y-17737436D02*
X15389111Y-17727912D01*
D14*
X8873000Y-18068000D02*
X8995000Y-18190000D01*
X8995000Y-18068000D02*
X8873000Y-18190000D01*
X8934000Y-18068000D02*
X8934000Y-18190000D01*
X8873000Y-18129000D02*
X8995000Y-18129000D01*
D12*
X9360539Y-18220484D02*
X9246253Y-18220484D01*
X9303396Y-18220484D02*
X9303396Y-18020484D01*
X9303396Y-18020484D02*
X9284348Y-18049055D01*
X9284348Y-18049055D02*
X9265301Y-18068103D01*
X9265301Y-18068103D02*
X9246253Y-18077627D01*
X9446253Y-18201436D02*
X9455777Y-18210960D01*
X9455777Y-18210960D02*
X9446253Y-18220484D01*
X9446253Y-18220484D02*
X9436729Y-18210960D01*
X9436729Y-18210960D02*
X9446253Y-18201436D01*
X9446253Y-18201436D02*
X9446253Y-18220484D01*
X9531967Y-18039531D02*
X9541491Y-18030008D01*
X9541491Y-18030008D02*
X9560539Y-18020484D01*
X9560539Y-18020484D02*
X9608158Y-18020484D01*
X9608158Y-18020484D02*
X9627205Y-18030008D01*
X9627205Y-18030008D02*
X9636729Y-18039531D01*
X9636729Y-18039531D02*
X9646253Y-18058579D01*
X9646253Y-18058579D02*
X9646253Y-18077627D01*
X9646253Y-18077627D02*
X9636729Y-18106198D01*
X9636729Y-18106198D02*
X9522444Y-18220484D01*
X9522444Y-18220484D02*
X9646253Y-18220484D01*
X9722444Y-18039531D02*
X9731967Y-18030008D01*
X9731967Y-18030008D02*
X9751015Y-18020484D01*
X9751015Y-18020484D02*
X9798634Y-18020484D01*
X9798634Y-18020484D02*
X9817682Y-18030008D01*
X9817682Y-18030008D02*
X9827205Y-18039531D01*
X9827205Y-18039531D02*
X9836729Y-18058579D01*
X9836729Y-18058579D02*
X9836729Y-18077627D01*
X9836729Y-18077627D02*
X9827205Y-18106198D01*
X9827205Y-18106198D02*
X9712920Y-18220484D01*
X9712920Y-18220484D02*
X9836729Y-18220484D01*
X9960539Y-18020484D02*
X9979586Y-18020484D01*
X9979586Y-18020484D02*
X9998634Y-18030008D01*
X9998634Y-18030008D02*
X10008158Y-18039531D01*
X10008158Y-18039531D02*
X10017682Y-18058579D01*
X10017682Y-18058579D02*
X10027205Y-18096674D01*
X10027205Y-18096674D02*
X10027205Y-18144293D01*
X10027205Y-18144293D02*
X10017682Y-18182389D01*
X10017682Y-18182389D02*
X10008158Y-18201436D01*
X10008158Y-18201436D02*
X9998634Y-18210960D01*
X9998634Y-18210960D02*
X9979586Y-18220484D01*
X9979586Y-18220484D02*
X9960539Y-18220484D01*
X9960539Y-18220484D02*
X9941491Y-18210960D01*
X9941491Y-18210960D02*
X9931967Y-18201436D01*
X9931967Y-18201436D02*
X9922444Y-18182389D01*
X9922444Y-18182389D02*
X9912920Y-18144293D01*
X9912920Y-18144293D02*
X9912920Y-18096674D01*
X9912920Y-18096674D02*
X9922444Y-18058579D01*
X9922444Y-18058579D02*
X9931967Y-18039531D01*
X9931967Y-18039531D02*
X9941491Y-18030008D01*
X9941491Y-18030008D02*
X9960539Y-18020484D01*
X10112920Y-18220484D02*
X10112920Y-18087150D01*
X10112920Y-18106198D02*
X10122444Y-18096674D01*
X10122444Y-18096674D02*
X10141491Y-18087150D01*
X10141491Y-18087150D02*
X10170063Y-18087150D01*
X10170063Y-18087150D02*
X10189110Y-18096674D01*
X10189110Y-18096674D02*
X10198634Y-18115722D01*
X10198634Y-18115722D02*
X10198634Y-18220484D01*
X10198634Y-18115722D02*
X10208158Y-18096674D01*
X10208158Y-18096674D02*
X10227205Y-18087150D01*
X10227205Y-18087150D02*
X10255777Y-18087150D01*
X10255777Y-18087150D02*
X10274825Y-18096674D01*
X10274825Y-18096674D02*
X10284348Y-18115722D01*
X10284348Y-18115722D02*
X10284348Y-18220484D01*
X10379586Y-18220484D02*
X10379586Y-18087150D01*
X10379586Y-18106198D02*
X10389110Y-18096674D01*
X10389110Y-18096674D02*
X10408158Y-18087150D01*
X10408158Y-18087150D02*
X10436729Y-18087150D01*
X10436729Y-18087150D02*
X10455777Y-18096674D01*
X10455777Y-18096674D02*
X10465301Y-18115722D01*
X10465301Y-18115722D02*
X10465301Y-18220484D01*
X10465301Y-18115722D02*
X10474825Y-18096674D01*
X10474825Y-18096674D02*
X10493872Y-18087150D01*
X10493872Y-18087150D02*
X10522444Y-18087150D01*
X10522444Y-18087150D02*
X10541491Y-18096674D01*
X10541491Y-18096674D02*
X10551015Y-18115722D01*
X10551015Y-18115722D02*
X10551015Y-18220484D01*
X10941491Y-18010960D02*
X10770063Y-18268103D01*
X11198634Y-18020484D02*
X11217682Y-18020484D01*
X11217682Y-18020484D02*
X11236729Y-18030008D01*
X11236729Y-18030008D02*
X11246253Y-18039531D01*
X11246253Y-18039531D02*
X11255777Y-18058579D01*
X11255777Y-18058579D02*
X11265301Y-18096674D01*
X11265301Y-18096674D02*
X11265301Y-18144293D01*
X11265301Y-18144293D02*
X11255777Y-18182389D01*
X11255777Y-18182389D02*
X11246253Y-18201436D01*
X11246253Y-18201436D02*
X11236729Y-18210960D01*
X11236729Y-18210960D02*
X11217682Y-18220484D01*
X11217682Y-18220484D02*
X11198634Y-18220484D01*
X11198634Y-18220484D02*
X11179587Y-18210960D01*
X11179587Y-18210960D02*
X11170063Y-18201436D01*
X11170063Y-18201436D02*
X11160539Y-18182389D01*
X11160539Y-18182389D02*
X11151015Y-18144293D01*
X11151015Y-18144293D02*
X11151015Y-18096674D01*
X11151015Y-18096674D02*
X11160539Y-18058579D01*
X11160539Y-18058579D02*
X11170063Y-18039531D01*
X11170063Y-18039531D02*
X11179587Y-18030008D01*
X11179587Y-18030008D02*
X11198634Y-18020484D01*
X11351015Y-18201436D02*
X11360539Y-18210960D01*
X11360539Y-18210960D02*
X11351015Y-18220484D01*
X11351015Y-18220484D02*
X11341491Y-18210960D01*
X11341491Y-18210960D02*
X11351015Y-18201436D01*
X11351015Y-18201436D02*
X11351015Y-18220484D01*
X11484348Y-18020484D02*
X11503396Y-18020484D01*
X11503396Y-18020484D02*
X11522444Y-18030008D01*
X11522444Y-18030008D02*
X11531967Y-18039531D01*
X11531967Y-18039531D02*
X11541491Y-18058579D01*
X11541491Y-18058579D02*
X11551015Y-18096674D01*
X11551015Y-18096674D02*
X11551015Y-18144293D01*
X11551015Y-18144293D02*
X11541491Y-18182389D01*
X11541491Y-18182389D02*
X11531967Y-18201436D01*
X11531967Y-18201436D02*
X11522444Y-18210960D01*
X11522444Y-18210960D02*
X11503396Y-18220484D01*
X11503396Y-18220484D02*
X11484348Y-18220484D01*
X11484348Y-18220484D02*
X11465301Y-18210960D01*
X11465301Y-18210960D02*
X11455777Y-18201436D01*
X11455777Y-18201436D02*
X11446253Y-18182389D01*
X11446253Y-18182389D02*
X11436729Y-18144293D01*
X11436729Y-18144293D02*
X11436729Y-18096674D01*
X11436729Y-18096674D02*
X11446253Y-18058579D01*
X11446253Y-18058579D02*
X11455777Y-18039531D01*
X11455777Y-18039531D02*
X11465301Y-18030008D01*
X11465301Y-18030008D02*
X11484348Y-18020484D01*
X11722444Y-18087150D02*
X11722444Y-18220484D01*
X11674825Y-18010960D02*
X11627206Y-18153817D01*
X11627206Y-18153817D02*
X11751015Y-18153817D01*
X11855777Y-18106198D02*
X11836729Y-18096674D01*
X11836729Y-18096674D02*
X11827206Y-18087150D01*
X11827206Y-18087150D02*
X11817682Y-18068103D01*
X11817682Y-18068103D02*
X11817682Y-18058579D01*
X11817682Y-18058579D02*
X11827206Y-18039531D01*
X11827206Y-18039531D02*
X11836729Y-18030008D01*
X11836729Y-18030008D02*
X11855777Y-18020484D01*
X11855777Y-18020484D02*
X11893872Y-18020484D01*
X11893872Y-18020484D02*
X11912920Y-18030008D01*
X11912920Y-18030008D02*
X11922444Y-18039531D01*
X11922444Y-18039531D02*
X11931967Y-18058579D01*
X11931967Y-18058579D02*
X11931967Y-18068103D01*
X11931967Y-18068103D02*
X11922444Y-18087150D01*
X11922444Y-18087150D02*
X11912920Y-18096674D01*
X11912920Y-18096674D02*
X11893872Y-18106198D01*
X11893872Y-18106198D02*
X11855777Y-18106198D01*
X11855777Y-18106198D02*
X11836729Y-18115722D01*
X11836729Y-18115722D02*
X11827206Y-18125246D01*
X11827206Y-18125246D02*
X11817682Y-18144293D01*
X11817682Y-18144293D02*
X11817682Y-18182389D01*
X11817682Y-18182389D02*
X11827206Y-18201436D01*
X11827206Y-18201436D02*
X11836729Y-18210960D01*
X11836729Y-18210960D02*
X11855777Y-18220484D01*
X11855777Y-18220484D02*
X11893872Y-18220484D01*
X11893872Y-18220484D02*
X11912920Y-18210960D01*
X11912920Y-18210960D02*
X11922444Y-18201436D01*
X11922444Y-18201436D02*
X11931967Y-18182389D01*
X11931967Y-18182389D02*
X11931967Y-18144293D01*
X11931967Y-18144293D02*
X11922444Y-18125246D01*
X11922444Y-18125246D02*
X11912920Y-18115722D01*
X11912920Y-18115722D02*
X11893872Y-18106198D01*
X12055777Y-18020484D02*
X12074825Y-18020484D01*
X12074825Y-18020484D02*
X12093872Y-18030008D01*
X12093872Y-18030008D02*
X12103396Y-18039531D01*
X12103396Y-18039531D02*
X12112920Y-18058579D01*
X12112920Y-18058579D02*
X12122444Y-18096674D01*
X12122444Y-18096674D02*
X12122444Y-18144293D01*
X12122444Y-18144293D02*
X12112920Y-18182389D01*
X12112920Y-18182389D02*
X12103396Y-18201436D01*
X12103396Y-18201436D02*
X12093872Y-18210960D01*
X12093872Y-18210960D02*
X12074825Y-18220484D01*
X12074825Y-18220484D02*
X12055777Y-18220484D01*
X12055777Y-18220484D02*
X12036729Y-18210960D01*
X12036729Y-18210960D02*
X12027206Y-18201436D01*
X12027206Y-18201436D02*
X12017682Y-18182389D01*
X12017682Y-18182389D02*
X12008158Y-18144293D01*
X12008158Y-18144293D02*
X12008158Y-18096674D01*
X12008158Y-18096674D02*
X12017682Y-18058579D01*
X12017682Y-18058579D02*
X12027206Y-18039531D01*
X12027206Y-18039531D02*
X12036729Y-18030008D01*
X12036729Y-18030008D02*
X12055777Y-18020484D01*
X12198634Y-18020484D02*
X12198634Y-18058579D01*
X12274825Y-18020484D02*
X12274825Y-18058579D01*
X12570063Y-18296674D02*
X12560539Y-18287150D01*
X12560539Y-18287150D02*
X12541491Y-18258579D01*
X12541491Y-18258579D02*
X12531968Y-18239531D01*
X12531968Y-18239531D02*
X12522444Y-18210960D01*
X12522444Y-18210960D02*
X12512920Y-18163341D01*
X12512920Y-18163341D02*
X12512920Y-18125246D01*
X12512920Y-18125246D02*
X12522444Y-18077627D01*
X12522444Y-18077627D02*
X12531968Y-18049055D01*
X12531968Y-18049055D02*
X12541491Y-18030008D01*
X12541491Y-18030008D02*
X12560539Y-18001436D01*
X12560539Y-18001436D02*
X12570063Y-17991912D01*
X12751015Y-18220484D02*
X12636729Y-18220484D01*
X12693872Y-18220484D02*
X12693872Y-18020484D01*
X12693872Y-18020484D02*
X12674825Y-18049055D01*
X12674825Y-18049055D02*
X12655777Y-18068103D01*
X12655777Y-18068103D02*
X12636729Y-18077627D01*
X12827206Y-18039531D02*
X12836729Y-18030008D01*
X12836729Y-18030008D02*
X12855777Y-18020484D01*
X12855777Y-18020484D02*
X12903396Y-18020484D01*
X12903396Y-18020484D02*
X12922444Y-18030008D01*
X12922444Y-18030008D02*
X12931968Y-18039531D01*
X12931968Y-18039531D02*
X12941491Y-18058579D01*
X12941491Y-18058579D02*
X12941491Y-18077627D01*
X12941491Y-18077627D02*
X12931968Y-18106198D01*
X12931968Y-18106198D02*
X12817682Y-18220484D01*
X12817682Y-18220484D02*
X12941491Y-18220484D01*
X13179587Y-18220484D02*
X13179587Y-18020484D01*
X13265301Y-18220484D02*
X13265301Y-18115722D01*
X13265301Y-18115722D02*
X13255777Y-18096674D01*
X13255777Y-18096674D02*
X13236730Y-18087150D01*
X13236730Y-18087150D02*
X13208158Y-18087150D01*
X13208158Y-18087150D02*
X13189110Y-18096674D01*
X13189110Y-18096674D02*
X13179587Y-18106198D01*
X13389110Y-18220484D02*
X13370063Y-18210960D01*
X13370063Y-18210960D02*
X13360539Y-18201436D01*
X13360539Y-18201436D02*
X13351015Y-18182389D01*
X13351015Y-18182389D02*
X13351015Y-18125246D01*
X13351015Y-18125246D02*
X13360539Y-18106198D01*
X13360539Y-18106198D02*
X13370063Y-18096674D01*
X13370063Y-18096674D02*
X13389110Y-18087150D01*
X13389110Y-18087150D02*
X13417682Y-18087150D01*
X13417682Y-18087150D02*
X13436730Y-18096674D01*
X13436730Y-18096674D02*
X13446253Y-18106198D01*
X13446253Y-18106198D02*
X13455777Y-18125246D01*
X13455777Y-18125246D02*
X13455777Y-18182389D01*
X13455777Y-18182389D02*
X13446253Y-18201436D01*
X13446253Y-18201436D02*
X13436730Y-18210960D01*
X13436730Y-18210960D02*
X13417682Y-18220484D01*
X13417682Y-18220484D02*
X13389110Y-18220484D01*
X13570063Y-18220484D02*
X13551015Y-18210960D01*
X13551015Y-18210960D02*
X13541491Y-18191912D01*
X13541491Y-18191912D02*
X13541491Y-18020484D01*
X13722444Y-18210960D02*
X13703396Y-18220484D01*
X13703396Y-18220484D02*
X13665301Y-18220484D01*
X13665301Y-18220484D02*
X13646253Y-18210960D01*
X13646253Y-18210960D02*
X13636730Y-18191912D01*
X13636730Y-18191912D02*
X13636730Y-18115722D01*
X13636730Y-18115722D02*
X13646253Y-18096674D01*
X13646253Y-18096674D02*
X13665301Y-18087150D01*
X13665301Y-18087150D02*
X13703396Y-18087150D01*
X13703396Y-18087150D02*
X13722444Y-18096674D01*
X13722444Y-18096674D02*
X13731968Y-18115722D01*
X13731968Y-18115722D02*
X13731968Y-18134770D01*
X13731968Y-18134770D02*
X13636730Y-18153817D01*
X13808158Y-18210960D02*
X13827206Y-18220484D01*
X13827206Y-18220484D02*
X13865301Y-18220484D01*
X13865301Y-18220484D02*
X13884349Y-18210960D01*
X13884349Y-18210960D02*
X13893872Y-18191912D01*
X13893872Y-18191912D02*
X13893872Y-18182389D01*
X13893872Y-18182389D02*
X13884349Y-18163341D01*
X13884349Y-18163341D02*
X13865301Y-18153817D01*
X13865301Y-18153817D02*
X13836730Y-18153817D01*
X13836730Y-18153817D02*
X13817682Y-18144293D01*
X13817682Y-18144293D02*
X13808158Y-18125246D01*
X13808158Y-18125246D02*
X13808158Y-18115722D01*
X13808158Y-18115722D02*
X13817682Y-18096674D01*
X13817682Y-18096674D02*
X13836730Y-18087150D01*
X13836730Y-18087150D02*
X13865301Y-18087150D01*
X13865301Y-18087150D02*
X13884349Y-18096674D01*
X13960539Y-18296674D02*
X13970063Y-18287150D01*
X13970063Y-18287150D02*
X13989111Y-18258579D01*
X13989111Y-18258579D02*
X13998634Y-18239531D01*
X13998634Y-18239531D02*
X14008158Y-18210960D01*
X14008158Y-18210960D02*
X14017682Y-18163341D01*
X14017682Y-18163341D02*
X14017682Y-18125246D01*
X14017682Y-18125246D02*
X14008158Y-18077627D01*
X14008158Y-18077627D02*
X13998634Y-18049055D01*
X13998634Y-18049055D02*
X13989111Y-18030008D01*
X13989111Y-18030008D02*
X13970063Y-18001436D01*
X13970063Y-18001436D02*
X13960539Y-17991912D01*
D15*
X8853000Y-18322000D02*
X8995000Y-18464000D01*
X8995000Y-18322000D02*
X8853000Y-18464000D01*
X8974205Y-18443205D02*
X8974205Y-18342795D01*
X8873795Y-18342795D01*
X8873795Y-18443205D01*
X8974205Y-18443205D01*
D12*
X9360539Y-18484484D02*
X9246253Y-18484484D01*
X9303396Y-18484484D02*
X9303396Y-18284484D01*
X9303396Y-18284484D02*
X9284348Y-18313055D01*
X9284348Y-18313055D02*
X9265301Y-18332103D01*
X9265301Y-18332103D02*
X9246253Y-18341627D01*
X9446253Y-18465436D02*
X9455777Y-18474960D01*
X9455777Y-18474960D02*
X9446253Y-18484484D01*
X9446253Y-18484484D02*
X9436729Y-18474960D01*
X9436729Y-18474960D02*
X9446253Y-18465436D01*
X9446253Y-18465436D02*
X9446253Y-18484484D01*
X9627205Y-18351150D02*
X9627205Y-18484484D01*
X9579586Y-18274960D02*
X9531967Y-18417817D01*
X9531967Y-18417817D02*
X9655777Y-18417817D01*
X9722444Y-18303531D02*
X9731967Y-18294008D01*
X9731967Y-18294008D02*
X9751015Y-18284484D01*
X9751015Y-18284484D02*
X9798634Y-18284484D01*
X9798634Y-18284484D02*
X9817682Y-18294008D01*
X9817682Y-18294008D02*
X9827205Y-18303531D01*
X9827205Y-18303531D02*
X9836729Y-18322579D01*
X9836729Y-18322579D02*
X9836729Y-18341627D01*
X9836729Y-18341627D02*
X9827205Y-18370198D01*
X9827205Y-18370198D02*
X9712920Y-18484484D01*
X9712920Y-18484484D02*
X9836729Y-18484484D01*
X9960539Y-18284484D02*
X9979586Y-18284484D01*
X9979586Y-18284484D02*
X9998634Y-18294008D01*
X9998634Y-18294008D02*
X10008158Y-18303531D01*
X10008158Y-18303531D02*
X10017682Y-18322579D01*
X10017682Y-18322579D02*
X10027205Y-18360674D01*
X10027205Y-18360674D02*
X10027205Y-18408293D01*
X10027205Y-18408293D02*
X10017682Y-18446389D01*
X10017682Y-18446389D02*
X10008158Y-18465436D01*
X10008158Y-18465436D02*
X9998634Y-18474960D01*
X9998634Y-18474960D02*
X9979586Y-18484484D01*
X9979586Y-18484484D02*
X9960539Y-18484484D01*
X9960539Y-18484484D02*
X9941491Y-18474960D01*
X9941491Y-18474960D02*
X9931967Y-18465436D01*
X9931967Y-18465436D02*
X9922444Y-18446389D01*
X9922444Y-18446389D02*
X9912920Y-18408293D01*
X9912920Y-18408293D02*
X9912920Y-18360674D01*
X9912920Y-18360674D02*
X9922444Y-18322579D01*
X9922444Y-18322579D02*
X9931967Y-18303531D01*
X9931967Y-18303531D02*
X9941491Y-18294008D01*
X9941491Y-18294008D02*
X9960539Y-18284484D01*
X10112920Y-18484484D02*
X10112920Y-18351150D01*
X10112920Y-18370198D02*
X10122444Y-18360674D01*
X10122444Y-18360674D02*
X10141491Y-18351150D01*
X10141491Y-18351150D02*
X10170063Y-18351150D01*
X10170063Y-18351150D02*
X10189110Y-18360674D01*
X10189110Y-18360674D02*
X10198634Y-18379722D01*
X10198634Y-18379722D02*
X10198634Y-18484484D01*
X10198634Y-18379722D02*
X10208158Y-18360674D01*
X10208158Y-18360674D02*
X10227205Y-18351150D01*
X10227205Y-18351150D02*
X10255777Y-18351150D01*
X10255777Y-18351150D02*
X10274825Y-18360674D01*
X10274825Y-18360674D02*
X10284348Y-18379722D01*
X10284348Y-18379722D02*
X10284348Y-18484484D01*
X10379586Y-18484484D02*
X10379586Y-18351150D01*
X10379586Y-18370198D02*
X10389110Y-18360674D01*
X10389110Y-18360674D02*
X10408158Y-18351150D01*
X10408158Y-18351150D02*
X10436729Y-18351150D01*
X10436729Y-18351150D02*
X10455777Y-18360674D01*
X10455777Y-18360674D02*
X10465301Y-18379722D01*
X10465301Y-18379722D02*
X10465301Y-18484484D01*
X10465301Y-18379722D02*
X10474825Y-18360674D01*
X10474825Y-18360674D02*
X10493872Y-18351150D01*
X10493872Y-18351150D02*
X10522444Y-18351150D01*
X10522444Y-18351150D02*
X10541491Y-18360674D01*
X10541491Y-18360674D02*
X10551015Y-18379722D01*
X10551015Y-18379722D02*
X10551015Y-18484484D01*
X10941491Y-18274960D02*
X10770063Y-18532103D01*
X11198634Y-18284484D02*
X11217682Y-18284484D01*
X11217682Y-18284484D02*
X11236729Y-18294008D01*
X11236729Y-18294008D02*
X11246253Y-18303531D01*
X11246253Y-18303531D02*
X11255777Y-18322579D01*
X11255777Y-18322579D02*
X11265301Y-18360674D01*
X11265301Y-18360674D02*
X11265301Y-18408293D01*
X11265301Y-18408293D02*
X11255777Y-18446389D01*
X11255777Y-18446389D02*
X11246253Y-18465436D01*
X11246253Y-18465436D02*
X11236729Y-18474960D01*
X11236729Y-18474960D02*
X11217682Y-18484484D01*
X11217682Y-18484484D02*
X11198634Y-18484484D01*
X11198634Y-18484484D02*
X11179587Y-18474960D01*
X11179587Y-18474960D02*
X11170063Y-18465436D01*
X11170063Y-18465436D02*
X11160539Y-18446389D01*
X11160539Y-18446389D02*
X11151015Y-18408293D01*
X11151015Y-18408293D02*
X11151015Y-18360674D01*
X11151015Y-18360674D02*
X11160539Y-18322579D01*
X11160539Y-18322579D02*
X11170063Y-18303531D01*
X11170063Y-18303531D02*
X11179587Y-18294008D01*
X11179587Y-18294008D02*
X11198634Y-18284484D01*
X11351015Y-18465436D02*
X11360539Y-18474960D01*
X11360539Y-18474960D02*
X11351015Y-18484484D01*
X11351015Y-18484484D02*
X11341491Y-18474960D01*
X11341491Y-18474960D02*
X11351015Y-18465436D01*
X11351015Y-18465436D02*
X11351015Y-18484484D01*
X11484348Y-18284484D02*
X11503396Y-18284484D01*
X11503396Y-18284484D02*
X11522444Y-18294008D01*
X11522444Y-18294008D02*
X11531967Y-18303531D01*
X11531967Y-18303531D02*
X11541491Y-18322579D01*
X11541491Y-18322579D02*
X11551015Y-18360674D01*
X11551015Y-18360674D02*
X11551015Y-18408293D01*
X11551015Y-18408293D02*
X11541491Y-18446389D01*
X11541491Y-18446389D02*
X11531967Y-18465436D01*
X11531967Y-18465436D02*
X11522444Y-18474960D01*
X11522444Y-18474960D02*
X11503396Y-18484484D01*
X11503396Y-18484484D02*
X11484348Y-18484484D01*
X11484348Y-18484484D02*
X11465301Y-18474960D01*
X11465301Y-18474960D02*
X11455777Y-18465436D01*
X11455777Y-18465436D02*
X11446253Y-18446389D01*
X11446253Y-18446389D02*
X11436729Y-18408293D01*
X11436729Y-18408293D02*
X11436729Y-18360674D01*
X11436729Y-18360674D02*
X11446253Y-18322579D01*
X11446253Y-18322579D02*
X11455777Y-18303531D01*
X11455777Y-18303531D02*
X11465301Y-18294008D01*
X11465301Y-18294008D02*
X11484348Y-18284484D01*
X11731967Y-18284484D02*
X11636729Y-18284484D01*
X11636729Y-18284484D02*
X11627206Y-18379722D01*
X11627206Y-18379722D02*
X11636729Y-18370198D01*
X11636729Y-18370198D02*
X11655777Y-18360674D01*
X11655777Y-18360674D02*
X11703396Y-18360674D01*
X11703396Y-18360674D02*
X11722444Y-18370198D01*
X11722444Y-18370198D02*
X11731967Y-18379722D01*
X11731967Y-18379722D02*
X11741491Y-18398770D01*
X11741491Y-18398770D02*
X11741491Y-18446389D01*
X11741491Y-18446389D02*
X11731967Y-18465436D01*
X11731967Y-18465436D02*
X11722444Y-18474960D01*
X11722444Y-18474960D02*
X11703396Y-18484484D01*
X11703396Y-18484484D02*
X11655777Y-18484484D01*
X11655777Y-18484484D02*
X11636729Y-18474960D01*
X11636729Y-18474960D02*
X11627206Y-18465436D01*
X11922444Y-18284484D02*
X11827206Y-18284484D01*
X11827206Y-18284484D02*
X11817682Y-18379722D01*
X11817682Y-18379722D02*
X11827206Y-18370198D01*
X11827206Y-18370198D02*
X11846253Y-18360674D01*
X11846253Y-18360674D02*
X11893872Y-18360674D01*
X11893872Y-18360674D02*
X11912920Y-18370198D01*
X11912920Y-18370198D02*
X11922444Y-18379722D01*
X11922444Y-18379722D02*
X11931967Y-18398770D01*
X11931967Y-18398770D02*
X11931967Y-18446389D01*
X11931967Y-18446389D02*
X11922444Y-18465436D01*
X11922444Y-18465436D02*
X11912920Y-18474960D01*
X11912920Y-18474960D02*
X11893872Y-18484484D01*
X11893872Y-18484484D02*
X11846253Y-18484484D01*
X11846253Y-18484484D02*
X11827206Y-18474960D01*
X11827206Y-18474960D02*
X11817682Y-18465436D01*
X12027206Y-18484484D02*
X12065301Y-18484484D01*
X12065301Y-18484484D02*
X12084348Y-18474960D01*
X12084348Y-18474960D02*
X12093872Y-18465436D01*
X12093872Y-18465436D02*
X12112920Y-18436865D01*
X12112920Y-18436865D02*
X12122444Y-18398770D01*
X12122444Y-18398770D02*
X12122444Y-18322579D01*
X12122444Y-18322579D02*
X12112920Y-18303531D01*
X12112920Y-18303531D02*
X12103396Y-18294008D01*
X12103396Y-18294008D02*
X12084348Y-18284484D01*
X12084348Y-18284484D02*
X12046253Y-18284484D01*
X12046253Y-18284484D02*
X12027206Y-18294008D01*
X12027206Y-18294008D02*
X12017682Y-18303531D01*
X12017682Y-18303531D02*
X12008158Y-18322579D01*
X12008158Y-18322579D02*
X12008158Y-18370198D01*
X12008158Y-18370198D02*
X12017682Y-18389246D01*
X12017682Y-18389246D02*
X12027206Y-18398770D01*
X12027206Y-18398770D02*
X12046253Y-18408293D01*
X12046253Y-18408293D02*
X12084348Y-18408293D01*
X12084348Y-18408293D02*
X12103396Y-18398770D01*
X12103396Y-18398770D02*
X12112920Y-18389246D01*
X12112920Y-18389246D02*
X12122444Y-18370198D01*
X12198634Y-18284484D02*
X12198634Y-18322579D01*
X12274825Y-18284484D02*
X12274825Y-18322579D01*
X12570063Y-18560674D02*
X12560539Y-18551150D01*
X12560539Y-18551150D02*
X12541491Y-18522579D01*
X12541491Y-18522579D02*
X12531968Y-18503531D01*
X12531968Y-18503531D02*
X12522444Y-18474960D01*
X12522444Y-18474960D02*
X12512920Y-18427341D01*
X12512920Y-18427341D02*
X12512920Y-18389246D01*
X12512920Y-18389246D02*
X12522444Y-18341627D01*
X12522444Y-18341627D02*
X12531968Y-18313055D01*
X12531968Y-18313055D02*
X12541491Y-18294008D01*
X12541491Y-18294008D02*
X12560539Y-18265436D01*
X12560539Y-18265436D02*
X12570063Y-18255912D01*
X12751015Y-18484484D02*
X12636729Y-18484484D01*
X12693872Y-18484484D02*
X12693872Y-18284484D01*
X12693872Y-18284484D02*
X12674825Y-18313055D01*
X12674825Y-18313055D02*
X12655777Y-18332103D01*
X12655777Y-18332103D02*
X12636729Y-18341627D01*
X12827206Y-18303531D02*
X12836729Y-18294008D01*
X12836729Y-18294008D02*
X12855777Y-18284484D01*
X12855777Y-18284484D02*
X12903396Y-18284484D01*
X12903396Y-18284484D02*
X12922444Y-18294008D01*
X12922444Y-18294008D02*
X12931968Y-18303531D01*
X12931968Y-18303531D02*
X12941491Y-18322579D01*
X12941491Y-18322579D02*
X12941491Y-18341627D01*
X12941491Y-18341627D02*
X12931968Y-18370198D01*
X12931968Y-18370198D02*
X12817682Y-18484484D01*
X12817682Y-18484484D02*
X12941491Y-18484484D01*
X13179587Y-18484484D02*
X13179587Y-18284484D01*
X13265301Y-18484484D02*
X13265301Y-18379722D01*
X13265301Y-18379722D02*
X13255777Y-18360674D01*
X13255777Y-18360674D02*
X13236730Y-18351150D01*
X13236730Y-18351150D02*
X13208158Y-18351150D01*
X13208158Y-18351150D02*
X13189110Y-18360674D01*
X13189110Y-18360674D02*
X13179587Y-18370198D01*
X13389110Y-18484484D02*
X13370063Y-18474960D01*
X13370063Y-18474960D02*
X13360539Y-18465436D01*
X13360539Y-18465436D02*
X13351015Y-18446389D01*
X13351015Y-18446389D02*
X13351015Y-18389246D01*
X13351015Y-18389246D02*
X13360539Y-18370198D01*
X13360539Y-18370198D02*
X13370063Y-18360674D01*
X13370063Y-18360674D02*
X13389110Y-18351150D01*
X13389110Y-18351150D02*
X13417682Y-18351150D01*
X13417682Y-18351150D02*
X13436730Y-18360674D01*
X13436730Y-18360674D02*
X13446253Y-18370198D01*
X13446253Y-18370198D02*
X13455777Y-18389246D01*
X13455777Y-18389246D02*
X13455777Y-18446389D01*
X13455777Y-18446389D02*
X13446253Y-18465436D01*
X13446253Y-18465436D02*
X13436730Y-18474960D01*
X13436730Y-18474960D02*
X13417682Y-18484484D01*
X13417682Y-18484484D02*
X13389110Y-18484484D01*
X13570063Y-18484484D02*
X13551015Y-18474960D01*
X13551015Y-18474960D02*
X13541491Y-18455912D01*
X13541491Y-18455912D02*
X13541491Y-18284484D01*
X13722444Y-18474960D02*
X13703396Y-18484484D01*
X13703396Y-18484484D02*
X13665301Y-18484484D01*
X13665301Y-18484484D02*
X13646253Y-18474960D01*
X13646253Y-18474960D02*
X13636730Y-18455912D01*
X13636730Y-18455912D02*
X13636730Y-18379722D01*
X13636730Y-18379722D02*
X13646253Y-18360674D01*
X13646253Y-18360674D02*
X13665301Y-18351150D01*
X13665301Y-18351150D02*
X13703396Y-18351150D01*
X13703396Y-18351150D02*
X13722444Y-18360674D01*
X13722444Y-18360674D02*
X13731968Y-18379722D01*
X13731968Y-18379722D02*
X13731968Y-18398770D01*
X13731968Y-18398770D02*
X13636730Y-18417817D01*
X13808158Y-18474960D02*
X13827206Y-18484484D01*
X13827206Y-18484484D02*
X13865301Y-18484484D01*
X13865301Y-18484484D02*
X13884349Y-18474960D01*
X13884349Y-18474960D02*
X13893872Y-18455912D01*
X13893872Y-18455912D02*
X13893872Y-18446389D01*
X13893872Y-18446389D02*
X13884349Y-18427341D01*
X13884349Y-18427341D02*
X13865301Y-18417817D01*
X13865301Y-18417817D02*
X13836730Y-18417817D01*
X13836730Y-18417817D02*
X13817682Y-18408293D01*
X13817682Y-18408293D02*
X13808158Y-18389246D01*
X13808158Y-18389246D02*
X13808158Y-18379722D01*
X13808158Y-18379722D02*
X13817682Y-18360674D01*
X13817682Y-18360674D02*
X13836730Y-18351150D01*
X13836730Y-18351150D02*
X13865301Y-18351150D01*
X13865301Y-18351150D02*
X13884349Y-18360674D01*
X13960539Y-18560674D02*
X13970063Y-18551150D01*
X13970063Y-18551150D02*
X13989111Y-18522579D01*
X13989111Y-18522579D02*
X13998634Y-18503531D01*
X13998634Y-18503531D02*
X14008158Y-18474960D01*
X14008158Y-18474960D02*
X14017682Y-18427341D01*
X14017682Y-18427341D02*
X14017682Y-18389246D01*
X14017682Y-18389246D02*
X14008158Y-18341627D01*
X14008158Y-18341627D02*
X13998634Y-18313055D01*
X13998634Y-18313055D02*
X13989111Y-18294008D01*
X13989111Y-18294008D02*
X13970063Y-18265436D01*
X13970063Y-18265436D02*
X13960539Y-18255912D01*
D16*
X8852000Y-18585500D02*
X8995000Y-18728500D01*
X8995000Y-18585500D02*
X8852000Y-18728500D01*
X8923500Y-18728500D02*
X8995000Y-18657000D01*
X8923500Y-18585500D01*
X8852000Y-18657000D01*
X8923500Y-18728500D01*
D12*
X9360539Y-18748484D02*
X9246253Y-18748484D01*
X9303396Y-18748484D02*
X9303396Y-18548484D01*
X9303396Y-18548484D02*
X9284348Y-18577055D01*
X9284348Y-18577055D02*
X9265301Y-18596103D01*
X9265301Y-18596103D02*
X9246253Y-18605627D01*
X9446253Y-18729436D02*
X9455777Y-18738960D01*
X9455777Y-18738960D02*
X9446253Y-18748484D01*
X9446253Y-18748484D02*
X9436729Y-18738960D01*
X9436729Y-18738960D02*
X9446253Y-18729436D01*
X9446253Y-18729436D02*
X9446253Y-18748484D01*
X9627205Y-18615150D02*
X9627205Y-18748484D01*
X9579586Y-18538960D02*
X9531967Y-18681817D01*
X9531967Y-18681817D02*
X9655777Y-18681817D01*
X9712920Y-18548484D02*
X9836729Y-18548484D01*
X9836729Y-18548484D02*
X9770063Y-18624674D01*
X9770063Y-18624674D02*
X9798634Y-18624674D01*
X9798634Y-18624674D02*
X9817682Y-18634198D01*
X9817682Y-18634198D02*
X9827205Y-18643722D01*
X9827205Y-18643722D02*
X9836729Y-18662770D01*
X9836729Y-18662770D02*
X9836729Y-18710389D01*
X9836729Y-18710389D02*
X9827205Y-18729436D01*
X9827205Y-18729436D02*
X9817682Y-18738960D01*
X9817682Y-18738960D02*
X9798634Y-18748484D01*
X9798634Y-18748484D02*
X9741491Y-18748484D01*
X9741491Y-18748484D02*
X9722444Y-18738960D01*
X9722444Y-18738960D02*
X9712920Y-18729436D01*
X9960539Y-18548484D02*
X9979586Y-18548484D01*
X9979586Y-18548484D02*
X9998634Y-18558008D01*
X9998634Y-18558008D02*
X10008158Y-18567531D01*
X10008158Y-18567531D02*
X10017682Y-18586579D01*
X10017682Y-18586579D02*
X10027205Y-18624674D01*
X10027205Y-18624674D02*
X10027205Y-18672293D01*
X10027205Y-18672293D02*
X10017682Y-18710389D01*
X10017682Y-18710389D02*
X10008158Y-18729436D01*
X10008158Y-18729436D02*
X9998634Y-18738960D01*
X9998634Y-18738960D02*
X9979586Y-18748484D01*
X9979586Y-18748484D02*
X9960539Y-18748484D01*
X9960539Y-18748484D02*
X9941491Y-18738960D01*
X9941491Y-18738960D02*
X9931967Y-18729436D01*
X9931967Y-18729436D02*
X9922444Y-18710389D01*
X9922444Y-18710389D02*
X9912920Y-18672293D01*
X9912920Y-18672293D02*
X9912920Y-18624674D01*
X9912920Y-18624674D02*
X9922444Y-18586579D01*
X9922444Y-18586579D02*
X9931967Y-18567531D01*
X9931967Y-18567531D02*
X9941491Y-18558008D01*
X9941491Y-18558008D02*
X9960539Y-18548484D01*
X10112920Y-18748484D02*
X10112920Y-18615150D01*
X10112920Y-18634198D02*
X10122444Y-18624674D01*
X10122444Y-18624674D02*
X10141491Y-18615150D01*
X10141491Y-18615150D02*
X10170063Y-18615150D01*
X10170063Y-18615150D02*
X10189110Y-18624674D01*
X10189110Y-18624674D02*
X10198634Y-18643722D01*
X10198634Y-18643722D02*
X10198634Y-18748484D01*
X10198634Y-18643722D02*
X10208158Y-18624674D01*
X10208158Y-18624674D02*
X10227205Y-18615150D01*
X10227205Y-18615150D02*
X10255777Y-18615150D01*
X10255777Y-18615150D02*
X10274825Y-18624674D01*
X10274825Y-18624674D02*
X10284348Y-18643722D01*
X10284348Y-18643722D02*
X10284348Y-18748484D01*
X10379586Y-18748484D02*
X10379586Y-18615150D01*
X10379586Y-18634198D02*
X10389110Y-18624674D01*
X10389110Y-18624674D02*
X10408158Y-18615150D01*
X10408158Y-18615150D02*
X10436729Y-18615150D01*
X10436729Y-18615150D02*
X10455777Y-18624674D01*
X10455777Y-18624674D02*
X10465301Y-18643722D01*
X10465301Y-18643722D02*
X10465301Y-18748484D01*
X10465301Y-18643722D02*
X10474825Y-18624674D01*
X10474825Y-18624674D02*
X10493872Y-18615150D01*
X10493872Y-18615150D02*
X10522444Y-18615150D01*
X10522444Y-18615150D02*
X10541491Y-18624674D01*
X10541491Y-18624674D02*
X10551015Y-18643722D01*
X10551015Y-18643722D02*
X10551015Y-18748484D01*
X10941491Y-18538960D02*
X10770063Y-18796103D01*
X11198634Y-18548484D02*
X11217682Y-18548484D01*
X11217682Y-18548484D02*
X11236729Y-18558008D01*
X11236729Y-18558008D02*
X11246253Y-18567531D01*
X11246253Y-18567531D02*
X11255777Y-18586579D01*
X11255777Y-18586579D02*
X11265301Y-18624674D01*
X11265301Y-18624674D02*
X11265301Y-18672293D01*
X11265301Y-18672293D02*
X11255777Y-18710389D01*
X11255777Y-18710389D02*
X11246253Y-18729436D01*
X11246253Y-18729436D02*
X11236729Y-18738960D01*
X11236729Y-18738960D02*
X11217682Y-18748484D01*
X11217682Y-18748484D02*
X11198634Y-18748484D01*
X11198634Y-18748484D02*
X11179587Y-18738960D01*
X11179587Y-18738960D02*
X11170063Y-18729436D01*
X11170063Y-18729436D02*
X11160539Y-18710389D01*
X11160539Y-18710389D02*
X11151015Y-18672293D01*
X11151015Y-18672293D02*
X11151015Y-18624674D01*
X11151015Y-18624674D02*
X11160539Y-18586579D01*
X11160539Y-18586579D02*
X11170063Y-18567531D01*
X11170063Y-18567531D02*
X11179587Y-18558008D01*
X11179587Y-18558008D02*
X11198634Y-18548484D01*
X11351015Y-18729436D02*
X11360539Y-18738960D01*
X11360539Y-18738960D02*
X11351015Y-18748484D01*
X11351015Y-18748484D02*
X11341491Y-18738960D01*
X11341491Y-18738960D02*
X11351015Y-18729436D01*
X11351015Y-18729436D02*
X11351015Y-18748484D01*
X11484348Y-18548484D02*
X11503396Y-18548484D01*
X11503396Y-18548484D02*
X11522444Y-18558008D01*
X11522444Y-18558008D02*
X11531967Y-18567531D01*
X11531967Y-18567531D02*
X11541491Y-18586579D01*
X11541491Y-18586579D02*
X11551015Y-18624674D01*
X11551015Y-18624674D02*
X11551015Y-18672293D01*
X11551015Y-18672293D02*
X11541491Y-18710389D01*
X11541491Y-18710389D02*
X11531967Y-18729436D01*
X11531967Y-18729436D02*
X11522444Y-18738960D01*
X11522444Y-18738960D02*
X11503396Y-18748484D01*
X11503396Y-18748484D02*
X11484348Y-18748484D01*
X11484348Y-18748484D02*
X11465301Y-18738960D01*
X11465301Y-18738960D02*
X11455777Y-18729436D01*
X11455777Y-18729436D02*
X11446253Y-18710389D01*
X11446253Y-18710389D02*
X11436729Y-18672293D01*
X11436729Y-18672293D02*
X11436729Y-18624674D01*
X11436729Y-18624674D02*
X11446253Y-18586579D01*
X11446253Y-18586579D02*
X11455777Y-18567531D01*
X11455777Y-18567531D02*
X11465301Y-18558008D01*
X11465301Y-18558008D02*
X11484348Y-18548484D01*
X11731967Y-18548484D02*
X11636729Y-18548484D01*
X11636729Y-18548484D02*
X11627206Y-18643722D01*
X11627206Y-18643722D02*
X11636729Y-18634198D01*
X11636729Y-18634198D02*
X11655777Y-18624674D01*
X11655777Y-18624674D02*
X11703396Y-18624674D01*
X11703396Y-18624674D02*
X11722444Y-18634198D01*
X11722444Y-18634198D02*
X11731967Y-18643722D01*
X11731967Y-18643722D02*
X11741491Y-18662770D01*
X11741491Y-18662770D02*
X11741491Y-18710389D01*
X11741491Y-18710389D02*
X11731967Y-18729436D01*
X11731967Y-18729436D02*
X11722444Y-18738960D01*
X11722444Y-18738960D02*
X11703396Y-18748484D01*
X11703396Y-18748484D02*
X11655777Y-18748484D01*
X11655777Y-18748484D02*
X11636729Y-18738960D01*
X11636729Y-18738960D02*
X11627206Y-18729436D01*
X11912920Y-18548484D02*
X11874825Y-18548484D01*
X11874825Y-18548484D02*
X11855777Y-18558008D01*
X11855777Y-18558008D02*
X11846253Y-18567531D01*
X11846253Y-18567531D02*
X11827206Y-18596103D01*
X11827206Y-18596103D02*
X11817682Y-18634198D01*
X11817682Y-18634198D02*
X11817682Y-18710389D01*
X11817682Y-18710389D02*
X11827206Y-18729436D01*
X11827206Y-18729436D02*
X11836729Y-18738960D01*
X11836729Y-18738960D02*
X11855777Y-18748484D01*
X11855777Y-18748484D02*
X11893872Y-18748484D01*
X11893872Y-18748484D02*
X11912920Y-18738960D01*
X11912920Y-18738960D02*
X11922444Y-18729436D01*
X11922444Y-18729436D02*
X11931967Y-18710389D01*
X11931967Y-18710389D02*
X11931967Y-18662770D01*
X11931967Y-18662770D02*
X11922444Y-18643722D01*
X11922444Y-18643722D02*
X11912920Y-18634198D01*
X11912920Y-18634198D02*
X11893872Y-18624674D01*
X11893872Y-18624674D02*
X11855777Y-18624674D01*
X11855777Y-18624674D02*
X11836729Y-18634198D01*
X11836729Y-18634198D02*
X11827206Y-18643722D01*
X11827206Y-18643722D02*
X11817682Y-18662770D01*
X11998634Y-18548484D02*
X12122444Y-18548484D01*
X12122444Y-18548484D02*
X12055777Y-18624674D01*
X12055777Y-18624674D02*
X12084348Y-18624674D01*
X12084348Y-18624674D02*
X12103396Y-18634198D01*
X12103396Y-18634198D02*
X12112920Y-18643722D01*
X12112920Y-18643722D02*
X12122444Y-18662770D01*
X12122444Y-18662770D02*
X12122444Y-18710389D01*
X12122444Y-18710389D02*
X12112920Y-18729436D01*
X12112920Y-18729436D02*
X12103396Y-18738960D01*
X12103396Y-18738960D02*
X12084348Y-18748484D01*
X12084348Y-18748484D02*
X12027206Y-18748484D01*
X12027206Y-18748484D02*
X12008158Y-18738960D01*
X12008158Y-18738960D02*
X11998634Y-18729436D01*
X12198634Y-18548484D02*
X12198634Y-18586579D01*
X12274825Y-18548484D02*
X12274825Y-18586579D01*
X12570063Y-18824674D02*
X12560539Y-18815150D01*
X12560539Y-18815150D02*
X12541491Y-18786579D01*
X12541491Y-18786579D02*
X12531968Y-18767531D01*
X12531968Y-18767531D02*
X12522444Y-18738960D01*
X12522444Y-18738960D02*
X12512920Y-18691341D01*
X12512920Y-18691341D02*
X12512920Y-18653246D01*
X12512920Y-18653246D02*
X12522444Y-18605627D01*
X12522444Y-18605627D02*
X12531968Y-18577055D01*
X12531968Y-18577055D02*
X12541491Y-18558008D01*
X12541491Y-18558008D02*
X12560539Y-18529436D01*
X12560539Y-18529436D02*
X12570063Y-18519912D01*
X12751015Y-18748484D02*
X12636729Y-18748484D01*
X12693872Y-18748484D02*
X12693872Y-18548484D01*
X12693872Y-18548484D02*
X12674825Y-18577055D01*
X12674825Y-18577055D02*
X12655777Y-18596103D01*
X12655777Y-18596103D02*
X12636729Y-18605627D01*
X12827206Y-18567531D02*
X12836729Y-18558008D01*
X12836729Y-18558008D02*
X12855777Y-18548484D01*
X12855777Y-18548484D02*
X12903396Y-18548484D01*
X12903396Y-18548484D02*
X12922444Y-18558008D01*
X12922444Y-18558008D02*
X12931968Y-18567531D01*
X12931968Y-18567531D02*
X12941491Y-18586579D01*
X12941491Y-18586579D02*
X12941491Y-18605627D01*
X12941491Y-18605627D02*
X12931968Y-18634198D01*
X12931968Y-18634198D02*
X12817682Y-18748484D01*
X12817682Y-18748484D02*
X12941491Y-18748484D01*
X13179587Y-18748484D02*
X13179587Y-18548484D01*
X13265301Y-18748484D02*
X13265301Y-18643722D01*
X13265301Y-18643722D02*
X13255777Y-18624674D01*
X13255777Y-18624674D02*
X13236730Y-18615150D01*
X13236730Y-18615150D02*
X13208158Y-18615150D01*
X13208158Y-18615150D02*
X13189110Y-18624674D01*
X13189110Y-18624674D02*
X13179587Y-18634198D01*
X13389110Y-18748484D02*
X13370063Y-18738960D01*
X13370063Y-18738960D02*
X13360539Y-18729436D01*
X13360539Y-18729436D02*
X13351015Y-18710389D01*
X13351015Y-18710389D02*
X13351015Y-18653246D01*
X13351015Y-18653246D02*
X13360539Y-18634198D01*
X13360539Y-18634198D02*
X13370063Y-18624674D01*
X13370063Y-18624674D02*
X13389110Y-18615150D01*
X13389110Y-18615150D02*
X13417682Y-18615150D01*
X13417682Y-18615150D02*
X13436730Y-18624674D01*
X13436730Y-18624674D02*
X13446253Y-18634198D01*
X13446253Y-18634198D02*
X13455777Y-18653246D01*
X13455777Y-18653246D02*
X13455777Y-18710389D01*
X13455777Y-18710389D02*
X13446253Y-18729436D01*
X13446253Y-18729436D02*
X13436730Y-18738960D01*
X13436730Y-18738960D02*
X13417682Y-18748484D01*
X13417682Y-18748484D02*
X13389110Y-18748484D01*
X13570063Y-18748484D02*
X13551015Y-18738960D01*
X13551015Y-18738960D02*
X13541491Y-18719912D01*
X13541491Y-18719912D02*
X13541491Y-18548484D01*
X13722444Y-18738960D02*
X13703396Y-18748484D01*
X13703396Y-18748484D02*
X13665301Y-18748484D01*
X13665301Y-18748484D02*
X13646253Y-18738960D01*
X13646253Y-18738960D02*
X13636730Y-18719912D01*
X13636730Y-18719912D02*
X13636730Y-18643722D01*
X13636730Y-18643722D02*
X13646253Y-18624674D01*
X13646253Y-18624674D02*
X13665301Y-18615150D01*
X13665301Y-18615150D02*
X13703396Y-18615150D01*
X13703396Y-18615150D02*
X13722444Y-18624674D01*
X13722444Y-18624674D02*
X13731968Y-18643722D01*
X13731968Y-18643722D02*
X13731968Y-18662770D01*
X13731968Y-18662770D02*
X13636730Y-18681817D01*
X13808158Y-18738960D02*
X13827206Y-18748484D01*
X13827206Y-18748484D02*
X13865301Y-18748484D01*
X13865301Y-18748484D02*
X13884349Y-18738960D01*
X13884349Y-18738960D02*
X13893872Y-18719912D01*
X13893872Y-18719912D02*
X13893872Y-18710389D01*
X13893872Y-18710389D02*
X13884349Y-18691341D01*
X13884349Y-18691341D02*
X13865301Y-18681817D01*
X13865301Y-18681817D02*
X13836730Y-18681817D01*
X13836730Y-18681817D02*
X13817682Y-18672293D01*
X13817682Y-18672293D02*
X13808158Y-18653246D01*
X13808158Y-18653246D02*
X13808158Y-18643722D01*
X13808158Y-18643722D02*
X13817682Y-18624674D01*
X13817682Y-18624674D02*
X13836730Y-18615150D01*
X13836730Y-18615150D02*
X13865301Y-18615150D01*
X13865301Y-18615150D02*
X13884349Y-18624674D01*
X13960539Y-18824674D02*
X13970063Y-18815150D01*
X13970063Y-18815150D02*
X13989111Y-18786579D01*
X13989111Y-18786579D02*
X13998634Y-18767531D01*
X13998634Y-18767531D02*
X14008158Y-18738960D01*
X14008158Y-18738960D02*
X14017682Y-18691341D01*
X14017682Y-18691341D02*
X14017682Y-18653246D01*
X14017682Y-18653246D02*
X14008158Y-18605627D01*
X14008158Y-18605627D02*
X13998634Y-18577055D01*
X13998634Y-18577055D02*
X13989111Y-18558008D01*
X13989111Y-18558008D02*
X13970063Y-18529436D01*
X13970063Y-18529436D02*
X13960539Y-18519912D01*
M02*
