%TF.GenerationSoftware,KiCad,Pcbnew,8.0.5+1*%
%TF.CreationDate,2024-11-27T03:26:14+08:00*%
%TF.ProjectId,MiniDiv v0.3 - Main,4d696e69-4469-4762-9076-302e33202d20,0.3*%
%TF.SameCoordinates,Original*%
%TF.FileFunction,Legend,Top*%
%TF.FilePolarity,Positive*%
%FSLAX46Y46*%
G04 Gerber Fmt 4.6, Leading zero omitted, Abs format (unit mm)*
G04 Created by KiCad (PCBNEW 8.0.5+1) date 2024-11-27 03:26:14*
%MOMM*%
%LPD*%
G01*
G04 APERTURE LIST*
%ADD10C,0.150000*%
%ADD11C,0.100000*%
%ADD12C,0.120000*%
G04 APERTURE END LIST*
D10*
X106440476Y-147204819D02*
X106440476Y-147919104D01*
X106440476Y-147919104D02*
X106392857Y-148061961D01*
X106392857Y-148061961D02*
X106297619Y-148157200D01*
X106297619Y-148157200D02*
X106154762Y-148204819D01*
X106154762Y-148204819D02*
X106059524Y-148204819D01*
X107440476Y-148204819D02*
X106869048Y-148204819D01*
X107154762Y-148204819D02*
X107154762Y-147204819D01*
X107154762Y-147204819D02*
X107059524Y-147347676D01*
X107059524Y-147347676D02*
X106964286Y-147442914D01*
X106964286Y-147442914D02*
X106869048Y-147490533D01*
X108059524Y-147204819D02*
X108154762Y-147204819D01*
X108154762Y-147204819D02*
X108250000Y-147252438D01*
X108250000Y-147252438D02*
X108297619Y-147300057D01*
X108297619Y-147300057D02*
X108345238Y-147395295D01*
X108345238Y-147395295D02*
X108392857Y-147585771D01*
X108392857Y-147585771D02*
X108392857Y-147823866D01*
X108392857Y-147823866D02*
X108345238Y-148014342D01*
X108345238Y-148014342D02*
X108297619Y-148109580D01*
X108297619Y-148109580D02*
X108250000Y-148157200D01*
X108250000Y-148157200D02*
X108154762Y-148204819D01*
X108154762Y-148204819D02*
X108059524Y-148204819D01*
X108059524Y-148204819D02*
X107964286Y-148157200D01*
X107964286Y-148157200D02*
X107916667Y-148109580D01*
X107916667Y-148109580D02*
X107869048Y-148014342D01*
X107869048Y-148014342D02*
X107821429Y-147823866D01*
X107821429Y-147823866D02*
X107821429Y-147585771D01*
X107821429Y-147585771D02*
X107869048Y-147395295D01*
X107869048Y-147395295D02*
X107916667Y-147300057D01*
X107916667Y-147300057D02*
X107964286Y-147252438D01*
X107964286Y-147252438D02*
X108059524Y-147204819D01*
X102690476Y-141454819D02*
X102880952Y-141454819D01*
X102880952Y-141454819D02*
X102976190Y-141502438D01*
X102976190Y-141502438D02*
X103071428Y-141597676D01*
X103071428Y-141597676D02*
X103119047Y-141788152D01*
X103119047Y-141788152D02*
X103119047Y-142121485D01*
X103119047Y-142121485D02*
X103071428Y-142311961D01*
X103071428Y-142311961D02*
X102976190Y-142407200D01*
X102976190Y-142407200D02*
X102880952Y-142454819D01*
X102880952Y-142454819D02*
X102690476Y-142454819D01*
X102690476Y-142454819D02*
X102595238Y-142407200D01*
X102595238Y-142407200D02*
X102500000Y-142311961D01*
X102500000Y-142311961D02*
X102452381Y-142121485D01*
X102452381Y-142121485D02*
X102452381Y-141788152D01*
X102452381Y-141788152D02*
X102500000Y-141597676D01*
X102500000Y-141597676D02*
X102595238Y-141502438D01*
X102595238Y-141502438D02*
X102690476Y-141454819D01*
X103547619Y-141454819D02*
X103547619Y-142264342D01*
X103547619Y-142264342D02*
X103595238Y-142359580D01*
X103595238Y-142359580D02*
X103642857Y-142407200D01*
X103642857Y-142407200D02*
X103738095Y-142454819D01*
X103738095Y-142454819D02*
X103928571Y-142454819D01*
X103928571Y-142454819D02*
X104023809Y-142407200D01*
X104023809Y-142407200D02*
X104071428Y-142359580D01*
X104071428Y-142359580D02*
X104119047Y-142264342D01*
X104119047Y-142264342D02*
X104119047Y-141454819D01*
X104452381Y-141454819D02*
X105023809Y-141454819D01*
X104738095Y-142454819D02*
X104738095Y-141454819D01*
X105119048Y-142550057D02*
X105880952Y-142550057D01*
X106595238Y-141454819D02*
X106119048Y-141454819D01*
X106119048Y-141454819D02*
X106071429Y-141931009D01*
X106071429Y-141931009D02*
X106119048Y-141883390D01*
X106119048Y-141883390D02*
X106214286Y-141835771D01*
X106214286Y-141835771D02*
X106452381Y-141835771D01*
X106452381Y-141835771D02*
X106547619Y-141883390D01*
X106547619Y-141883390D02*
X106595238Y-141931009D01*
X106595238Y-141931009D02*
X106642857Y-142026247D01*
X106642857Y-142026247D02*
X106642857Y-142264342D01*
X106642857Y-142264342D02*
X106595238Y-142359580D01*
X106595238Y-142359580D02*
X106547619Y-142407200D01*
X106547619Y-142407200D02*
X106452381Y-142454819D01*
X106452381Y-142454819D02*
X106214286Y-142454819D01*
X106214286Y-142454819D02*
X106119048Y-142407200D01*
X106119048Y-142407200D02*
X106071429Y-142359580D01*
X107595238Y-142454819D02*
X107023810Y-142454819D01*
X107309524Y-142454819D02*
X107309524Y-141454819D01*
X107309524Y-141454819D02*
X107214286Y-141597676D01*
X107214286Y-141597676D02*
X107119048Y-141692914D01*
X107119048Y-141692914D02*
X107023810Y-141740533D01*
X107976191Y-141550057D02*
X108023810Y-141502438D01*
X108023810Y-141502438D02*
X108119048Y-141454819D01*
X108119048Y-141454819D02*
X108357143Y-141454819D01*
X108357143Y-141454819D02*
X108452381Y-141502438D01*
X108452381Y-141502438D02*
X108500000Y-141550057D01*
X108500000Y-141550057D02*
X108547619Y-141645295D01*
X108547619Y-141645295D02*
X108547619Y-141740533D01*
X108547619Y-141740533D02*
X108500000Y-141883390D01*
X108500000Y-141883390D02*
X107928572Y-142454819D01*
X107928572Y-142454819D02*
X108547619Y-142454819D01*
X101916666Y-127204819D02*
X101916666Y-127919104D01*
X101916666Y-127919104D02*
X101869047Y-128061961D01*
X101869047Y-128061961D02*
X101773809Y-128157200D01*
X101773809Y-128157200D02*
X101630952Y-128204819D01*
X101630952Y-128204819D02*
X101535714Y-128204819D01*
X102297619Y-127204819D02*
X102916666Y-127204819D01*
X102916666Y-127204819D02*
X102583333Y-127585771D01*
X102583333Y-127585771D02*
X102726190Y-127585771D01*
X102726190Y-127585771D02*
X102821428Y-127633390D01*
X102821428Y-127633390D02*
X102869047Y-127681009D01*
X102869047Y-127681009D02*
X102916666Y-127776247D01*
X102916666Y-127776247D02*
X102916666Y-128014342D01*
X102916666Y-128014342D02*
X102869047Y-128109580D01*
X102869047Y-128109580D02*
X102821428Y-128157200D01*
X102821428Y-128157200D02*
X102726190Y-128204819D01*
X102726190Y-128204819D02*
X102440476Y-128204819D01*
X102440476Y-128204819D02*
X102345238Y-128157200D01*
X102345238Y-128157200D02*
X102297619Y-128109580D01*
X101642857Y-119704819D02*
X101833333Y-119704819D01*
X101833333Y-119704819D02*
X101928571Y-119752438D01*
X101928571Y-119752438D02*
X102023809Y-119847676D01*
X102023809Y-119847676D02*
X102071428Y-120038152D01*
X102071428Y-120038152D02*
X102071428Y-120371485D01*
X102071428Y-120371485D02*
X102023809Y-120561961D01*
X102023809Y-120561961D02*
X101928571Y-120657200D01*
X101928571Y-120657200D02*
X101833333Y-120704819D01*
X101833333Y-120704819D02*
X101642857Y-120704819D01*
X101642857Y-120704819D02*
X101547619Y-120657200D01*
X101547619Y-120657200D02*
X101452381Y-120561961D01*
X101452381Y-120561961D02*
X101404762Y-120371485D01*
X101404762Y-120371485D02*
X101404762Y-120038152D01*
X101404762Y-120038152D02*
X101452381Y-119847676D01*
X101452381Y-119847676D02*
X101547619Y-119752438D01*
X101547619Y-119752438D02*
X101642857Y-119704819D01*
X102500000Y-119704819D02*
X102500000Y-120514342D01*
X102500000Y-120514342D02*
X102547619Y-120609580D01*
X102547619Y-120609580D02*
X102595238Y-120657200D01*
X102595238Y-120657200D02*
X102690476Y-120704819D01*
X102690476Y-120704819D02*
X102880952Y-120704819D01*
X102880952Y-120704819D02*
X102976190Y-120657200D01*
X102976190Y-120657200D02*
X103023809Y-120609580D01*
X103023809Y-120609580D02*
X103071428Y-120514342D01*
X103071428Y-120514342D02*
X103071428Y-119704819D01*
X103404762Y-119704819D02*
X103976190Y-119704819D01*
X103690476Y-120704819D02*
X103690476Y-119704819D01*
X104071429Y-120800057D02*
X104833333Y-120800057D01*
X105500000Y-120038152D02*
X105500000Y-120704819D01*
X105261905Y-119657200D02*
X105023810Y-120371485D01*
X105023810Y-120371485D02*
X105642857Y-120371485D01*
X106440476Y-157204819D02*
X106440476Y-157919104D01*
X106440476Y-157919104D02*
X106392857Y-158061961D01*
X106392857Y-158061961D02*
X106297619Y-158157200D01*
X106297619Y-158157200D02*
X106154762Y-158204819D01*
X106154762Y-158204819D02*
X106059524Y-158204819D01*
X107440476Y-158204819D02*
X106869048Y-158204819D01*
X107154762Y-158204819D02*
X107154762Y-157204819D01*
X107154762Y-157204819D02*
X107059524Y-157347676D01*
X107059524Y-157347676D02*
X106964286Y-157442914D01*
X106964286Y-157442914D02*
X106869048Y-157490533D01*
X108392857Y-158204819D02*
X107821429Y-158204819D01*
X108107143Y-158204819D02*
X108107143Y-157204819D01*
X108107143Y-157204819D02*
X108011905Y-157347676D01*
X108011905Y-157347676D02*
X107916667Y-157442914D01*
X107916667Y-157442914D02*
X107821429Y-157490533D01*
X101714285Y-151454819D02*
X101904761Y-151454819D01*
X101904761Y-151454819D02*
X101999999Y-151502438D01*
X101999999Y-151502438D02*
X102095237Y-151597676D01*
X102095237Y-151597676D02*
X102142856Y-151788152D01*
X102142856Y-151788152D02*
X102142856Y-152121485D01*
X102142856Y-152121485D02*
X102095237Y-152311961D01*
X102095237Y-152311961D02*
X101999999Y-152407200D01*
X101999999Y-152407200D02*
X101904761Y-152454819D01*
X101904761Y-152454819D02*
X101714285Y-152454819D01*
X101714285Y-152454819D02*
X101619047Y-152407200D01*
X101619047Y-152407200D02*
X101523809Y-152311961D01*
X101523809Y-152311961D02*
X101476190Y-152121485D01*
X101476190Y-152121485D02*
X101476190Y-151788152D01*
X101476190Y-151788152D02*
X101523809Y-151597676D01*
X101523809Y-151597676D02*
X101619047Y-151502438D01*
X101619047Y-151502438D02*
X101714285Y-151454819D01*
X102571428Y-151454819D02*
X102571428Y-152264342D01*
X102571428Y-152264342D02*
X102619047Y-152359580D01*
X102619047Y-152359580D02*
X102666666Y-152407200D01*
X102666666Y-152407200D02*
X102761904Y-152454819D01*
X102761904Y-152454819D02*
X102952380Y-152454819D01*
X102952380Y-152454819D02*
X103047618Y-152407200D01*
X103047618Y-152407200D02*
X103095237Y-152359580D01*
X103095237Y-152359580D02*
X103142856Y-152264342D01*
X103142856Y-152264342D02*
X103142856Y-151454819D01*
X103476190Y-151454819D02*
X104047618Y-151454819D01*
X103761904Y-152454819D02*
X103761904Y-151454819D01*
X104142857Y-152550057D02*
X104904761Y-152550057D01*
X105666666Y-152454819D02*
X105095238Y-152454819D01*
X105380952Y-152454819D02*
X105380952Y-151454819D01*
X105380952Y-151454819D02*
X105285714Y-151597676D01*
X105285714Y-151597676D02*
X105190476Y-151692914D01*
X105190476Y-151692914D02*
X105095238Y-151740533D01*
X106285714Y-151454819D02*
X106380952Y-151454819D01*
X106380952Y-151454819D02*
X106476190Y-151502438D01*
X106476190Y-151502438D02*
X106523809Y-151550057D01*
X106523809Y-151550057D02*
X106571428Y-151645295D01*
X106571428Y-151645295D02*
X106619047Y-151835771D01*
X106619047Y-151835771D02*
X106619047Y-152073866D01*
X106619047Y-152073866D02*
X106571428Y-152264342D01*
X106571428Y-152264342D02*
X106523809Y-152359580D01*
X106523809Y-152359580D02*
X106476190Y-152407200D01*
X106476190Y-152407200D02*
X106380952Y-152454819D01*
X106380952Y-152454819D02*
X106285714Y-152454819D01*
X106285714Y-152454819D02*
X106190476Y-152407200D01*
X106190476Y-152407200D02*
X106142857Y-152359580D01*
X106142857Y-152359580D02*
X106095238Y-152264342D01*
X106095238Y-152264342D02*
X106047619Y-152073866D01*
X106047619Y-152073866D02*
X106047619Y-151835771D01*
X106047619Y-151835771D02*
X106095238Y-151645295D01*
X106095238Y-151645295D02*
X106142857Y-151550057D01*
X106142857Y-151550057D02*
X106190476Y-151502438D01*
X106190476Y-151502438D02*
X106285714Y-151454819D01*
X107000000Y-151550057D02*
X107047619Y-151502438D01*
X107047619Y-151502438D02*
X107142857Y-151454819D01*
X107142857Y-151454819D02*
X107380952Y-151454819D01*
X107380952Y-151454819D02*
X107476190Y-151502438D01*
X107476190Y-151502438D02*
X107523809Y-151550057D01*
X107523809Y-151550057D02*
X107571428Y-151645295D01*
X107571428Y-151645295D02*
X107571428Y-151740533D01*
X107571428Y-151740533D02*
X107523809Y-151883390D01*
X107523809Y-151883390D02*
X106952381Y-152454819D01*
X106952381Y-152454819D02*
X107571428Y-152454819D01*
X108428571Y-151788152D02*
X108428571Y-152454819D01*
X108190476Y-151407200D02*
X107952381Y-152121485D01*
X107952381Y-152121485D02*
X108571428Y-152121485D01*
X107416666Y-117204819D02*
X107416666Y-117919104D01*
X107416666Y-117919104D02*
X107369047Y-118061961D01*
X107369047Y-118061961D02*
X107273809Y-118157200D01*
X107273809Y-118157200D02*
X107130952Y-118204819D01*
X107130952Y-118204819D02*
X107035714Y-118204819D01*
X107797619Y-117204819D02*
X108464285Y-117204819D01*
X108464285Y-117204819D02*
X108035714Y-118204819D01*
X103666666Y-111454819D02*
X103857142Y-111454819D01*
X103857142Y-111454819D02*
X103952380Y-111502438D01*
X103952380Y-111502438D02*
X104047618Y-111597676D01*
X104047618Y-111597676D02*
X104095237Y-111788152D01*
X104095237Y-111788152D02*
X104095237Y-112121485D01*
X104095237Y-112121485D02*
X104047618Y-112311961D01*
X104047618Y-112311961D02*
X103952380Y-112407200D01*
X103952380Y-112407200D02*
X103857142Y-112454819D01*
X103857142Y-112454819D02*
X103666666Y-112454819D01*
X103666666Y-112454819D02*
X103571428Y-112407200D01*
X103571428Y-112407200D02*
X103476190Y-112311961D01*
X103476190Y-112311961D02*
X103428571Y-112121485D01*
X103428571Y-112121485D02*
X103428571Y-111788152D01*
X103428571Y-111788152D02*
X103476190Y-111597676D01*
X103476190Y-111597676D02*
X103571428Y-111502438D01*
X103571428Y-111502438D02*
X103666666Y-111454819D01*
X104523809Y-111454819D02*
X104523809Y-112264342D01*
X104523809Y-112264342D02*
X104571428Y-112359580D01*
X104571428Y-112359580D02*
X104619047Y-112407200D01*
X104619047Y-112407200D02*
X104714285Y-112454819D01*
X104714285Y-112454819D02*
X104904761Y-112454819D01*
X104904761Y-112454819D02*
X104999999Y-112407200D01*
X104999999Y-112407200D02*
X105047618Y-112359580D01*
X105047618Y-112359580D02*
X105095237Y-112264342D01*
X105095237Y-112264342D02*
X105095237Y-111454819D01*
X105428571Y-111454819D02*
X105999999Y-111454819D01*
X105714285Y-112454819D02*
X105714285Y-111454819D01*
X106095238Y-112550057D02*
X106857142Y-112550057D01*
X107523809Y-111454819D02*
X107333333Y-111454819D01*
X107333333Y-111454819D02*
X107238095Y-111502438D01*
X107238095Y-111502438D02*
X107190476Y-111550057D01*
X107190476Y-111550057D02*
X107095238Y-111692914D01*
X107095238Y-111692914D02*
X107047619Y-111883390D01*
X107047619Y-111883390D02*
X107047619Y-112264342D01*
X107047619Y-112264342D02*
X107095238Y-112359580D01*
X107095238Y-112359580D02*
X107142857Y-112407200D01*
X107142857Y-112407200D02*
X107238095Y-112454819D01*
X107238095Y-112454819D02*
X107428571Y-112454819D01*
X107428571Y-112454819D02*
X107523809Y-112407200D01*
X107523809Y-112407200D02*
X107571428Y-112359580D01*
X107571428Y-112359580D02*
X107619047Y-112264342D01*
X107619047Y-112264342D02*
X107619047Y-112026247D01*
X107619047Y-112026247D02*
X107571428Y-111931009D01*
X107571428Y-111931009D02*
X107523809Y-111883390D01*
X107523809Y-111883390D02*
X107428571Y-111835771D01*
X107428571Y-111835771D02*
X107238095Y-111835771D01*
X107238095Y-111835771D02*
X107142857Y-111883390D01*
X107142857Y-111883390D02*
X107095238Y-111931009D01*
X107095238Y-111931009D02*
X107047619Y-112026247D01*
X108476190Y-111788152D02*
X108476190Y-112454819D01*
X108238095Y-111407200D02*
X108000000Y-112121485D01*
X108000000Y-112121485D02*
X108619047Y-112121485D01*
D11*
X111866667Y-52609800D02*
X112009524Y-52657419D01*
X112009524Y-52657419D02*
X112247619Y-52657419D01*
X112247619Y-52657419D02*
X112342857Y-52609800D01*
X112342857Y-52609800D02*
X112390476Y-52562180D01*
X112390476Y-52562180D02*
X112438095Y-52466942D01*
X112438095Y-52466942D02*
X112438095Y-52371704D01*
X112438095Y-52371704D02*
X112390476Y-52276466D01*
X112390476Y-52276466D02*
X112342857Y-52228847D01*
X112342857Y-52228847D02*
X112247619Y-52181228D01*
X112247619Y-52181228D02*
X112057143Y-52133609D01*
X112057143Y-52133609D02*
X111961905Y-52085990D01*
X111961905Y-52085990D02*
X111914286Y-52038371D01*
X111914286Y-52038371D02*
X111866667Y-51943133D01*
X111866667Y-51943133D02*
X111866667Y-51847895D01*
X111866667Y-51847895D02*
X111914286Y-51752657D01*
X111914286Y-51752657D02*
X111961905Y-51705038D01*
X111961905Y-51705038D02*
X112057143Y-51657419D01*
X112057143Y-51657419D02*
X112295238Y-51657419D01*
X112295238Y-51657419D02*
X112438095Y-51705038D01*
X112771429Y-51657419D02*
X113009524Y-52657419D01*
X113009524Y-52657419D02*
X113200000Y-51943133D01*
X113200000Y-51943133D02*
X113390476Y-52657419D01*
X113390476Y-52657419D02*
X113628572Y-51657419D01*
X114533333Y-52657419D02*
X113961905Y-52657419D01*
X114247619Y-52657419D02*
X114247619Y-51657419D01*
X114247619Y-51657419D02*
X114152381Y-51800276D01*
X114152381Y-51800276D02*
X114057143Y-51895514D01*
X114057143Y-51895514D02*
X113961905Y-51943133D01*
D10*
X101916666Y-117204819D02*
X101916666Y-117919104D01*
X101916666Y-117919104D02*
X101869047Y-118061961D01*
X101869047Y-118061961D02*
X101773809Y-118157200D01*
X101773809Y-118157200D02*
X101630952Y-118204819D01*
X101630952Y-118204819D02*
X101535714Y-118204819D01*
X102345238Y-117300057D02*
X102392857Y-117252438D01*
X102392857Y-117252438D02*
X102488095Y-117204819D01*
X102488095Y-117204819D02*
X102726190Y-117204819D01*
X102726190Y-117204819D02*
X102821428Y-117252438D01*
X102821428Y-117252438D02*
X102869047Y-117300057D01*
X102869047Y-117300057D02*
X102916666Y-117395295D01*
X102916666Y-117395295D02*
X102916666Y-117490533D01*
X102916666Y-117490533D02*
X102869047Y-117633390D01*
X102869047Y-117633390D02*
X102297619Y-118204819D01*
X102297619Y-118204819D02*
X102916666Y-118204819D01*
X101642857Y-109704819D02*
X101833333Y-109704819D01*
X101833333Y-109704819D02*
X101928571Y-109752438D01*
X101928571Y-109752438D02*
X102023809Y-109847676D01*
X102023809Y-109847676D02*
X102071428Y-110038152D01*
X102071428Y-110038152D02*
X102071428Y-110371485D01*
X102071428Y-110371485D02*
X102023809Y-110561961D01*
X102023809Y-110561961D02*
X101928571Y-110657200D01*
X101928571Y-110657200D02*
X101833333Y-110704819D01*
X101833333Y-110704819D02*
X101642857Y-110704819D01*
X101642857Y-110704819D02*
X101547619Y-110657200D01*
X101547619Y-110657200D02*
X101452381Y-110561961D01*
X101452381Y-110561961D02*
X101404762Y-110371485D01*
X101404762Y-110371485D02*
X101404762Y-110038152D01*
X101404762Y-110038152D02*
X101452381Y-109847676D01*
X101452381Y-109847676D02*
X101547619Y-109752438D01*
X101547619Y-109752438D02*
X101642857Y-109704819D01*
X102500000Y-109704819D02*
X102500000Y-110514342D01*
X102500000Y-110514342D02*
X102547619Y-110609580D01*
X102547619Y-110609580D02*
X102595238Y-110657200D01*
X102595238Y-110657200D02*
X102690476Y-110704819D01*
X102690476Y-110704819D02*
X102880952Y-110704819D01*
X102880952Y-110704819D02*
X102976190Y-110657200D01*
X102976190Y-110657200D02*
X103023809Y-110609580D01*
X103023809Y-110609580D02*
X103071428Y-110514342D01*
X103071428Y-110514342D02*
X103071428Y-109704819D01*
X103404762Y-109704819D02*
X103976190Y-109704819D01*
X103690476Y-110704819D02*
X103690476Y-109704819D01*
X104071429Y-110800057D02*
X104833333Y-110800057D01*
X105023810Y-109800057D02*
X105071429Y-109752438D01*
X105071429Y-109752438D02*
X105166667Y-109704819D01*
X105166667Y-109704819D02*
X105404762Y-109704819D01*
X105404762Y-109704819D02*
X105500000Y-109752438D01*
X105500000Y-109752438D02*
X105547619Y-109800057D01*
X105547619Y-109800057D02*
X105595238Y-109895295D01*
X105595238Y-109895295D02*
X105595238Y-109990533D01*
X105595238Y-109990533D02*
X105547619Y-110133390D01*
X105547619Y-110133390D02*
X104976191Y-110704819D01*
X104976191Y-110704819D02*
X105595238Y-110704819D01*
X100214819Y-53433094D02*
X99214819Y-53433094D01*
X99214819Y-53433094D02*
X99214819Y-53194999D01*
X99214819Y-53194999D02*
X99262438Y-53052142D01*
X99262438Y-53052142D02*
X99357676Y-52956904D01*
X99357676Y-52956904D02*
X99452914Y-52909285D01*
X99452914Y-52909285D02*
X99643390Y-52861666D01*
X99643390Y-52861666D02*
X99786247Y-52861666D01*
X99786247Y-52861666D02*
X99976723Y-52909285D01*
X99976723Y-52909285D02*
X100071961Y-52956904D01*
X100071961Y-52956904D02*
X100167200Y-53052142D01*
X100167200Y-53052142D02*
X100214819Y-53194999D01*
X100214819Y-53194999D02*
X100214819Y-53433094D01*
X99548152Y-52004523D02*
X100214819Y-52004523D01*
X99167200Y-52242618D02*
X99881485Y-52480713D01*
X99881485Y-52480713D02*
X99881485Y-51861666D01*
X107416666Y-127204819D02*
X107416666Y-127919104D01*
X107416666Y-127919104D02*
X107369047Y-128061961D01*
X107369047Y-128061961D02*
X107273809Y-128157200D01*
X107273809Y-128157200D02*
X107130952Y-128204819D01*
X107130952Y-128204819D02*
X107035714Y-128204819D01*
X108035714Y-127633390D02*
X107940476Y-127585771D01*
X107940476Y-127585771D02*
X107892857Y-127538152D01*
X107892857Y-127538152D02*
X107845238Y-127442914D01*
X107845238Y-127442914D02*
X107845238Y-127395295D01*
X107845238Y-127395295D02*
X107892857Y-127300057D01*
X107892857Y-127300057D02*
X107940476Y-127252438D01*
X107940476Y-127252438D02*
X108035714Y-127204819D01*
X108035714Y-127204819D02*
X108226190Y-127204819D01*
X108226190Y-127204819D02*
X108321428Y-127252438D01*
X108321428Y-127252438D02*
X108369047Y-127300057D01*
X108369047Y-127300057D02*
X108416666Y-127395295D01*
X108416666Y-127395295D02*
X108416666Y-127442914D01*
X108416666Y-127442914D02*
X108369047Y-127538152D01*
X108369047Y-127538152D02*
X108321428Y-127585771D01*
X108321428Y-127585771D02*
X108226190Y-127633390D01*
X108226190Y-127633390D02*
X108035714Y-127633390D01*
X108035714Y-127633390D02*
X107940476Y-127681009D01*
X107940476Y-127681009D02*
X107892857Y-127728628D01*
X107892857Y-127728628D02*
X107845238Y-127823866D01*
X107845238Y-127823866D02*
X107845238Y-128014342D01*
X107845238Y-128014342D02*
X107892857Y-128109580D01*
X107892857Y-128109580D02*
X107940476Y-128157200D01*
X107940476Y-128157200D02*
X108035714Y-128204819D01*
X108035714Y-128204819D02*
X108226190Y-128204819D01*
X108226190Y-128204819D02*
X108321428Y-128157200D01*
X108321428Y-128157200D02*
X108369047Y-128109580D01*
X108369047Y-128109580D02*
X108416666Y-128014342D01*
X108416666Y-128014342D02*
X108416666Y-127823866D01*
X108416666Y-127823866D02*
X108369047Y-127728628D01*
X108369047Y-127728628D02*
X108321428Y-127681009D01*
X108321428Y-127681009D02*
X108226190Y-127633390D01*
X102690476Y-121454819D02*
X102880952Y-121454819D01*
X102880952Y-121454819D02*
X102976190Y-121502438D01*
X102976190Y-121502438D02*
X103071428Y-121597676D01*
X103071428Y-121597676D02*
X103119047Y-121788152D01*
X103119047Y-121788152D02*
X103119047Y-122121485D01*
X103119047Y-122121485D02*
X103071428Y-122311961D01*
X103071428Y-122311961D02*
X102976190Y-122407200D01*
X102976190Y-122407200D02*
X102880952Y-122454819D01*
X102880952Y-122454819D02*
X102690476Y-122454819D01*
X102690476Y-122454819D02*
X102595238Y-122407200D01*
X102595238Y-122407200D02*
X102500000Y-122311961D01*
X102500000Y-122311961D02*
X102452381Y-122121485D01*
X102452381Y-122121485D02*
X102452381Y-121788152D01*
X102452381Y-121788152D02*
X102500000Y-121597676D01*
X102500000Y-121597676D02*
X102595238Y-121502438D01*
X102595238Y-121502438D02*
X102690476Y-121454819D01*
X103547619Y-121454819D02*
X103547619Y-122264342D01*
X103547619Y-122264342D02*
X103595238Y-122359580D01*
X103595238Y-122359580D02*
X103642857Y-122407200D01*
X103642857Y-122407200D02*
X103738095Y-122454819D01*
X103738095Y-122454819D02*
X103928571Y-122454819D01*
X103928571Y-122454819D02*
X104023809Y-122407200D01*
X104023809Y-122407200D02*
X104071428Y-122359580D01*
X104071428Y-122359580D02*
X104119047Y-122264342D01*
X104119047Y-122264342D02*
X104119047Y-121454819D01*
X104452381Y-121454819D02*
X105023809Y-121454819D01*
X104738095Y-122454819D02*
X104738095Y-121454819D01*
X105119048Y-122550057D02*
X105880952Y-122550057D01*
X106642857Y-122454819D02*
X106071429Y-122454819D01*
X106357143Y-122454819D02*
X106357143Y-121454819D01*
X106357143Y-121454819D02*
X106261905Y-121597676D01*
X106261905Y-121597676D02*
X106166667Y-121692914D01*
X106166667Y-121692914D02*
X106071429Y-121740533D01*
X107023810Y-121550057D02*
X107071429Y-121502438D01*
X107071429Y-121502438D02*
X107166667Y-121454819D01*
X107166667Y-121454819D02*
X107404762Y-121454819D01*
X107404762Y-121454819D02*
X107500000Y-121502438D01*
X107500000Y-121502438D02*
X107547619Y-121550057D01*
X107547619Y-121550057D02*
X107595238Y-121645295D01*
X107595238Y-121645295D02*
X107595238Y-121740533D01*
X107595238Y-121740533D02*
X107547619Y-121883390D01*
X107547619Y-121883390D02*
X106976191Y-122454819D01*
X106976191Y-122454819D02*
X107595238Y-122454819D01*
X108166667Y-121883390D02*
X108071429Y-121835771D01*
X108071429Y-121835771D02*
X108023810Y-121788152D01*
X108023810Y-121788152D02*
X107976191Y-121692914D01*
X107976191Y-121692914D02*
X107976191Y-121645295D01*
X107976191Y-121645295D02*
X108023810Y-121550057D01*
X108023810Y-121550057D02*
X108071429Y-121502438D01*
X108071429Y-121502438D02*
X108166667Y-121454819D01*
X108166667Y-121454819D02*
X108357143Y-121454819D01*
X108357143Y-121454819D02*
X108452381Y-121502438D01*
X108452381Y-121502438D02*
X108500000Y-121550057D01*
X108500000Y-121550057D02*
X108547619Y-121645295D01*
X108547619Y-121645295D02*
X108547619Y-121692914D01*
X108547619Y-121692914D02*
X108500000Y-121788152D01*
X108500000Y-121788152D02*
X108452381Y-121835771D01*
X108452381Y-121835771D02*
X108357143Y-121883390D01*
X108357143Y-121883390D02*
X108166667Y-121883390D01*
X108166667Y-121883390D02*
X108071429Y-121931009D01*
X108071429Y-121931009D02*
X108023810Y-121978628D01*
X108023810Y-121978628D02*
X107976191Y-122073866D01*
X107976191Y-122073866D02*
X107976191Y-122264342D01*
X107976191Y-122264342D02*
X108023810Y-122359580D01*
X108023810Y-122359580D02*
X108071429Y-122407200D01*
X108071429Y-122407200D02*
X108166667Y-122454819D01*
X108166667Y-122454819D02*
X108357143Y-122454819D01*
X108357143Y-122454819D02*
X108452381Y-122407200D01*
X108452381Y-122407200D02*
X108500000Y-122359580D01*
X108500000Y-122359580D02*
X108547619Y-122264342D01*
X108547619Y-122264342D02*
X108547619Y-122073866D01*
X108547619Y-122073866D02*
X108500000Y-121978628D01*
X108500000Y-121978628D02*
X108452381Y-121931009D01*
X108452381Y-121931009D02*
X108357143Y-121883390D01*
X101916666Y-147204819D02*
X101916666Y-147919104D01*
X101916666Y-147919104D02*
X101869047Y-148061961D01*
X101869047Y-148061961D02*
X101773809Y-148157200D01*
X101773809Y-148157200D02*
X101630952Y-148204819D01*
X101630952Y-148204819D02*
X101535714Y-148204819D01*
X102869047Y-147204819D02*
X102392857Y-147204819D01*
X102392857Y-147204819D02*
X102345238Y-147681009D01*
X102345238Y-147681009D02*
X102392857Y-147633390D01*
X102392857Y-147633390D02*
X102488095Y-147585771D01*
X102488095Y-147585771D02*
X102726190Y-147585771D01*
X102726190Y-147585771D02*
X102821428Y-147633390D01*
X102821428Y-147633390D02*
X102869047Y-147681009D01*
X102869047Y-147681009D02*
X102916666Y-147776247D01*
X102916666Y-147776247D02*
X102916666Y-148014342D01*
X102916666Y-148014342D02*
X102869047Y-148109580D01*
X102869047Y-148109580D02*
X102821428Y-148157200D01*
X102821428Y-148157200D02*
X102726190Y-148204819D01*
X102726190Y-148204819D02*
X102488095Y-148204819D01*
X102488095Y-148204819D02*
X102392857Y-148157200D01*
X102392857Y-148157200D02*
X102345238Y-148109580D01*
X101666666Y-139704819D02*
X101857142Y-139704819D01*
X101857142Y-139704819D02*
X101952380Y-139752438D01*
X101952380Y-139752438D02*
X102047618Y-139847676D01*
X102047618Y-139847676D02*
X102095237Y-140038152D01*
X102095237Y-140038152D02*
X102095237Y-140371485D01*
X102095237Y-140371485D02*
X102047618Y-140561961D01*
X102047618Y-140561961D02*
X101952380Y-140657200D01*
X101952380Y-140657200D02*
X101857142Y-140704819D01*
X101857142Y-140704819D02*
X101666666Y-140704819D01*
X101666666Y-140704819D02*
X101571428Y-140657200D01*
X101571428Y-140657200D02*
X101476190Y-140561961D01*
X101476190Y-140561961D02*
X101428571Y-140371485D01*
X101428571Y-140371485D02*
X101428571Y-140038152D01*
X101428571Y-140038152D02*
X101476190Y-139847676D01*
X101476190Y-139847676D02*
X101571428Y-139752438D01*
X101571428Y-139752438D02*
X101666666Y-139704819D01*
X102523809Y-139704819D02*
X102523809Y-140514342D01*
X102523809Y-140514342D02*
X102571428Y-140609580D01*
X102571428Y-140609580D02*
X102619047Y-140657200D01*
X102619047Y-140657200D02*
X102714285Y-140704819D01*
X102714285Y-140704819D02*
X102904761Y-140704819D01*
X102904761Y-140704819D02*
X102999999Y-140657200D01*
X102999999Y-140657200D02*
X103047618Y-140609580D01*
X103047618Y-140609580D02*
X103095237Y-140514342D01*
X103095237Y-140514342D02*
X103095237Y-139704819D01*
X103428571Y-139704819D02*
X103999999Y-139704819D01*
X103714285Y-140704819D02*
X103714285Y-139704819D01*
X104095238Y-140800057D02*
X104857142Y-140800057D01*
X105619047Y-140704819D02*
X105047619Y-140704819D01*
X105333333Y-140704819D02*
X105333333Y-139704819D01*
X105333333Y-139704819D02*
X105238095Y-139847676D01*
X105238095Y-139847676D02*
X105142857Y-139942914D01*
X105142857Y-139942914D02*
X105047619Y-139990533D01*
X106476190Y-139704819D02*
X106285714Y-139704819D01*
X106285714Y-139704819D02*
X106190476Y-139752438D01*
X106190476Y-139752438D02*
X106142857Y-139800057D01*
X106142857Y-139800057D02*
X106047619Y-139942914D01*
X106047619Y-139942914D02*
X106000000Y-140133390D01*
X106000000Y-140133390D02*
X106000000Y-140514342D01*
X106000000Y-140514342D02*
X106047619Y-140609580D01*
X106047619Y-140609580D02*
X106095238Y-140657200D01*
X106095238Y-140657200D02*
X106190476Y-140704819D01*
X106190476Y-140704819D02*
X106380952Y-140704819D01*
X106380952Y-140704819D02*
X106476190Y-140657200D01*
X106476190Y-140657200D02*
X106523809Y-140609580D01*
X106523809Y-140609580D02*
X106571428Y-140514342D01*
X106571428Y-140514342D02*
X106571428Y-140276247D01*
X106571428Y-140276247D02*
X106523809Y-140181009D01*
X106523809Y-140181009D02*
X106476190Y-140133390D01*
X106476190Y-140133390D02*
X106380952Y-140085771D01*
X106380952Y-140085771D02*
X106190476Y-140085771D01*
X106190476Y-140085771D02*
X106095238Y-140133390D01*
X106095238Y-140133390D02*
X106047619Y-140181009D01*
X106047619Y-140181009D02*
X106000000Y-140276247D01*
X101916666Y-157204819D02*
X101916666Y-157919104D01*
X101916666Y-157919104D02*
X101869047Y-158061961D01*
X101869047Y-158061961D02*
X101773809Y-158157200D01*
X101773809Y-158157200D02*
X101630952Y-158204819D01*
X101630952Y-158204819D02*
X101535714Y-158204819D01*
X102821428Y-157204819D02*
X102630952Y-157204819D01*
X102630952Y-157204819D02*
X102535714Y-157252438D01*
X102535714Y-157252438D02*
X102488095Y-157300057D01*
X102488095Y-157300057D02*
X102392857Y-157442914D01*
X102392857Y-157442914D02*
X102345238Y-157633390D01*
X102345238Y-157633390D02*
X102345238Y-158014342D01*
X102345238Y-158014342D02*
X102392857Y-158109580D01*
X102392857Y-158109580D02*
X102440476Y-158157200D01*
X102440476Y-158157200D02*
X102535714Y-158204819D01*
X102535714Y-158204819D02*
X102726190Y-158204819D01*
X102726190Y-158204819D02*
X102821428Y-158157200D01*
X102821428Y-158157200D02*
X102869047Y-158109580D01*
X102869047Y-158109580D02*
X102916666Y-158014342D01*
X102916666Y-158014342D02*
X102916666Y-157776247D01*
X102916666Y-157776247D02*
X102869047Y-157681009D01*
X102869047Y-157681009D02*
X102821428Y-157633390D01*
X102821428Y-157633390D02*
X102726190Y-157585771D01*
X102726190Y-157585771D02*
X102535714Y-157585771D01*
X102535714Y-157585771D02*
X102440476Y-157633390D01*
X102440476Y-157633390D02*
X102392857Y-157681009D01*
X102392857Y-157681009D02*
X102345238Y-157776247D01*
X101666666Y-149704819D02*
X101857142Y-149704819D01*
X101857142Y-149704819D02*
X101952380Y-149752438D01*
X101952380Y-149752438D02*
X102047618Y-149847676D01*
X102047618Y-149847676D02*
X102095237Y-150038152D01*
X102095237Y-150038152D02*
X102095237Y-150371485D01*
X102095237Y-150371485D02*
X102047618Y-150561961D01*
X102047618Y-150561961D02*
X101952380Y-150657200D01*
X101952380Y-150657200D02*
X101857142Y-150704819D01*
X101857142Y-150704819D02*
X101666666Y-150704819D01*
X101666666Y-150704819D02*
X101571428Y-150657200D01*
X101571428Y-150657200D02*
X101476190Y-150561961D01*
X101476190Y-150561961D02*
X101428571Y-150371485D01*
X101428571Y-150371485D02*
X101428571Y-150038152D01*
X101428571Y-150038152D02*
X101476190Y-149847676D01*
X101476190Y-149847676D02*
X101571428Y-149752438D01*
X101571428Y-149752438D02*
X101666666Y-149704819D01*
X102523809Y-149704819D02*
X102523809Y-150514342D01*
X102523809Y-150514342D02*
X102571428Y-150609580D01*
X102571428Y-150609580D02*
X102619047Y-150657200D01*
X102619047Y-150657200D02*
X102714285Y-150704819D01*
X102714285Y-150704819D02*
X102904761Y-150704819D01*
X102904761Y-150704819D02*
X102999999Y-150657200D01*
X102999999Y-150657200D02*
X103047618Y-150609580D01*
X103047618Y-150609580D02*
X103095237Y-150514342D01*
X103095237Y-150514342D02*
X103095237Y-149704819D01*
X103428571Y-149704819D02*
X103999999Y-149704819D01*
X103714285Y-150704819D02*
X103714285Y-149704819D01*
X104095238Y-150800057D02*
X104857142Y-150800057D01*
X105000000Y-149704819D02*
X105619047Y-149704819D01*
X105619047Y-149704819D02*
X105285714Y-150085771D01*
X105285714Y-150085771D02*
X105428571Y-150085771D01*
X105428571Y-150085771D02*
X105523809Y-150133390D01*
X105523809Y-150133390D02*
X105571428Y-150181009D01*
X105571428Y-150181009D02*
X105619047Y-150276247D01*
X105619047Y-150276247D02*
X105619047Y-150514342D01*
X105619047Y-150514342D02*
X105571428Y-150609580D01*
X105571428Y-150609580D02*
X105523809Y-150657200D01*
X105523809Y-150657200D02*
X105428571Y-150704819D01*
X105428571Y-150704819D02*
X105142857Y-150704819D01*
X105142857Y-150704819D02*
X105047619Y-150657200D01*
X105047619Y-150657200D02*
X105000000Y-150609580D01*
X106000000Y-149800057D02*
X106047619Y-149752438D01*
X106047619Y-149752438D02*
X106142857Y-149704819D01*
X106142857Y-149704819D02*
X106380952Y-149704819D01*
X106380952Y-149704819D02*
X106476190Y-149752438D01*
X106476190Y-149752438D02*
X106523809Y-149800057D01*
X106523809Y-149800057D02*
X106571428Y-149895295D01*
X106571428Y-149895295D02*
X106571428Y-149990533D01*
X106571428Y-149990533D02*
X106523809Y-150133390D01*
X106523809Y-150133390D02*
X105952381Y-150704819D01*
X105952381Y-150704819D02*
X106571428Y-150704819D01*
X93761904Y-67859580D02*
X93714285Y-67907200D01*
X93714285Y-67907200D02*
X93571428Y-67954819D01*
X93571428Y-67954819D02*
X93476190Y-67954819D01*
X93476190Y-67954819D02*
X93333333Y-67907200D01*
X93333333Y-67907200D02*
X93238095Y-67811961D01*
X93238095Y-67811961D02*
X93190476Y-67716723D01*
X93190476Y-67716723D02*
X93142857Y-67526247D01*
X93142857Y-67526247D02*
X93142857Y-67383390D01*
X93142857Y-67383390D02*
X93190476Y-67192914D01*
X93190476Y-67192914D02*
X93238095Y-67097676D01*
X93238095Y-67097676D02*
X93333333Y-67002438D01*
X93333333Y-67002438D02*
X93476190Y-66954819D01*
X93476190Y-66954819D02*
X93571428Y-66954819D01*
X93571428Y-66954819D02*
X93714285Y-67002438D01*
X93714285Y-67002438D02*
X93761904Y-67050057D01*
X94666666Y-67954819D02*
X94190476Y-67954819D01*
X94190476Y-67954819D02*
X94190476Y-66954819D01*
X95190476Y-66954819D02*
X95380952Y-66954819D01*
X95380952Y-66954819D02*
X95476190Y-67002438D01*
X95476190Y-67002438D02*
X95571428Y-67097676D01*
X95571428Y-67097676D02*
X95619047Y-67288152D01*
X95619047Y-67288152D02*
X95619047Y-67621485D01*
X95619047Y-67621485D02*
X95571428Y-67811961D01*
X95571428Y-67811961D02*
X95476190Y-67907200D01*
X95476190Y-67907200D02*
X95380952Y-67954819D01*
X95380952Y-67954819D02*
X95190476Y-67954819D01*
X95190476Y-67954819D02*
X95095238Y-67907200D01*
X95095238Y-67907200D02*
X95000000Y-67811961D01*
X95000000Y-67811961D02*
X94952381Y-67621485D01*
X94952381Y-67621485D02*
X94952381Y-67288152D01*
X94952381Y-67288152D02*
X95000000Y-67097676D01*
X95000000Y-67097676D02*
X95095238Y-67002438D01*
X95095238Y-67002438D02*
X95190476Y-66954819D01*
X96619047Y-67859580D02*
X96571428Y-67907200D01*
X96571428Y-67907200D02*
X96428571Y-67954819D01*
X96428571Y-67954819D02*
X96333333Y-67954819D01*
X96333333Y-67954819D02*
X96190476Y-67907200D01*
X96190476Y-67907200D02*
X96095238Y-67811961D01*
X96095238Y-67811961D02*
X96047619Y-67716723D01*
X96047619Y-67716723D02*
X96000000Y-67526247D01*
X96000000Y-67526247D02*
X96000000Y-67383390D01*
X96000000Y-67383390D02*
X96047619Y-67192914D01*
X96047619Y-67192914D02*
X96095238Y-67097676D01*
X96095238Y-67097676D02*
X96190476Y-67002438D01*
X96190476Y-67002438D02*
X96333333Y-66954819D01*
X96333333Y-66954819D02*
X96428571Y-66954819D01*
X96428571Y-66954819D02*
X96571428Y-67002438D01*
X96571428Y-67002438D02*
X96619047Y-67050057D01*
X97047619Y-67954819D02*
X97047619Y-66954819D01*
X97619047Y-67954819D02*
X97190476Y-67383390D01*
X97619047Y-66954819D02*
X97047619Y-67526247D01*
X97809524Y-68050057D02*
X98571428Y-68050057D01*
X98809524Y-67954819D02*
X98809524Y-66954819D01*
X99285714Y-67954819D02*
X99285714Y-66954819D01*
X99285714Y-66954819D02*
X99857142Y-67954819D01*
X99857142Y-67954819D02*
X99857142Y-66954819D01*
X100857142Y-67954819D02*
X100285714Y-67954819D01*
X100571428Y-67954819D02*
X100571428Y-66954819D01*
X100571428Y-66954819D02*
X100476190Y-67097676D01*
X100476190Y-67097676D02*
X100380952Y-67192914D01*
X100380952Y-67192914D02*
X100285714Y-67240533D01*
X101916666Y-137204819D02*
X101916666Y-137919104D01*
X101916666Y-137919104D02*
X101869047Y-138061961D01*
X101869047Y-138061961D02*
X101773809Y-138157200D01*
X101773809Y-138157200D02*
X101630952Y-138204819D01*
X101630952Y-138204819D02*
X101535714Y-138204819D01*
X102821428Y-137538152D02*
X102821428Y-138204819D01*
X102583333Y-137157200D02*
X102345238Y-137871485D01*
X102345238Y-137871485D02*
X102964285Y-137871485D01*
X101642857Y-129704819D02*
X101833333Y-129704819D01*
X101833333Y-129704819D02*
X101928571Y-129752438D01*
X101928571Y-129752438D02*
X102023809Y-129847676D01*
X102023809Y-129847676D02*
X102071428Y-130038152D01*
X102071428Y-130038152D02*
X102071428Y-130371485D01*
X102071428Y-130371485D02*
X102023809Y-130561961D01*
X102023809Y-130561961D02*
X101928571Y-130657200D01*
X101928571Y-130657200D02*
X101833333Y-130704819D01*
X101833333Y-130704819D02*
X101642857Y-130704819D01*
X101642857Y-130704819D02*
X101547619Y-130657200D01*
X101547619Y-130657200D02*
X101452381Y-130561961D01*
X101452381Y-130561961D02*
X101404762Y-130371485D01*
X101404762Y-130371485D02*
X101404762Y-130038152D01*
X101404762Y-130038152D02*
X101452381Y-129847676D01*
X101452381Y-129847676D02*
X101547619Y-129752438D01*
X101547619Y-129752438D02*
X101642857Y-129704819D01*
X102500000Y-129704819D02*
X102500000Y-130514342D01*
X102500000Y-130514342D02*
X102547619Y-130609580D01*
X102547619Y-130609580D02*
X102595238Y-130657200D01*
X102595238Y-130657200D02*
X102690476Y-130704819D01*
X102690476Y-130704819D02*
X102880952Y-130704819D01*
X102880952Y-130704819D02*
X102976190Y-130657200D01*
X102976190Y-130657200D02*
X103023809Y-130609580D01*
X103023809Y-130609580D02*
X103071428Y-130514342D01*
X103071428Y-130514342D02*
X103071428Y-129704819D01*
X103404762Y-129704819D02*
X103976190Y-129704819D01*
X103690476Y-130704819D02*
X103690476Y-129704819D01*
X104071429Y-130800057D02*
X104833333Y-130800057D01*
X105214286Y-130133390D02*
X105119048Y-130085771D01*
X105119048Y-130085771D02*
X105071429Y-130038152D01*
X105071429Y-130038152D02*
X105023810Y-129942914D01*
X105023810Y-129942914D02*
X105023810Y-129895295D01*
X105023810Y-129895295D02*
X105071429Y-129800057D01*
X105071429Y-129800057D02*
X105119048Y-129752438D01*
X105119048Y-129752438D02*
X105214286Y-129704819D01*
X105214286Y-129704819D02*
X105404762Y-129704819D01*
X105404762Y-129704819D02*
X105500000Y-129752438D01*
X105500000Y-129752438D02*
X105547619Y-129800057D01*
X105547619Y-129800057D02*
X105595238Y-129895295D01*
X105595238Y-129895295D02*
X105595238Y-129942914D01*
X105595238Y-129942914D02*
X105547619Y-130038152D01*
X105547619Y-130038152D02*
X105500000Y-130085771D01*
X105500000Y-130085771D02*
X105404762Y-130133390D01*
X105404762Y-130133390D02*
X105214286Y-130133390D01*
X105214286Y-130133390D02*
X105119048Y-130181009D01*
X105119048Y-130181009D02*
X105071429Y-130228628D01*
X105071429Y-130228628D02*
X105023810Y-130323866D01*
X105023810Y-130323866D02*
X105023810Y-130514342D01*
X105023810Y-130514342D02*
X105071429Y-130609580D01*
X105071429Y-130609580D02*
X105119048Y-130657200D01*
X105119048Y-130657200D02*
X105214286Y-130704819D01*
X105214286Y-130704819D02*
X105404762Y-130704819D01*
X105404762Y-130704819D02*
X105500000Y-130657200D01*
X105500000Y-130657200D02*
X105547619Y-130609580D01*
X105547619Y-130609580D02*
X105595238Y-130514342D01*
X105595238Y-130514342D02*
X105595238Y-130323866D01*
X105595238Y-130323866D02*
X105547619Y-130228628D01*
X105547619Y-130228628D02*
X105500000Y-130181009D01*
X105500000Y-130181009D02*
X105404762Y-130133390D01*
X110428571Y-67954819D02*
X110095238Y-67478628D01*
X109857143Y-67954819D02*
X109857143Y-66954819D01*
X109857143Y-66954819D02*
X110238095Y-66954819D01*
X110238095Y-66954819D02*
X110333333Y-67002438D01*
X110333333Y-67002438D02*
X110380952Y-67050057D01*
X110380952Y-67050057D02*
X110428571Y-67145295D01*
X110428571Y-67145295D02*
X110428571Y-67288152D01*
X110428571Y-67288152D02*
X110380952Y-67383390D01*
X110380952Y-67383390D02*
X110333333Y-67431009D01*
X110333333Y-67431009D02*
X110238095Y-67478628D01*
X110238095Y-67478628D02*
X109857143Y-67478628D01*
X110857143Y-67431009D02*
X111190476Y-67431009D01*
X111333333Y-67954819D02*
X110857143Y-67954819D01*
X110857143Y-67954819D02*
X110857143Y-66954819D01*
X110857143Y-66954819D02*
X111333333Y-66954819D01*
X111714286Y-67907200D02*
X111857143Y-67954819D01*
X111857143Y-67954819D02*
X112095238Y-67954819D01*
X112095238Y-67954819D02*
X112190476Y-67907200D01*
X112190476Y-67907200D02*
X112238095Y-67859580D01*
X112238095Y-67859580D02*
X112285714Y-67764342D01*
X112285714Y-67764342D02*
X112285714Y-67669104D01*
X112285714Y-67669104D02*
X112238095Y-67573866D01*
X112238095Y-67573866D02*
X112190476Y-67526247D01*
X112190476Y-67526247D02*
X112095238Y-67478628D01*
X112095238Y-67478628D02*
X111904762Y-67431009D01*
X111904762Y-67431009D02*
X111809524Y-67383390D01*
X111809524Y-67383390D02*
X111761905Y-67335771D01*
X111761905Y-67335771D02*
X111714286Y-67240533D01*
X111714286Y-67240533D02*
X111714286Y-67145295D01*
X111714286Y-67145295D02*
X111761905Y-67050057D01*
X111761905Y-67050057D02*
X111809524Y-67002438D01*
X111809524Y-67002438D02*
X111904762Y-66954819D01*
X111904762Y-66954819D02*
X112142857Y-66954819D01*
X112142857Y-66954819D02*
X112285714Y-67002438D01*
X112714286Y-67431009D02*
X113047619Y-67431009D01*
X113190476Y-67954819D02*
X112714286Y-67954819D01*
X112714286Y-67954819D02*
X112714286Y-66954819D01*
X112714286Y-66954819D02*
X113190476Y-66954819D01*
X113476191Y-66954819D02*
X114047619Y-66954819D01*
X113761905Y-67954819D02*
X113761905Y-66954819D01*
X114142858Y-68050057D02*
X114904762Y-68050057D01*
X115142858Y-67954819D02*
X115142858Y-66954819D01*
X115619048Y-67954819D02*
X115619048Y-66954819D01*
X115619048Y-66954819D02*
X116190476Y-67954819D01*
X116190476Y-67954819D02*
X116190476Y-66954819D01*
X117190476Y-67954819D02*
X116619048Y-67954819D01*
X116904762Y-67954819D02*
X116904762Y-66954819D01*
X116904762Y-66954819D02*
X116809524Y-67097676D01*
X116809524Y-67097676D02*
X116714286Y-67192914D01*
X116714286Y-67192914D02*
X116619048Y-67240533D01*
X107416666Y-137204819D02*
X107416666Y-137919104D01*
X107416666Y-137919104D02*
X107369047Y-138061961D01*
X107369047Y-138061961D02*
X107273809Y-138157200D01*
X107273809Y-138157200D02*
X107130952Y-138204819D01*
X107130952Y-138204819D02*
X107035714Y-138204819D01*
X107940476Y-138204819D02*
X108130952Y-138204819D01*
X108130952Y-138204819D02*
X108226190Y-138157200D01*
X108226190Y-138157200D02*
X108273809Y-138109580D01*
X108273809Y-138109580D02*
X108369047Y-137966723D01*
X108369047Y-137966723D02*
X108416666Y-137776247D01*
X108416666Y-137776247D02*
X108416666Y-137395295D01*
X108416666Y-137395295D02*
X108369047Y-137300057D01*
X108369047Y-137300057D02*
X108321428Y-137252438D01*
X108321428Y-137252438D02*
X108226190Y-137204819D01*
X108226190Y-137204819D02*
X108035714Y-137204819D01*
X108035714Y-137204819D02*
X107940476Y-137252438D01*
X107940476Y-137252438D02*
X107892857Y-137300057D01*
X107892857Y-137300057D02*
X107845238Y-137395295D01*
X107845238Y-137395295D02*
X107845238Y-137633390D01*
X107845238Y-137633390D02*
X107892857Y-137728628D01*
X107892857Y-137728628D02*
X107940476Y-137776247D01*
X107940476Y-137776247D02*
X108035714Y-137823866D01*
X108035714Y-137823866D02*
X108226190Y-137823866D01*
X108226190Y-137823866D02*
X108321428Y-137776247D01*
X108321428Y-137776247D02*
X108369047Y-137728628D01*
X108369047Y-137728628D02*
X108416666Y-137633390D01*
X102690476Y-131454819D02*
X102880952Y-131454819D01*
X102880952Y-131454819D02*
X102976190Y-131502438D01*
X102976190Y-131502438D02*
X103071428Y-131597676D01*
X103071428Y-131597676D02*
X103119047Y-131788152D01*
X103119047Y-131788152D02*
X103119047Y-132121485D01*
X103119047Y-132121485D02*
X103071428Y-132311961D01*
X103071428Y-132311961D02*
X102976190Y-132407200D01*
X102976190Y-132407200D02*
X102880952Y-132454819D01*
X102880952Y-132454819D02*
X102690476Y-132454819D01*
X102690476Y-132454819D02*
X102595238Y-132407200D01*
X102595238Y-132407200D02*
X102500000Y-132311961D01*
X102500000Y-132311961D02*
X102452381Y-132121485D01*
X102452381Y-132121485D02*
X102452381Y-131788152D01*
X102452381Y-131788152D02*
X102500000Y-131597676D01*
X102500000Y-131597676D02*
X102595238Y-131502438D01*
X102595238Y-131502438D02*
X102690476Y-131454819D01*
X103547619Y-131454819D02*
X103547619Y-132264342D01*
X103547619Y-132264342D02*
X103595238Y-132359580D01*
X103595238Y-132359580D02*
X103642857Y-132407200D01*
X103642857Y-132407200D02*
X103738095Y-132454819D01*
X103738095Y-132454819D02*
X103928571Y-132454819D01*
X103928571Y-132454819D02*
X104023809Y-132407200D01*
X104023809Y-132407200D02*
X104071428Y-132359580D01*
X104071428Y-132359580D02*
X104119047Y-132264342D01*
X104119047Y-132264342D02*
X104119047Y-131454819D01*
X104452381Y-131454819D02*
X105023809Y-131454819D01*
X104738095Y-132454819D02*
X104738095Y-131454819D01*
X105119048Y-132550057D02*
X105880952Y-132550057D01*
X106071429Y-131550057D02*
X106119048Y-131502438D01*
X106119048Y-131502438D02*
X106214286Y-131454819D01*
X106214286Y-131454819D02*
X106452381Y-131454819D01*
X106452381Y-131454819D02*
X106547619Y-131502438D01*
X106547619Y-131502438D02*
X106595238Y-131550057D01*
X106595238Y-131550057D02*
X106642857Y-131645295D01*
X106642857Y-131645295D02*
X106642857Y-131740533D01*
X106642857Y-131740533D02*
X106595238Y-131883390D01*
X106595238Y-131883390D02*
X106023810Y-132454819D01*
X106023810Y-132454819D02*
X106642857Y-132454819D01*
X107547619Y-131454819D02*
X107071429Y-131454819D01*
X107071429Y-131454819D02*
X107023810Y-131931009D01*
X107023810Y-131931009D02*
X107071429Y-131883390D01*
X107071429Y-131883390D02*
X107166667Y-131835771D01*
X107166667Y-131835771D02*
X107404762Y-131835771D01*
X107404762Y-131835771D02*
X107500000Y-131883390D01*
X107500000Y-131883390D02*
X107547619Y-131931009D01*
X107547619Y-131931009D02*
X107595238Y-132026247D01*
X107595238Y-132026247D02*
X107595238Y-132264342D01*
X107595238Y-132264342D02*
X107547619Y-132359580D01*
X107547619Y-132359580D02*
X107500000Y-132407200D01*
X107500000Y-132407200D02*
X107404762Y-132454819D01*
X107404762Y-132454819D02*
X107166667Y-132454819D01*
X107166667Y-132454819D02*
X107071429Y-132407200D01*
X107071429Y-132407200D02*
X107023810Y-132359580D01*
X108452381Y-131454819D02*
X108261905Y-131454819D01*
X108261905Y-131454819D02*
X108166667Y-131502438D01*
X108166667Y-131502438D02*
X108119048Y-131550057D01*
X108119048Y-131550057D02*
X108023810Y-131692914D01*
X108023810Y-131692914D02*
X107976191Y-131883390D01*
X107976191Y-131883390D02*
X107976191Y-132264342D01*
X107976191Y-132264342D02*
X108023810Y-132359580D01*
X108023810Y-132359580D02*
X108071429Y-132407200D01*
X108071429Y-132407200D02*
X108166667Y-132454819D01*
X108166667Y-132454819D02*
X108357143Y-132454819D01*
X108357143Y-132454819D02*
X108452381Y-132407200D01*
X108452381Y-132407200D02*
X108500000Y-132359580D01*
X108500000Y-132359580D02*
X108547619Y-132264342D01*
X108547619Y-132264342D02*
X108547619Y-132026247D01*
X108547619Y-132026247D02*
X108500000Y-131931009D01*
X108500000Y-131931009D02*
X108452381Y-131883390D01*
X108452381Y-131883390D02*
X108357143Y-131835771D01*
X108357143Y-131835771D02*
X108166667Y-131835771D01*
X108166667Y-131835771D02*
X108071429Y-131883390D01*
X108071429Y-131883390D02*
X108023810Y-131931009D01*
X108023810Y-131931009D02*
X107976191Y-132026247D01*
D12*
%TO.C,J10*%
X105875000Y-145060000D02*
X105875000Y-144200000D01*
X105875000Y-145060000D02*
X106675000Y-145060000D01*
X108855000Y-139500000D02*
X108855000Y-143650000D01*
X108855000Y-139500000D02*
X119355000Y-139500000D01*
X108855000Y-144350000D02*
X108855000Y-148500000D01*
X108855000Y-148500000D02*
X119355000Y-148500000D01*
X119355000Y-139500000D02*
X119355000Y-143500000D01*
X119355000Y-144500000D02*
X119355000Y-148500000D01*
D11*
X115177776Y-144000000D02*
G75*
G02*
X111572224Y-144000000I-1802776J0D01*
G01*
X111572224Y-144000000D02*
G75*
G02*
X115177776Y-144000000I1802776J0D01*
G01*
D12*
%TO.C,J3*%
X90645000Y-123500000D02*
X90645000Y-119500000D01*
X90645000Y-128500000D02*
X90645000Y-124500000D01*
X101145000Y-119500000D02*
X90645000Y-119500000D01*
X101145000Y-123650000D02*
X101145000Y-119500000D01*
X101145000Y-128500000D02*
X90645000Y-128500000D01*
X101145000Y-128500000D02*
X101145000Y-124350000D01*
X104125000Y-122940000D02*
X103325000Y-122940000D01*
X104125000Y-122940000D02*
X104125000Y-123800000D01*
D11*
X98427776Y-124000000D02*
G75*
G02*
X94822224Y-124000000I-1802776J0D01*
G01*
X94822224Y-124000000D02*
G75*
G02*
X98427776Y-124000000I1802776J0D01*
G01*
D12*
%TO.C,J11*%
X105875000Y-155060000D02*
X105875000Y-154200000D01*
X105875000Y-155060000D02*
X106675000Y-155060000D01*
X108855000Y-149500000D02*
X108855000Y-153650000D01*
X108855000Y-149500000D02*
X119355000Y-149500000D01*
X108855000Y-154350000D02*
X108855000Y-158500000D01*
X108855000Y-158500000D02*
X119355000Y-158500000D01*
X119355000Y-149500000D02*
X119355000Y-153500000D01*
X119355000Y-154500000D02*
X119355000Y-158500000D01*
D11*
X115177776Y-154000000D02*
G75*
G02*
X111572224Y-154000000I-1802776J0D01*
G01*
X111572224Y-154000000D02*
G75*
G02*
X115177776Y-154000000I1802776J0D01*
G01*
D12*
%TO.C,J7*%
X105900000Y-115060000D02*
X105900000Y-114200000D01*
X105900000Y-115060000D02*
X106700000Y-115060000D01*
X108880000Y-109500000D02*
X108880000Y-113650000D01*
X108880000Y-109500000D02*
X119380000Y-109500000D01*
X108880000Y-114350000D02*
X108880000Y-118500000D01*
X108880000Y-118500000D02*
X119380000Y-118500000D01*
X119380000Y-109500000D02*
X119380000Y-113500000D01*
X119380000Y-114500000D02*
X119380000Y-118500000D01*
D11*
X115202776Y-114000000D02*
G75*
G02*
X111597224Y-114000000I-1802776J0D01*
G01*
X111597224Y-114000000D02*
G75*
G02*
X115202776Y-114000000I1802776J0D01*
G01*
%TO.C,SW1*%
X109700000Y-49200000D02*
X116700000Y-49200000D01*
X116700000Y-56200000D01*
X109700000Y-56200000D01*
X109700000Y-49200000D01*
D12*
%TO.C,J2*%
X90645000Y-113500000D02*
X90645000Y-109500000D01*
X90645000Y-118500000D02*
X90645000Y-114500000D01*
X101145000Y-109500000D02*
X90645000Y-109500000D01*
X101145000Y-113650000D02*
X101145000Y-109500000D01*
X101145000Y-118500000D02*
X90645000Y-118500000D01*
X101145000Y-118500000D02*
X101145000Y-114350000D01*
X104125000Y-112940000D02*
X103325000Y-112940000D01*
X104125000Y-112940000D02*
X104125000Y-113800000D01*
D11*
X98427776Y-114000000D02*
G75*
G02*
X94822224Y-114000000I-1802776J0D01*
G01*
X94822224Y-114000000D02*
G75*
G02*
X98427776Y-114000000I1802776J0D01*
G01*
D12*
%TO.C,D4*%
X95720000Y-51135000D02*
X95564000Y-51135000D01*
X98036000Y-51135000D02*
X97880000Y-51135000D01*
X95720163Y-53736130D02*
G75*
G02*
X95720000Y-51654039I1079837J1041130D01*
G01*
X95721392Y-54367335D02*
G75*
G02*
X95564484Y-51135000I1078608J1672335D01*
G01*
X97880000Y-51654039D02*
G75*
G02*
X97879837Y-53736130I-1080000J-1040961D01*
G01*
X98035516Y-51135000D02*
G75*
G02*
X97878608Y-54367335I-1235516J-1560000D01*
G01*
%TO.C,J8*%
X105900000Y-125060000D02*
X105900000Y-124200000D01*
X105900000Y-125060000D02*
X106700000Y-125060000D01*
X108880000Y-119500000D02*
X108880000Y-123650000D01*
X108880000Y-119500000D02*
X119380000Y-119500000D01*
X108880000Y-124350000D02*
X108880000Y-128500000D01*
X108880000Y-128500000D02*
X119380000Y-128500000D01*
X119380000Y-119500000D02*
X119380000Y-123500000D01*
X119380000Y-124500000D02*
X119380000Y-128500000D01*
D11*
X115202776Y-124000000D02*
G75*
G02*
X111597224Y-124000000I-1802776J0D01*
G01*
X111597224Y-124000000D02*
G75*
G02*
X115202776Y-124000000I1802776J0D01*
G01*
D12*
%TO.C,J5*%
X90620000Y-143500000D02*
X90620000Y-139500000D01*
X90620000Y-148500000D02*
X90620000Y-144500000D01*
X101120000Y-139500000D02*
X90620000Y-139500000D01*
X101120000Y-143650000D02*
X101120000Y-139500000D01*
X101120000Y-148500000D02*
X90620000Y-148500000D01*
X101120000Y-148500000D02*
X101120000Y-144350000D01*
X104100000Y-142940000D02*
X103300000Y-142940000D01*
X104100000Y-142940000D02*
X104100000Y-143800000D01*
D11*
X98402776Y-144000000D02*
G75*
G02*
X94797224Y-144000000I-1802776J0D01*
G01*
X94797224Y-144000000D02*
G75*
G02*
X98402776Y-144000000I1802776J0D01*
G01*
D12*
%TO.C,J6*%
X90645000Y-153500000D02*
X90645000Y-149500000D01*
X90645000Y-158500000D02*
X90645000Y-154500000D01*
X101145000Y-149500000D02*
X90645000Y-149500000D01*
X101145000Y-153650000D02*
X101145000Y-149500000D01*
X101145000Y-158500000D02*
X90645000Y-158500000D01*
X101145000Y-158500000D02*
X101145000Y-154350000D01*
X104125000Y-152940000D02*
X103325000Y-152940000D01*
X104125000Y-152940000D02*
X104125000Y-153800000D01*
D11*
X98427776Y-154000000D02*
G75*
G02*
X94822224Y-154000000I-1802776J0D01*
G01*
X94822224Y-154000000D02*
G75*
G02*
X98427776Y-154000000I1802776J0D01*
G01*
D12*
%TO.C,CLOCK_IN1*%
X90800000Y-61000000D02*
X90800000Y-57000000D01*
X90800000Y-66000000D02*
X90800000Y-62000000D01*
X101300000Y-57000000D02*
X90800000Y-57000000D01*
X101300000Y-61150000D02*
X101300000Y-57000000D01*
X101300000Y-66000000D02*
X90800000Y-66000000D01*
X101300000Y-66000000D02*
X101300000Y-61850000D01*
X104280000Y-60440000D02*
X103480000Y-60440000D01*
X104280000Y-60440000D02*
X104280000Y-61300000D01*
X98600000Y-61500000D02*
G75*
G02*
X95000000Y-61500000I-1800000J0D01*
G01*
X95000000Y-61500000D02*
G75*
G02*
X98600000Y-61500000I1800000J0D01*
G01*
%TO.C,J4*%
X90620000Y-133500000D02*
X90620000Y-129500000D01*
X90620000Y-138500000D02*
X90620000Y-134500000D01*
X101120000Y-129500000D02*
X90620000Y-129500000D01*
X101120000Y-133650000D02*
X101120000Y-129500000D01*
X101120000Y-138500000D02*
X90620000Y-138500000D01*
X101120000Y-138500000D02*
X101120000Y-134350000D01*
X104100000Y-132940000D02*
X103300000Y-132940000D01*
X104100000Y-132940000D02*
X104100000Y-133800000D01*
D11*
X98402776Y-134000000D02*
G75*
G02*
X94797224Y-134000000I-1802776J0D01*
G01*
X94797224Y-134000000D02*
G75*
G02*
X98402776Y-134000000I1802776J0D01*
G01*
D12*
%TO.C,RESET_IN1*%
X105700000Y-62560000D02*
X105700000Y-61700000D01*
X105700000Y-62560000D02*
X106500000Y-62560000D01*
X108680000Y-57000000D02*
X108680000Y-61150000D01*
X108680000Y-57000000D02*
X119180000Y-57000000D01*
X108680000Y-61850000D02*
X108680000Y-66000000D01*
X108680000Y-66000000D02*
X119180000Y-66000000D01*
X119180000Y-57000000D02*
X119180000Y-61000000D01*
X119180000Y-62000000D02*
X119180000Y-66000000D01*
X114980000Y-61500000D02*
G75*
G02*
X111380000Y-61500000I-1800000J0D01*
G01*
X111380000Y-61500000D02*
G75*
G02*
X114980000Y-61500000I1800000J0D01*
G01*
%TO.C,J9*%
X105900000Y-135060000D02*
X105900000Y-134200000D01*
X105900000Y-135060000D02*
X106700000Y-135060000D01*
X108880000Y-129500000D02*
X108880000Y-133650000D01*
X108880000Y-129500000D02*
X119380000Y-129500000D01*
X108880000Y-134350000D02*
X108880000Y-138500000D01*
X108880000Y-138500000D02*
X119380000Y-138500000D01*
X119380000Y-129500000D02*
X119380000Y-133500000D01*
X119380000Y-134500000D02*
X119380000Y-138500000D01*
D11*
X115202776Y-134000000D02*
G75*
G02*
X111597224Y-134000000I-1802776J0D01*
G01*
X111597224Y-134000000D02*
G75*
G02*
X115202776Y-134000000I1802776J0D01*
G01*
D12*
%TO.C,RV1*%
X91920000Y-83095000D02*
X91920000Y-78375000D01*
X91930000Y-74565000D02*
X91930000Y-71505000D01*
X93110000Y-83095000D02*
X91930000Y-83095000D01*
X96010000Y-83095000D02*
X95480000Y-83095000D01*
X98460000Y-83095000D02*
X97630000Y-83095000D01*
X101670000Y-71505000D02*
X91930000Y-71505000D01*
X101670000Y-74565000D02*
X101670000Y-71505000D01*
X101670000Y-83095000D02*
X100180000Y-83095000D01*
X101670000Y-83095000D02*
X101670000Y-78375000D01*
%TD*%
M02*
