%TF.GenerationSoftware,KiCad,Pcbnew,8.0.5+1*%
%TF.CreationDate,2024-11-27T03:26:53+08:00*%
%TF.ProjectId,MiniDiv v0.3 - Front,4d696e69-4469-4762-9076-302e33202d20,0.3*%
%TF.SameCoordinates,Original*%
%TF.FileFunction,Drillmap*%
%TF.FilePolarity,Positive*%
%FSLAX45Y45*%
G04 Gerber Fmt 4.5, Leading zero omitted, Abs format (unit mm)*
G04 Created by KiCad (PCBNEW 8.0.5+1) date 2024-11-27 03:26:53*
%MOMM*%
%LPD*%
G01*
G04 APERTURE LIST*
%ADD10C,0.100000*%
%ADD11C,0.200000*%
%ADD12C,0.620000*%
%ADD13C,0.720000*%
G04 APERTURE END LIST*
D10*
X5500000Y-4000000D02*
X8500000Y-4000000D01*
X8500000Y-16850000D01*
X5500000Y-16850000D01*
X5500000Y-4000000D01*
D11*
D12*
X5850000Y-11090000D02*
X6470000Y-11710000D01*
X6470000Y-11090000D02*
X5850000Y-11710000D01*
X5850000Y-12090000D02*
X6470000Y-12710000D01*
X6470000Y-12090000D02*
X5850000Y-12710000D01*
X5850000Y-13090000D02*
X6470000Y-13710000D01*
X6470000Y-13090000D02*
X5850000Y-13710000D01*
X5850000Y-14090000D02*
X6470000Y-14710000D01*
X6470000Y-14090000D02*
X5850000Y-14710000D01*
X5850000Y-15090000D02*
X6470000Y-15710000D01*
X6470000Y-15090000D02*
X5850000Y-15710000D01*
X5870000Y-5840000D02*
X6490000Y-6460000D01*
X6490000Y-5840000D02*
X5870000Y-6460000D01*
X7510000Y-5840000D02*
X8130000Y-6460000D01*
X8130000Y-5840000D02*
X7510000Y-6460000D01*
X7530000Y-11090000D02*
X8150000Y-11710000D01*
X8150000Y-11090000D02*
X7530000Y-11710000D01*
X7530000Y-12090000D02*
X8150000Y-12710000D01*
X8150000Y-12090000D02*
X7530000Y-12710000D01*
X7530000Y-13090000D02*
X8150000Y-13710000D01*
X8150000Y-13090000D02*
X7530000Y-13710000D01*
X7530000Y-14090000D02*
X8150000Y-14710000D01*
X8150000Y-14090000D02*
X7530000Y-14710000D01*
X7530000Y-15090000D02*
X8150000Y-15710000D01*
X8150000Y-15090000D02*
X7530000Y-15710000D01*
D13*
X6540000Y-7650000D02*
G75*
G02*
X5820000Y-7650000I-360000J0D01*
G01*
X5820000Y-7650000D02*
G75*
G02*
X6540000Y-7650000I360000J0D01*
G01*
D11*
X5755777Y-17166484D02*
X5755777Y-16966484D01*
X5755777Y-16966484D02*
X5803396Y-16966484D01*
X5803396Y-16966484D02*
X5831967Y-16976008D01*
X5831967Y-16976008D02*
X5851015Y-16995055D01*
X5851015Y-16995055D02*
X5860539Y-17014103D01*
X5860539Y-17014103D02*
X5870062Y-17052198D01*
X5870062Y-17052198D02*
X5870062Y-17080770D01*
X5870062Y-17080770D02*
X5860539Y-17118865D01*
X5860539Y-17118865D02*
X5851015Y-17137912D01*
X5851015Y-17137912D02*
X5831967Y-17156960D01*
X5831967Y-17156960D02*
X5803396Y-17166484D01*
X5803396Y-17166484D02*
X5755777Y-17166484D01*
X5955777Y-17166484D02*
X5955777Y-17033150D01*
X5955777Y-17071246D02*
X5965301Y-17052198D01*
X5965301Y-17052198D02*
X5974824Y-17042674D01*
X5974824Y-17042674D02*
X5993872Y-17033150D01*
X5993872Y-17033150D02*
X6012920Y-17033150D01*
X6079586Y-17166484D02*
X6079586Y-17033150D01*
X6079586Y-16966484D02*
X6070062Y-16976008D01*
X6070062Y-16976008D02*
X6079586Y-16985531D01*
X6079586Y-16985531D02*
X6089110Y-16976008D01*
X6089110Y-16976008D02*
X6079586Y-16966484D01*
X6079586Y-16966484D02*
X6079586Y-16985531D01*
X6203396Y-17166484D02*
X6184348Y-17156960D01*
X6184348Y-17156960D02*
X6174824Y-17137912D01*
X6174824Y-17137912D02*
X6174824Y-16966484D01*
X6308158Y-17166484D02*
X6289110Y-17156960D01*
X6289110Y-17156960D02*
X6279586Y-17137912D01*
X6279586Y-17137912D02*
X6279586Y-16966484D01*
X6536729Y-17166484D02*
X6536729Y-16966484D01*
X6536729Y-16966484D02*
X6603396Y-17109341D01*
X6603396Y-17109341D02*
X6670062Y-16966484D01*
X6670062Y-16966484D02*
X6670062Y-17166484D01*
X6851015Y-17166484D02*
X6851015Y-17061722D01*
X6851015Y-17061722D02*
X6841491Y-17042674D01*
X6841491Y-17042674D02*
X6822443Y-17033150D01*
X6822443Y-17033150D02*
X6784348Y-17033150D01*
X6784348Y-17033150D02*
X6765301Y-17042674D01*
X6851015Y-17156960D02*
X6831967Y-17166484D01*
X6831967Y-17166484D02*
X6784348Y-17166484D01*
X6784348Y-17166484D02*
X6765301Y-17156960D01*
X6765301Y-17156960D02*
X6755777Y-17137912D01*
X6755777Y-17137912D02*
X6755777Y-17118865D01*
X6755777Y-17118865D02*
X6765301Y-17099817D01*
X6765301Y-17099817D02*
X6784348Y-17090293D01*
X6784348Y-17090293D02*
X6831967Y-17090293D01*
X6831967Y-17090293D02*
X6851015Y-17080770D01*
X6946253Y-17033150D02*
X6946253Y-17233150D01*
X6946253Y-17042674D02*
X6965301Y-17033150D01*
X6965301Y-17033150D02*
X7003396Y-17033150D01*
X7003396Y-17033150D02*
X7022443Y-17042674D01*
X7022443Y-17042674D02*
X7031967Y-17052198D01*
X7031967Y-17052198D02*
X7041491Y-17071246D01*
X7041491Y-17071246D02*
X7041491Y-17128389D01*
X7041491Y-17128389D02*
X7031967Y-17147436D01*
X7031967Y-17147436D02*
X7022443Y-17156960D01*
X7022443Y-17156960D02*
X7003396Y-17166484D01*
X7003396Y-17166484D02*
X6965301Y-17166484D01*
X6965301Y-17166484D02*
X6946253Y-17156960D01*
X7127205Y-17147436D02*
X7136729Y-17156960D01*
X7136729Y-17156960D02*
X7127205Y-17166484D01*
X7127205Y-17166484D02*
X7117682Y-17156960D01*
X7117682Y-17156960D02*
X7127205Y-17147436D01*
X7127205Y-17147436D02*
X7127205Y-17166484D01*
X7127205Y-17042674D02*
X7136729Y-17052198D01*
X7136729Y-17052198D02*
X7127205Y-17061722D01*
X7127205Y-17061722D02*
X7117682Y-17052198D01*
X7117682Y-17052198D02*
X7127205Y-17042674D01*
X7127205Y-17042674D02*
X7127205Y-17061722D01*
X5295000Y-17395000D02*
X5495000Y-17595000D01*
X5495000Y-17395000D02*
X5295000Y-17595000D01*
X5841491Y-17386484D02*
X5803396Y-17386484D01*
X5803396Y-17386484D02*
X5784348Y-17396008D01*
X5784348Y-17396008D02*
X5774824Y-17405531D01*
X5774824Y-17405531D02*
X5755777Y-17434103D01*
X5755777Y-17434103D02*
X5746253Y-17472198D01*
X5746253Y-17472198D02*
X5746253Y-17548389D01*
X5746253Y-17548389D02*
X5755777Y-17567436D01*
X5755777Y-17567436D02*
X5765301Y-17576960D01*
X5765301Y-17576960D02*
X5784348Y-17586484D01*
X5784348Y-17586484D02*
X5822443Y-17586484D01*
X5822443Y-17586484D02*
X5841491Y-17576960D01*
X5841491Y-17576960D02*
X5851015Y-17567436D01*
X5851015Y-17567436D02*
X5860539Y-17548389D01*
X5860539Y-17548389D02*
X5860539Y-17500770D01*
X5860539Y-17500770D02*
X5851015Y-17481722D01*
X5851015Y-17481722D02*
X5841491Y-17472198D01*
X5841491Y-17472198D02*
X5822443Y-17462674D01*
X5822443Y-17462674D02*
X5784348Y-17462674D01*
X5784348Y-17462674D02*
X5765301Y-17472198D01*
X5765301Y-17472198D02*
X5755777Y-17481722D01*
X5755777Y-17481722D02*
X5746253Y-17500770D01*
X5946253Y-17567436D02*
X5955777Y-17576960D01*
X5955777Y-17576960D02*
X5946253Y-17586484D01*
X5946253Y-17586484D02*
X5936729Y-17576960D01*
X5936729Y-17576960D02*
X5946253Y-17567436D01*
X5946253Y-17567436D02*
X5946253Y-17586484D01*
X6031967Y-17405531D02*
X6041491Y-17396008D01*
X6041491Y-17396008D02*
X6060539Y-17386484D01*
X6060539Y-17386484D02*
X6108158Y-17386484D01*
X6108158Y-17386484D02*
X6127205Y-17396008D01*
X6127205Y-17396008D02*
X6136729Y-17405531D01*
X6136729Y-17405531D02*
X6146253Y-17424579D01*
X6146253Y-17424579D02*
X6146253Y-17443627D01*
X6146253Y-17443627D02*
X6136729Y-17472198D01*
X6136729Y-17472198D02*
X6022443Y-17586484D01*
X6022443Y-17586484D02*
X6146253Y-17586484D01*
X6270062Y-17386484D02*
X6289110Y-17386484D01*
X6289110Y-17386484D02*
X6308158Y-17396008D01*
X6308158Y-17396008D02*
X6317682Y-17405531D01*
X6317682Y-17405531D02*
X6327205Y-17424579D01*
X6327205Y-17424579D02*
X6336729Y-17462674D01*
X6336729Y-17462674D02*
X6336729Y-17510293D01*
X6336729Y-17510293D02*
X6327205Y-17548389D01*
X6327205Y-17548389D02*
X6317682Y-17567436D01*
X6317682Y-17567436D02*
X6308158Y-17576960D01*
X6308158Y-17576960D02*
X6289110Y-17586484D01*
X6289110Y-17586484D02*
X6270062Y-17586484D01*
X6270062Y-17586484D02*
X6251015Y-17576960D01*
X6251015Y-17576960D02*
X6241491Y-17567436D01*
X6241491Y-17567436D02*
X6231967Y-17548389D01*
X6231967Y-17548389D02*
X6222443Y-17510293D01*
X6222443Y-17510293D02*
X6222443Y-17462674D01*
X6222443Y-17462674D02*
X6231967Y-17424579D01*
X6231967Y-17424579D02*
X6241491Y-17405531D01*
X6241491Y-17405531D02*
X6251015Y-17396008D01*
X6251015Y-17396008D02*
X6270062Y-17386484D01*
X6460539Y-17386484D02*
X6479586Y-17386484D01*
X6479586Y-17386484D02*
X6498634Y-17396008D01*
X6498634Y-17396008D02*
X6508158Y-17405531D01*
X6508158Y-17405531D02*
X6517682Y-17424579D01*
X6517682Y-17424579D02*
X6527205Y-17462674D01*
X6527205Y-17462674D02*
X6527205Y-17510293D01*
X6527205Y-17510293D02*
X6517682Y-17548389D01*
X6517682Y-17548389D02*
X6508158Y-17567436D01*
X6508158Y-17567436D02*
X6498634Y-17576960D01*
X6498634Y-17576960D02*
X6479586Y-17586484D01*
X6479586Y-17586484D02*
X6460539Y-17586484D01*
X6460539Y-17586484D02*
X6441491Y-17576960D01*
X6441491Y-17576960D02*
X6431967Y-17567436D01*
X6431967Y-17567436D02*
X6422443Y-17548389D01*
X6422443Y-17548389D02*
X6412920Y-17510293D01*
X6412920Y-17510293D02*
X6412920Y-17462674D01*
X6412920Y-17462674D02*
X6422443Y-17424579D01*
X6422443Y-17424579D02*
X6431967Y-17405531D01*
X6431967Y-17405531D02*
X6441491Y-17396008D01*
X6441491Y-17396008D02*
X6460539Y-17386484D01*
X6612920Y-17586484D02*
X6612920Y-17453150D01*
X6612920Y-17472198D02*
X6622443Y-17462674D01*
X6622443Y-17462674D02*
X6641491Y-17453150D01*
X6641491Y-17453150D02*
X6670063Y-17453150D01*
X6670063Y-17453150D02*
X6689110Y-17462674D01*
X6689110Y-17462674D02*
X6698634Y-17481722D01*
X6698634Y-17481722D02*
X6698634Y-17586484D01*
X6698634Y-17481722D02*
X6708158Y-17462674D01*
X6708158Y-17462674D02*
X6727205Y-17453150D01*
X6727205Y-17453150D02*
X6755777Y-17453150D01*
X6755777Y-17453150D02*
X6774824Y-17462674D01*
X6774824Y-17462674D02*
X6784348Y-17481722D01*
X6784348Y-17481722D02*
X6784348Y-17586484D01*
X6879586Y-17586484D02*
X6879586Y-17453150D01*
X6879586Y-17472198D02*
X6889110Y-17462674D01*
X6889110Y-17462674D02*
X6908158Y-17453150D01*
X6908158Y-17453150D02*
X6936729Y-17453150D01*
X6936729Y-17453150D02*
X6955777Y-17462674D01*
X6955777Y-17462674D02*
X6965301Y-17481722D01*
X6965301Y-17481722D02*
X6965301Y-17586484D01*
X6965301Y-17481722D02*
X6974824Y-17462674D01*
X6974824Y-17462674D02*
X6993872Y-17453150D01*
X6993872Y-17453150D02*
X7022443Y-17453150D01*
X7022443Y-17453150D02*
X7041491Y-17462674D01*
X7041491Y-17462674D02*
X7051015Y-17481722D01*
X7051015Y-17481722D02*
X7051015Y-17586484D01*
X7441491Y-17376960D02*
X7270063Y-17634103D01*
X7698634Y-17386484D02*
X7717682Y-17386484D01*
X7717682Y-17386484D02*
X7736729Y-17396008D01*
X7736729Y-17396008D02*
X7746253Y-17405531D01*
X7746253Y-17405531D02*
X7755777Y-17424579D01*
X7755777Y-17424579D02*
X7765301Y-17462674D01*
X7765301Y-17462674D02*
X7765301Y-17510293D01*
X7765301Y-17510293D02*
X7755777Y-17548389D01*
X7755777Y-17548389D02*
X7746253Y-17567436D01*
X7746253Y-17567436D02*
X7736729Y-17576960D01*
X7736729Y-17576960D02*
X7717682Y-17586484D01*
X7717682Y-17586484D02*
X7698634Y-17586484D01*
X7698634Y-17586484D02*
X7679586Y-17576960D01*
X7679586Y-17576960D02*
X7670063Y-17567436D01*
X7670063Y-17567436D02*
X7660539Y-17548389D01*
X7660539Y-17548389D02*
X7651015Y-17510293D01*
X7651015Y-17510293D02*
X7651015Y-17462674D01*
X7651015Y-17462674D02*
X7660539Y-17424579D01*
X7660539Y-17424579D02*
X7670063Y-17405531D01*
X7670063Y-17405531D02*
X7679586Y-17396008D01*
X7679586Y-17396008D02*
X7698634Y-17386484D01*
X7851015Y-17567436D02*
X7860539Y-17576960D01*
X7860539Y-17576960D02*
X7851015Y-17586484D01*
X7851015Y-17586484D02*
X7841491Y-17576960D01*
X7841491Y-17576960D02*
X7851015Y-17567436D01*
X7851015Y-17567436D02*
X7851015Y-17586484D01*
X7936729Y-17405531D02*
X7946253Y-17396008D01*
X7946253Y-17396008D02*
X7965301Y-17386484D01*
X7965301Y-17386484D02*
X8012920Y-17386484D01*
X8012920Y-17386484D02*
X8031967Y-17396008D01*
X8031967Y-17396008D02*
X8041491Y-17405531D01*
X8041491Y-17405531D02*
X8051015Y-17424579D01*
X8051015Y-17424579D02*
X8051015Y-17443627D01*
X8051015Y-17443627D02*
X8041491Y-17472198D01*
X8041491Y-17472198D02*
X7927206Y-17586484D01*
X7927206Y-17586484D02*
X8051015Y-17586484D01*
X8222444Y-17453150D02*
X8222444Y-17586484D01*
X8174825Y-17376960D02*
X8127206Y-17519817D01*
X8127206Y-17519817D02*
X8251015Y-17519817D01*
X8412920Y-17453150D02*
X8412920Y-17586484D01*
X8365301Y-17376960D02*
X8317682Y-17519817D01*
X8317682Y-17519817D02*
X8441491Y-17519817D01*
X8622444Y-17586484D02*
X8508158Y-17586484D01*
X8565301Y-17586484D02*
X8565301Y-17386484D01*
X8565301Y-17386484D02*
X8546253Y-17415055D01*
X8546253Y-17415055D02*
X8527206Y-17434103D01*
X8527206Y-17434103D02*
X8508158Y-17443627D01*
X8698634Y-17386484D02*
X8698634Y-17424579D01*
X8774825Y-17386484D02*
X8774825Y-17424579D01*
X9070063Y-17662674D02*
X9060539Y-17653150D01*
X9060539Y-17653150D02*
X9041491Y-17624579D01*
X9041491Y-17624579D02*
X9031968Y-17605531D01*
X9031968Y-17605531D02*
X9022444Y-17576960D01*
X9022444Y-17576960D02*
X9012920Y-17529341D01*
X9012920Y-17529341D02*
X9012920Y-17491246D01*
X9012920Y-17491246D02*
X9022444Y-17443627D01*
X9022444Y-17443627D02*
X9031968Y-17415055D01*
X9031968Y-17415055D02*
X9041491Y-17396008D01*
X9041491Y-17396008D02*
X9060539Y-17367436D01*
X9060539Y-17367436D02*
X9070063Y-17357912D01*
X9251015Y-17586484D02*
X9136730Y-17586484D01*
X9193872Y-17586484D02*
X9193872Y-17386484D01*
X9193872Y-17386484D02*
X9174825Y-17415055D01*
X9174825Y-17415055D02*
X9155777Y-17434103D01*
X9155777Y-17434103D02*
X9136730Y-17443627D01*
X9327206Y-17405531D02*
X9336730Y-17396008D01*
X9336730Y-17396008D02*
X9355777Y-17386484D01*
X9355777Y-17386484D02*
X9403396Y-17386484D01*
X9403396Y-17386484D02*
X9422444Y-17396008D01*
X9422444Y-17396008D02*
X9431968Y-17405531D01*
X9431968Y-17405531D02*
X9441491Y-17424579D01*
X9441491Y-17424579D02*
X9441491Y-17443627D01*
X9441491Y-17443627D02*
X9431968Y-17472198D01*
X9431968Y-17472198D02*
X9317682Y-17586484D01*
X9317682Y-17586484D02*
X9441491Y-17586484D01*
X9679587Y-17586484D02*
X9679587Y-17386484D01*
X9765301Y-17586484D02*
X9765301Y-17481722D01*
X9765301Y-17481722D02*
X9755777Y-17462674D01*
X9755777Y-17462674D02*
X9736730Y-17453150D01*
X9736730Y-17453150D02*
X9708158Y-17453150D01*
X9708158Y-17453150D02*
X9689111Y-17462674D01*
X9689111Y-17462674D02*
X9679587Y-17472198D01*
X9889111Y-17586484D02*
X9870063Y-17576960D01*
X9870063Y-17576960D02*
X9860539Y-17567436D01*
X9860539Y-17567436D02*
X9851015Y-17548389D01*
X9851015Y-17548389D02*
X9851015Y-17491246D01*
X9851015Y-17491246D02*
X9860539Y-17472198D01*
X9860539Y-17472198D02*
X9870063Y-17462674D01*
X9870063Y-17462674D02*
X9889111Y-17453150D01*
X9889111Y-17453150D02*
X9917682Y-17453150D01*
X9917682Y-17453150D02*
X9936730Y-17462674D01*
X9936730Y-17462674D02*
X9946253Y-17472198D01*
X9946253Y-17472198D02*
X9955777Y-17491246D01*
X9955777Y-17491246D02*
X9955777Y-17548389D01*
X9955777Y-17548389D02*
X9946253Y-17567436D01*
X9946253Y-17567436D02*
X9936730Y-17576960D01*
X9936730Y-17576960D02*
X9917682Y-17586484D01*
X9917682Y-17586484D02*
X9889111Y-17586484D01*
X10070063Y-17586484D02*
X10051015Y-17576960D01*
X10051015Y-17576960D02*
X10041492Y-17557912D01*
X10041492Y-17557912D02*
X10041492Y-17386484D01*
X10222444Y-17576960D02*
X10203396Y-17586484D01*
X10203396Y-17586484D02*
X10165301Y-17586484D01*
X10165301Y-17586484D02*
X10146253Y-17576960D01*
X10146253Y-17576960D02*
X10136730Y-17557912D01*
X10136730Y-17557912D02*
X10136730Y-17481722D01*
X10136730Y-17481722D02*
X10146253Y-17462674D01*
X10146253Y-17462674D02*
X10165301Y-17453150D01*
X10165301Y-17453150D02*
X10203396Y-17453150D01*
X10203396Y-17453150D02*
X10222444Y-17462674D01*
X10222444Y-17462674D02*
X10231968Y-17481722D01*
X10231968Y-17481722D02*
X10231968Y-17500770D01*
X10231968Y-17500770D02*
X10136730Y-17519817D01*
X10308158Y-17576960D02*
X10327206Y-17586484D01*
X10327206Y-17586484D02*
X10365301Y-17586484D01*
X10365301Y-17586484D02*
X10384349Y-17576960D01*
X10384349Y-17576960D02*
X10393873Y-17557912D01*
X10393873Y-17557912D02*
X10393873Y-17548389D01*
X10393873Y-17548389D02*
X10384349Y-17529341D01*
X10384349Y-17529341D02*
X10365301Y-17519817D01*
X10365301Y-17519817D02*
X10336730Y-17519817D01*
X10336730Y-17519817D02*
X10317682Y-17510293D01*
X10317682Y-17510293D02*
X10308158Y-17491246D01*
X10308158Y-17491246D02*
X10308158Y-17481722D01*
X10308158Y-17481722D02*
X10317682Y-17462674D01*
X10317682Y-17462674D02*
X10336730Y-17453150D01*
X10336730Y-17453150D02*
X10365301Y-17453150D01*
X10365301Y-17453150D02*
X10384349Y-17462674D01*
X10460539Y-17662674D02*
X10470063Y-17653150D01*
X10470063Y-17653150D02*
X10489111Y-17624579D01*
X10489111Y-17624579D02*
X10498634Y-17605531D01*
X10498634Y-17605531D02*
X10508158Y-17576960D01*
X10508158Y-17576960D02*
X10517682Y-17529341D01*
X10517682Y-17529341D02*
X10517682Y-17491246D01*
X10517682Y-17491246D02*
X10508158Y-17443627D01*
X10508158Y-17443627D02*
X10498634Y-17415055D01*
X10498634Y-17415055D02*
X10489111Y-17396008D01*
X10489111Y-17396008D02*
X10470063Y-17367436D01*
X10470063Y-17367436D02*
X10460539Y-17357912D01*
X10822444Y-17662674D02*
X10812920Y-17653150D01*
X10812920Y-17653150D02*
X10793873Y-17624579D01*
X10793873Y-17624579D02*
X10784349Y-17605531D01*
X10784349Y-17605531D02*
X10774825Y-17576960D01*
X10774825Y-17576960D02*
X10765301Y-17529341D01*
X10765301Y-17529341D02*
X10765301Y-17491246D01*
X10765301Y-17491246D02*
X10774825Y-17443627D01*
X10774825Y-17443627D02*
X10784349Y-17415055D01*
X10784349Y-17415055D02*
X10793873Y-17396008D01*
X10793873Y-17396008D02*
X10812920Y-17367436D01*
X10812920Y-17367436D02*
X10822444Y-17357912D01*
X10898634Y-17453150D02*
X10898634Y-17586484D01*
X10898634Y-17472198D02*
X10908158Y-17462674D01*
X10908158Y-17462674D02*
X10927206Y-17453150D01*
X10927206Y-17453150D02*
X10955777Y-17453150D01*
X10955777Y-17453150D02*
X10974825Y-17462674D01*
X10974825Y-17462674D02*
X10984349Y-17481722D01*
X10984349Y-17481722D02*
X10984349Y-17586484D01*
X11108158Y-17586484D02*
X11089111Y-17576960D01*
X11089111Y-17576960D02*
X11079587Y-17567436D01*
X11079587Y-17567436D02*
X11070063Y-17548389D01*
X11070063Y-17548389D02*
X11070063Y-17491246D01*
X11070063Y-17491246D02*
X11079587Y-17472198D01*
X11079587Y-17472198D02*
X11089111Y-17462674D01*
X11089111Y-17462674D02*
X11108158Y-17453150D01*
X11108158Y-17453150D02*
X11136730Y-17453150D01*
X11136730Y-17453150D02*
X11155777Y-17462674D01*
X11155777Y-17462674D02*
X11165301Y-17472198D01*
X11165301Y-17472198D02*
X11174825Y-17491246D01*
X11174825Y-17491246D02*
X11174825Y-17548389D01*
X11174825Y-17548389D02*
X11165301Y-17567436D01*
X11165301Y-17567436D02*
X11155777Y-17576960D01*
X11155777Y-17576960D02*
X11136730Y-17586484D01*
X11136730Y-17586484D02*
X11108158Y-17586484D01*
X11231968Y-17453150D02*
X11308158Y-17453150D01*
X11260539Y-17386484D02*
X11260539Y-17557912D01*
X11260539Y-17557912D02*
X11270063Y-17576960D01*
X11270063Y-17576960D02*
X11289111Y-17586484D01*
X11289111Y-17586484D02*
X11308158Y-17586484D01*
X11527206Y-17453150D02*
X11527206Y-17653150D01*
X11527206Y-17462674D02*
X11546253Y-17453150D01*
X11546253Y-17453150D02*
X11584349Y-17453150D01*
X11584349Y-17453150D02*
X11603396Y-17462674D01*
X11603396Y-17462674D02*
X11612920Y-17472198D01*
X11612920Y-17472198D02*
X11622444Y-17491246D01*
X11622444Y-17491246D02*
X11622444Y-17548389D01*
X11622444Y-17548389D02*
X11612920Y-17567436D01*
X11612920Y-17567436D02*
X11603396Y-17576960D01*
X11603396Y-17576960D02*
X11584349Y-17586484D01*
X11584349Y-17586484D02*
X11546253Y-17586484D01*
X11546253Y-17586484D02*
X11527206Y-17576960D01*
X11736730Y-17586484D02*
X11717682Y-17576960D01*
X11717682Y-17576960D02*
X11708158Y-17557912D01*
X11708158Y-17557912D02*
X11708158Y-17386484D01*
X11898634Y-17586484D02*
X11898634Y-17481722D01*
X11898634Y-17481722D02*
X11889111Y-17462674D01*
X11889111Y-17462674D02*
X11870063Y-17453150D01*
X11870063Y-17453150D02*
X11831968Y-17453150D01*
X11831968Y-17453150D02*
X11812920Y-17462674D01*
X11898634Y-17576960D02*
X11879587Y-17586484D01*
X11879587Y-17586484D02*
X11831968Y-17586484D01*
X11831968Y-17586484D02*
X11812920Y-17576960D01*
X11812920Y-17576960D02*
X11803396Y-17557912D01*
X11803396Y-17557912D02*
X11803396Y-17538865D01*
X11803396Y-17538865D02*
X11812920Y-17519817D01*
X11812920Y-17519817D02*
X11831968Y-17510293D01*
X11831968Y-17510293D02*
X11879587Y-17510293D01*
X11879587Y-17510293D02*
X11898634Y-17500770D01*
X11965301Y-17453150D02*
X12041492Y-17453150D01*
X11993873Y-17386484D02*
X11993873Y-17557912D01*
X11993873Y-17557912D02*
X12003396Y-17576960D01*
X12003396Y-17576960D02*
X12022444Y-17586484D01*
X12022444Y-17586484D02*
X12041492Y-17586484D01*
X12184349Y-17576960D02*
X12165301Y-17586484D01*
X12165301Y-17586484D02*
X12127206Y-17586484D01*
X12127206Y-17586484D02*
X12108158Y-17576960D01*
X12108158Y-17576960D02*
X12098634Y-17557912D01*
X12098634Y-17557912D02*
X12098634Y-17481722D01*
X12098634Y-17481722D02*
X12108158Y-17462674D01*
X12108158Y-17462674D02*
X12127206Y-17453150D01*
X12127206Y-17453150D02*
X12165301Y-17453150D01*
X12165301Y-17453150D02*
X12184349Y-17462674D01*
X12184349Y-17462674D02*
X12193873Y-17481722D01*
X12193873Y-17481722D02*
X12193873Y-17500770D01*
X12193873Y-17500770D02*
X12098634Y-17519817D01*
X12365301Y-17586484D02*
X12365301Y-17386484D01*
X12365301Y-17576960D02*
X12346254Y-17586484D01*
X12346254Y-17586484D02*
X12308158Y-17586484D01*
X12308158Y-17586484D02*
X12289111Y-17576960D01*
X12289111Y-17576960D02*
X12279587Y-17567436D01*
X12279587Y-17567436D02*
X12270063Y-17548389D01*
X12270063Y-17548389D02*
X12270063Y-17491246D01*
X12270063Y-17491246D02*
X12279587Y-17472198D01*
X12279587Y-17472198D02*
X12289111Y-17462674D01*
X12289111Y-17462674D02*
X12308158Y-17453150D01*
X12308158Y-17453150D02*
X12346254Y-17453150D01*
X12346254Y-17453150D02*
X12365301Y-17462674D01*
X12441492Y-17662674D02*
X12451015Y-17653150D01*
X12451015Y-17653150D02*
X12470063Y-17624579D01*
X12470063Y-17624579D02*
X12479587Y-17605531D01*
X12479587Y-17605531D02*
X12489111Y-17576960D01*
X12489111Y-17576960D02*
X12498634Y-17529341D01*
X12498634Y-17529341D02*
X12498634Y-17491246D01*
X12498634Y-17491246D02*
X12489111Y-17443627D01*
X12489111Y-17443627D02*
X12479587Y-17415055D01*
X12479587Y-17415055D02*
X12470063Y-17396008D01*
X12470063Y-17396008D02*
X12451015Y-17367436D01*
X12451015Y-17367436D02*
X12441492Y-17357912D01*
X5495000Y-17815000D02*
G75*
G02*
X5295000Y-17815000I-100000J0D01*
G01*
X5295000Y-17815000D02*
G75*
G02*
X5495000Y-17815000I100000J0D01*
G01*
X5736729Y-17706484D02*
X5870062Y-17706484D01*
X5870062Y-17706484D02*
X5784348Y-17906484D01*
X5946253Y-17887436D02*
X5955777Y-17896960D01*
X5955777Y-17896960D02*
X5946253Y-17906484D01*
X5946253Y-17906484D02*
X5936729Y-17896960D01*
X5936729Y-17896960D02*
X5946253Y-17887436D01*
X5946253Y-17887436D02*
X5946253Y-17906484D01*
X6031967Y-17725531D02*
X6041491Y-17716008D01*
X6041491Y-17716008D02*
X6060539Y-17706484D01*
X6060539Y-17706484D02*
X6108158Y-17706484D01*
X6108158Y-17706484D02*
X6127205Y-17716008D01*
X6127205Y-17716008D02*
X6136729Y-17725531D01*
X6136729Y-17725531D02*
X6146253Y-17744579D01*
X6146253Y-17744579D02*
X6146253Y-17763627D01*
X6146253Y-17763627D02*
X6136729Y-17792198D01*
X6136729Y-17792198D02*
X6022443Y-17906484D01*
X6022443Y-17906484D02*
X6146253Y-17906484D01*
X6270062Y-17706484D02*
X6289110Y-17706484D01*
X6289110Y-17706484D02*
X6308158Y-17716008D01*
X6308158Y-17716008D02*
X6317682Y-17725531D01*
X6317682Y-17725531D02*
X6327205Y-17744579D01*
X6327205Y-17744579D02*
X6336729Y-17782674D01*
X6336729Y-17782674D02*
X6336729Y-17830293D01*
X6336729Y-17830293D02*
X6327205Y-17868389D01*
X6327205Y-17868389D02*
X6317682Y-17887436D01*
X6317682Y-17887436D02*
X6308158Y-17896960D01*
X6308158Y-17896960D02*
X6289110Y-17906484D01*
X6289110Y-17906484D02*
X6270062Y-17906484D01*
X6270062Y-17906484D02*
X6251015Y-17896960D01*
X6251015Y-17896960D02*
X6241491Y-17887436D01*
X6241491Y-17887436D02*
X6231967Y-17868389D01*
X6231967Y-17868389D02*
X6222443Y-17830293D01*
X6222443Y-17830293D02*
X6222443Y-17782674D01*
X6222443Y-17782674D02*
X6231967Y-17744579D01*
X6231967Y-17744579D02*
X6241491Y-17725531D01*
X6241491Y-17725531D02*
X6251015Y-17716008D01*
X6251015Y-17716008D02*
X6270062Y-17706484D01*
X6460539Y-17706484D02*
X6479586Y-17706484D01*
X6479586Y-17706484D02*
X6498634Y-17716008D01*
X6498634Y-17716008D02*
X6508158Y-17725531D01*
X6508158Y-17725531D02*
X6517682Y-17744579D01*
X6517682Y-17744579D02*
X6527205Y-17782674D01*
X6527205Y-17782674D02*
X6527205Y-17830293D01*
X6527205Y-17830293D02*
X6517682Y-17868389D01*
X6517682Y-17868389D02*
X6508158Y-17887436D01*
X6508158Y-17887436D02*
X6498634Y-17896960D01*
X6498634Y-17896960D02*
X6479586Y-17906484D01*
X6479586Y-17906484D02*
X6460539Y-17906484D01*
X6460539Y-17906484D02*
X6441491Y-17896960D01*
X6441491Y-17896960D02*
X6431967Y-17887436D01*
X6431967Y-17887436D02*
X6422443Y-17868389D01*
X6422443Y-17868389D02*
X6412920Y-17830293D01*
X6412920Y-17830293D02*
X6412920Y-17782674D01*
X6412920Y-17782674D02*
X6422443Y-17744579D01*
X6422443Y-17744579D02*
X6431967Y-17725531D01*
X6431967Y-17725531D02*
X6441491Y-17716008D01*
X6441491Y-17716008D02*
X6460539Y-17706484D01*
X6612920Y-17906484D02*
X6612920Y-17773150D01*
X6612920Y-17792198D02*
X6622443Y-17782674D01*
X6622443Y-17782674D02*
X6641491Y-17773150D01*
X6641491Y-17773150D02*
X6670063Y-17773150D01*
X6670063Y-17773150D02*
X6689110Y-17782674D01*
X6689110Y-17782674D02*
X6698634Y-17801722D01*
X6698634Y-17801722D02*
X6698634Y-17906484D01*
X6698634Y-17801722D02*
X6708158Y-17782674D01*
X6708158Y-17782674D02*
X6727205Y-17773150D01*
X6727205Y-17773150D02*
X6755777Y-17773150D01*
X6755777Y-17773150D02*
X6774824Y-17782674D01*
X6774824Y-17782674D02*
X6784348Y-17801722D01*
X6784348Y-17801722D02*
X6784348Y-17906484D01*
X6879586Y-17906484D02*
X6879586Y-17773150D01*
X6879586Y-17792198D02*
X6889110Y-17782674D01*
X6889110Y-17782674D02*
X6908158Y-17773150D01*
X6908158Y-17773150D02*
X6936729Y-17773150D01*
X6936729Y-17773150D02*
X6955777Y-17782674D01*
X6955777Y-17782674D02*
X6965301Y-17801722D01*
X6965301Y-17801722D02*
X6965301Y-17906484D01*
X6965301Y-17801722D02*
X6974824Y-17782674D01*
X6974824Y-17782674D02*
X6993872Y-17773150D01*
X6993872Y-17773150D02*
X7022443Y-17773150D01*
X7022443Y-17773150D02*
X7041491Y-17782674D01*
X7041491Y-17782674D02*
X7051015Y-17801722D01*
X7051015Y-17801722D02*
X7051015Y-17906484D01*
X7441491Y-17696960D02*
X7270063Y-17954103D01*
X7698634Y-17706484D02*
X7717682Y-17706484D01*
X7717682Y-17706484D02*
X7736729Y-17716008D01*
X7736729Y-17716008D02*
X7746253Y-17725531D01*
X7746253Y-17725531D02*
X7755777Y-17744579D01*
X7755777Y-17744579D02*
X7765301Y-17782674D01*
X7765301Y-17782674D02*
X7765301Y-17830293D01*
X7765301Y-17830293D02*
X7755777Y-17868389D01*
X7755777Y-17868389D02*
X7746253Y-17887436D01*
X7746253Y-17887436D02*
X7736729Y-17896960D01*
X7736729Y-17896960D02*
X7717682Y-17906484D01*
X7717682Y-17906484D02*
X7698634Y-17906484D01*
X7698634Y-17906484D02*
X7679586Y-17896960D01*
X7679586Y-17896960D02*
X7670063Y-17887436D01*
X7670063Y-17887436D02*
X7660539Y-17868389D01*
X7660539Y-17868389D02*
X7651015Y-17830293D01*
X7651015Y-17830293D02*
X7651015Y-17782674D01*
X7651015Y-17782674D02*
X7660539Y-17744579D01*
X7660539Y-17744579D02*
X7670063Y-17725531D01*
X7670063Y-17725531D02*
X7679586Y-17716008D01*
X7679586Y-17716008D02*
X7698634Y-17706484D01*
X7851015Y-17887436D02*
X7860539Y-17896960D01*
X7860539Y-17896960D02*
X7851015Y-17906484D01*
X7851015Y-17906484D02*
X7841491Y-17896960D01*
X7841491Y-17896960D02*
X7851015Y-17887436D01*
X7851015Y-17887436D02*
X7851015Y-17906484D01*
X7936729Y-17725531D02*
X7946253Y-17716008D01*
X7946253Y-17716008D02*
X7965301Y-17706484D01*
X7965301Y-17706484D02*
X8012920Y-17706484D01*
X8012920Y-17706484D02*
X8031967Y-17716008D01*
X8031967Y-17716008D02*
X8041491Y-17725531D01*
X8041491Y-17725531D02*
X8051015Y-17744579D01*
X8051015Y-17744579D02*
X8051015Y-17763627D01*
X8051015Y-17763627D02*
X8041491Y-17792198D01*
X8041491Y-17792198D02*
X7927206Y-17906484D01*
X7927206Y-17906484D02*
X8051015Y-17906484D01*
X8165301Y-17792198D02*
X8146253Y-17782674D01*
X8146253Y-17782674D02*
X8136729Y-17773150D01*
X8136729Y-17773150D02*
X8127206Y-17754103D01*
X8127206Y-17754103D02*
X8127206Y-17744579D01*
X8127206Y-17744579D02*
X8136729Y-17725531D01*
X8136729Y-17725531D02*
X8146253Y-17716008D01*
X8146253Y-17716008D02*
X8165301Y-17706484D01*
X8165301Y-17706484D02*
X8203396Y-17706484D01*
X8203396Y-17706484D02*
X8222444Y-17716008D01*
X8222444Y-17716008D02*
X8231967Y-17725531D01*
X8231967Y-17725531D02*
X8241491Y-17744579D01*
X8241491Y-17744579D02*
X8241491Y-17754103D01*
X8241491Y-17754103D02*
X8231967Y-17773150D01*
X8231967Y-17773150D02*
X8222444Y-17782674D01*
X8222444Y-17782674D02*
X8203396Y-17792198D01*
X8203396Y-17792198D02*
X8165301Y-17792198D01*
X8165301Y-17792198D02*
X8146253Y-17801722D01*
X8146253Y-17801722D02*
X8136729Y-17811246D01*
X8136729Y-17811246D02*
X8127206Y-17830293D01*
X8127206Y-17830293D02*
X8127206Y-17868389D01*
X8127206Y-17868389D02*
X8136729Y-17887436D01*
X8136729Y-17887436D02*
X8146253Y-17896960D01*
X8146253Y-17896960D02*
X8165301Y-17906484D01*
X8165301Y-17906484D02*
X8203396Y-17906484D01*
X8203396Y-17906484D02*
X8222444Y-17896960D01*
X8222444Y-17896960D02*
X8231967Y-17887436D01*
X8231967Y-17887436D02*
X8241491Y-17868389D01*
X8241491Y-17868389D02*
X8241491Y-17830293D01*
X8241491Y-17830293D02*
X8231967Y-17811246D01*
X8231967Y-17811246D02*
X8222444Y-17801722D01*
X8222444Y-17801722D02*
X8203396Y-17792198D01*
X8308158Y-17706484D02*
X8431968Y-17706484D01*
X8431968Y-17706484D02*
X8365301Y-17782674D01*
X8365301Y-17782674D02*
X8393872Y-17782674D01*
X8393872Y-17782674D02*
X8412920Y-17792198D01*
X8412920Y-17792198D02*
X8422444Y-17801722D01*
X8422444Y-17801722D02*
X8431968Y-17820770D01*
X8431968Y-17820770D02*
X8431968Y-17868389D01*
X8431968Y-17868389D02*
X8422444Y-17887436D01*
X8422444Y-17887436D02*
X8412920Y-17896960D01*
X8412920Y-17896960D02*
X8393872Y-17906484D01*
X8393872Y-17906484D02*
X8336729Y-17906484D01*
X8336729Y-17906484D02*
X8317682Y-17896960D01*
X8317682Y-17896960D02*
X8308158Y-17887436D01*
X8612920Y-17706484D02*
X8517682Y-17706484D01*
X8517682Y-17706484D02*
X8508158Y-17801722D01*
X8508158Y-17801722D02*
X8517682Y-17792198D01*
X8517682Y-17792198D02*
X8536729Y-17782674D01*
X8536729Y-17782674D02*
X8584349Y-17782674D01*
X8584349Y-17782674D02*
X8603396Y-17792198D01*
X8603396Y-17792198D02*
X8612920Y-17801722D01*
X8612920Y-17801722D02*
X8622444Y-17820770D01*
X8622444Y-17820770D02*
X8622444Y-17868389D01*
X8622444Y-17868389D02*
X8612920Y-17887436D01*
X8612920Y-17887436D02*
X8603396Y-17896960D01*
X8603396Y-17896960D02*
X8584349Y-17906484D01*
X8584349Y-17906484D02*
X8536729Y-17906484D01*
X8536729Y-17906484D02*
X8517682Y-17896960D01*
X8517682Y-17896960D02*
X8508158Y-17887436D01*
X8698634Y-17706484D02*
X8698634Y-17744579D01*
X8774825Y-17706484D02*
X8774825Y-17744579D01*
X9070063Y-17982674D02*
X9060539Y-17973150D01*
X9060539Y-17973150D02*
X9041491Y-17944579D01*
X9041491Y-17944579D02*
X9031968Y-17925531D01*
X9031968Y-17925531D02*
X9022444Y-17896960D01*
X9022444Y-17896960D02*
X9012920Y-17849341D01*
X9012920Y-17849341D02*
X9012920Y-17811246D01*
X9012920Y-17811246D02*
X9022444Y-17763627D01*
X9022444Y-17763627D02*
X9031968Y-17735055D01*
X9031968Y-17735055D02*
X9041491Y-17716008D01*
X9041491Y-17716008D02*
X9060539Y-17687436D01*
X9060539Y-17687436D02*
X9070063Y-17677912D01*
X9251015Y-17906484D02*
X9136730Y-17906484D01*
X9193872Y-17906484D02*
X9193872Y-17706484D01*
X9193872Y-17706484D02*
X9174825Y-17735055D01*
X9174825Y-17735055D02*
X9155777Y-17754103D01*
X9155777Y-17754103D02*
X9136730Y-17763627D01*
X9489111Y-17906484D02*
X9489111Y-17706484D01*
X9574825Y-17906484D02*
X9574825Y-17801722D01*
X9574825Y-17801722D02*
X9565301Y-17782674D01*
X9565301Y-17782674D02*
X9546253Y-17773150D01*
X9546253Y-17773150D02*
X9517682Y-17773150D01*
X9517682Y-17773150D02*
X9498634Y-17782674D01*
X9498634Y-17782674D02*
X9489111Y-17792198D01*
X9698634Y-17906484D02*
X9679587Y-17896960D01*
X9679587Y-17896960D02*
X9670063Y-17887436D01*
X9670063Y-17887436D02*
X9660539Y-17868389D01*
X9660539Y-17868389D02*
X9660539Y-17811246D01*
X9660539Y-17811246D02*
X9670063Y-17792198D01*
X9670063Y-17792198D02*
X9679587Y-17782674D01*
X9679587Y-17782674D02*
X9698634Y-17773150D01*
X9698634Y-17773150D02*
X9727206Y-17773150D01*
X9727206Y-17773150D02*
X9746253Y-17782674D01*
X9746253Y-17782674D02*
X9755777Y-17792198D01*
X9755777Y-17792198D02*
X9765301Y-17811246D01*
X9765301Y-17811246D02*
X9765301Y-17868389D01*
X9765301Y-17868389D02*
X9755777Y-17887436D01*
X9755777Y-17887436D02*
X9746253Y-17896960D01*
X9746253Y-17896960D02*
X9727206Y-17906484D01*
X9727206Y-17906484D02*
X9698634Y-17906484D01*
X9879587Y-17906484D02*
X9860539Y-17896960D01*
X9860539Y-17896960D02*
X9851015Y-17877912D01*
X9851015Y-17877912D02*
X9851015Y-17706484D01*
X10031968Y-17896960D02*
X10012920Y-17906484D01*
X10012920Y-17906484D02*
X9974825Y-17906484D01*
X9974825Y-17906484D02*
X9955777Y-17896960D01*
X9955777Y-17896960D02*
X9946253Y-17877912D01*
X9946253Y-17877912D02*
X9946253Y-17801722D01*
X9946253Y-17801722D02*
X9955777Y-17782674D01*
X9955777Y-17782674D02*
X9974825Y-17773150D01*
X9974825Y-17773150D02*
X10012920Y-17773150D01*
X10012920Y-17773150D02*
X10031968Y-17782674D01*
X10031968Y-17782674D02*
X10041492Y-17801722D01*
X10041492Y-17801722D02*
X10041492Y-17820770D01*
X10041492Y-17820770D02*
X9946253Y-17839817D01*
X10108158Y-17982674D02*
X10117682Y-17973150D01*
X10117682Y-17973150D02*
X10136730Y-17944579D01*
X10136730Y-17944579D02*
X10146253Y-17925531D01*
X10146253Y-17925531D02*
X10155777Y-17896960D01*
X10155777Y-17896960D02*
X10165301Y-17849341D01*
X10165301Y-17849341D02*
X10165301Y-17811246D01*
X10165301Y-17811246D02*
X10155777Y-17763627D01*
X10155777Y-17763627D02*
X10146253Y-17735055D01*
X10146253Y-17735055D02*
X10136730Y-17716008D01*
X10136730Y-17716008D02*
X10117682Y-17687436D01*
X10117682Y-17687436D02*
X10108158Y-17677912D01*
X10470063Y-17982674D02*
X10460539Y-17973150D01*
X10460539Y-17973150D02*
X10441492Y-17944579D01*
X10441492Y-17944579D02*
X10431968Y-17925531D01*
X10431968Y-17925531D02*
X10422444Y-17896960D01*
X10422444Y-17896960D02*
X10412920Y-17849341D01*
X10412920Y-17849341D02*
X10412920Y-17811246D01*
X10412920Y-17811246D02*
X10422444Y-17763627D01*
X10422444Y-17763627D02*
X10431968Y-17735055D01*
X10431968Y-17735055D02*
X10441492Y-17716008D01*
X10441492Y-17716008D02*
X10460539Y-17687436D01*
X10460539Y-17687436D02*
X10470063Y-17677912D01*
X10546253Y-17773150D02*
X10546253Y-17906484D01*
X10546253Y-17792198D02*
X10555777Y-17782674D01*
X10555777Y-17782674D02*
X10574825Y-17773150D01*
X10574825Y-17773150D02*
X10603396Y-17773150D01*
X10603396Y-17773150D02*
X10622444Y-17782674D01*
X10622444Y-17782674D02*
X10631968Y-17801722D01*
X10631968Y-17801722D02*
X10631968Y-17906484D01*
X10755777Y-17906484D02*
X10736730Y-17896960D01*
X10736730Y-17896960D02*
X10727206Y-17887436D01*
X10727206Y-17887436D02*
X10717682Y-17868389D01*
X10717682Y-17868389D02*
X10717682Y-17811246D01*
X10717682Y-17811246D02*
X10727206Y-17792198D01*
X10727206Y-17792198D02*
X10736730Y-17782674D01*
X10736730Y-17782674D02*
X10755777Y-17773150D01*
X10755777Y-17773150D02*
X10784349Y-17773150D01*
X10784349Y-17773150D02*
X10803396Y-17782674D01*
X10803396Y-17782674D02*
X10812920Y-17792198D01*
X10812920Y-17792198D02*
X10822444Y-17811246D01*
X10822444Y-17811246D02*
X10822444Y-17868389D01*
X10822444Y-17868389D02*
X10812920Y-17887436D01*
X10812920Y-17887436D02*
X10803396Y-17896960D01*
X10803396Y-17896960D02*
X10784349Y-17906484D01*
X10784349Y-17906484D02*
X10755777Y-17906484D01*
X10879587Y-17773150D02*
X10955777Y-17773150D01*
X10908158Y-17706484D02*
X10908158Y-17877912D01*
X10908158Y-17877912D02*
X10917682Y-17896960D01*
X10917682Y-17896960D02*
X10936730Y-17906484D01*
X10936730Y-17906484D02*
X10955777Y-17906484D01*
X11174825Y-17773150D02*
X11174825Y-17973150D01*
X11174825Y-17782674D02*
X11193872Y-17773150D01*
X11193872Y-17773150D02*
X11231968Y-17773150D01*
X11231968Y-17773150D02*
X11251015Y-17782674D01*
X11251015Y-17782674D02*
X11260539Y-17792198D01*
X11260539Y-17792198D02*
X11270063Y-17811246D01*
X11270063Y-17811246D02*
X11270063Y-17868389D01*
X11270063Y-17868389D02*
X11260539Y-17887436D01*
X11260539Y-17887436D02*
X11251015Y-17896960D01*
X11251015Y-17896960D02*
X11231968Y-17906484D01*
X11231968Y-17906484D02*
X11193872Y-17906484D01*
X11193872Y-17906484D02*
X11174825Y-17896960D01*
X11384349Y-17906484D02*
X11365301Y-17896960D01*
X11365301Y-17896960D02*
X11355777Y-17877912D01*
X11355777Y-17877912D02*
X11355777Y-17706484D01*
X11546253Y-17906484D02*
X11546253Y-17801722D01*
X11546253Y-17801722D02*
X11536730Y-17782674D01*
X11536730Y-17782674D02*
X11517682Y-17773150D01*
X11517682Y-17773150D02*
X11479587Y-17773150D01*
X11479587Y-17773150D02*
X11460539Y-17782674D01*
X11546253Y-17896960D02*
X11527206Y-17906484D01*
X11527206Y-17906484D02*
X11479587Y-17906484D01*
X11479587Y-17906484D02*
X11460539Y-17896960D01*
X11460539Y-17896960D02*
X11451015Y-17877912D01*
X11451015Y-17877912D02*
X11451015Y-17858865D01*
X11451015Y-17858865D02*
X11460539Y-17839817D01*
X11460539Y-17839817D02*
X11479587Y-17830293D01*
X11479587Y-17830293D02*
X11527206Y-17830293D01*
X11527206Y-17830293D02*
X11546253Y-17820770D01*
X11612920Y-17773150D02*
X11689111Y-17773150D01*
X11641492Y-17706484D02*
X11641492Y-17877912D01*
X11641492Y-17877912D02*
X11651015Y-17896960D01*
X11651015Y-17896960D02*
X11670063Y-17906484D01*
X11670063Y-17906484D02*
X11689111Y-17906484D01*
X11831968Y-17896960D02*
X11812920Y-17906484D01*
X11812920Y-17906484D02*
X11774825Y-17906484D01*
X11774825Y-17906484D02*
X11755777Y-17896960D01*
X11755777Y-17896960D02*
X11746253Y-17877912D01*
X11746253Y-17877912D02*
X11746253Y-17801722D01*
X11746253Y-17801722D02*
X11755777Y-17782674D01*
X11755777Y-17782674D02*
X11774825Y-17773150D01*
X11774825Y-17773150D02*
X11812920Y-17773150D01*
X11812920Y-17773150D02*
X11831968Y-17782674D01*
X11831968Y-17782674D02*
X11841492Y-17801722D01*
X11841492Y-17801722D02*
X11841492Y-17820770D01*
X11841492Y-17820770D02*
X11746253Y-17839817D01*
X12012920Y-17906484D02*
X12012920Y-17706484D01*
X12012920Y-17896960D02*
X11993873Y-17906484D01*
X11993873Y-17906484D02*
X11955777Y-17906484D01*
X11955777Y-17906484D02*
X11936730Y-17896960D01*
X11936730Y-17896960D02*
X11927206Y-17887436D01*
X11927206Y-17887436D02*
X11917682Y-17868389D01*
X11917682Y-17868389D02*
X11917682Y-17811246D01*
X11917682Y-17811246D02*
X11927206Y-17792198D01*
X11927206Y-17792198D02*
X11936730Y-17782674D01*
X11936730Y-17782674D02*
X11955777Y-17773150D01*
X11955777Y-17773150D02*
X11993873Y-17773150D01*
X11993873Y-17773150D02*
X12012920Y-17782674D01*
X12089111Y-17982674D02*
X12098634Y-17973150D01*
X12098634Y-17973150D02*
X12117682Y-17944579D01*
X12117682Y-17944579D02*
X12127206Y-17925531D01*
X12127206Y-17925531D02*
X12136730Y-17896960D01*
X12136730Y-17896960D02*
X12146253Y-17849341D01*
X12146253Y-17849341D02*
X12146253Y-17811246D01*
X12146253Y-17811246D02*
X12136730Y-17763627D01*
X12136730Y-17763627D02*
X12127206Y-17735055D01*
X12127206Y-17735055D02*
X12117682Y-17716008D01*
X12117682Y-17716008D02*
X12098634Y-17687436D01*
X12098634Y-17687436D02*
X12089111Y-17677912D01*
M02*
