%TF.GenerationSoftware,KiCad,Pcbnew,8.0.5+1*%
%TF.CreationDate,2024-11-27T03:26:51+08:00*%
%TF.ProjectId,MiniDiv v0.3 - Front,4d696e69-4469-4762-9076-302e33202d20,0.3*%
%TF.SameCoordinates,Original*%
%TF.FileFunction,Copper,L1,Top*%
%TF.FilePolarity,Positive*%
%FSLAX46Y46*%
G04 Gerber Fmt 4.6, Leading zero omitted, Abs format (unit mm)*
G04 Created by KiCad (PCBNEW 8.0.5+1) date 2024-11-27 03:26:51*
%MOMM*%
%LPD*%
G01*
G04 APERTURE LIST*
%TA.AperFunction,WasherPad*%
%ADD10C,7.000000*%
%TD*%
%TA.AperFunction,WasherPad*%
%ADD11C,8.000000*%
%TD*%
%TA.AperFunction,ComponentPad*%
%ADD12O,7.000000X4.200000*%
%TD*%
%TA.AperFunction,ViaPad*%
%ADD13C,3.200000*%
%TD*%
%TA.AperFunction,ViaPad*%
%ADD14C,6.800000*%
%TD*%
G04 APERTURE END LIST*
D10*
%TO.P,REF\u002A\u002A,*%
%TO.N,*%
X78400000Y-144000000D03*
%TD*%
%TO.P,REF\u002A\u002A,*%
%TO.N,*%
X78400000Y-124000000D03*
%TD*%
%TO.P,REF\u002A\u002A,*%
%TO.N,*%
X78400000Y-114000000D03*
%TD*%
%TO.P,REF\u002A\u002A,*%
%TO.N,*%
X61600000Y-154000000D03*
%TD*%
%TO.P,REF\u002A\u002A,*%
%TO.N,*%
X78200000Y-61500000D03*
%TD*%
D11*
%TO.P,REF\u002A\u002A,*%
%TO.N,*%
X61800000Y-76500000D03*
%TD*%
D10*
%TO.P,REF\u002A\u002A,*%
%TO.N,*%
X78400000Y-134000000D03*
%TD*%
%TO.P,REF\u002A\u002A,*%
%TO.N,*%
X61600000Y-134000000D03*
%TD*%
%TO.P,REF\u002A\u002A,*%
%TO.N,*%
X78400000Y-154000000D03*
%TD*%
%TO.P,REF\u002A\u002A,*%
%TO.N,*%
X61800000Y-61500000D03*
%TD*%
D12*
%TO.P,REF\u002A\u002A,*%
%TO.N,*%
X62500000Y-43000000D03*
X62500000Y-165500000D03*
%TD*%
D10*
%TO.P,REF\u002A\u002A,*%
%TO.N,*%
X61600000Y-144000000D03*
%TD*%
%TO.P,REF\u002A\u002A,*%
%TO.N,*%
X61600000Y-124000000D03*
%TD*%
%TO.P,REF\u002A\u002A,*%
%TO.N,*%
X61600000Y-114000000D03*
%TD*%
D13*
%TO.N,*%
X61800000Y-52700000D03*
D14*
X78200000Y-52700000D03*
%TD*%
%TA.AperFunction,Conductor*%
%TO.N,GND*%
G36*
X59811658Y-40520185D02*
G01*
X59857413Y-40572989D01*
X59867357Y-40642147D01*
X59838332Y-40705703D01*
X59810591Y-40729494D01*
X59588155Y-40869259D01*
X59588153Y-40869260D01*
X59359102Y-41051921D01*
X59151921Y-41259102D01*
X58969260Y-41488153D01*
X58969259Y-41488155D01*
X58813381Y-41736233D01*
X58686264Y-42000193D01*
X58589501Y-42276725D01*
X58589497Y-42276737D01*
X58524304Y-42562368D01*
X58524302Y-42562384D01*
X58491500Y-42853505D01*
X58491500Y-43146494D01*
X58524302Y-43437615D01*
X58524304Y-43437631D01*
X58589497Y-43723262D01*
X58589501Y-43723274D01*
X58686264Y-43999806D01*
X58813381Y-44263766D01*
X58969259Y-44511844D01*
X58969260Y-44511846D01*
X59151921Y-44740897D01*
X59359102Y-44948078D01*
X59588153Y-45130739D01*
X59588156Y-45130740D01*
X59588158Y-45130742D01*
X59836231Y-45286617D01*
X60100197Y-45413737D01*
X60307892Y-45486412D01*
X60376725Y-45510498D01*
X60376737Y-45510502D01*
X60662372Y-45575696D01*
X60953505Y-45608499D01*
X60953506Y-45608500D01*
X60953510Y-45608500D01*
X64046494Y-45608500D01*
X64046494Y-45608499D01*
X64337628Y-45575696D01*
X64623263Y-45510502D01*
X64899803Y-45413737D01*
X65163769Y-45286617D01*
X65411842Y-45130742D01*
X65411846Y-45130739D01*
X65640897Y-44948078D01*
X65640899Y-44948075D01*
X65640904Y-44948072D01*
X65848072Y-44740904D01*
X66030742Y-44511842D01*
X66186617Y-44263769D01*
X66313737Y-43999803D01*
X66410502Y-43723263D01*
X66475696Y-43437628D01*
X66508500Y-43146490D01*
X66508500Y-42853510D01*
X66475696Y-42562372D01*
X66410502Y-42276737D01*
X66313737Y-42000197D01*
X66186617Y-41736231D01*
X66030742Y-41488158D01*
X66030740Y-41488155D01*
X66030739Y-41488153D01*
X65848078Y-41259102D01*
X65640897Y-41051921D01*
X65411846Y-40869260D01*
X65411844Y-40869259D01*
X65189409Y-40729494D01*
X65143118Y-40677159D01*
X65132470Y-40608106D01*
X65160845Y-40544257D01*
X65219234Y-40505885D01*
X65255381Y-40500500D01*
X84375500Y-40500500D01*
X84442539Y-40520185D01*
X84488294Y-40572989D01*
X84499500Y-40624500D01*
X84499500Y-167875500D01*
X84479815Y-167942539D01*
X84427011Y-167988294D01*
X84375500Y-167999500D01*
X65255381Y-167999500D01*
X65188342Y-167979815D01*
X65142587Y-167927011D01*
X65132643Y-167857853D01*
X65161668Y-167794297D01*
X65189409Y-167770506D01*
X65411842Y-167630742D01*
X65411846Y-167630739D01*
X65640897Y-167448078D01*
X65640899Y-167448075D01*
X65640904Y-167448072D01*
X65848072Y-167240904D01*
X66030742Y-167011842D01*
X66186617Y-166763769D01*
X66313737Y-166499803D01*
X66410502Y-166223263D01*
X66475696Y-165937628D01*
X66508500Y-165646490D01*
X66508500Y-165353510D01*
X66475696Y-165062372D01*
X66410502Y-164776737D01*
X66313737Y-164500197D01*
X66186617Y-164236231D01*
X66030742Y-163988158D01*
X66030740Y-163988155D01*
X66030739Y-163988153D01*
X65848078Y-163759102D01*
X65640897Y-163551921D01*
X65411846Y-163369260D01*
X65411844Y-163369259D01*
X65163766Y-163213381D01*
X64899806Y-163086264D01*
X64623274Y-162989501D01*
X64623262Y-162989497D01*
X64337631Y-162924304D01*
X64337615Y-162924302D01*
X64046494Y-162891500D01*
X64046490Y-162891500D01*
X60953510Y-162891500D01*
X60953506Y-162891500D01*
X60662384Y-162924302D01*
X60662368Y-162924304D01*
X60376737Y-162989497D01*
X60376725Y-162989501D01*
X60100193Y-163086264D01*
X59836233Y-163213381D01*
X59588155Y-163369259D01*
X59588153Y-163369260D01*
X59359102Y-163551921D01*
X59151921Y-163759102D01*
X58969260Y-163988153D01*
X58969259Y-163988155D01*
X58813381Y-164236233D01*
X58686264Y-164500193D01*
X58589501Y-164776725D01*
X58589497Y-164776737D01*
X58524304Y-165062368D01*
X58524302Y-165062384D01*
X58491500Y-165353505D01*
X58491500Y-165646494D01*
X58524302Y-165937615D01*
X58524304Y-165937631D01*
X58589497Y-166223262D01*
X58589501Y-166223274D01*
X58686264Y-166499806D01*
X58813381Y-166763766D01*
X58969259Y-167011844D01*
X58969260Y-167011846D01*
X59151921Y-167240897D01*
X59359102Y-167448078D01*
X59588153Y-167630739D01*
X59588155Y-167630740D01*
X59810591Y-167770506D01*
X59856882Y-167822841D01*
X59867530Y-167891894D01*
X59839155Y-167955743D01*
X59780766Y-167994115D01*
X59744619Y-167999500D01*
X55624500Y-167999500D01*
X55557461Y-167979815D01*
X55511706Y-167927011D01*
X55500500Y-167875500D01*
X55500500Y-154000000D01*
X57586666Y-154000000D01*
X57605991Y-154393376D01*
X57605991Y-154393381D01*
X57605992Y-154393385D01*
X57663780Y-154782959D01*
X57759482Y-155165019D01*
X57892155Y-155535816D01*
X57892163Y-155535836D01*
X58060555Y-155891873D01*
X58060558Y-155891878D01*
X58060559Y-155891880D01*
X58263033Y-156229686D01*
X58497655Y-156546037D01*
X58762143Y-156837856D01*
X59053962Y-157102344D01*
X59053968Y-157102349D01*
X59370311Y-157336965D01*
X59708127Y-157539445D01*
X60064164Y-157707837D01*
X60064178Y-157707842D01*
X60064183Y-157707844D01*
X60345516Y-157808506D01*
X60434991Y-157840521D01*
X60817037Y-157936219D01*
X61206624Y-157994009D01*
X61600000Y-158013334D01*
X61993376Y-157994009D01*
X62382963Y-157936219D01*
X62765009Y-157840521D01*
X63135836Y-157707837D01*
X63491873Y-157539445D01*
X63829689Y-157336965D01*
X64146032Y-157102349D01*
X64437856Y-156837856D01*
X64702349Y-156546032D01*
X64936965Y-156229689D01*
X65139445Y-155891873D01*
X65307837Y-155535836D01*
X65440521Y-155165009D01*
X65536219Y-154782963D01*
X65594009Y-154393376D01*
X65613334Y-154000000D01*
X74386666Y-154000000D01*
X74405991Y-154393376D01*
X74405991Y-154393381D01*
X74405992Y-154393385D01*
X74463780Y-154782959D01*
X74559482Y-155165019D01*
X74692155Y-155535816D01*
X74692163Y-155535836D01*
X74860555Y-155891873D01*
X74860558Y-155891878D01*
X74860559Y-155891880D01*
X75063033Y-156229686D01*
X75297655Y-156546037D01*
X75562143Y-156837856D01*
X75853962Y-157102344D01*
X75853968Y-157102349D01*
X76170311Y-157336965D01*
X76508127Y-157539445D01*
X76864164Y-157707837D01*
X76864178Y-157707842D01*
X76864183Y-157707844D01*
X77145516Y-157808506D01*
X77234991Y-157840521D01*
X77617037Y-157936219D01*
X78006624Y-157994009D01*
X78400000Y-158013334D01*
X78793376Y-157994009D01*
X79182963Y-157936219D01*
X79565009Y-157840521D01*
X79935836Y-157707837D01*
X80291873Y-157539445D01*
X80629689Y-157336965D01*
X80946032Y-157102349D01*
X81237856Y-156837856D01*
X81502349Y-156546032D01*
X81736965Y-156229689D01*
X81939445Y-155891873D01*
X82107837Y-155535836D01*
X82240521Y-155165009D01*
X82336219Y-154782963D01*
X82394009Y-154393376D01*
X82413334Y-154000000D01*
X82394009Y-153606624D01*
X82336219Y-153217037D01*
X82240521Y-152834991D01*
X82107837Y-152464164D01*
X81939445Y-152108127D01*
X81736965Y-151770311D01*
X81502349Y-151453968D01*
X81502344Y-151453962D01*
X81237856Y-151162143D01*
X80946037Y-150897655D01*
X80629686Y-150663033D01*
X80291880Y-150460559D01*
X80291878Y-150460558D01*
X80291873Y-150460555D01*
X79935836Y-150292163D01*
X79935816Y-150292155D01*
X79565019Y-150159482D01*
X79565013Y-150159480D01*
X79565009Y-150159479D01*
X79182963Y-150063781D01*
X79182962Y-150063780D01*
X79182959Y-150063780D01*
X78793385Y-150005992D01*
X78793381Y-150005991D01*
X78793376Y-150005991D01*
X78400000Y-149986666D01*
X78006624Y-150005991D01*
X78006618Y-150005991D01*
X78006614Y-150005992D01*
X77617040Y-150063780D01*
X77424497Y-150112009D01*
X77234991Y-150159479D01*
X77234988Y-150159479D01*
X77234980Y-150159482D01*
X76864183Y-150292155D01*
X76864163Y-150292163D01*
X76508119Y-150460559D01*
X76170313Y-150663033D01*
X75853962Y-150897655D01*
X75562143Y-151162143D01*
X75297655Y-151453962D01*
X75063033Y-151770313D01*
X74860559Y-152108119D01*
X74692163Y-152464163D01*
X74692155Y-152464183D01*
X74559482Y-152834980D01*
X74463780Y-153217040D01*
X74405992Y-153606614D01*
X74405991Y-153606624D01*
X74386666Y-154000000D01*
X65613334Y-154000000D01*
X65594009Y-153606624D01*
X65536219Y-153217037D01*
X65440521Y-152834991D01*
X65307837Y-152464164D01*
X65139445Y-152108127D01*
X64936965Y-151770311D01*
X64702349Y-151453968D01*
X64702344Y-151453962D01*
X64437856Y-151162143D01*
X64146037Y-150897655D01*
X63829686Y-150663033D01*
X63491880Y-150460559D01*
X63491878Y-150460558D01*
X63491873Y-150460555D01*
X63135836Y-150292163D01*
X63135816Y-150292155D01*
X62765019Y-150159482D01*
X62765013Y-150159480D01*
X62765009Y-150159479D01*
X62382963Y-150063781D01*
X62382962Y-150063780D01*
X62382959Y-150063780D01*
X61993385Y-150005992D01*
X61993381Y-150005991D01*
X61993376Y-150005991D01*
X61600000Y-149986666D01*
X61206624Y-150005991D01*
X61206618Y-150005991D01*
X61206614Y-150005992D01*
X60817040Y-150063780D01*
X60624497Y-150112009D01*
X60434991Y-150159479D01*
X60434988Y-150159479D01*
X60434980Y-150159482D01*
X60064183Y-150292155D01*
X60064163Y-150292163D01*
X59708119Y-150460559D01*
X59370313Y-150663033D01*
X59053962Y-150897655D01*
X58762143Y-151162143D01*
X58497655Y-151453962D01*
X58263033Y-151770313D01*
X58060559Y-152108119D01*
X57892163Y-152464163D01*
X57892155Y-152464183D01*
X57759482Y-152834980D01*
X57663780Y-153217040D01*
X57605992Y-153606614D01*
X57605991Y-153606624D01*
X57586666Y-154000000D01*
X55500500Y-154000000D01*
X55500500Y-144000000D01*
X57586666Y-144000000D01*
X57605991Y-144393376D01*
X57605991Y-144393381D01*
X57605992Y-144393385D01*
X57663780Y-144782959D01*
X57759482Y-145165019D01*
X57892155Y-145535816D01*
X57892163Y-145535836D01*
X58060555Y-145891873D01*
X58060558Y-145891878D01*
X58060559Y-145891880D01*
X58263033Y-146229686D01*
X58497655Y-146546037D01*
X58762143Y-146837856D01*
X59053962Y-147102344D01*
X59053968Y-147102349D01*
X59370311Y-147336965D01*
X59708127Y-147539445D01*
X60064164Y-147707837D01*
X60064178Y-147707842D01*
X60064183Y-147707844D01*
X60345516Y-147808506D01*
X60434991Y-147840521D01*
X60817037Y-147936219D01*
X61206624Y-147994009D01*
X61600000Y-148013334D01*
X61993376Y-147994009D01*
X62382963Y-147936219D01*
X62765009Y-147840521D01*
X63135836Y-147707837D01*
X63491873Y-147539445D01*
X63829689Y-147336965D01*
X64146032Y-147102349D01*
X64437856Y-146837856D01*
X64702349Y-146546032D01*
X64936965Y-146229689D01*
X65139445Y-145891873D01*
X65307837Y-145535836D01*
X65440521Y-145165009D01*
X65536219Y-144782963D01*
X65594009Y-144393376D01*
X65613334Y-144000000D01*
X74386666Y-144000000D01*
X74405991Y-144393376D01*
X74405991Y-144393381D01*
X74405992Y-144393385D01*
X74463780Y-144782959D01*
X74559482Y-145165019D01*
X74692155Y-145535816D01*
X74692163Y-145535836D01*
X74860555Y-145891873D01*
X74860558Y-145891878D01*
X74860559Y-145891880D01*
X75063033Y-146229686D01*
X75297655Y-146546037D01*
X75562143Y-146837856D01*
X75853962Y-147102344D01*
X75853968Y-147102349D01*
X76170311Y-147336965D01*
X76508127Y-147539445D01*
X76864164Y-147707837D01*
X76864178Y-147707842D01*
X76864183Y-147707844D01*
X77145516Y-147808506D01*
X77234991Y-147840521D01*
X77617037Y-147936219D01*
X78006624Y-147994009D01*
X78400000Y-148013334D01*
X78793376Y-147994009D01*
X79182963Y-147936219D01*
X79565009Y-147840521D01*
X79935836Y-147707837D01*
X80291873Y-147539445D01*
X80629689Y-147336965D01*
X80946032Y-147102349D01*
X81237856Y-146837856D01*
X81502349Y-146546032D01*
X81736965Y-146229689D01*
X81939445Y-145891873D01*
X82107837Y-145535836D01*
X82240521Y-145165009D01*
X82336219Y-144782963D01*
X82394009Y-144393376D01*
X82413334Y-144000000D01*
X82394009Y-143606624D01*
X82336219Y-143217037D01*
X82240521Y-142834991D01*
X82107837Y-142464164D01*
X81939445Y-142108127D01*
X81736965Y-141770311D01*
X81502349Y-141453968D01*
X81502344Y-141453962D01*
X81237856Y-141162143D01*
X80946037Y-140897655D01*
X80629686Y-140663033D01*
X80291880Y-140460559D01*
X80291878Y-140460558D01*
X80291873Y-140460555D01*
X79935836Y-140292163D01*
X79935816Y-140292155D01*
X79565019Y-140159482D01*
X79565013Y-140159480D01*
X79565009Y-140159479D01*
X79182963Y-140063781D01*
X79182962Y-140063780D01*
X79182959Y-140063780D01*
X78793385Y-140005992D01*
X78793381Y-140005991D01*
X78793376Y-140005991D01*
X78400000Y-139986666D01*
X78006624Y-140005991D01*
X78006618Y-140005991D01*
X78006614Y-140005992D01*
X77617040Y-140063780D01*
X77424497Y-140112009D01*
X77234991Y-140159479D01*
X77234988Y-140159479D01*
X77234980Y-140159482D01*
X76864183Y-140292155D01*
X76864163Y-140292163D01*
X76508119Y-140460559D01*
X76170313Y-140663033D01*
X75853962Y-140897655D01*
X75562143Y-141162143D01*
X75297655Y-141453962D01*
X75063033Y-141770313D01*
X74860559Y-142108119D01*
X74692163Y-142464163D01*
X74692155Y-142464183D01*
X74559482Y-142834980D01*
X74463780Y-143217040D01*
X74405992Y-143606614D01*
X74405991Y-143606624D01*
X74386666Y-144000000D01*
X65613334Y-144000000D01*
X65594009Y-143606624D01*
X65536219Y-143217037D01*
X65440521Y-142834991D01*
X65307837Y-142464164D01*
X65139445Y-142108127D01*
X64936965Y-141770311D01*
X64702349Y-141453968D01*
X64702344Y-141453962D01*
X64437856Y-141162143D01*
X64146037Y-140897655D01*
X63829686Y-140663033D01*
X63491880Y-140460559D01*
X63491878Y-140460558D01*
X63491873Y-140460555D01*
X63135836Y-140292163D01*
X63135816Y-140292155D01*
X62765019Y-140159482D01*
X62765013Y-140159480D01*
X62765009Y-140159479D01*
X62382963Y-140063781D01*
X62382962Y-140063780D01*
X62382959Y-140063780D01*
X61993385Y-140005992D01*
X61993381Y-140005991D01*
X61993376Y-140005991D01*
X61600000Y-139986666D01*
X61206624Y-140005991D01*
X61206618Y-140005991D01*
X61206614Y-140005992D01*
X60817040Y-140063780D01*
X60624497Y-140112009D01*
X60434991Y-140159479D01*
X60434988Y-140159479D01*
X60434980Y-140159482D01*
X60064183Y-140292155D01*
X60064163Y-140292163D01*
X59708119Y-140460559D01*
X59370313Y-140663033D01*
X59053962Y-140897655D01*
X58762143Y-141162143D01*
X58497655Y-141453962D01*
X58263033Y-141770313D01*
X58060559Y-142108119D01*
X57892163Y-142464163D01*
X57892155Y-142464183D01*
X57759482Y-142834980D01*
X57663780Y-143217040D01*
X57605992Y-143606614D01*
X57605991Y-143606624D01*
X57586666Y-144000000D01*
X55500500Y-144000000D01*
X55500500Y-134000000D01*
X57586666Y-134000000D01*
X57605991Y-134393376D01*
X57605991Y-134393381D01*
X57605992Y-134393385D01*
X57663780Y-134782959D01*
X57759482Y-135165019D01*
X57892155Y-135535816D01*
X57892163Y-135535836D01*
X58060555Y-135891873D01*
X58060558Y-135891878D01*
X58060559Y-135891880D01*
X58263033Y-136229686D01*
X58497655Y-136546037D01*
X58762143Y-136837856D01*
X59053962Y-137102344D01*
X59053968Y-137102349D01*
X59370311Y-137336965D01*
X59708127Y-137539445D01*
X60064164Y-137707837D01*
X60064178Y-137707842D01*
X60064183Y-137707844D01*
X60345516Y-137808506D01*
X60434991Y-137840521D01*
X60817037Y-137936219D01*
X61206624Y-137994009D01*
X61600000Y-138013334D01*
X61993376Y-137994009D01*
X62382963Y-137936219D01*
X62765009Y-137840521D01*
X63135836Y-137707837D01*
X63491873Y-137539445D01*
X63829689Y-137336965D01*
X64146032Y-137102349D01*
X64437856Y-136837856D01*
X64702349Y-136546032D01*
X64936965Y-136229689D01*
X65139445Y-135891873D01*
X65307837Y-135535836D01*
X65440521Y-135165009D01*
X65536219Y-134782963D01*
X65594009Y-134393376D01*
X65613334Y-134000000D01*
X74386666Y-134000000D01*
X74405991Y-134393376D01*
X74405991Y-134393381D01*
X74405992Y-134393385D01*
X74463780Y-134782959D01*
X74559482Y-135165019D01*
X74692155Y-135535816D01*
X74692163Y-135535836D01*
X74860555Y-135891873D01*
X74860558Y-135891878D01*
X74860559Y-135891880D01*
X75063033Y-136229686D01*
X75297655Y-136546037D01*
X75562143Y-136837856D01*
X75853962Y-137102344D01*
X75853968Y-137102349D01*
X76170311Y-137336965D01*
X76508127Y-137539445D01*
X76864164Y-137707837D01*
X76864178Y-137707842D01*
X76864183Y-137707844D01*
X77145516Y-137808506D01*
X77234991Y-137840521D01*
X77617037Y-137936219D01*
X78006624Y-137994009D01*
X78400000Y-138013334D01*
X78793376Y-137994009D01*
X79182963Y-137936219D01*
X79565009Y-137840521D01*
X79935836Y-137707837D01*
X80291873Y-137539445D01*
X80629689Y-137336965D01*
X80946032Y-137102349D01*
X81237856Y-136837856D01*
X81502349Y-136546032D01*
X81736965Y-136229689D01*
X81939445Y-135891873D01*
X82107837Y-135535836D01*
X82240521Y-135165009D01*
X82336219Y-134782963D01*
X82394009Y-134393376D01*
X82413334Y-134000000D01*
X82394009Y-133606624D01*
X82336219Y-133217037D01*
X82240521Y-132834991D01*
X82107837Y-132464164D01*
X81939445Y-132108127D01*
X81736965Y-131770311D01*
X81502349Y-131453968D01*
X81502344Y-131453962D01*
X81237856Y-131162143D01*
X80946037Y-130897655D01*
X80629686Y-130663033D01*
X80291880Y-130460559D01*
X80291878Y-130460558D01*
X80291873Y-130460555D01*
X79935836Y-130292163D01*
X79935816Y-130292155D01*
X79565019Y-130159482D01*
X79565013Y-130159480D01*
X79565009Y-130159479D01*
X79182963Y-130063781D01*
X79182962Y-130063780D01*
X79182959Y-130063780D01*
X78793385Y-130005992D01*
X78793381Y-130005991D01*
X78793376Y-130005991D01*
X78400000Y-129986666D01*
X78006624Y-130005991D01*
X78006618Y-130005991D01*
X78006614Y-130005992D01*
X77617040Y-130063780D01*
X77424497Y-130112009D01*
X77234991Y-130159479D01*
X77234988Y-130159479D01*
X77234980Y-130159482D01*
X76864183Y-130292155D01*
X76864163Y-130292163D01*
X76508119Y-130460559D01*
X76170313Y-130663033D01*
X75853962Y-130897655D01*
X75562143Y-131162143D01*
X75297655Y-131453962D01*
X75063033Y-131770313D01*
X74860559Y-132108119D01*
X74692163Y-132464163D01*
X74692155Y-132464183D01*
X74559482Y-132834980D01*
X74463780Y-133217040D01*
X74405992Y-133606614D01*
X74405991Y-133606624D01*
X74386666Y-134000000D01*
X65613334Y-134000000D01*
X65594009Y-133606624D01*
X65536219Y-133217037D01*
X65440521Y-132834991D01*
X65307837Y-132464164D01*
X65139445Y-132108127D01*
X64936965Y-131770311D01*
X64702349Y-131453968D01*
X64702344Y-131453962D01*
X64437856Y-131162143D01*
X64146037Y-130897655D01*
X63829686Y-130663033D01*
X63491880Y-130460559D01*
X63491878Y-130460558D01*
X63491873Y-130460555D01*
X63135836Y-130292163D01*
X63135816Y-130292155D01*
X62765019Y-130159482D01*
X62765013Y-130159480D01*
X62765009Y-130159479D01*
X62382963Y-130063781D01*
X62382962Y-130063780D01*
X62382959Y-130063780D01*
X61993385Y-130005992D01*
X61993381Y-130005991D01*
X61993376Y-130005991D01*
X61600000Y-129986666D01*
X61206624Y-130005991D01*
X61206618Y-130005991D01*
X61206614Y-130005992D01*
X60817040Y-130063780D01*
X60624497Y-130112009D01*
X60434991Y-130159479D01*
X60434988Y-130159479D01*
X60434980Y-130159482D01*
X60064183Y-130292155D01*
X60064163Y-130292163D01*
X59708119Y-130460559D01*
X59370313Y-130663033D01*
X59053962Y-130897655D01*
X58762143Y-131162143D01*
X58497655Y-131453962D01*
X58263033Y-131770313D01*
X58060559Y-132108119D01*
X57892163Y-132464163D01*
X57892155Y-132464183D01*
X57759482Y-132834980D01*
X57663780Y-133217040D01*
X57605992Y-133606614D01*
X57605991Y-133606624D01*
X57586666Y-134000000D01*
X55500500Y-134000000D01*
X55500500Y-124000000D01*
X57586666Y-124000000D01*
X57605991Y-124393376D01*
X57605991Y-124393381D01*
X57605992Y-124393385D01*
X57663780Y-124782959D01*
X57759482Y-125165019D01*
X57892155Y-125535816D01*
X57892163Y-125535836D01*
X58060555Y-125891873D01*
X58060558Y-125891878D01*
X58060559Y-125891880D01*
X58263033Y-126229686D01*
X58497655Y-126546037D01*
X58762143Y-126837856D01*
X59053962Y-127102344D01*
X59053968Y-127102349D01*
X59370311Y-127336965D01*
X59708127Y-127539445D01*
X60064164Y-127707837D01*
X60064178Y-127707842D01*
X60064183Y-127707844D01*
X60345516Y-127808506D01*
X60434991Y-127840521D01*
X60817037Y-127936219D01*
X61206624Y-127994009D01*
X61600000Y-128013334D01*
X61993376Y-127994009D01*
X62382963Y-127936219D01*
X62765009Y-127840521D01*
X63135836Y-127707837D01*
X63491873Y-127539445D01*
X63829689Y-127336965D01*
X64146032Y-127102349D01*
X64437856Y-126837856D01*
X64702349Y-126546032D01*
X64936965Y-126229689D01*
X65139445Y-125891873D01*
X65307837Y-125535836D01*
X65440521Y-125165009D01*
X65536219Y-124782963D01*
X65594009Y-124393376D01*
X65613334Y-124000000D01*
X74386666Y-124000000D01*
X74405991Y-124393376D01*
X74405991Y-124393381D01*
X74405992Y-124393385D01*
X74463780Y-124782959D01*
X74559482Y-125165019D01*
X74692155Y-125535816D01*
X74692163Y-125535836D01*
X74860555Y-125891873D01*
X74860558Y-125891878D01*
X74860559Y-125891880D01*
X75063033Y-126229686D01*
X75297655Y-126546037D01*
X75562143Y-126837856D01*
X75853962Y-127102344D01*
X75853968Y-127102349D01*
X76170311Y-127336965D01*
X76508127Y-127539445D01*
X76864164Y-127707837D01*
X76864178Y-127707842D01*
X76864183Y-127707844D01*
X77145516Y-127808506D01*
X77234991Y-127840521D01*
X77617037Y-127936219D01*
X78006624Y-127994009D01*
X78400000Y-128013334D01*
X78793376Y-127994009D01*
X79182963Y-127936219D01*
X79565009Y-127840521D01*
X79935836Y-127707837D01*
X80291873Y-127539445D01*
X80629689Y-127336965D01*
X80946032Y-127102349D01*
X81237856Y-126837856D01*
X81502349Y-126546032D01*
X81736965Y-126229689D01*
X81939445Y-125891873D01*
X82107837Y-125535836D01*
X82240521Y-125165009D01*
X82336219Y-124782963D01*
X82394009Y-124393376D01*
X82413334Y-124000000D01*
X82394009Y-123606624D01*
X82336219Y-123217037D01*
X82240521Y-122834991D01*
X82107837Y-122464164D01*
X81939445Y-122108127D01*
X81736965Y-121770311D01*
X81502349Y-121453968D01*
X81502344Y-121453962D01*
X81237856Y-121162143D01*
X80946037Y-120897655D01*
X80629686Y-120663033D01*
X80291880Y-120460559D01*
X80291878Y-120460558D01*
X80291873Y-120460555D01*
X79935836Y-120292163D01*
X79935816Y-120292155D01*
X79565019Y-120159482D01*
X79565013Y-120159480D01*
X79565009Y-120159479D01*
X79182963Y-120063781D01*
X79182962Y-120063780D01*
X79182959Y-120063780D01*
X78793385Y-120005992D01*
X78793381Y-120005991D01*
X78793376Y-120005991D01*
X78400000Y-119986666D01*
X78006624Y-120005991D01*
X78006618Y-120005991D01*
X78006614Y-120005992D01*
X77617040Y-120063780D01*
X77424497Y-120112009D01*
X77234991Y-120159479D01*
X77234988Y-120159479D01*
X77234980Y-120159482D01*
X76864183Y-120292155D01*
X76864163Y-120292163D01*
X76508119Y-120460559D01*
X76170313Y-120663033D01*
X75853962Y-120897655D01*
X75562143Y-121162143D01*
X75297655Y-121453962D01*
X75063033Y-121770313D01*
X74860559Y-122108119D01*
X74692163Y-122464163D01*
X74692155Y-122464183D01*
X74559482Y-122834980D01*
X74463780Y-123217040D01*
X74405992Y-123606614D01*
X74405991Y-123606624D01*
X74386666Y-124000000D01*
X65613334Y-124000000D01*
X65594009Y-123606624D01*
X65536219Y-123217037D01*
X65440521Y-122834991D01*
X65307837Y-122464164D01*
X65139445Y-122108127D01*
X64936965Y-121770311D01*
X64702349Y-121453968D01*
X64702344Y-121453962D01*
X64437856Y-121162143D01*
X64146037Y-120897655D01*
X63829686Y-120663033D01*
X63491880Y-120460559D01*
X63491878Y-120460558D01*
X63491873Y-120460555D01*
X63135836Y-120292163D01*
X63135816Y-120292155D01*
X62765019Y-120159482D01*
X62765013Y-120159480D01*
X62765009Y-120159479D01*
X62382963Y-120063781D01*
X62382962Y-120063780D01*
X62382959Y-120063780D01*
X61993385Y-120005992D01*
X61993381Y-120005991D01*
X61993376Y-120005991D01*
X61600000Y-119986666D01*
X61206624Y-120005991D01*
X61206618Y-120005991D01*
X61206614Y-120005992D01*
X60817040Y-120063780D01*
X60624497Y-120112009D01*
X60434991Y-120159479D01*
X60434988Y-120159479D01*
X60434980Y-120159482D01*
X60064183Y-120292155D01*
X60064163Y-120292163D01*
X59708119Y-120460559D01*
X59370313Y-120663033D01*
X59053962Y-120897655D01*
X58762143Y-121162143D01*
X58497655Y-121453962D01*
X58263033Y-121770313D01*
X58060559Y-122108119D01*
X57892163Y-122464163D01*
X57892155Y-122464183D01*
X57759482Y-122834980D01*
X57663780Y-123217040D01*
X57605992Y-123606614D01*
X57605991Y-123606624D01*
X57586666Y-124000000D01*
X55500500Y-124000000D01*
X55500500Y-114000000D01*
X57586666Y-114000000D01*
X57605991Y-114393376D01*
X57605991Y-114393381D01*
X57605992Y-114393385D01*
X57663780Y-114782959D01*
X57759482Y-115165019D01*
X57892155Y-115535816D01*
X57892163Y-115535836D01*
X58060555Y-115891873D01*
X58060558Y-115891878D01*
X58060559Y-115891880D01*
X58263033Y-116229686D01*
X58497655Y-116546037D01*
X58762143Y-116837856D01*
X59053962Y-117102344D01*
X59053968Y-117102349D01*
X59370311Y-117336965D01*
X59708127Y-117539445D01*
X60064164Y-117707837D01*
X60064178Y-117707842D01*
X60064183Y-117707844D01*
X60345516Y-117808506D01*
X60434991Y-117840521D01*
X60817037Y-117936219D01*
X61206624Y-117994009D01*
X61600000Y-118013334D01*
X61993376Y-117994009D01*
X62382963Y-117936219D01*
X62765009Y-117840521D01*
X63135836Y-117707837D01*
X63491873Y-117539445D01*
X63829689Y-117336965D01*
X64146032Y-117102349D01*
X64437856Y-116837856D01*
X64702349Y-116546032D01*
X64936965Y-116229689D01*
X65139445Y-115891873D01*
X65307837Y-115535836D01*
X65440521Y-115165009D01*
X65536219Y-114782963D01*
X65594009Y-114393376D01*
X65613334Y-114000000D01*
X74386666Y-114000000D01*
X74405991Y-114393376D01*
X74405991Y-114393381D01*
X74405992Y-114393385D01*
X74463780Y-114782959D01*
X74559482Y-115165019D01*
X74692155Y-115535816D01*
X74692163Y-115535836D01*
X74860555Y-115891873D01*
X74860558Y-115891878D01*
X74860559Y-115891880D01*
X75063033Y-116229686D01*
X75297655Y-116546037D01*
X75562143Y-116837856D01*
X75853962Y-117102344D01*
X75853968Y-117102349D01*
X76170311Y-117336965D01*
X76508127Y-117539445D01*
X76864164Y-117707837D01*
X76864178Y-117707842D01*
X76864183Y-117707844D01*
X77145516Y-117808506D01*
X77234991Y-117840521D01*
X77617037Y-117936219D01*
X78006624Y-117994009D01*
X78400000Y-118013334D01*
X78793376Y-117994009D01*
X79182963Y-117936219D01*
X79565009Y-117840521D01*
X79935836Y-117707837D01*
X80291873Y-117539445D01*
X80629689Y-117336965D01*
X80946032Y-117102349D01*
X81237856Y-116837856D01*
X81502349Y-116546032D01*
X81736965Y-116229689D01*
X81939445Y-115891873D01*
X82107837Y-115535836D01*
X82240521Y-115165009D01*
X82336219Y-114782963D01*
X82394009Y-114393376D01*
X82413334Y-114000000D01*
X82394009Y-113606624D01*
X82336219Y-113217037D01*
X82240521Y-112834991D01*
X82107837Y-112464164D01*
X81939445Y-112108127D01*
X81736965Y-111770311D01*
X81502349Y-111453968D01*
X81502344Y-111453962D01*
X81237856Y-111162143D01*
X80946037Y-110897655D01*
X80629686Y-110663033D01*
X80291880Y-110460559D01*
X80291878Y-110460558D01*
X80291873Y-110460555D01*
X79935836Y-110292163D01*
X79935816Y-110292155D01*
X79565019Y-110159482D01*
X79565013Y-110159480D01*
X79565009Y-110159479D01*
X79182963Y-110063781D01*
X79182962Y-110063780D01*
X79182959Y-110063780D01*
X78793385Y-110005992D01*
X78793381Y-110005991D01*
X78793376Y-110005991D01*
X78400000Y-109986666D01*
X78006624Y-110005991D01*
X78006618Y-110005991D01*
X78006614Y-110005992D01*
X77617040Y-110063780D01*
X77424497Y-110112009D01*
X77234991Y-110159479D01*
X77234988Y-110159479D01*
X77234980Y-110159482D01*
X76864183Y-110292155D01*
X76864163Y-110292163D01*
X76508119Y-110460559D01*
X76170313Y-110663033D01*
X75853962Y-110897655D01*
X75562143Y-111162143D01*
X75297655Y-111453962D01*
X75063033Y-111770313D01*
X74860559Y-112108119D01*
X74692163Y-112464163D01*
X74692155Y-112464183D01*
X74559482Y-112834980D01*
X74463780Y-113217040D01*
X74405992Y-113606614D01*
X74405991Y-113606624D01*
X74386666Y-114000000D01*
X65613334Y-114000000D01*
X65594009Y-113606624D01*
X65536219Y-113217037D01*
X65440521Y-112834991D01*
X65307837Y-112464164D01*
X65139445Y-112108127D01*
X64936965Y-111770311D01*
X64702349Y-111453968D01*
X64702344Y-111453962D01*
X64437856Y-111162143D01*
X64146037Y-110897655D01*
X63829686Y-110663033D01*
X63491880Y-110460559D01*
X63491878Y-110460558D01*
X63491873Y-110460555D01*
X63135836Y-110292163D01*
X63135816Y-110292155D01*
X62765019Y-110159482D01*
X62765013Y-110159480D01*
X62765009Y-110159479D01*
X62382963Y-110063781D01*
X62382962Y-110063780D01*
X62382959Y-110063780D01*
X61993385Y-110005992D01*
X61993381Y-110005991D01*
X61993376Y-110005991D01*
X61600000Y-109986666D01*
X61206624Y-110005991D01*
X61206618Y-110005991D01*
X61206614Y-110005992D01*
X60817040Y-110063780D01*
X60624497Y-110112009D01*
X60434991Y-110159479D01*
X60434988Y-110159479D01*
X60434980Y-110159482D01*
X60064183Y-110292155D01*
X60064163Y-110292163D01*
X59708119Y-110460559D01*
X59370313Y-110663033D01*
X59053962Y-110897655D01*
X58762143Y-111162143D01*
X58497655Y-111453962D01*
X58263033Y-111770313D01*
X58060559Y-112108119D01*
X57892163Y-112464163D01*
X57892155Y-112464183D01*
X57759482Y-112834980D01*
X57663780Y-113217040D01*
X57605992Y-113606614D01*
X57605991Y-113606624D01*
X57586666Y-114000000D01*
X55500500Y-114000000D01*
X55500500Y-76500000D01*
X57286684Y-76500000D01*
X57305937Y-76916436D01*
X57305937Y-76916442D01*
X57305938Y-76916444D01*
X57363532Y-77329320D01*
X57363533Y-77329325D01*
X57458976Y-77735125D01*
X57591462Y-78130409D01*
X57591463Y-78130413D01*
X57759836Y-78511739D01*
X57759841Y-78511749D01*
X57759845Y-78511758D01*
X57759849Y-78511766D01*
X57759850Y-78511767D01*
X57962696Y-78875947D01*
X57962700Y-78875954D01*
X58198297Y-79219884D01*
X58464609Y-79540589D01*
X58464619Y-79540601D01*
X58759399Y-79835381D01*
X58759410Y-79835390D01*
X59080115Y-80101702D01*
X59424045Y-80337299D01*
X59788242Y-80540155D01*
X59788259Y-80540162D01*
X59788260Y-80540163D01*
X60169586Y-80708536D01*
X60169590Y-80708537D01*
X60169592Y-80708537D01*
X60169602Y-80708542D01*
X60564872Y-80841023D01*
X60970680Y-80936468D01*
X61383564Y-80994063D01*
X61800000Y-81013316D01*
X62216436Y-80994063D01*
X62629320Y-80936468D01*
X63035128Y-80841023D01*
X63430398Y-80708542D01*
X63430409Y-80708536D01*
X63430413Y-80708536D01*
X63665108Y-80604907D01*
X63811758Y-80540155D01*
X64175955Y-80337299D01*
X64519881Y-80101704D01*
X64519880Y-80101704D01*
X64519884Y-80101702D01*
X64628081Y-80011854D01*
X64840601Y-79835381D01*
X65135381Y-79540601D01*
X65401704Y-79219881D01*
X65637299Y-78875955D01*
X65840155Y-78511758D01*
X65904907Y-78365108D01*
X66008536Y-78130413D01*
X66008537Y-78130409D01*
X66008542Y-78130398D01*
X66141023Y-77735128D01*
X66236468Y-77329320D01*
X66294063Y-76916436D01*
X66313316Y-76500000D01*
X66294063Y-76083564D01*
X66236468Y-75670680D01*
X66141023Y-75264872D01*
X66008542Y-74869602D01*
X66008537Y-74869590D01*
X66008536Y-74869586D01*
X65840163Y-74488260D01*
X65840162Y-74488259D01*
X65840155Y-74488242D01*
X65637299Y-74124045D01*
X65401702Y-73780115D01*
X65135390Y-73459410D01*
X65135381Y-73459399D01*
X64840601Y-73164619D01*
X64840589Y-73164609D01*
X64519884Y-72898297D01*
X64175954Y-72662700D01*
X64175947Y-72662696D01*
X63811767Y-72459850D01*
X63811766Y-72459849D01*
X63811758Y-72459845D01*
X63811749Y-72459841D01*
X63811739Y-72459836D01*
X63430413Y-72291463D01*
X63430409Y-72291462D01*
X63430400Y-72291459D01*
X63430398Y-72291458D01*
X63035128Y-72158977D01*
X63035127Y-72158976D01*
X63035125Y-72158976D01*
X62629325Y-72063533D01*
X62629320Y-72063532D01*
X62216444Y-72005938D01*
X62216442Y-72005937D01*
X62216436Y-72005937D01*
X61800000Y-71986684D01*
X61383564Y-72005937D01*
X61383557Y-72005937D01*
X61383555Y-72005938D01*
X60970679Y-72063532D01*
X60970674Y-72063533D01*
X60564874Y-72158976D01*
X60169590Y-72291462D01*
X60169586Y-72291463D01*
X59788260Y-72459836D01*
X59788232Y-72459850D01*
X59424052Y-72662696D01*
X59424045Y-72662700D01*
X59080115Y-72898297D01*
X58759410Y-73164609D01*
X58759390Y-73164627D01*
X58464627Y-73459390D01*
X58464609Y-73459410D01*
X58198297Y-73780115D01*
X57962700Y-74124045D01*
X57962696Y-74124052D01*
X57759850Y-74488232D01*
X57759836Y-74488260D01*
X57591463Y-74869586D01*
X57591462Y-74869590D01*
X57458976Y-75264874D01*
X57363533Y-75670674D01*
X57363532Y-75670680D01*
X57305937Y-76083564D01*
X57286684Y-76500000D01*
X55500500Y-76500000D01*
X55500500Y-61500000D01*
X57786666Y-61500000D01*
X57805991Y-61893376D01*
X57805991Y-61893381D01*
X57805992Y-61893385D01*
X57863780Y-62282959D01*
X57959482Y-62665019D01*
X58092155Y-63035816D01*
X58092163Y-63035836D01*
X58260555Y-63391873D01*
X58260558Y-63391878D01*
X58260559Y-63391880D01*
X58463033Y-63729686D01*
X58697655Y-64046037D01*
X58962143Y-64337856D01*
X59253962Y-64602344D01*
X59253968Y-64602349D01*
X59570311Y-64836965D01*
X59908127Y-65039445D01*
X60264164Y-65207837D01*
X60264178Y-65207842D01*
X60264183Y-65207844D01*
X60545516Y-65308506D01*
X60634991Y-65340521D01*
X61017037Y-65436219D01*
X61406624Y-65494009D01*
X61800000Y-65513334D01*
X62193376Y-65494009D01*
X62582963Y-65436219D01*
X62965009Y-65340521D01*
X63335836Y-65207837D01*
X63691873Y-65039445D01*
X64029689Y-64836965D01*
X64346032Y-64602349D01*
X64637856Y-64337856D01*
X64902349Y-64046032D01*
X65136965Y-63729689D01*
X65339445Y-63391873D01*
X65507837Y-63035836D01*
X65640521Y-62665009D01*
X65736219Y-62282963D01*
X65794009Y-61893376D01*
X65813334Y-61500000D01*
X74186666Y-61500000D01*
X74205991Y-61893376D01*
X74205991Y-61893381D01*
X74205992Y-61893385D01*
X74263780Y-62282959D01*
X74359482Y-62665019D01*
X74492155Y-63035816D01*
X74492163Y-63035836D01*
X74660555Y-63391873D01*
X74660558Y-63391878D01*
X74660559Y-63391880D01*
X74863033Y-63729686D01*
X75097655Y-64046037D01*
X75362143Y-64337856D01*
X75653962Y-64602344D01*
X75653968Y-64602349D01*
X75970311Y-64836965D01*
X76308127Y-65039445D01*
X76664164Y-65207837D01*
X76664178Y-65207842D01*
X76664183Y-65207844D01*
X76945516Y-65308506D01*
X77034991Y-65340521D01*
X77417037Y-65436219D01*
X77806624Y-65494009D01*
X78200000Y-65513334D01*
X78593376Y-65494009D01*
X78982963Y-65436219D01*
X79365009Y-65340521D01*
X79735836Y-65207837D01*
X80091873Y-65039445D01*
X80429689Y-64836965D01*
X80746032Y-64602349D01*
X81037856Y-64337856D01*
X81302349Y-64046032D01*
X81536965Y-63729689D01*
X81739445Y-63391873D01*
X81907837Y-63035836D01*
X82040521Y-62665009D01*
X82136219Y-62282963D01*
X82194009Y-61893376D01*
X82213334Y-61500000D01*
X82194009Y-61106624D01*
X82136219Y-60717037D01*
X82040521Y-60334991D01*
X81907837Y-59964164D01*
X81739445Y-59608127D01*
X81536965Y-59270311D01*
X81302349Y-58953968D01*
X81302344Y-58953962D01*
X81037856Y-58662143D01*
X80746037Y-58397655D01*
X80429686Y-58163033D01*
X80091880Y-57960559D01*
X80091878Y-57960558D01*
X80091873Y-57960555D01*
X79735836Y-57792163D01*
X79735816Y-57792155D01*
X79365019Y-57659482D01*
X79365013Y-57659480D01*
X79365009Y-57659479D01*
X78982963Y-57563781D01*
X78982962Y-57563780D01*
X78982959Y-57563780D01*
X78593385Y-57505992D01*
X78593381Y-57505991D01*
X78593376Y-57505991D01*
X78200000Y-57486666D01*
X77806624Y-57505991D01*
X77806618Y-57505991D01*
X77806614Y-57505992D01*
X77417040Y-57563780D01*
X77224497Y-57612009D01*
X77034991Y-57659479D01*
X77034988Y-57659479D01*
X77034980Y-57659482D01*
X76664183Y-57792155D01*
X76664163Y-57792163D01*
X76308119Y-57960559D01*
X75970313Y-58163033D01*
X75653962Y-58397655D01*
X75362143Y-58662143D01*
X75097655Y-58953962D01*
X74863033Y-59270313D01*
X74660559Y-59608119D01*
X74492163Y-59964163D01*
X74492155Y-59964183D01*
X74359482Y-60334980D01*
X74263780Y-60717040D01*
X74205992Y-61106614D01*
X74205991Y-61106624D01*
X74186666Y-61500000D01*
X65813334Y-61500000D01*
X65794009Y-61106624D01*
X65736219Y-60717037D01*
X65640521Y-60334991D01*
X65507837Y-59964164D01*
X65339445Y-59608127D01*
X65136965Y-59270311D01*
X64902349Y-58953968D01*
X64902344Y-58953962D01*
X64637856Y-58662143D01*
X64346037Y-58397655D01*
X64029686Y-58163033D01*
X63691880Y-57960559D01*
X63691878Y-57960558D01*
X63691873Y-57960555D01*
X63335836Y-57792163D01*
X63335816Y-57792155D01*
X62965019Y-57659482D01*
X62965013Y-57659480D01*
X62965009Y-57659479D01*
X62582963Y-57563781D01*
X62582962Y-57563780D01*
X62582959Y-57563780D01*
X62193385Y-57505992D01*
X62193381Y-57505991D01*
X62193376Y-57505991D01*
X61800000Y-57486666D01*
X61406624Y-57505991D01*
X61406618Y-57505991D01*
X61406614Y-57505992D01*
X61017040Y-57563780D01*
X60824497Y-57612009D01*
X60634991Y-57659479D01*
X60634988Y-57659479D01*
X60634980Y-57659482D01*
X60264183Y-57792155D01*
X60264163Y-57792163D01*
X59908119Y-57960559D01*
X59570313Y-58163033D01*
X59253962Y-58397655D01*
X58962143Y-58662143D01*
X58697655Y-58953962D01*
X58463033Y-59270313D01*
X58260559Y-59608119D01*
X58092163Y-59964163D01*
X58092155Y-59964183D01*
X57959482Y-60334980D01*
X57863780Y-60717040D01*
X57805992Y-61106614D01*
X57805991Y-61106624D01*
X57786666Y-61500000D01*
X55500500Y-61500000D01*
X55500500Y-52700000D01*
X59686573Y-52700000D01*
X59706257Y-52987778D01*
X59706258Y-52987780D01*
X59764941Y-53270185D01*
X59764946Y-53270201D01*
X59842274Y-53487781D01*
X59861541Y-53541992D01*
X59994247Y-53798103D01*
X60160591Y-54033758D01*
X60160595Y-54033762D01*
X60160595Y-54033763D01*
X60312515Y-54196429D01*
X60356309Y-54243321D01*
X60357477Y-54244571D01*
X60581228Y-54426606D01*
X60827686Y-54576481D01*
X60827688Y-54576482D01*
X60827690Y-54576483D01*
X60880080Y-54599239D01*
X61092256Y-54691400D01*
X61370011Y-54769223D01*
X61621243Y-54803753D01*
X61655774Y-54808500D01*
X61655775Y-54808500D01*
X61944226Y-54808500D01*
X61975033Y-54804265D01*
X62229989Y-54769223D01*
X62507744Y-54691400D01*
X62772314Y-54576481D01*
X63018772Y-54426606D01*
X63242526Y-54244568D01*
X63439409Y-54033758D01*
X63605753Y-53798103D01*
X63738459Y-53541992D01*
X63835055Y-53270196D01*
X63835055Y-53270191D01*
X63835058Y-53270185D01*
X63871269Y-53095924D01*
X63893742Y-52987778D01*
X63913427Y-52700000D01*
X74286477Y-52700000D01*
X74306555Y-53095924D01*
X74333253Y-53270196D01*
X74366587Y-53487786D01*
X74380622Y-53541992D01*
X74465956Y-53871572D01*
X74603634Y-54243314D01*
X74603640Y-54243329D01*
X74778223Y-54599239D01*
X74778224Y-54599240D01*
X74987923Y-54935671D01*
X75230583Y-55249161D01*
X75503712Y-55536493D01*
X75804506Y-55794717D01*
X75804509Y-55794719D01*
X76129887Y-56021189D01*
X76476507Y-56213579D01*
X76840813Y-56369915D01*
X76840816Y-56369916D01*
X76840821Y-56369918D01*
X77219055Y-56488589D01*
X77219058Y-56488589D01*
X77219066Y-56488592D01*
X77607384Y-56568394D01*
X77922903Y-56600478D01*
X78001782Y-56608500D01*
X78001783Y-56608500D01*
X78398218Y-56608500D01*
X78463950Y-56601815D01*
X78792616Y-56568394D01*
X79180934Y-56488592D01*
X79180944Y-56488589D01*
X79559178Y-56369918D01*
X79559179Y-56369917D01*
X79559187Y-56369915D01*
X79923493Y-56213579D01*
X80270113Y-56021189D01*
X80595491Y-55794719D01*
X80896288Y-55536493D01*
X81169417Y-55249161D01*
X81412077Y-54935671D01*
X81621776Y-54599240D01*
X81796363Y-54243321D01*
X81934046Y-53871564D01*
X82033413Y-53487786D01*
X82093444Y-53095925D01*
X82113523Y-52700000D01*
X82093444Y-52304075D01*
X82033413Y-51912214D01*
X81934046Y-51528436D01*
X81796363Y-51156679D01*
X81795751Y-51155432D01*
X81621776Y-50800760D01*
X81515825Y-50630778D01*
X81412077Y-50464329D01*
X81169417Y-50150839D01*
X80896288Y-49863507D01*
X80896287Y-49863506D01*
X80595493Y-49605282D01*
X80270113Y-49378811D01*
X80270108Y-49378808D01*
X79923492Y-49186420D01*
X79559178Y-49030081D01*
X79180944Y-48911410D01*
X79180938Y-48911409D01*
X79180935Y-48911408D01*
X79180934Y-48911408D01*
X78792616Y-48831606D01*
X78792615Y-48831605D01*
X78792611Y-48831605D01*
X78398218Y-48791500D01*
X78398217Y-48791500D01*
X78001783Y-48791500D01*
X78001782Y-48791500D01*
X77607388Y-48831605D01*
X77219061Y-48911409D01*
X77219055Y-48911410D01*
X76840821Y-49030081D01*
X76476507Y-49186420D01*
X76129891Y-49378808D01*
X76129886Y-49378811D01*
X75804506Y-49605282D01*
X75503712Y-49863506D01*
X75230578Y-50150844D01*
X74987926Y-50464324D01*
X74778223Y-50800760D01*
X74603640Y-51156670D01*
X74603634Y-51156685D01*
X74465956Y-51528427D01*
X74366586Y-51912218D01*
X74306555Y-52304075D01*
X74286477Y-52700000D01*
X63913427Y-52700000D01*
X63893742Y-52412222D01*
X63871269Y-52304075D01*
X63835058Y-52129814D01*
X63835053Y-52129798D01*
X63757725Y-51912218D01*
X63738459Y-51858008D01*
X63605753Y-51601897D01*
X63439409Y-51366242D01*
X63439404Y-51366236D01*
X63243696Y-51156685D01*
X63242526Y-51155432D01*
X63242524Y-51155431D01*
X63242522Y-51155428D01*
X63018771Y-50973393D01*
X62772309Y-50823516D01*
X62507745Y-50708600D01*
X62229995Y-50630778D01*
X62229990Y-50630777D01*
X62229989Y-50630777D01*
X62087107Y-50611138D01*
X61944226Y-50591500D01*
X61944225Y-50591500D01*
X61655775Y-50591500D01*
X61655774Y-50591500D01*
X61370011Y-50630777D01*
X61370004Y-50630778D01*
X61092254Y-50708600D01*
X60827690Y-50823516D01*
X60581228Y-50973393D01*
X60357477Y-51155428D01*
X60160595Y-51366236D01*
X60160595Y-51366237D01*
X59994247Y-51601896D01*
X59861540Y-51858009D01*
X59764946Y-52129798D01*
X59764941Y-52129814D01*
X59706258Y-52412219D01*
X59706257Y-52412221D01*
X59686573Y-52700000D01*
X55500500Y-52700000D01*
X55500500Y-40624500D01*
X55520185Y-40557461D01*
X55572989Y-40511706D01*
X55624500Y-40500500D01*
X59744619Y-40500500D01*
X59811658Y-40520185D01*
G37*
%TD.AperFunction*%
%TD*%
M02*
